<?xml version="1.0" standalone="no"?>
<!DOCTYPE svg PUBLIC "-//W3C//DTD SVG 1.1//EN" "http://www.w3.org/Graphics/SVG/1.1/DTD/svg11.dtd" >
<svg xmlns="http://www.w3.org/2000/svg">
<metadata>
This is a custom SVG webfont generated by Font Squirrel.
Copyright   :  1997 1998 1999 2004 Adobe Systems Incorporated All rights reserved Protected by US Patents D407108 D426570
Designer    : Richard Lipton
Foundry URL : httpwwwadobecomtype
</metadata>
<defs>
<font id="BickhamScriptProSemibold" horiz-adv-x="686" >
<font-face units-per-em="2048" ascent="1393" descent="-655" />
<missing-glyph horiz-adv-x="313" />
<glyph unicode=" "  horiz-adv-x="313" />
<glyph unicode="&#x09;" horiz-adv-x="313" />
<glyph unicode="&#xa0;" horiz-adv-x="313" />
<glyph unicode="!" horiz-adv-x="540" d="M45 70q16 47 98 47q31 0 39 -19.5t-12 -46.5q-23 -29 -61.5 -48t-61.5 -21q-22 35 -2 88zM186 182q-6 2 17 31q154 195 284 393q59 88 187 88q25 0 24 -10q-2 -12 -39 -61q-121 -152 -442 -428q-23 -19 -31 -13z" />
<glyph unicode="&#x22;" horiz-adv-x="460" d="M195 510q-6 4 8 27q33 55 96 151q25 43 94.5 43t9.5 -53q-100 -90 -184 -156q-18 -14 -24 -12zM403 510q-6 4 9 27q33 55 96 151q25 43 94.5 43t9.5 -53q-135 -117 -184 -156q-19 -14 -25 -12z" />
<glyph unicode="#" horiz-adv-x="778" d="M41 -47q-6 6 12 31q53 74 160 213h-100q-43 0 -43 18q0 20 49 21h121q66 86 90 116h-117q-45 0 -45 17q0 23 49 22q23 0 71 -1t68 -1q16 20 49 64.5t48 64.5q27 35 44 46t50 11q18 0 18 -8q0 -12 -37 -57q-20 -25 -54 -66t-46 -55q74 0 172 -6q31 41 117 152q29 35 45 46 t47 11q25 0 25 -10q-2 -14 -39 -58q-72 -86 -121 -141q16 -2 56 -3t58 -1q35 0 35 -8.5t-32 -8.5q-23 0 -70 -1t-66 -3q-8 -10 -46 -57t-60 -74q20 0 73.5 -1t67.5 -1q33 0 33 -8q0 -10 -31 -10q-115 -4 -164 -4q-66 -78 -188 -217q-25 -25 -33 -19q-6 4 10 31q8 12 62.5 85 t87.5 118q-33 -2 -95.5 -3t-97.5 -1q-164 -186 -198 -226q-23 -28 -35 -18zM305 233q39 0 182 -4q10 14 97 127q-102 -4 -181 -4z" />
<glyph unicode="$" horiz-adv-x="520" d="M23 156q6 31 26.5 47t44.5 12q43 -6 33 -49q-4 -16 -20.5 -34.5t-16.5 -29.5q-4 -37 43 -45l152 211q-37 113 -17 176q23 61 87.5 96t156.5 33q16 20 27 37q35 51 51 41q12 -6 -19 -49l-24 -33q78 -27 61 -92q-6 -20 -23.5 -33.5t-33.5 -11.5q-45 8 -25 51 q6 12 17.5 26.5t11.5 22.5q-2 14 -20 21l-148 -203q49 -123 16 -192q-27 -55 -93 -87t-140 -36q-12 0 -16 2q-33 -45 -48 -62q-14 -18 -22 -12q-10 4 4 27l33 49q-49 8 -77.5 41t-20.5 76zM168 55h18q70 10 103 68q23 47 8 106zM375 387l125 170q-37 0 -73 -24.5t-48 -59.5 q-14 -39 -4 -86z" />
<glyph unicode="%" horiz-adv-x="878" d="M106 289q0 70 66 139q74 76 186 90q25 2 25 -4q0 -2 -4 -4t-13.5 -6t-15.5 -8q-39 -25 -94 -97q-61 -82 -70 -129q-6 -39 21 -41q49 -6 119 88q57 76 75 142q10 27 0 43q-2 4 -5 6t-5 3t-2 3q4 10 27 2q6 -2 12 -5l10 -5q37 -23 99 -17q92 10 163 70q8 6 21.5 18.5 t21 17.5t19.5 11t26 8q37 4 35 -10t-37 -47q-350 -324 -612 -627q-23 -27 -31 -20q-8 8 13 35q266 336 495 563q-61 -29 -112 -35q-53 -6 -88 12q10 -20 4 -51q-14 -66 -88 -143q-78 -82 -168 -82q-89 0 -93 80zM477 68q0 70 64 137q35 35 92 62.5t98 27.5q20 4 21 -4 q0 -2 -3.5 -4t-11.5 -6l-16 -9q-47 -33 -94 -94q-61 -82 -70 -131q-6 -35 21 -41q51 -6 116 88q61 86 78 142q10 31 0 43q-2 4 -7 7t-5 5q4 10 28 2q43 -14 37 -64q-4 -74 -88 -161q-78 -80 -170 -80q-90 0 -90 80z" />
<glyph unicode="&#x26;" horiz-adv-x="974" d="M70 82q16 88 170 176q25 12 69.5 35.5t65.5 34.5q-20 66 -6 123t72.5 105t129.5 44q35 -2 53.5 -28.5t6.5 -69.5q-4 -14 -15.5 -30.5t-22.5 -28t-30.5 -27t-30 -22.5l-31.5 -21l-28 -19q18 -49 82 -137q45 41 129 123t119 115q174 158 284 157q49 0 75 -26.5t18 -69.5 q-6 -33 -33 -58.5t-55 -19.5q-37 6 -25 76q6 47 -33 49q-61 6 -217 -133q-35 -31 -77 -69.5t-93 -87t-80 -74.5q113 -160 84 -297q-23 -113 -128 -186.5t-255 -73.5q-96 0 -127 59q-14 31 -4 35q2 0 4 -2t5.5 -10.5t7.5 -14.5q35 -43 110 -43q88 0 156.5 66.5t87.5 161.5 q20 117 -39 231q-166 -135 -315 -135q-41 0 -66.5 23.5t-17.5 68.5zM203 113q-2 -27 13 -42.5t48 -15.5q84 0 195 90q-53 94 -76 162q-84 -57 -113 -86q-61 -59 -67 -108zM465 453q-8 -43 2 -80q106 72 131 129q10 27 1 46t-32 19q-35 0 -63.5 -33.5t-38.5 -80.5z" />
<glyph unicode="'" horiz-adv-x="249" d="M190 510q-8 6 9 27q33 55 96 151q25 43 96 43q31 0 34 -13t-26 -40q-135 -117 -184 -156q-19 -14 -25 -12z" />
<glyph unicode="(" horiz-adv-x="552" d="M172 83q-2 99 33 215t104 214q254 356 738 434q23 4 22 -2q2 -2 -2 -4t-16 -6q-385 -117 -633 -467q-209 -297 -203 -637q0 -16 -4 -18t-6 3t-4 13q-12 39 -19.5 97.5t-9.5 157.5z" />
<glyph unicode=")" horiz-adv-x="552" d="M-219 -176q0 2 18 8q139 47 296 166t288 317q174 268 156 623q0 16 2 16q6 0 12 -14q16 -51 27.5 -107.5t19.5 -152.5t-19.5 -204.5t-88.5 -205.5q-78 -121 -184.5 -212t-211 -138t-172 -69.5t-121.5 -30.5q-22 -4 -22 4z" />
<glyph unicode="*" horiz-adv-x="473" d="M248 735.5q0 16.5 43 16.5q41 0 88 -7q-18 37 -39 86q-12 39 0 46q14 10 39 -27q14 -16 55 -90q33 33 101 94q31 27 45 18q14 -10 -13 -45q-25 -33 -82 -94q78 -10 101 -16q37 -8 37 -23q0 -12 -41 -12q-76 0 -109 2q33 -74 39 -90q14 -41 -2 -45q-10 -4 -29 22 q-41 61 -59 97q-51 -51 -109 -105q-27 -27 -41 -16q-12 8 15 45q63 78 88 102q-63 10 -90 17q-37 8 -37 24.5z" />
<glyph unicode="+" horiz-adv-x="753" d="M97 247q-1 5 1 11q12 33 49 29q18 0 101.5 -2t130.5 -4q23 31 68 91t61 83q39 57 94 57q20 0 29.5 -4t4.5 -18.5t-28 -43.5q-8 -10 -57 -68.5t-84 -98.5q33 -2 108.5 -5.5t112.5 -5.5q27 -4 27 -10q-2 -8 -37 -12q-90 -4 -246 -8q-160 -178 -215 -238q-25 -29 -37 -23 q-12 2 6 31q27 41 86.5 124t73.5 104h-205q-20 0 -31.5 3t-12.5 8z" />
<glyph unicode="," horiz-adv-x="282" d="M-68 -123q-2 2 21 27q57 57 84 110q6 10 1 32t-3 30q14 41 123 49q33 4 32 -19q0 -20 -24 -47q-78 -90 -203 -170q-29 -18 -31 -12z" />
<glyph unicode="-" horiz-adv-x="524" d="M66 182q2 2 12 -2q16 -6 37 -2q41 4 108 45q51 33 99 33q53 0 78.5 -34t21.5 -85q0 -12 -6 -12q-4 0 -10 6q-23 31 -91 31q-27 0 -78 -10.5t-92 -10.5q-55 0 -77 29q-6 6 -2 12z" />
<glyph unicode="." horiz-adv-x="282" d="M39 74q18 51 104 51q35 0 43.5 -20.5t-16.5 -49.5q-23 -29 -63.5 -49t-65.5 -24q-25 33 -2 92z" />
<glyph unicode="/" horiz-adv-x="489" d="M-98 -174q-6 6 16 33q502 578 719 835q78 90 176 90q43 0 -6 -55q-8 -10 -21 -22q-256 -268 -854 -871q-18 -18 -30 -10z" />
<glyph unicode="0" horiz-adv-x="606" d="M29 135q16 125 129 238q74 74 158.5 120t156.5 50h24q9 0 14 -3t5 -5l-6 -3q-6 -4 -18.5 -10t-24.5 -14q-84 -59 -176 -174q-121 -147 -139 -246q-14 -74 34 -80q80 -14 222 164q123 156 151 274q14 49 -6 70q-6 8 -27 19q0 10 25 6q47 2 71.5 -43t10.5 -109 q-27 -119 -150 -252q-145 -156 -309 -155h-2q-80 0 -115.5 42.5t-27.5 110.5z" />
<glyph unicode="1" horiz-adv-x="430" d="M-14 -18q2 12 43 67q82 106 200.5 240.5t165.5 169.5q-106 -70 -172 -103q-25 -12 -54.5 -20t-44.5 -9t-22 3q-2 4 1 6t20 8q49 20 100 47q96 47 183 101q104 59 139 59q27 0 -8 -45q-4 -6 -15 -19q-168 -203 -311 -405q-43 -61 -68.5 -75.5t-128.5 -31.5q-28 -3 -28 7z " />
<glyph unicode="2" horiz-adv-x="575" d="M-106 -4q4 12 32 31q14 10 219 114q111 57 198 135t108 144q10 35 -6.5 57.5t-51.5 22.5q-76 4 -141 -49q-59 -41 -72 -99q-6 -33 12.5 -50t49.5 -9q8 0 10 -2q4 -6 -12 -12q-23 -12 -50 -9q-68 8 -59 70q12 61 109 129q106 76 219 76q74 0 112.5 -35t22.5 -102 q-29 -113 -225 -209q-27 -12 -289 -111q35 8 84 8q39 0 97 -16.5t75 -16.5q70 0 143 78q10 16 19 11q4 -4 -4 -17q-39 -47 -65 -74.5t-66.5 -53t-79.5 -25.5q-55 0 -121 28q-66 31 -109 31q-72 0 -110 -29q-10 -6 -18.5 -13t-13.5 -12t-7 -5q-6 -2 -10 1t0 13z" />
<glyph unicode="3" horiz-adv-x="540" d="M-47 88q4 37 35.5 63.5t72.5 26.5q29 0 43.5 -15.5t10.5 -33.5q-2 -27 -39 -49q-39 -25 -41 -37q-4 -20 13.5 -32.5t49.5 -10.5q51 2 112.5 46t108.5 134q18 33 17.5 68t-25.5 37q-18 2 -51 -13q-6 -2 -14 -7t-10.5 -6t-6.5 1q-10 18 33 35q88 33 144.5 82t54.5 92 q0 35 -49 39q-57 4 -109 -29q-47 -31 -61 -76q-10 -25 -2 -45q2 -4 6 -8q4 -6 0 -8q-2 -2 -14.5 0t-20.5 8q-27 20 -16 53q12 47 96 93q92 49 182 49q119 0 123 -74q4 -82 -121 -127q-66 -25 -145 -39q70 -4 104 -31q59 -41 33 -112q-31 -88 -150 -135q-106 -45 -227 -45 q-66 2 -105.5 29.5t-31.5 76.5z" />
<glyph unicode="4" horiz-adv-x="610" d="M-63 66q-4 12 32 36q180 135 273 197q160 113 270 178q115 70 182 70h2q14 0 15.5 -5t-9.5 -18q-123 -147 -319 -418q68 -6 78 -8q16 -4 24.5 -9t6.5 -13q-2 -2 -39 -2q-31 2 -91 2q-98 -127 -141 -189q-33 -47 -58.5 -61t-103.5 -25q-33 -4 -32 6q0 12 36 66 q10 16 150 201q-119 0 -164 -4q-33 -2 -86 -11q-24 -3 -26 7zM6 94q84 12 230 12q53 70 164.5 196t158.5 171l-4 4q-94 -53 -301 -198q-135 -94 -248 -183v-2z" />
<glyph unicode="5" horiz-adv-x="552" d="M-53 86q4 39 33.5 63.5t68.5 24.5q25 0 42.5 -12t14.5 -39q0 -27 -34 -49q-27 -18 -29 -39q0 -35 61 -35q82 0 155 63.5t89 153.5q8 39 -12.5 62.5t-52.5 25.5q-31 2 -62 -12q-20 -10 -41 -31q-23 -23 -35 -14q-16 12 21 45q59 55 108 110q55 63 109 148q6 14 16 14h2 q4 0 23 -14q45 -25 78 -33q41 -10 80 -10q25 0 57 12q16 8 18 8q6 -4 -6 -24q-18 -33 -63 -55q-53 -33 -125 -29q-84 4 -123 31q-55 -74 -133 -148l2 -2q47 33 115 33q78 0 128 -37t37 -104q-18 -90 -141 -150.5t-246 -60.5q-68 0 -114.5 26.5t-40.5 77.5z" />
<glyph unicode="6" horiz-adv-x="593" d="M45 109v2q0 135 158 292q111 115 259 188t275 64q96 -6 123 -65q10 -20 0 -27q-2 0 -4 1t-5 6t-5 8q-33 53 -107 53q-166 0 -426 -275q-154 -164 -168 -288q-6 -63 45 -66q84 -6 191 156q43 63 52 112t-21 60q-37 10 -99 -29q-14 -10 -18 -4t16 20q66 49 129 43 q80 -4 99.5 -75.5t-37.5 -153.5q-49 -70 -139.5 -112t-167.5 -37q-150 6 -150 127z" />
<glyph unicode="7" horiz-adv-x="460" d="M-110.5 -69.5q-10.5 8.5 26.5 44.5q285 262 639 502q-152 -66 -270 -65q-55 0 -83 22.5t-20 59.5q10 39 54 63q27 14 53 14q8 0 8 -2q2 -4 -4 -8q-4 -6 -6 -10q-6 -14 1 -26.5t32.5 -20.5t68.5 -8q123 0 209 24q39 18 41 4q2 -4 -5 -9t-24 -13q-326 -309 -530 -543 q-14 -14 -121 -29q-59 -8 -69.5 0.5z" />
<glyph unicode="8" horiz-adv-x="550" d="M10 119q8 57 69.5 111.5t158.5 91.5q47 16 49 8q0 -2 -5.5 -6.5t-15.5 -9.5t-16 -9q-100 -70 -127 -174q-29 -113 61 -119q66 -8 115 49.5t49 128.5q0 29 -37 125q-35 76 -30 131q6 82 93 144.5t179 62.5q68 0 102.5 -35.5t24.5 -89.5q-18 -100 -176 -157 q-49 -20 -51 -13q0 4 4 8.5t14 9.5t12 7q86 57 105 145q8 39 -9.5 67t-54.5 28h-2q-43 0 -78.5 -29t-44.5 -70q-12 -68 33 -166q49 -109 33 -172q-18 -84 -111.5 -144t-195.5 -60q-78 2 -119 36.5t-29 100.5z" />
<glyph unicode="9" horiz-adv-x="587" d="M-289 -150q-8 23 2 27q4 2 11 -10q2 -2 2 -4q27 -51 100 -51h2q117 0 274 116q63 47 134 123t116 142q131 188 140 272q8 57 -31 59q-41 6 -98.5 -36t-110.5 -119q-41 -61 -48 -111.5t23 -58.5q41 -12 101 32q27 18 28 17q8 -8 -24 -33q-66 -51 -129 -43q-80 8 -95.5 80 t39.5 149q53 76 144.5 113t163.5 31q49 -2 84.5 -31t42.5 -78q14 -129 -119 -301q-115 -147 -304.5 -252.5t-328.5 -95.5q-94 6 -119 63z" />
<glyph unicode=":" horiz-adv-x="356" d="M47 74q18 51 105 51h2q33 0 40 -20.5t-15.5 -49t-63.5 -49t-66 -24.5q-25 33 -2 92zM154 229.5q0 28.5 10 53.5q18 51 102 51h2q33 0 40 -20.5t-15.5 -49t-63.5 -49t-65 -25.5q-10 11 -10 39.5z" />
<glyph unicode=";" horiz-adv-x="356" d="M-59 -123q-4 4 18 27q59 55 84 110q6 10 2 32t-2 30q14 41 123 49q31 2 31 -19v-2q0 -16 -23 -45q-86 -100 -205 -170q-26 -16 -28 -12zM154 229.5q0 28.5 10 53.5q18 51 102 51h2q33 0 40 -20.5t-15.5 -49t-63.5 -49t-65 -25.5q-10 11 -10 39.5z" />
<glyph unicode="&#x3c;" horiz-adv-x="577" d="M80 264v2q0 10 47 27q203 76 479 176q23 8 27 0q6 -10 -25 -25q-285 -133 -399 -184q53 -35 145 -98.5t105 -71.5q23 -14 14 -27q-8 -8 -24 0q-217 111 -343 177q-26 14 -26 24z" />
<glyph unicode="=" horiz-adv-x="804" d="M79 205q-1 6 1 12q10 39 51 35q346 -12 590 -23q29 0 29 -12v-2q0 -14 -39 -14q-188 -4 -584 -13q-23 0 -35 5.5t-13 11.5zM162 356q8 35 53 35q391 -14 586 -22q31 0 30 -15v-2q0 -10 -38 -12q-324 -10 -584 -12q-33 0 -42 8t-5 20z" />
<glyph unicode="&#x3e;" horiz-adv-x="577" d="M-2 61q-4 12 25 25q219 102 397 184q-182 123 -246 170q-20 18 -16 27q6 10 26 0q45 -25 156 -81t184 -95q25 -10 25 -25v-2q0 -10 -43 -26q-102 -37 -260 -96.5t-221 -82.5q-25 -10 -27 2z" />
<glyph unicode="?" horiz-adv-x="540" d="M45 70q20 47 98 47h2q31 0 38 -19.5t-13 -46.5q-23 -29 -61.5 -48t-61.5 -21q-22 35 -2 88zM133 199.5q2 15.5 8 29.5q31 53 117 107q197 125 227 231q10 35 -4 58.5t-47 23.5q-66 0 -131 -49q-45 -31 -64.5 -82t-0.5 -82q2 -4 6 -8t7 -6t3 -4q0 -6 -23 -2q-66 12 -51 78 q16 61 109 122q111 74 219 74h2q70 0 105.5 -34.5t25.5 -94.5q-25 -133 -250 -215q-109 -39 -145 -61q-51 -31 -66 -60q-16 -59 -37 -59q-6 0 -9 9t-1 24.5z" />
<glyph unicode="@" horiz-adv-x="1026" d="M116.5 229.5q10.5 73.5 63.5 141.5q72 88 196 140t267 52h2q117 0 189.5 -54t70.5 -128q-4 -57 -47 -115q10 -20 10 -45q0 -72 -47 -129q-55 -68 -159.5 -107.5t-231.5 -37.5q-111 2 -187.5 44t-106.5 103.5t-19.5 135zM200.5 183q-10.5 -89 50 -151.5t185.5 -66.5 q111 -2 208 40t155 106q45 53 45 108v14l-2 9q-27 -31 -64 -56q-88 -68 -174 -67q-59 0 -67 41q-4 23 14 51h-2q-88 -84 -172 -86q-37 0 -58.5 14.5t-19.5 46.5q8 74 125 148q92 59 178 55q51 -2 47 -51h2q27 31 43.5 38t44.5 7q37 0 39 -6q2 -4 -8 -17q-109 -135 -127 -167 q-14 -31 10 -37q16 -4 53 10t64 37q37 29 61 71q-6 16 -20 31q-10 10 -8 14q4 4 20 -8l17 -16q18 45 18 88q0 68 -57.5 115t-157.5 47h-2q-111 0 -205 -54.5t-155 -132.5q-70 -86 -80.5 -175zM395 166q0 -14 17 -14q43 0 118 65q96 84 103 129q2 27 -25 27h-2 q-35 0 -133 -94q-78 -78 -78 -113z" />
<glyph unicode="A" horiz-adv-x="1460" d="M35 115v2q0 57 35.5 94t79.5 39h7q36 0 57 -19q24 -20 22 -53q0 -31 -50 -67q-35 -27 -34 -52q0 -35 49 -55q35 -15 92 -15q23 0 49 3q188 16 414 172q-49 39 -88 102q-37 60 -37 128q0 99 70 168q69 67 178 67q154 0 235 -158q41 41 88 82q182 174 314 246 q147 78 264 78q80 0 104 -25q6 -6 10 -12t4 -10.5t-2 -6.5q-2 0 -4 1t-6 5.5t-10 8.5q-16 12 -45 12q-37 0 -66 -23q-74 -57 -168 -192q-188 -262 -380 -576q55 4 118 39q53 27 115 82q25 25 33 19q8 -8 -19 -31q-61 -57 -123 -88q-72 -37 -135 -41q-37 -43 -131 -53 q-27 -4 -40 0t-11 12l4 16q2 6 9 17.5t7 13.5q-61 6 -143 35q-76 31 -125 67q-227 -166 -440 -182q-26 -2 -51 -2q-94 0 -163 31q-87 39 -87 121zM733 397v-19q0 -106 64 -181q43 33 149 122q45 41 148 134q-72 133 -193 133h-2q-76 0 -119 -55.5t-47 -133.5zM811 178 q31 -37 109 -74q66 -29 135 -38q10 16 28.5 47.5t22.5 38.5q21 42 21 132q0 15 -1 31q-4 72 -22 117q-27 -25 -77 -70t-69 -61q-57 -51 -147 -123zM1124 451q20 -55 25 -123q1 -16 1 -31q0 -53 -11 -98q158 242 252 356q184 233 391 301v2q-117 0 -256 -76 q-109 -59 -275 -209q-90 -85 -127 -122z" />
<glyph unicode="B" horiz-adv-x="1423" d="M-12 98q-2 14 -2 29q0 86 70 195q83 127 272 258q180 123 400 191q208 65 382 65h20q8 0 26 -1t22 -1q119 72 221 108q109 39 209 39h10q109 -4 143 -55q7 -8 7 -13q0 -4 -5 -6l-10 11q-39 45 -133 45q-109 0 -199 -41q-80 -33 -159 -103q162 -42 162 -149q0 -13 -3 -27 q-16 -82 -109 -133t-200 -57v-2q106 -8 170 -58q60 -46 60 -110q0 -130 -142 -218q-133 -83 -315 -83q-80 0 -130 30q-42 26 -42 74q0 10 2 20q8 49 50 81t93 32q31 0 50.5 -15.5t17.5 -41.5q0 -45 -62 -74q-49 -23 -53 -45q-2 -20 20.5 -32.5t53.5 -12.5q104 0 202 95 q105 101 105 228q0 58 -44 90q-43 30 -79 30q-4 0 -8 -1q-29 -8 -51 -8q-25 0 -36 5t-9 16q2 16 49 16q31 0 59 -8q66 10 130.5 64.5t84.5 121.5q7 25 7 46q0 64 -64 100q-14 -12 -39 -37q-27 -27 -58.5 -66t-55 -70.5t-67.5 -92t-73 -97.5q-150 -203 -344.5 -337 t-370.5 -134q-212 0 -235 139zM100 106q0 -59 34 -94t93 -35q82 0 167 58.5t133 114t147 186.5q18 25 28 37q160 209 383 395q35 27 62 43q-12 4 -39 4h-19q-156 0 -346 -62q-201 -67 -354 -188q-152 -121 -220.5 -241t-68.5 -218z" />
<glyph unicode="C" horiz-adv-x="835" d="M41 143v12q0 123 83 247q87 130 241 239q-51 61 -52 129q0 84 70 138.5t172 54.5h2q178 0 266 -129q53 12 111 12h20q90 0 158 -34q67 -33 67 -101q0 -9 -1 -19q-6 -66 -77 -113t-157 -67t-170 -20q-217 0 -325 77q-106 -94 -175 -212.5t-69 -213.5q0 -179 184 -178h17 q139 4 290 111q35 23 129 106q31 27 37 21q6 -8 -24 -35q-96 -88 -140 -119q-162 -111 -317 -121q-24 -2 -47 -1q-121 0 -198 45q-91 54 -95 171zM340 770q0 -70 41 -117q195 121 405 172q-33 45 -97 77t-134 32h-2q-90 0 -151.5 -44t-61.5 -120zM463 584q106 -72 313 -72h2 q113 0 204 49t105 139q1 11 2 21q0 50 -35 77q-42 32 -120 31q-59 0 -103 -14q25 -45 29 -113v-23q0 -11 -1 -19.5t-2 -14.5t-2 -8t-3 -2t-3 6t-2 21.5t-3 29.5q-10 68 -45 113q-78 -25 -176.5 -90t-159.5 -131z" />
<glyph unicode="D" horiz-adv-x="1501" d="M134 58q29 0 63 -1q86 0 282 -28q49 14 92 37.5t89.5 68.5t69 69.5t76.5 95.5t68 87q82 100 187.5 190.5t187.5 141.5q-162 129 -448 129q-242 0 -424 -131t-184 -303q-4 -154 153 -164q10 -1 21 -1q147 0 268 109q113 106 113 199v2q0 41 -26 65.5t-65 26.5h-5 q-69 0 -126 -53q-8 -6 -14 -13t-10 -11.5t-6 -8.5t-4.5 -5t-4.5 -1q-2 2 0 8t10.5 18.5t20.5 24.5q64 64 140 64h10q47 -2 81.5 -33t38.5 -84q1 -10 1 -19q0 -118 -117 -214q-57 -45 -148 -71q-78 -22 -155 -22h-25q-113 4 -190.5 55.5t-77.5 141.5q0 178 225 308t500 130 q289 0 475 -129q78 45 137 66q106 39 209 39q76 0 119 -33q8 -6 12 -13.5t5 -11.5q0 -1 1 -2q0 -2 -2 -4q-2 0 -3 2t-7 8.5t-16 12.5q-37 20 -103 20q-88 0 -192 -43q-78 -33 -125 -71q113 -94 144 -230q11 -45 11 -87q0 -85 -43 -159q-145 -250 -661 -249q-156 0 -303 16 q-78 -14 -230 -14h-67h-107q-35 0 -76.5 3t-58.5 10q-15 6 -14 17q-1 44 228 44zM518 23q123 -20 213 -21q164 0 307.5 68.5t233.5 205.5q70 100 74 218v14q0 107 -58 178q-47 -45 -134 -167t-124 -165q-111 -137 -233.5 -211.5t-278.5 -119.5z" />
<glyph unicode="E" horiz-adv-x="845" d="M70 158q14 82 88.5 149.5t159.5 104.5t176 57q-25 31 -25 80v2q0 63 45 121q-86 66 -84 147q4 59 53 96t127 37q154 0 256 -108q75 9 133 8h23q100 -4 162 -42q59 -37 59 -86q0 -70 -98 -120q-96 -49 -219 -49q-166 0 -291 55q-20 -29 -29 -59q-7 -25 -7 -47q0 -9 1 -17 q40 5 78 5h24q109 -4 109 -47q0 -46 -113 -46q-133 0 -194 56q-78 -31 -154 -101q-102 -94 -119 -196q-6 -27 -5 -51q0 -58 36 -94q47 -46 139 -46h15q139 8 284 105q23 16 50.5 38.5t55.5 46t38 31.5q18 18 26 11q6 -6 -22 -31q-74 -70 -148 -121q-162 -109 -323 -121 q-23 -1 -45 -1q-130 0 -201 52q-66 49 -65 135q0 22 4 46zM452 812q0 -69 74 -126q41 51 127 88q76 41 170 62q-102 98 -215 98q-70 0 -110 -31q-46 -34 -46 -91zM604 471q12 -47 96 -51q8 0 16 -1q56 0 58 27q2 12 -18.5 19.5t-53.5 9.5l-32 2zM645 629q109 -53 277 -54h2 q98 0 179 41t83 105q4 43 -35 76.5t-123 36.5h-10q-63 0 -129 -25q27 -45 31 -86q2 -12 3 -22.5t1 -18.5t-1 -14t-3 -8.5t-4.5 -2.5t-2.5 4.5t-3 18.5t-9 33q-10 47 -45 84q-68 -35 -121 -76q-41 -31 -90 -92z" />
<glyph unicode="F" horiz-adv-x="1181" d="M41 115q0 49 32.5 86t86.5 37q41 0 63.5 -24t20.5 -56q-4 -35 -33 -66q-27 -27 -27 -49q0 -57 107 -61q8 0 16 -1q204 0 385 199q72 76 125 152q-88 0 -112 -2q-23 0 -48 -4q-14 -2 -14 2q4 18 78 24h110q47 66 105 127q139 150 297 244q-84 12 -205 39q-225 43 -328 43 h-2q-348 0 -397 -205q-5 -22 -5 -43q0 -45 21 -89q31 -65 119 -103l27 -13q-4 -10 -39 2q-88 31 -134 103q-38 59 -38 125q0 15 2 30q16 117 142 198q123 79 303 79h10q137 0 346 -58q152 -43 250 -65q133 57 235 57q57 0 95 -17.5t34 -49.5q-2 -61 -168 -62q-82 0 -186 15 q-57 -49 -139 -148q-35 -41 -86.5 -108.5t-77.5 -100.5q16 -1 31 0q75 0 124 17q53 71 99 71q7 0 14 -2q20 -5 20 -18q0 -16 -32 -45q-6 -6 -15 -13q-74 -59 -106 -94l-33 -32q-6 2 -4 18t8 33q14 37 33 57q-51 -14 -156 -14q-25 -33 -47 -56q-129 -143 -309 -228t-340 -85 q-111 0 -183.5 41t-74.5 113zM1366 750q109 -29 184 -29q39 0 68 11q31 12 31 31q0 40 -111 40h-2q-88 0 -170 -53z" />
<glyph unicode="G" horiz-adv-x="1019" d="M76 -336q88 53 210 112.5t203 112.5l177 240q-152 -150 -316 -152h-10q-187 0 -203 150q-2 16 -2 32q0 136 125 290q-117 78 -117 194q0 119 98.5 187.5t237.5 68.5q164 0 285 -96q203 70 344 70q4 0 8 -1q166 0 166 -120q2 -84 -68.5 -164t-187.5 -142q-96 -49 -230 -72 q-100 -17 -190 -18q-31 0 -61 2q-70 2 -142 27q-96 -137 -106 -254q-1 -7 -1 -14q0 -44 22 -73q26 -34 75 -36h3q132 0 333 207q63 63 148 64q31 0 36 -6.5t-10 -26.5q-88 -117 -102 -135q-14 -20 -51 -68.5t-70 -91.5v-2q102 53 205 131q68 51 133 110q27 16 29 15 q8 -8 -27 -39q-47 -43 -121 -98q-94 -72 -242 -152q-121 -174 -251 -330q-123 -141 -281 -236t-266 -95q-49 0 -76 21q-25 20 -25 59q0 133 318 329zM-162 -666q0 -49 47 -53q7 -1 15 -1q47 0 112 42q115 74 262 266q94 129 193 265q-49 -31 -156.5 -89.5t-212.5 -125.5 q-96 -61 -176 -146q-84 -89 -84 -158zM168 643q0 -104 104 -180q86 102 183 170q131 96 264 147q-109 86 -258 86h-2q-121 0 -206 -58.5t-85 -164.5zM414 399q55 -16 121 -18q11 0 22 -1q87 0 202 29q130 32 234 87q109 59 188 129.5t76 128.5q0 96 -137 96q-154 0 -319 -90 q33 -51 43 -107q6 -29 7 -53.5t-5 -24.5q-2 0 -3 4.5t-8.5 24l-17.5 45.5q-23 57 -55 86q-121 -82 -213 -170q-69 -70 -135 -166z" />
<glyph unicode="H" horiz-adv-x="1406" d="M-51 123q0 47 32.5 81t81.5 34q37 0 60 -25q19 -21 19 -49q0 -5 -1 -10q-2 -35 -32 -62q-27 -25 -27 -51q2 -59 90 -59q39 0 82 14t75.5 30.5t77 54.5t69 59.5t68.5 72.5t57 67.5t57 73t47 60.5q-88 0 -150 -2q-41 0 -39 12q0 6 59 12q47 6 152 10q217 256 414 340 q-69 -24 -279 -23q-79 0 -178 3q-17 1 -34 0q-184 0 -305 -60q-132 -67 -146 -198q-2 -17 -2 -33q0 -142 149 -190q25 -10 25 -13q-4 -10 -39 0q-92 27 -149 97q-49 61 -49 129q0 10 1 20q12 152 154 235q116 68 298 68q41 0 85 -4q35 -2 110.5 -8t121.5 -9t104 -5 q23 -1 42 -1q29 0 51 2q36 3 52 11q46 26 61 26q3 0 5 -2q10 -6 -13 -24l-12 -12q-72 -68 -150 -162q-41 -51 -141 -184l268 2q66 76 148 151q152 147 285 217q129 70 247 70q53 0 88 -20.5t46 -51.5q5 -12 4 -19q0 -9 -7 -12q-2 0 -3 1t-3 7.5t-4 10.5q-29 57 -119 57 q-84 0 -182 -69q-59 -41 -186 -175q-84 -90 -146 -172q111 0 166 -6q4 0 12.5 -1t12.5 -1t10 -1t8 -3t2 -4q-2 -8 -43 -8q-141 0 -188 -2q-221 -281 -222 -359q0 -38 40 -38q55 0 145 63q12 8 31.5 24.5t44 37t35.5 28.5q25 25 30 17q6 -6 -12 -25q-86 -76 -117 -98 q-115 -82 -202 -82q-135 0 -138 94q0 16 4.5 36.5t13.5 42t18 40t25.5 44t27 41t31 41t27.5 35t26.5 33t21.5 25.5l-266 -4q-172 -211 -346.5 -332t-374.5 -121q-86 0 -149.5 40t-63.5 120z" />
<glyph unicode="I" horiz-adv-x="989" d="M-37 121q0 55 38 96t91 41q47 0 68 -28q16 -21 15 -46q0 -8 -1 -16q-8 -37 -45 -66q-41 -37 -41 -63q0 -25 32 -40t87 -15q297 0 606 411q143 190 213 262q150 150 293 193q-20 -4 -110.5 -22.5t-123.5 -26.5q-166 -39 -297 -113q-55 -31 -93 -75t-38 -87q0 -51 52 -51 q29 0 53 17q18 12 20 10q4 -8 -10 -23q-31 -25 -74 -28q-7 -1 -13 -1q-40 0 -71 21q-35 25 -34 68q0 113 180 192q102 49 321 94q29 6 84.5 16.5t96.5 17.5t57 13q38 13 52 13h3q13 -1 13 -10q0 -5 -5 -13q-4 -6 -12 -10q-88 -35 -194 -186q-29 -41 -89.5 -135.5 t-93.5 -137.5q-332 -430 -774 -430q-117 0 -186.5 40t-69.5 118z" />
<glyph unicode="J" horiz-adv-x="765" d="M-590 -575q-1 6 0 11q0 64 85 134q93 76 278 154q90 39 413 159q233 313 410 506q162 174 307 283q106 78 209 129q39 18 39 22q0 8 -21 8q-6 0 -11 1q-91 0 -218 -29q-135 -31 -254 -92q-143 -76 -236.5 -178.5t-93.5 -190.5q0 -78 58 -90q6 -2 12 -2h10q4 0 7.5 1 t5.5 0t2 -3t-4.5 -5t-13.5 -5t-19 -2q-51 4 -87 37.5t-42 93.5q-1 11 -1 22q0 82 65 169q75 99 231 171q117 55 288 91q147 31 269 31q21 0 41 -1q20 0 35 -7q11 -6 11 -17q0 -17 -34 -42q-82 -66 -127 -110q-129 -129 -250 -277q-158 -188 -364 -442q61 27 110 55 q57 33 137 90q55 43 109 90q23 20 29 14.5t-25 -34.5q-49 -47 -117 -96q-72 -55 -143 -92q-70 -37 -123 -60q-96 -119 -145 -172q-221 -236 -435 -340q-133 -70 -251 -70q-10 0 -19 1q-121 0 -127 84zM-518 -578q6 -53 65 -57q10 -1 21 -1q105 0 254 114q106 72 262 264 q47 61 84 111q-176 -63 -391 -154q-152 -68 -225.5 -143t-69.5 -134z" />
<glyph unicode="K" horiz-adv-x="1372" d="M-43 121v2q0 57 37 94t88 37q37 -2 60.5 -23.5t23.5 -58.5q-2 -35 -39 -78q-27 -27 -27 -55q0 -59 90 -59q61 0 123 27.5t126.5 87t102.5 100.5t103.5 121.5t77.5 95.5q150 172 319 268v2q-158 -90 -337 -90q-125 0 -194 34q-63 31 -63 92q0 5 1 11q2 68 69 109 q39 25 94 24q27 0 4 -24q-54 -54 -53 -117q0 -43 33 -73q37 -34 111 -34q113 0 241.5 45.5t218.5 126.5q40 40 61 40q3 0 5 -1q35 -8 -10 -41q-6 -6 -13 -10q-43 -27 -135 -143q-20 -27 -55 -74t-61.5 -83t-45.5 -58q-360 -455 -733 -455q-88 0 -155.5 40t-67.5 120zM925 71 q0 65 64 148q74 94 74 123q0 23 -14 41q-33 -12 -62 -12q-25 0 -42 7t-15 21q2 27 65 27q31 0 70 -16q37 16 70.5 45.5t55 54.5t58.5 71t60 70q183 205 405 205h8q51 -2 88 -29.5t35 -74.5q0 -70 -83 -118q-71 -41 -148 -41q-13 0 -27 1q-49 4 -74 20q-10 6 -6 13q2 2 13 -2 q20 -10 61 -15q13 -1 27 -1q71 0 135 37q76 44 76 108q0 39 -30 61.5t-71 22.5q-53 0 -103 -32t-82 -68t-81 -103q-10 -14 -16 -23q-123 -164 -346 -217q61 -23 84 -76q5 -14 5 -30q0 -42 -34 -99q-10 -16 -27.5 -41.5t-26 -38t-15.5 -30t-7 -31.5q0 -35 39 -35q55 0 154 82 q27 23 100 86q25 18 31 13q4 -4 -19 -27q-27 -27 -104 -92q-125 -98 -221 -99q-124 0 -124 94zM952 399q0 -14 37 -14h2q27 0 43 10q-14 12 -39 15q-10 1 -17 1q-26 -1 -26 -12z" />
<glyph unicode="L" horiz-adv-x="1226" d="M187 103q99 34 204 36q10 1 22 1q36 0 89 -5q57 57 135 195.5t111 183.5q-98 20 -165 74.5t-67 128.5v2q0 82 82 146.5t219 64.5q190 0 324 -111q86 31 190 31h10q90 0 152 -38q58 -35 58 -91q0 -7 -1 -14q-12 -90 -146 -144.5t-292 -73.5q-53 -5 -104 -5t-99 5 q-145 -219 -364 -362q31 -4 178 -43q102 -27 170 -27q98 0 175 29t161 107q18 12 22 8q8 -8 -18 -29q-113 -111 -187.5 -156t-169 -45t-204.5 41q-178 66 -187 68q-137 -102 -276 -105h-18q-105 0 -105 44q-1 49 101 84zM230 0h12q119 4 213 90q-71 19 -133 19h-13 q-51 -2 -93 -25q-40 -21 -40 -49q0 -35 54 -35zM537 717q0 -66 65.5 -116t157.5 -71q141 205 342 277q-121 82 -295 82q-125 0 -197.5 -49t-72.5 -121v-2zM920 508q28 -3 60 -3q58 0 134 9q113 14 231.5 70.5t131.5 138.5q1 7 0 14q0 43 -34 68q-40 29 -102 29 q-94 0 -165 -54q23 -31 32 -65q6 -20 8.5 -40t0 -28t-4.5 -8t-3 6t-8 24.5t-19 41.5q-12 25 -37 49q-94 -66 -225 -252z" />
<glyph unicode="M" horiz-adv-x="1804" d="M-70 82v11q0 50 34 89q38 43 93 43q43 0 66.5 -20.5t21.5 -52.5q0 -41 -39 -72q-24 -20 -32.5 -31t-8.5 -26q0 -60 142 -60q129 0 312 83t349 202q209 154 580 518q-160 27 -397 27q-203 0 -338 -74t-156 -207q-2 -15 -1 -30q0 -139 142 -187q6 -2 13.5 -4t9.5 -3t2 -3 q-4 -12 -39 -2q-90 25 -144 93q-49 62 -49 135q0 8 1 17q12 156 164 241q136 76 336 76q24 0 48 -1q125 -4 426 -58q16 16 27 25q39 33 81 33h5q37 0 37 -20q0 -12 -14 -31q-4 -6 -10.5 -14.5t-6.5 -10.5q67 -9 135 -9q14 0 27 1q150 0 246 39q119 47 147 100q6 8 9 16.5 t3 12.5t2.5 7t4.5 3q1 1 2 0q3 0 5 -4.5t2 -11.5q0 -12 -5 -31q-12 -37 -74 -103q-285 -307 -358 -399q-207 -256 -209 -334q0 -29 30 -28q53 0 152 79q45 35 88 74q23 18 29 12t-13 -24q-63 -59 -114 -94q-109 -86 -199 -86h-10q-103 0 -103 86q0 70 146 262 q168 215 327 348v2q-123 -88 -403 -321q-82 -70 -381 -345q-28 -25 -58 -24q-10 0 -20 2q-23 6 -22 21q0 13 14 32q35 49 196.5 307t221.5 332l-2 2q-330 -326 -516 -461q-408 -293 -703 -292h-2q-238 0 -250 143zM1223 193q133 123 370 317q229 186 346 254v2 q-68 -27 -196 -27q-94 0 -170 11q-49 -68 -175 -279.5t-175 -277.5z" />
<glyph unicode="N" horiz-adv-x="1372" d="M-190 98v2q0 59 40.5 96t90.5 37q86 0 86 -69q0 -33 -39 -68q-48 -38 -48 -66t31 -44q35 -18 105 -19q125 0 280.5 63.5t294.5 172.5q293 223 445 510q20 41 59 80q53 49 100 49q23 0 31 -9.5t0 -19.5q-31 -45 -47 -113q-12 -49 -29 -249q-18 -227 -53 -314h2 q205 299 389 506q135 154 249 241q111 85 215 85h5q61 -2 97 -39q31 -33 31 -79q0 -5 -1 -11q-4 -23 -10 -23q-2 0 -2 3t-1 9.5t-3 10.5q-20 61 -111 63h-9q-166 0 -437 -285q-193 -201 -479 -614q-23 -35 -49 -35q-7 0 -15 2q-37 11 -37 39q0 7 2 15q47 143 56 329 q12 229 34 291h-2q-59 -113 -174.5 -238.5t-242.5 -222.5q-147 -111 -304 -176t-286 -67h-11q-103 0 -177 36q-76 39 -76 121z" />
<glyph unicode="O" horiz-adv-x="933" d="M37 137q-7 32 -7 66q0 84 45 173q62 124 158 214q143 137 335 210q156 59 296 59q31 0 62 -3q137 -14 151 -113q1 -8 1 -15q0 -50 -36 -85q-20 -25 -28 -16l16 24q26 32 26 74q0 8 -1 16q-6 41 -43 64.5t-86 23.5q-6 0 -12 1q-132 0 -280 -91q-155 -94 -263 -207 q-94 -102 -153 -226q-43 -92 -43 -166q0 -26 5 -50q18 -98 135 -102h8q204 0 459 311q160 201 172 340q4 35 -14 54.5t-47 21.5h-8q-75 0 -177 -71q-108 -75 -210 -206q-168 -213 -168 -332v-2q0 -47 26 -77q10 -10 9 -13q-4 -8 -17 4q-39 27 -51 91q-2 13 -2 27 q0 60 29 136q35 94 110 187q102 129 235 204q125 71 216 70h10q106 -6 106 -141q0 -66 -33.5 -155t-95.5 -165q-106 -129 -273 -218q-160 -85 -296 -85h-12q-88 2 -162 40t-92 128z" />
<glyph unicode="P" horiz-adv-x="1337" d="M4 43q0 41 65 69q60 26 145 25h13q150 -6 367 -61q51 37 92 83t101.5 127t97.5 126q207 254 381 368q-45 25 -137.5 44.5t-188.5 19.5q-252 0 -428 -117t-201 -297q-2 -13 -1 -25q0 -49 26 -87q33 -46 108 -50h16q136 0 247 102q117 108 116 205v3q0 39 -24.5 64.5 t-61.5 27.5h-5q-72 0 -130 -52q-8 -6 -14 -13t-9.5 -12t-5.5 -9t-4 -5t-4 -1q-2 2 0 9t9.5 19t19.5 25q60 60 139 59h10q47 -2 82 -32.5t37 -84.5q1 -9 1 -18q0 -116 -120 -209q-126 -98 -292 -98h-7q-113 2 -180 48q-64 43 -64 126q0 125 113 231q106 100 272.5 154.5 t352.5 54.5q223 0 350 -65q86 53 156 77q121 39 217 39q113 0 147 -57q6 -9 6 -14q0 -4 -4 -4q-2 -2 -4 4l-8 8q-39 43 -135 43q-90 0 -195 -43q-68 -31 -129 -82q94 -66 129 -150q15 -36 15 -74q0 -52 -27 -110q-88 -156 -381 -160q-70 0 -106 11q-129 -125 -342 -215v-2 q111 -27 219 -33q15 -1 28 -1q95 0 136 25q10 6 24 17q8 8 10.5 6t1 -5t-6.5 -11.5t-13 -16.5q-74 -72 -197 -72q-145 0 -297 39q-131 -41 -344 -41q-70 0 -127 16.5t-57 51.5zM29 43q0 -47 161 -47q201 0 299 31q-193 43 -282 49q-42 3 -74 3q-104 0 -104 -36zM987 307 q20 -7 49 -7q12 0 25 1q68 6 140.5 48t119.5 124q35 61 41 120q2 18 2 33q0 36 -10 60q-14 35 -39 59q-55 -53 -143.5 -189t-122.5 -179q-42 -50 -62 -70z" />
<glyph unicode="Q" horiz-adv-x="1071" d="M-141 41q0 41 61.5 70.5t163.5 29.5q96 0 336 -47q203 82 379 236q207 180 221 348q1 10 1 20q0 62 -35 104q-40 48 -122 48q-172 0 -377 -168q-160 -135 -159 -258q0 -61 35.5 -94t93.5 -35h4q125 0 254 117q88 78 88 159q0 33 -26 56q-23 21 -65 20h-7q-63 -2 -103 -39 q-14 -12 -27 -28q-8 -10 -12 -9q-2 2 0 8.5t9.5 16.5t17.5 20q51 51 123 52q55 0 91 -29q38 -30 38 -90q0 -88 -86 -164q-55 -49 -139 -79q-78 -28 -150 -28q-5 0 -10 1q-70 2 -120 38.5t-58 108.5q-1 12 -2 23q0 65 38 133q45 80 123 139q80 63 205 105t223 42 q137 0 226.5 -55t89.5 -158q0 -113 -72 -196.5t-199 -171.5q-166 -115 -450 -205v-2q166 -39 246 -39q100 0 182 31.5t178 113.5q23 23 29 15q6 -6 -9 -21q-227 -209 -399 -209q-158 0 -360 56q-166 -51 -301 -52q-168 0 -168 66zM-115 43q0 -47 144 -47q129 0 264 45 q-164 35 -227 41q-29 2 -55 2q-39 0 -71 -5q-55 -9 -55 -36z" />
<glyph unicode="R" horiz-adv-x="1429" d="M-47 43q0 43 60 73q53 26 131 26q11 0 22 -1q135 -8 356 -71q16 10 32.5 22t36 29.5t35 31t38 39t37 42t43 50t44 51t49 60.5t52.5 64q184 219 381 334q-121 51 -305 51q-203 0 -382.5 -108.5t-209.5 -272.5q-6 -32 -6 -60q0 -48 17 -85q28 -58 99 -62q18 -2 32.5 0t17 3 t6.5 -1q2 -4 -4.5 -9t-20.5 -9t-33 -4q-113 0 -179 65q-53 53 -53 129q0 19 3 39q29 180 243 286.5t470 106.5q207 0 335 -51q59 37 138 61q102 33 188 33q117 0 148 -53q4 -8 6 -15.5t2 -11.5t-2 -4t-2 2q-4 10 -15 21q-39 43 -137 43h-2q-70 0 -174 -39q-63 -27 -107 -53 q66 -33 109 -104q22 -36 22 -75q0 -37 -20 -75q-35 -68 -124 -97.5t-177 -31.5v-2q105 -33 105 -103q0 -48 -52 -117q-8 -10 -28.5 -37.5t-27.5 -39t-16.5 -31t-9.5 -33.5q-2 -12 7.5 -23.5t29.5 -11.5q53 0 160 82q63 51 94 82q25 20 31 14t-12 -24q-70 -66 -115 -100 q-113 -86 -203 -91h-16q-117 0 -121 86q0 66 78 156q86 98 88 127q6 35 -37 57q-20 -4 -39 -4q-6 0 -31 7q-45 -57 -84 -97q-147 -150 -399 -250q111 -31 174 -30q7 0 14 -1q57 0 103 31q10 6 17 12.5t10.5 9.5t5.5 3q12 0 -9 -25q-2 -4 -8 -10q-74 -68 -192 -67 q-90 0 -205 32q-129 -39 -296 -39h-32q-184 5 -184 68zM-23 41q0 -41 160 -47q18 0 36 -1q150 0 255 32q-172 41 -274 49q-41 3 -73 3q-104 0 -104 -36zM1057 436q18 0 30 -2q20 -2 35 -10q57 8 114.5 43t92.5 94q32 59 33 108q0 7 -1 13q-5 53 -44 86q-61 -53 -139 -162 q-23 -29 -63 -87t-58 -83z" />
<glyph unicode="S" horiz-adv-x="1204" d="M-53 -168q31 84 141 195q-95 74 -95 183q0 9 1 17q12 139 158.5 224.5t312.5 95.5q19 1 39 1q76 0 155 -19q100 -24 146 -80q23 8 137.5 52t175.5 66q127 178 264 264q86 55 162 56q33 0 52 -14q18 -12 18 -36q0 -51 -76 -112q-72 -57 -176 -100q-14 -6 -55 -23 q-8 -16 -109 -209q-109 -217 -302.5 -323.5t-422.5 -122.5q-38 -2 -73 -3q-181 0 -281 62q-109 -88 -158 -180q-12 -18 -14 -19q-4 1 -4 7.5t4 17.5zM117 242q-1 -13 -1 -25q0 -83 38 -135q37 33 65 53q80 57 113 78q-35 31 -41 74q-4 20 6 20q2 0 8 -16q12 -39 45 -68 q123 74 273 146q98 45 139 61q-33 61 -120 84q-64 17 -129 17q-24 0 -48 -3q-123 -8 -230.5 -84.5t-117.5 -201.5zM178 53q51 -51 137 -72q67 -17 137 -17q20 0 40 1q158 14 283.5 118.5t240.5 311.5q59 100 90 142v2q-147 -51 -287 -113q17 -26 17 -58v-14 q-6 -96 -103.5 -153.5t-208.5 -57.5h-2q-92 0 -162 45q-49 -31 -112 -77q-68 -56 -70 -58zM379 201q59 -37 141 -37h2q88 0 169 54t85 136q2 29 -6 54q-16 -8 -64.5 -29t-74.5 -33q-107 -51 -252 -145zM1317 629q12 4 43 16q234 103 234 191q0 17 -14 26q-11 7 -26 8 q-6 0 -12 -2q-41 -6 -92 -57q-59 -57 -133 -182z" />
<glyph unicode="T" horiz-adv-x="1259" d="M84 72q137 0 301 -27q109 20 238 129q70 59 164 165.5t124 139.5q168 170 363 215v2q-137 18 -264 43q-252 47 -414 47q-135 -2 -226 -48t-102 -136q-1 -9 -1 -17q0 -56 48 -96q55 -45 140 -49h10q85 0 142 33q60 35 69 96q4 37 -12 60q-10 14 -9 14q6 6 31 -8 q43 -27 43 -70q-2 -66 -87 -106q-77 -37 -171 -37h-18q-94 4 -155 54q-55 46 -55 117q0 7 1 15q10 113 123 182q109 67 280 66h10q121 0 387 -41q223 -37 349 -43q27 -2 51 -2q103 0 178 28q92 34 102 103l2 18q0 58 -58 102q-67 50 -181 50h-2q-176 0 -264 -106 q-18 -20 -31 -58q-2 -6 -4 -13t-3 -10t-3 -3q-8 0 -4 26q12 43 32 70q39 53 114 87t167 34q123 0 199 -56q65 -48 65 -122q0 -12 -2 -25q-12 -100 -118 -155q-98 -50 -245 -50h-22q-45 0 -51 -2q-78 -29 -162 -127q-25 -29 -98.5 -129t-139.5 -158q-207 -184 -477 -237v-2 q203 -18 322 -19q139 4 227 23.5t174 75.5q49 31 88 67q20 14 25 13q8 -6 -10 -27q-47 -43 -97 -76q-184 -121 -440 -121q-227 0 -418 27q-96 -12 -200 -16q-48 -2 -84 -2q-54 0 -82 4q-43 6 -44 27q0 61 185 61z" />
<glyph unicode="U" horiz-adv-x="1200" d="M113 395q-3 15 -3 32q0 58 34 127q44 89 124 157q90 76 204 113.5t212 37.5q88 0 141.5 -30.5t53.5 -88.5q0 -43 -33 -101t-67 -100t-99 -120q-242 -276 -254 -354q-6 -41 33 -41q76 0 215 104q152 111 299 287q176 205 352 344q133 105 212 105q7 0 13 -1q24 -6 24 -27 q0 -28 -34 -65q-49 -53 -154 -129q-121 -88 -186 -143q-8 -10 -17 -21.5t-19.5 -24t-16.5 -20.5q-213 -281 -219 -356q-6 -37 20 -43q4 -1 9 -1q45 0 118 54q45 33 117 94q25 20 31 14.5t-17 -26.5q-47 -45 -123 -102q-113 -88 -204 -88q-4 0 -8 -1q-44 0 -68 22 q-27 24 -27 65q0 78 98 206q-106 -104 -243 -198t-242 -94q-59 0 -85 21q-24 20 -24 58q0 104 252 385q193 219 218 314q3 13 3 24q0 25 -17 38q-24 19 -60 20q-178 0 -361 -178q-164 -160 -163 -267q0 -82 73 -84h6l68 21q8 6 15.5 12t10.5 8t5 0q4 -2 -4.5 -13t-20.5 -19 q-34 -27 -79 -27h-7q-90 6 -106 100zM1251 567q23 16 65 46t58 42q72 49 133 111q20 23 32 40q12 19 13 29q0 7 -6 11q-3 1 -7 1q-31 0 -103 -79q-79 -82 -185 -201z" />
<glyph unicode="V" horiz-adv-x="1081" d="M-100 -20q0 41 90 45q16 0 133 -13q168 63 381 277q225 225 248 399q2 18 2 33q0 52 -26 83q-34 40 -99 40q-150 0 -305 -121q-66 -51 -112 -125t-54 -135q-2 -17 -3 -32q0 -94 91 -99q5 0 11 -1q90 0 206 126q82 90 90 166q4 31 -6 49q-8 12 -6 14q8 8 14 -8 q25 -25 25 -74q-4 -84 -76 -170q-43 -49 -117 -86q-70 -35 -138 -35h-7q-68 2 -107 45q-35 39 -35 98v13q4 63 50.5 137t125.5 129q76 55 171.5 89t173.5 38q17 1 33 1q104 0 179 -45q76 -46 76 -147q0 -14 -2 -30q-16 -184 -262 -383q-78 -66 -225.5 -144.5t-253.5 -105.5 h10q154 0 348 62q248 78 441 229q225 176 301 313q12 18 12 43q0 10 -10.5 32t-25.5 49.5t-21 45.5q-12 20 -5 51t37 31q84 0 84 -98q0 -76 -41 -162q-98 -213 -290 -358q-166 -133 -471 -209q-219 -55 -426 -55q-68 -18 -109 -23q-22 -2 -40 -2q-60 1 -60 23z" />
<glyph unicode="W" horiz-adv-x="1331" d="M98 467q4 63 50.5 135t123.5 129q164 121 349 131q12 1 24 1q108 0 188 -50q71 -44 71 -129q0 -21 -5 -45q-18 -102 -126.5 -252.5t-231.5 -273.5l2 -2q35 25 109.5 80t121.5 90q156 111 252 186q33 100 74 168q49 74 107 116q53 38 94 38q4 0 8 -1q29 -2 44 -23.5 t7 -57.5q-6 -27 -29.5 -58t-45 -51t-59.5 -50t-48 -40q-76 -315 -138 -397l2 -2q31 29 92.5 84t144.5 127.5t128 113.5q242 219 268 383q3 16 3 29q0 28 -13 41q-8 6 -20 10q-6 2 -7 4q4 6 21 6q57 0 88 -31q27 -28 27 -70v-11q-14 -121 -342 -389q-360 -297 -443 -377 q-55 -55 -102 -56q-35 0 -35 21q0 12 12 33q41 61 95.5 230t56.5 175v2q-86 -72 -264 -201q-184 -135 -308 -219q-76 -49 -114 -49q-27 0 -33 13.5t14 35.5q168 186 252 305q170 240 189 369q2 18 2 33q0 50 -25 81q-33 40 -100 42h-5q-145 0 -300 -121q-66 -51 -112 -124 t-54 -136q-2 -16 -2 -30q0 -98 90 -103h6q94 0 211 127q82 90 90 166q4 27 -6 49q-8 12 -6 14q8 4 16 -8q23 -29 23 -74q-4 -88 -76 -170q-43 -51 -117 -89q-63 -33 -125 -33q-10 0 -20 1q-70 4 -109 46q-35 38 -35 96v12zM1184 543q4 2 24.5 18.5t30.5 25.5t29.5 26.5 t31 30.5t22.5 30.5t15 32.5q4 13 4 23q0 12 -5 21q-9 17 -31 17q-39 0 -70 -74q-22 -47 -51 -151z" />
<glyph unicode="X" horiz-adv-x="1050" d="M-76 98v12q0 49 32 89q36 45 95 45q33 0 55.5 -17.5t22.5 -48.5q0 -35 -33 -72q-41 -45 -41 -69q0 -47 74 -47q270 0 586 401q76 96 140.5 202.5t76.5 156.5q4 16 4 29q0 27 -16 42q-25 23 -68 23q-80 0 -175 -48t-181 -132q-162 -158 -164 -267q-4 -82 74 -86 q43 0 73 23l29 20q4 -2 -3 -12t-20 -20q-34 -27 -77 -27h-7q-94 4 -104 102v15q0 69 35 142q39 81 112 146q86 78 203 120t205 42q207 0 207 -119q-2 -51 -37 -100q240 209 414 209q51 0 78 -24q24 -21 25 -51q0 -71 -89 -122q-82 -47 -158 -61q-29 -6 -30 2q0 4 28 12 q61 16 111.5 58.5t60.5 95.5q4 27 -8 46t-39 21h-3q-99 0 -232 -111q-135 -114 -269 -284q-174 -223 -198 -336q-3 -17 -4 -30q0 -54 53 -54q57 0 164 74q37 27 110 90q29 23 33 19q4 -8 -14 -27q-51 -51 -117 -98q-109 -86 -215 -90q-5 0 -10 -1q-78 0 -117 30 q-36 28 -36 76q0 7 1 15q6 49 37 93l-2 2q-246 -225 -473 -226q-189 0 -199 127z" />
<glyph unicode="Y" horiz-adv-x="1110" d="M-106 -659q6 82 99 183t204 177q186 127 399 170q207 297 299 424q-119 -119 -259 -216t-247 -97q-59 0 -85 21q-24 20 -24 58q0 104 252 385q193 219 218 314q3 13 3 24q0 25 -17 39q-24 20 -60 21q-176 0 -361 -180q-164 -160 -163 -267q0 -84 71 -86q39 0 76 23 q6 4 13 11t11.5 9t6.5 0q8 -8 -25 -32q-39 -27 -84 -27q-43 0 -72.5 27.5t-35.5 72.5q-2 14 -2 29q0 61 33 133q42 90 118 156q88 76 204 113.5t218 37.5q88 0 142 -31q52 -31 53 -85q0 -62 -53 -140q-50 -74 -146 -186q-242 -276 -254 -354q-6 -41 33 -41q76 0 215 104 q152 111 299 287q213 246 321 348q113 102 192 102q9 0 17 -2q20 -2 28 -16q5 -9 4 -20q0 -6 -1 -13q-4 -18 -21 -39q-41 -53 -139 -133q-123 -102 -166 -143q-14 -18 -119.5 -162.5t-146.5 -202.5q-31 -43 -68.5 -97t-63.5 -90l-46 -65q9 0 17 1q143 0 221 -65 q68 -56 68 -143q0 -19 -3 -40q-2 -14 -6 -23.5t-8 -15t-9 -2.5l5 38q2 15 1 29q0 90 -69 146q-71 56 -198 56q-16 0 -33 -1q-100 -143 -218 -277q-135 -154 -290.5 -243.5t-253.5 -89.5q-43 0 -71 19q-24 17 -24 55q0 6 1 12zM-41 -668q0 -45 39 -53q8 -1 16 -1q48 0 115 40 q117 74 262 270q10 12 189 258q-190 -45 -363 -163q-88 -61 -171 -165q-87 -109 -87 -186zM1255 569l105 86q82 68 117 111q37 44 37 65q0 10 -9 15q-3 2 -7 2q-27 0 -91 -80q-56 -70 -152 -199z" />
<glyph unicode="Z" horiz-adv-x="987" d="M-350 -638q0 97 120 193q122 97 312 193q121 63 313.5 143t282.5 129q14 61 14 109q0 77 -37 119q-29 33 -82 43q-30 6 -54 6q-20 0 -38 -4q-55 -45 -125 -88q-87 -55 -125 -55q-18 0 -24 12q-10 18 25.5 53t91.5 59q90 43 163 58q49 33 209 151q14 10 244 187 q-152 -84 -293 -88q-10 0 -19 -1q-174 0 -174 106q0 5 1 9q6 70 89 120t181 54q31 0 31 -10q0 -2 -31 -6q-57 -4 -102 -31.5t-48 -66.5v-5q0 -35 30 -53q32 -18 79 -22q30 -2 58 -2q131 0 235 39q45 53 104 100q51 42 86 42q6 0 11 -1q14 -4 17 -17q1 -3 1 -6q0 -11 -10 -24 q-12 -14 -32.5 -28.5t-37 -24t-48.5 -26.5t-44 -23q-68 -59 -276 -213q-76 -57 -213 -154v-2q23 4 48 4q17 0 35 -2q104 -8 165 -71.5t65 -176.5q55 31 131 94q27 23 33 19q6 -6 -23 -35q-57 -57 -139 -100q-8 -215 -287 -451q-170 -143 -407 -249q-233 -103 -372 -103h-5 q-129 4 -129 97zM-297 -696q29 -18 74 -19q125 0 308 97.5t327 244.5q217 223 260 367q-88 -47 -281.5 -131t-296.5 -139q-100 -53 -151.5 -84t-127 -83.5t-110.5 -100.5q-33 -45 -33 -92q0 -40 31 -60zM251 176q22 0 91 45q61 39 98 66q-39 -2 -106 -35q-43 -20 -70 -41 q-23 -18 -23 -28q0 -7 10 -7z" />
<glyph unicode="[" horiz-adv-x="528" d="M-90 -178q6 6 76.5 105.5t164 225.5t175.5 230q217 272 467 565h239l-10 -14q-63 -4 -127 -12q-35 -4 -50.5 -11.5t-33.5 -33.5q-8 -10 -151.5 -205t-225.5 -297q-96 -121 -391 -467q-27 -35 -20.5 -46.5t40.5 -15.5l121 -12l-8 -12h-266z" />
<glyph unicode="\" horiz-adv-x="489" d="M72 698q-8 41 32 80q23 16 36.5 0t19.5 -61q47 -336 137 -854q6 -39 -8 -39h-2q-12 0 -19 26q-32 143 -196 848z" />
<glyph unicode="]" horiz-adv-x="528" d="M-268 -178l10 14q63 4 127 12q25 4 36 7.5t23.5 11.5t24.5 27q8 10 151.5 204.5t225.5 296.5q96 121 391 467q27 35 21.5 46.5t-42.5 15.5l-120 12l8 12h266q-4 -6 -75.5 -105.5t-165 -224t-175.5 -229.5q-238 -301 -467 -567h-239z" />
<glyph unicode="^" horiz-adv-x="628" d="M92 268q-4 6 17 21q176 115 297 217q20 16 30 16h2q4 0 17 -20q61 -106 141 -207q10 -14 6 -19q-6 -6 -33 9q-94 53 -159 121q-41 -29 -142.5 -75t-148.5 -63q-23 -8 -27 0z" />
<glyph unicode="_" horiz-adv-x="1024" d="M-131 -215h1042v-76h-1042v76z" />
<glyph unicode="`" horiz-adv-x="628" d="M387 664q0 20 17.5 33.5t35.5 13.5h2q31 0 37 -41q25 -92 51 -162q6 -23 2 -25q-8 -8 -22 11q-86 92 -113 139q-10 15 -10 31z" />
<glyph unicode="a" d="M20 178l-2 2q-10 -10 -22 -18q-20 -18 -27 -12q-4 8 19 30q39 35 73 58q53 39 129 71q108 47 189 48q6 0 12 -1q39 -2 55.5 -22.5t10.5 -46.5q39 43 60.5 53t70.5 10q55 0 55 -14q0 -6 -10 -19q-63 -76 -111 -135q-59 -78 -69 -100q-16 -31 -2 -41q12 -10 49 6 q29 12 88 59q53 43 100 87q23 16 27 12q1 -1 1 -3q0 -8 -22 -30q-68 -63 -121 -104q-111 -86 -194 -86q-72 0 -82 49q-1 6 -1 12q0 29 23 59l-2 2q-139 -123 -249 -122q-5 0 -10 -1q-46 0 -73 18q-28 18 -28 57q-1 54 63 122zM123 18q29 0 79 29t93 68q51 45 96 102t47 80v4 q0 33 -37 33h-2q-53 0 -190 -133q-113 -113 -113 -158q0 -25 27 -25z" />
<glyph unicode="b" horiz-adv-x="712" d="M-63 7q0 7 6 18q12 25 88 137q8 12 63 86h-2q-47 -39 -72 -66q-31 -25 -34 -16q-6 6 14 24q68 59 135 117q117 154 242 303q117 139 257 270.5t238 200.5q116 84 199 84h4q65 -4 65 -57q0 -8 -1 -16q-12 -145 -396 -435q-47 -35 -142 -102.5t-168 -120.5t-105 -82 q-51 -63 -146 -198l4 -2q94 86 179 139q103 66 188 66q5 0 10 -1q51 0 75 -22q20 -19 20 -49q0 -5 -1 -11q-10 -100 -131 -192q-125 -96 -276 -96h-2q-94 0 -94 45q0 27 29.5 42t99.5 36q156 45 161 47q49 61 64 102q8 22 8 36q0 26 -27 25q-59 0 -178 -92 q-123 -94 -229 -207q-20 -23 -80 -26q-23 -2 -36 -1t-21 4t-8 10zM224 12h12q47 2 98 35q55 35 94 86q-10 -6 -33.5 -13t-53.5 -14.5t-40 -11.5q-59 -16 -85 -31q-24 -13 -24 -30q1 -21 32 -21zM354 399q49 41 175 139.5t178 141.5q367 313 376 424q6 39 -32 39 q-51 0 -138 -82q-92 -88 -262 -293q-180 -215 -297 -369z" />
<glyph unicode="c" horiz-adv-x="485" d="M-31 150q-4 8 13 24q37 35 71 57q59 43 103 64q122 62 202 62q7 0 15 -1q47 -2 69.5 -23.5t16.5 -54t-29.5 -55t-48.5 -22.5q-29 0 -36 21.5t9 47.5q28 47 28 59q0 4 -9 7q-3 1 -7 1q-36 0 -120 -87q-115 -115 -116 -192q0 -38 48 -38q76 0 189 74q27 18 118 94 q18 16 25 11q1 -1 1 -3q0 -8 -22 -28q-63 -57 -114 -92q-137 -94 -262 -94h-2q-135 0 -136 92q0 55 54 112l-2 2q-6 -4 -27 -24q-25 -20 -31 -14z" />
<glyph unicode="d" d="M20 178l-2 2q-6 -6 -22 -18q-20 -18 -27 -12q-6 8 21 30q23 27 71 58q57 41 129 71q97 48 182 48q10 0 19 -1q41 -2 56.5 -23.5t7.5 -47.5l2 -2q90 127 262 327q127 150 235 248q47 43 115 43q45 0 49 -16q-63 -61 -233 -254q-70 -80 -258 -314q-150 -184 -174 -235 q-16 -31 -2 -41q12 -10 49 6q29 12 88 59q55 45 100 87q23 16 27 12q6 -6 -19 -31q-45 -45 -123 -106q-111 -86 -194 -86q-72 0 -82 49q-1 6 -1 12q0 29 23 59l-2 2q-139 -123 -249 -122q-5 0 -10 -1q-46 0 -73 18q-28 18 -28 57q-1 54 63 122zM123 18q29 0 79 29t93 68 q51 45 96 102t47 80v4q0 33 -37 33h-2q-53 0 -190 -133q-113 -113 -113 -158q0 -25 27 -25z" />
<glyph unicode="e" horiz-adv-x="485" d="M-31 150q-4 8 13 24q31 29 69 57q41 31 105 64q127 63 223 63h2q88 0 88 -56q0 -67 -135 -132q-82 -39 -201 -64q-12 -18 -12 -45q0 -45 49 -45q76 0 195 78q68 47 122 99q16 12 23 6q1 -1 1 -4q0 -9 -24 -29q-57 -53 -120 -94q-127 -86 -248 -90q-9 0 -17 -1 q-130 0 -127 93q0 53 54 112l-2 2q-2 -4 -14.5 -14t-14.5 -12q-23 -18 -29 -12zM143 127q70 12 142 63q82 59 90 115q1 5 1 10q0 21 -24 21q-39 0 -110 -78q-66 -74 -99 -131z" />
<glyph unicode="f" horiz-adv-x="385" d="M-547 -735q14 74 99.5 227.5t195.5 304.5q115 156 342 447l-2 2q-8 -6 -32.5 -29.5t-37.5 -34.5q-25 -20 -30 -16q-6 8 12 24q80 72 137 119q139 178 244 303q92 106 215 232.5t197 185.5q166 135 270 135h2q41 0 55 -23q8 -14 9 -32q0 -13 -5 -27q-12 -57 -122.5 -174.5 t-276.5 -249.5q-80 -63 -219 -165.5t-162 -120.5q-141 -172 -283 -367q29 6 93 33q57 23 122 67q53 33 109 84q25 20 31 14.5t-25 -34.5q-55 -51 -125 -96q-57 -35 -162 -78q-41 -18 -51 -33q-14 -20 -28 -65q-57 -205 -160 -390q-109 -193 -250 -303q-49 -39 -92 -38 q-9 0 -19 2q-54 8 -53 67q-1 14 2 29zM-438 -741q-6 -16 -7 -27q0 -14 11 -18q3 -2 8 -2q15 0 41 20q100 76 225 295q113 197 180 422q-109 -137 -258 -361q-169 -257 -200 -329zM369 414q270 211 331 266q315 289 367 418q7 15 7 26q0 6 -2 11q-4 13 -21 12h-4 q-43 -2 -132 -86q-86 -84 -260 -291q-40 -49 -286 -356z" />
<glyph unicode="g" d="M-668 -745q4 154 406 393q98 59 228 126.5t198 110.5q55 74 147 211l-2 2q-137 -117 -241 -116q-5 0 -10 -1q-46 0 -73 18q-28 18 -28 57q0 54 63 122l-2 2q-6 -6 -22 -18q-20 -18 -27 -12q-6 8 21 30q33 33 71 58q57 41 129 71q101 48 183 48q9 0 18 -1 q39 -2 55.5 -23.5t10.5 -45.5h2q41 43 61.5 53t67.5 10q51 0 51 -14q0 -6 -8 -17q-29 -35 -109 -137q-18 -25 -79.5 -108.5t-90.5 -120.5q111 59 223 145q55 45 111 92q16 18 25 11q1 -2 1 -4q0 -9 -22 -27q-57 -53 -123 -100q-106 -80 -237 -154q-106 -162 -207 -289 q-227 -287 -529 -420q-80 -39 -153 -38q-115 0 -109 86zM-573 -745q-2 -47 30 -58q10 -3 21 -2q43 0 108 37q154 86 375 369q66 82 184 247q-27 -16 -151.5 -86.5t-235.5 -144.5q-139 -92 -231 -189t-100 -173zM123 18q29 0 79 29t93 68q51 45 96 102t47 80v4q0 33 -37 33 h-2q-53 0 -190 -133q-113 -113 -113 -158q0 -25 27 -25z" />
<glyph unicode="h" horiz-adv-x="753" d="M-55 25q39 72 84 137q33 45 69 88l-2 2q-20 -18 -54 -49t-38 -35q-16 -12 -22 -4q-2 8 18 26q14 14 64.5 56.5t70.5 60.5q117 154 242 303q119 141 259 273.5t236 197.5q123 84 203 84q35 0 51 -20q13 -16 14 -41q0 -6 -1 -12q-12 -145 -396 -435q-47 -35 -142 -102.5 t-168 -120.5t-105 -82q-27 -33 -187 -258l4 -2q106 92 181 148q158 117 256 116q39 0 60.5 -16t19.5 -45q-6 -35 -78 -125q-55 -70 -64 -84q-20 -37 -4 -47t49 10q47 25 90 57q43 35 101 87q20 16 24 10q6 -6 -8 -21q-57 -57 -131 -112q-115 -84 -197 -84h-5q-84 0 -83 62 v11q4 35 76 125q68 82 82 101q16 20 -2 26q-12 8 -59 -14q-70 -37 -148 -100q-49 -39 -120.5 -98.5t-106.5 -88.5q-16 -12 -82 -18q-41 -2 -50 5q-5 4 -5 11t4 17zM350 393q55 47 182 146.5t175 140.5q367 309 376 424q6 39 -32 39q-51 0 -138 -82q-92 -88 -262 -293 q-195 -234 -301 -375z" />
<glyph unicode="i" horiz-adv-x="395" d="M-29 152q-2 1 -2 3q0 7 19 25q82 74 147 115q80 55 164 55q66 0 68 -14q0 -6 -13 -19q-76 -86 -114 -135q-45 -57 -70 -100q-18 -37 -6 -45t45 8q35 16 90 61q35 29 96 82q23 20 29 14.5t-18 -28.5q-53 -55 -119 -104q-117 -88 -205 -88q-80 0 -80 57q0 33 29 78 q29 47 86 110.5t82 79.5q-41 -14 -117 -74q-43 -35 -80 -67q-27 -18 -31 -14zM383 582q20 49 102 49h2q31 0 38 -20q2 -5 2 -10q0 -16 -17 -38q-23 -29 -62.5 -50t-62.5 -21q-14 19 -14 42q0 22 12 48z" />
<glyph unicode="j" horiz-adv-x="417" d="M-831 -556q115 105 296 212q74 45 424 240q8 12 63.5 91t90.5 126q129 174 193 209q-6 0 -39 -15q-49 -23 -115 -74q-41 -33 -82 -69q-20 -18 -29 -12q-6 6 17 28q82 74 147 115q82 55 164 55t82 -18q0 -6 -8 -15q-66 -72 -115 -135q-23 -27 -170 -219q94 43 201 121 q39 29 129 106q20 20 28 13q6 -6 -24 -35q-59 -55 -123 -102q-109 -78 -229 -138q-141 -207 -293 -372q-143 -158 -327.5 -272.5t-289.5 -114.5q-53 0 -86 19q-29 17 -29 56q1 87 124 200zM-860 -745q-2 -47 33 -56q11 -4 24 -4q42 0 105 39q160 92 374 367q115 145 191 260 q-203 -115 -395 -244q-139 -92 -231.5 -189t-100.5 -173zM385 582q23 49 102 49h2q31 0 38 -20q2 -5 2 -10q0 -16 -17 -38q-23 -29 -62.5 -50t-62.5 -21q-14 19 -14 42q0 22 12 48z" />
<glyph unicode="k" horiz-adv-x="739" d="M-55 -3q-5 4 -5 10.5t5 17.5q18 37 84 137q6 10 69 88l-2 2q-20 -18 -54 -49t-38 -35q-16 -12 -22 -4q-2 8 18 26q14 14 64.5 56.5t70.5 60.5q100 135 242 303q117 139 255 269.5t240 201.5q121 84 203 84q35 0 51 -20q13 -16 14 -41q0 -6 -1 -12q-14 -147 -396 -435 q-47 -35 -142 -102.5t-168 -120.5t-105 -82q-84 -100 -187 -256l2 -2q145 129 176 154q84 61 138 86q59 23 113 23q5 0 10 -1q47 0 71.5 -20.5t20.5 -48.5q-6 -45 -92 -58q-76 -12 -91 -28q-15 -20 -15 -67q0 -10 1 -21q6 -70 35 -76q18 -2 53 16q39 23 78 53q74 59 102 87 q18 16 24.5 10t-22.5 -33q-63 -59 -118 -102q-106 -82 -203 -82q-95 0 -95 87q0 5 1 11q6 76 45 111q23 20 92 30q39 6 57 29q12 12 14.5 32.5t-12.5 32.5q-8 4 -19 5q-21 0 -52 -15q-66 -31 -154 -102q-33 -27 -114 -99.5t-109 -93.5q-25 -18 -82 -22q-41 -2 -51 5z M350 393q55 47 182 146.5t175 140.5q367 309 376 424q6 39 -32 39q-51 0 -138 -82q-92 -88 -262 -293q-145 -174 -301 -375z" />
<glyph unicode="l" horiz-adv-x="393" d="M-18 164q-2 8 18 26q6 6 141 121q104 139 246 299q113 131 231 242q51 51 119 51q47 0 56 -20q-33 -27 -134.5 -137.5t-175.5 -200.5q-293 -354 -331 -457q-14 -35 0 -47q16 -10 45 4q43 18 98 61q39 29 98 84q20 18 26.5 12.5t-18.5 -30.5q-70 -66 -120 -102 q-123 -88 -213 -88q-84 0 -84 63q2 76 116 207l-2 2q-20 -18 -55 -50t-39 -36q-16 -12 -22 -4z" />
<glyph unicode="m" horiz-adv-x="1214" d="M-33 150q-4 8 21 28q55 55 106 92q113 86 180 86q74 0 74 -51q0 -33 -45 -90q-18 -25 -55 -71t-39 -50l4 -2q133 106 193 150q156 115 245 114q47 0 63.5 -19.5t12.5 -47.5q-4 -33 -70 -117l-36 -46q-20 -26 -27 -32l4 -4q74 66 188 150q158 117 256 116q39 0 60.5 -16 t19.5 -45q-6 -35 -78 -125q-49 -61 -63 -84q-20 -37 -4 -47t49 10q35 18 92 60q45 37 99 84q18 16 24 10q2 -2 2 -5q0 -6 -10 -16q-57 -57 -131 -112q-115 -84 -197 -84h-5q-84 0 -83 60v11q4 43 76 127q68 82 82 101q16 20 -2 26q-14 8 -60 -16q-49 -25 -149 -98 q-55 -43 -232 -185q-23 -16 -86 -20q-39 -2 -48 5t1 28q20 45 109 159q68 86 78 101q14 20 -2.5 26t-57.5 -16q-57 -29 -143 -96q-96 -72 -233 -183q-27 -23 -87 -24q-41 -2 -50 5t-1 28q27 49 94 137q18 25 48 61.5t39 48.5q16 23 6 31q-8 8 -31 -6q-31 -18 -76 -53 q-57 -45 -90 -78q-27 -24 -35 -16z" />
<glyph unicode="n" horiz-adv-x="833" d="M-33 150q-4 8 21 28q51 51 106 94q109 84 182 84q72 0 72 -51q0 -33 -45 -90q-18 -25 -55 -71t-39 -50l4 -2q86 72 193 150q156 115 256 114q80 0 80 -53q0 -38 -76 -133q-49 -61 -64 -84q-20 -35 -6 -47q16 -10 51 10q51 25 88 57q16 14 55 47t48 40q18 16 24 10 q2 -2 2 -4q0 -6 -12 -17q-66 -68 -131 -112q-115 -84 -195 -84q-5 0 -9 -1q-46 0 -64 20q-20 22 -15 54q4 39 74 125q47 53 84 101q16 20 -2 26q-16 8 -59 -14q-61 -31 -152 -98q-96 -72 -233 -183q-27 -23 -87 -24q-41 -2 -50 5t-1 28q33 63 94 137q16 23 45 59.5t42 50.5 q16 23 6 31q-8 8 -31 -6q-39 -23 -76 -53q-57 -45 -90 -78q-27 -24 -35 -16z" />
<glyph unicode="o" horiz-adv-x="600" d="M-29 154q0 6 13 22q18 18 67 55q45 31 86 54q129 72 228 71q47 0 47 -12l-29 -14q-61 -29 -147 -113q-45 -45 -81 -99.5t-36 -86.5q-4 -29 26 -29q35 0 92.5 38t108.5 91q0 45 33 92q20 31 67 62v34q-2 6 -5 14.5t-3 9.5t2 5q14 8 45 -14q37 -27 37 -72q-4 -78 -116 -174 q6 -4 28 -4q35 2 78 33q31 23 88 73q18 18 27 13q3 -2 3 -5q0 -6 -14 -18q-55 -51 -96 -80q-47 -35 -88 -37q-31 0 -45 11q-43 -33 -120 -62.5t-136 -29.5q-141 0 -145 98q0 61 55 117l-2 2q-20 -16 -35 -31q-33 -28 -33 -14z" />
<glyph unicode="p" horiz-adv-x="770" d="M-588 -784q0 51 78 172q135 201 285 403q211 289 432 563q-201 -182 -207 -188q-20 -23 -29 -14q-6 6 17 26q106 100 149 139q6 4 182 166q53 45 109 45q6 0 11 1q27 0 31 -10q5 -11 -19 -42q-215 -256 -525 -678q-209 -281 -366 -526q-20 -33 -13 -41q10 -6 25 12 q29 33 162 221q29 43 235 318q123 166 246 311q92 111 180 176q121 86 203 86q47 0 67.5 -17t16.5 -46q-4 -31 -82 -123q-49 -57 -65 -86q-20 -33 -6 -43t51 6q33 16 92 59q39 31 96 82q23 23 29 17q2 -2 2 -6q0 -7 -11 -17q-80 -74 -133 -112q-117 -84 -202 -84 q-82 0 -82 59q0 45 75 139q16 18 48 55t41 48q16 23 0 26q-14 4 -46 -8q-100 -49 -210 -170q-131 -145 -299 -373q-143 -188 -248 -337q-129 -190 -178 -232q-33 -29 -80 -29h-6q-56 5 -56 52z" />
<glyph unicode="q" horiz-adv-x="659" d="M-276 -784q0 45 75 168q80 127 285 405q57 78 141 189.5t94 125.5l-2 2q-133 -123 -249 -124q-5 0 -10 -1q-46 0 -73 18q-28 18 -28 57q0 54 63 122l-2 2q-6 -6 -22 -18q-20 -18 -27 -12q-6 8 21 30q33 33 71 58q57 41 129 71q101 48 183 48q9 0 18 -1q41 -2 56.5 -23.5 t9.5 -45.5q41 43 65.5 53t65.5 10q57 0 55 -18q-2 -6 -8 -15q-53 -61 -129 -157q-45 -55 -273 -363q-240 -328 -364 -524q-23 -37 -8 -43q10 -4 28 20q29 29 150 205q104 147 231 316q115 143 256 292q39 39 131 125q27 18 31 15q1 -1 1 -3q0 -8 -23 -30q-104 -96 -121 -115 q-141 -145 -258 -297q-104 -137 -244 -336q-123 -176 -149 -204q-47 -53 -109 -54h-4q-57 1 -57 52zM123 18q29 0 79 29t93 68q51 45 96 102t47 80v4q0 33 -37 33h-2q-53 0 -190 -133q-113 -113 -113 -158q0 -25 27 -25z" />
<glyph unicode="r" horiz-adv-x="471" d="M-29 152q-2 2 -2 5q0 8 17 19q14 14 44.5 42t41.5 38q45 41 75 76q-14 10 -15 29.5t18 39.5q29 37 86 37q43 0 57 -20q-23 -16 -39 -33q-16 -20 -16 -31q0 -14 22 -16q6 0 18.5 -1t19.5 -2t18.5 -2t18.5 -2t16 -3t15.5 -5.5t11.5 -6.5t8 -8t3 -11v-2q0 -8 -3 -16.5 t-11 -19.5t-15.5 -20.5t-24 -27.5t-26.5 -33q-49 -61 -69 -96q-18 -27 -4 -41q12 -12 45 6q37 16 92 59q61 51 98 84q25 23 29 13q0 -6 -21 -29q-41 -45 -121 -104q-100 -82 -188 -84q-6 0 -11 -1q-47 0 -69 16q-25 17 -22 46q0 57 92 139q131 111 133 117q6 14 -17 16 q-6 1 -22 1.5t-43 -1.5q-33 -2 -47 5q-43 -47 -80 -80q-37 -37 -82 -78q-27 -20 -31 -14z" />
<glyph unicode="s" horiz-adv-x="516" d="M-44 181q30 28 64 28h5q27 0 42 -13.5t15 -31.5q-2 -29 -37 -51q-37 -29 -37 -62q0 -47 55 -47q70 0 134 105q23 37 54.5 120.5t41.5 96.5l-2 2q-25 -27 -92 -76q-57 -43 -93 -62q-18 -10 -22 -4q-6 8 12 19q31 18 90 63q66 47 123 99q12 25 33 45q27 25 61.5 24.5 t34.5 -17t-35 -38.5q-6 -4 -24.5 -14.5t-24.5 -16.5q-20 -20 -2 -59q20 -48 20 -94q0 -38 -14 -74q-25 -53 -59 -78q41 14 86 43q49 31 135 105q23 16 27 12q1 -1 1 -4q0 -7 -16 -21q-49 -49 -118 -98q-59 -41 -144 -70q-92 -31 -192 -30q-78 0 -119 35q-37 33 -37 77 q0 55 34 87z" />
<glyph unicode="t" horiz-adv-x="393" d="M-27 154q-4 8 17 28q137 123 157 142q-10 0 -34.5 -1t-36.5 -1q-6 0 -11.5 -1.5t-8.5 0t-4 3.5t-1 6q2 10 53 14q27 2 62 2q90 106 190 211q86 88 156 88q43 0 55 -16q-41 -35 -125 -133q-66 -76 -123 -152q33 1 62 1t53 -1q6 0 10.5 -1t9.5 -2t8 -3t1 -6q-2 -8 -37 -8 q-76 0 -123 -2q-92 -111 -149 -226q-23 -45 -4 -57q16 -10 55 8q35 16 92 62q12 10 98 84q23 16 29 12q4 -4 -8 -21q-82 -76 -133 -114q-117 -88 -213 -88q-84 0 -84 61t104 203q-12 -10 -44 -39t-44 -39q-21 -20 -29 -14z" />
<glyph unicode="u" horiz-adv-x="768" d="M-29 152q-1 1 -1 3q0 8 18 25q82 74 147 115q80 55 160 55q63 0 63 -14q0 -6 -10 -19q-45 -51 -112 -135q-59 -74 -78 -110q-14 -25 -2 -35q12 -12 47 6q53 27 153 104q51 41 120 101.5t95 83.5q29 23 84 22q66 0 66 -12q0 -8 -10 -20q-63 -78 -109 -140q-55 -80 -63 -96 q-18 -33 -7 -45q14 -12 52 6q39 20 84 57q41 31 102 89q18 18 27 10q1 -1 1 -3q0 -8 -24 -30q-53 -49 -119 -102q-106 -86 -194 -86q-89 0 -89 62q0 5 1 11q0 35 33 78q2 4 57 70l-4 4q-35 -31 -133 -109q-156 -117 -246 -116q-84 0 -84 63q2 37 37 84q86 123 166 178 q-41 -14 -117 -74q-43 -35 -80 -67q-25 -18 -31 -14z" />
<glyph unicode="v" horiz-adv-x="661" d="M-16 160q-2 2 -3 5q0 8 17 23q31 31 92 84q109 84 174 84q47 0 70 -20q19 -17 19 -48q0 -6 -1 -12q-2 -55 -65 -126q-55 -72 -123 -125q66 16 188 77q47 25 88 56q0 55 37 114q48 82 107 83q4 0 8 -1q20 -2 25.5 -25.5t-11.5 -52.5q-45 -72 -139 -133q8 -27 45 -30h4 q40 0 94 34l52 41q16 16 22 11q1 -1 1 -4q0 -8 -17 -25q-16 -16 -50 -41q-54 -35 -103 -35h-5q-47 0 -61 37q-37 -25 -87 -49q-104 -53 -176 -74q-86 -27 -135 -26q-41 0 -43 26q-2 18 19 39q59 63 100 115q61 74 80 119q6 23 -4 28q-12 8 -35 -6q-23 -12 -72 -51 q-61 -53 -80 -72q-24 -24 -32 -20z" />
<glyph unicode="w" horiz-adv-x="1003" d="M-29 152q-1 1 -1 3q0 7 16 23q100 90 149 121q80 53 168 53q57 0 57 -14q2 -6 -10 -19q-41 -45 -112 -135q-47 -59 -76 -106q-16 -29 -6 -39q12 -12 47 6q72 39 135 88q92 72 211 180q29 25 106 25q47 0 50 -10q2 -6 -7 -15q-86 -111 -98 -127q-53 -72 -68 -104 q-18 -37 -2 -53q14 -10 58 4q53 20 119 65q43 31 65 60q0 61 35 118q55 82 101 82q7 0 14 -2q20 -6 18 -30.5t-20 -51.5q-39 -63 -121 -129q10 -33 57 -32q4 0 8 -1q38 0 86 35q8 6 54 43q25 23 30 17q2 -2 2 -4q0 -6 -12 -19q-25 -25 -59 -51q-50 -39 -101 -39h-10 q-49 0 -72 37q-41 -35 -59 -47q-145 -100 -262 -100q-90 0 -90 63q0 35 24 74q18 31 70 86l-4 4q-86 -74 -148 -121q-139 -106 -231 -106h-2q-78 0 -78 65q2 39 49 103q92 123 154 163q-41 -16 -121 -77q-29 -23 -84 -74q-23 -18 -29 -12z" />
<glyph unicode="x" horiz-adv-x="673" d="M-37 63q4 35 26.5 59.5t53.5 24.5q27 0 40 -16t5 -39q-4 -12 -21.5 -27.5t-19.5 -23.5q-6 -18 19 -23h5q62 0 160 140q53 72 62 116q6 39 -31 45q-7 2 -15 2q-54 0 -149 -73q-57 -43 -96 -82q-29 -20 -33 -16q-8 8 19 28q57 57 121 103q111 76 198 75q51 0 86 -29 q28 -24 28 -67q0 -10 -1 -20l2 -2q102 119 182 118q35 0 52.5 -20.5t13.5 -54.5q-2 -25 -22.5 -43.5t-45.5 -18.5q-37 0 -35 35q2 10 10.5 21.5t8.5 17.5q0 16 -23 16q-39 0 -92 -49q-29 -27 -76 -90q-37 -47 -47 -90q-1 -7 -1 -14q0 -36 30 -41q9 -2 18 -2q62 0 160 71 q35 25 104 84q30 24 30 9q0 -7 -11 -19q-70 -61 -111 -92q-133 -90 -221 -90h-9q-67 0 -97 29q-26 25 -27 65q0 10 2 20q-88 -115 -166 -114q-41 0 -64.5 20t-21.5 57z" />
<glyph unicode="y" horiz-adv-x="755" d="M-180 -784q0 59 78 172q109 164 280 401q39 53 150.5 208t179.5 249l-2 2q-6 -6 -23.5 -21.5t-21.5 -19.5q-31 -27 -135 -109q-156 -117 -246 -116q-43 0 -63.5 17t-18.5 46q0 33 35 84q96 135 166 178q-41 -14 -117 -74q-41 -33 -82 -69q-20 -18 -29 -12q-6 6 17 28 q82 74 147 115q80 55 160 55q63 0 63 -14q0 -6 -10 -19q-45 -51 -112 -135q-51 -63 -78 -112q-14 -25 -4 -35q12 -8 49 8q63 35 153 104q51 41 120 101.5t95 83.5q29 23 101 22q63 0 63 -12q0 -6 -10 -20q-37 -45 -127 -162q-111 -143 -270 -363q-268 -365 -363 -524 q-23 -37 -12 -43q8 -6 27 16q18 20 159 219q168 229 228 306q119 152 260 299q100 94 129 120q18 18 26 13q1 -1 1 -3q0 -8 -21 -30q-63 -55 -121 -115q-129 -133 -258 -297q-74 -96 -246 -333q-143 -203 -176 -232q-35 -31 -80 -31h-6q-55 3 -55 54z" />
<glyph unicode="z" horiz-adv-x="548" d="M-694 -756q0 129 317 365q113 82 412 258q76 43 151 88q4 20 4 36q0 24 -9 41q-15 28 -46 27q-72 0 -147 -75q-16 -16 -25 -11q-14 10 2 35q20 29 82 62q31 14 98.5 45.5t110.5 54.5q102 55 160 111q14 14 8 20q-2 4 -14 -4q-94 -61 -180.5 -61t-112.5 49 q-51 -61 -115 -117q-18 -20 -26.5 -12t12.5 22q53 51 121 125q-4 35 20.5 65.5t71.5 30.5q37 0 39 -20q-31 -6 -35 -27q-2 -18 17.5 -29.5t72.5 -11.5q98 0 176 29q33 12 43 2q14 -14 -12 -47q-55 -80 -178 -139q-37 -18 -117 -44t-105 -38q29 10 60 6q111 0 139 -68 q37 18 121 76q59 41 129 105q20 16 27 10q2 -2 1 -4q0 -7 -14 -21q-78 -68 -133 -106q-63 -43 -123 -76q4 -12 4 -37q0 -190 -333 -483q-129 -117 -307.5 -211t-268.5 -94q-98 -1 -98 73zM-633 -760q0 -47 45 -47h2q80 0 208 94.5t253 227.5q92 96 186.5 221t118.5 196 q-72 -45 -137 -82q-250 -152 -395 -262q-281 -212 -281 -348z" />
<glyph unicode="{" horiz-adv-x="641" d="M106.5 -82.5q-16.5 64.5 67.5 184.5q141 186 148 199q29 55 15.5 90t-52.5 43l2 4q49 0 108.5 16.5t91.5 49.5q39 39 70 82t64.5 102.5t46.5 77.5q59 94 138 140t216 46l154 -4l-15 -16q-10 0 -36.5 1t-43.5 1q-166 0 -235 -78q-33 -37 -107.5 -170t-150.5 -201 q-68 -59 -187 -63q29 -27 31 -75t-35 -105q-31 -41 -93 -120t-85 -114q-80 -121 64 -160q29 -10 90 -14l-11 -12q-92 0 -139 10q-100 21 -116.5 85.5z" />
<glyph unicode="|" horiz-adv-x="317" d="M127 -512v2048h63v-2048h-63z" />
<glyph unicode="}" horiz-adv-x="641" d="M-285 -176l13 14h82q168 0 235 78q33 37 107.5 170t150.5 201q92 78 203 82q-33 23 -41 64.5t27 96.5q18 25 86.5 111t93.5 123q78 117 -64 160q-39 10 -90 14l10 10q102 0 140 -8q217 -47 49 -272q-6 -8 -63.5 -78t-82.5 -109q-29 -47 -14.5 -81.5t57.5 -41.5l-2 -4 q-47 6 -108.5 -19.5t-100.5 -66.5q-37 -39 -67.5 -82t-66.5 -104.5t-46 -75.5q-59 -94 -138 -140t-216 -46z" />
<glyph unicode="~" horiz-adv-x="628" d="M129 418q-6 16 0 18q6 4 12 -8q25 -31 86 -31q41 2 123 37t127 35h2q70 0 107 -47t45 -105q2 -12 -4 -16q-4 -2 -6 6q-2 4 -5 6q-43 61 -143 58q-31 0 -105.5 -23.5t-115.5 -23.5q-92 0 -123 94z" />
<glyph unicode="&#xa1;" horiz-adv-x="540" d="M-209 -344q2 12 39 61q127 160 442 428q23 20 31 13q6 -2 -16 -31q-154 -195 -285 -393q-59 -88 -186 -88h-2q-25 0 -23 10zM306 242.5q-7 19.5 13 46.5q23 29 62 48t61 21q23 -35 2 -88q-16 -47 -98 -47h-2q-31 0 -38 19.5z" />
<glyph unicode="&#xa2;" horiz-adv-x="473" d="M47 156q-8 90 88 174q51 47 129 80.5t154 29.5q18 27 28 43q37 45 52 41q12 -6 -19 -51l-26 -37q37 -6 53 -27.5t10 -50.5q-4 -27 -27.5 -48t-44.5 -21q-25 0 -30.5 19.5t8.5 43.5q35 55 16 66l-235 -316q16 -4 35 0q72 12 139 72q20 14 24 10q6 -6 -12 -24 q-94 -90 -209 -90q-68 -90 -92 -119q-10 -16 -20 -14q-6 6 6 22l76 113q-97 12 -103 84zM168 152q0 -29 12 -39l226 311q-51 -10 -121 -80q-43 -39 -79 -96t-38 -96z" />
<glyph unicode="&#xa3;" horiz-adv-x="1044" d="M-82 41q0 39 76 63.5t192 22.5q119 0 285 -29q31 20 60.5 49t62.5 67t39 44q-39 0 -108.5 -1t-131.5 -1q-47 0 -47 18q0 20 45 21q137 0 264 -6q8 10 32 36.5t40 43.5l61 67q-96 10 -145 51t-45 105q4 37 27.5 65.5t56.5 36.5q23 4 23 -2q2 -2 -9 -6q-6 0 -10 -2 q-63 -20 -68 -92q-2 -53 48.5 -84t126.5 -39q10 -2 24 -2q86 88 206 141.5t202 53.5q66 0 67 -46q2 -35 -47 -76.5t-133 -70.5q-104 -35 -211 -35q-8 -8 -26.5 -29.5t-26.5 -31.5q-43 -49 -78 -86q12 0 135 -4q29 0 29 -9q0 -6 -29 -10q-16 0 -157 -6q-102 -98 -248 -166 q143 -31 200 -29q119 4 195 50q23 14 25 12q8 -4 -7 -19q-127 -127 -272 -126q-78 0 -233 53q-109 -51 -299 -51q-68 0 -130.5 14t-60.5 45zM-63 43q-4 -25 61 -35t115 -10h2q176 0 270 43q-131 37 -246 39q-194 4 -202 -37zM924 465q80 8 168 35q180 55 180 114v2 q0 29 -45 29q-139 0 -303 -180z" />
<glyph unicode="&#xa4;" horiz-adv-x="696" d="M39 29q-8 8 18 30q12 12 44 38t44 36q-12 25 -12 57q0 125 123 222q-6 10 -53 92q-12 25 0 31q10 6 30 -21q37 -47 60 -78q74 55 172 60q82 2 129 -45q76 53 78 55q31 25 41 16q10 -6 -17 -33q-16 -16 -82 -71q10 -16 11 -47v-2q0 -57 -35 -122t-84 -106q27 -49 49 -92 q12 -25 2 -31t-31 19q-10 12 -57 78q-74 -57 -172 -60q-86 -2 -129 47q-12 -8 -42 -28.5t-46 -30.5q-31 -22 -41 -14zM223 182q0 -49 20.5 -77.5t63.5 -26.5q86 4 155.5 103.5t69.5 187.5v2q0 45 -23.5 71.5t-64.5 24.5q-84 -2 -152.5 -96.5t-68.5 -188.5z" />
<glyph unicode="&#xa5;" horiz-adv-x="806" d="M2 135q0 29 53 29q96 0 170 -2q27 35 31 39t7 8t6 7l5 5l2 4q-63 -2 -198 -2q-51 0 -51 13q0 27 49 26q74 0 221 -4q72 104 106 186q37 84 31 123q-4 45 -61 45q-72 0 -140 -55q-18 -14 -20 -12q-8 8 6 20q86 90 213 90q98 0 125 -61q23 -51 -10 -141q-35 -90 -135 -205 q223 199 395 297q213 119 364 102q18 -4 30.5 -11t8.5 -13q-4 -2 -5 0t-11 4t-23 2q-106 0 -331 -127q-172 -96 -367 -246q43 -2 128 -3t130 -1q37 0 37 -10.5t-37 -10.5q-270 -4 -297 -6q-12 -6 -37 -24q-8 -6 -23.5 -21.5t-23.5 -21.5q102 0 254 -4q37 0 37 -9 q0 -10 -37 -10q-55 -2 -289 -6q-23 -20 -81 -75.5t-82 -78.5q-8 -8 -33 -14t-33 -2t12 33q33 43 107 135q-37 0 -90.5 -1t-61.5 -1q-51 0 -51 10z" />
<glyph unicode="&#xa6;" horiz-adv-x="317" d="M127 358h63v-716h-63v716zM127 666v716h63v-716h-63z" />
<glyph unicode="&#xa7;" horiz-adv-x="747" d="M-55 -80q6 35 29.5 55.5t56.5 20.5q29 -2 42 -20.5t7 -43.5q-2 -16 -21.5 -36.5t-21.5 -34.5q-2 -23 16.5 -38.5t52.5 -15.5q100 0 136 78q29 68 -15 174q-43 113 -14 183q25 66 85 100.5t132 34.5q-27 76 -4 139q25 66 87 104.5t136 36.5q51 -2 85 -31.5t22 -74.5 q-6 -27 -26.5 -45.5t-45.5 -16.5q-27 2 -39 21.5t0 46.5q6 14 18.5 30.5t12.5 24.5q0 27 -43 27q-90 0 -121 -82q-23 -59 12 -145q49 -125 23 -199q-23 -66 -85.5 -101.5t-133.5 -41.5q23 -80 4 -136q-25 -70 -92.5 -108.5t-141.5 -38.5h-2q-74 0 -117.5 39t-33.5 94z M295 272q-25 -59 10 -147q6 -14 14 -35q102 4 136 86q29 57 -9 150q-6 14 -10 32q-102 6 -141 -86z" />
<glyph unicode="&#xa8;" horiz-adv-x="628" d="M344 510q-18 31 0 82q14 45 90 45h2q29 0 37 -17.5t-12 -41.5q-45 -54 -117 -68zM561 592q14 45 92 45h2q29 0 36 -17.5t-13 -41.5q-45 -53 -115 -68q-18 33 -2 82z" />
<glyph unicode="&#xa9;" horiz-adv-x="1042" d="M219 276.5q0 131.5 97.5 224.5t228.5 93h2q131 0 227 -93t96 -224.5t-96 -223.5t-229 -92q-131 0 -228.5 92t-97.5 223.5zM266 276q0 -115 82 -196.5t196.5 -81.5t196.5 82t82 196q0 113 -82 196t-196 83h-2q-113 0 -195 -83t-82 -196zM375 272q0 82 58.5 129.5 t139.5 47.5q61 0 91 -17q31 -14 30 -53v-45h-30q-4 84 -91 84q-109 0 -108 -139q0 -141 104 -142q78 0 103 72h24q-6 -39 -8 -49q-10 -31 -29 -39q-39 -16 -94 -17q-80 0 -135 44t-55 124z" />
<glyph unicode="&#xaa;" horiz-adv-x="563" d="M238 645q6 41 50 89t111 79q78 41 140 35q53 -6 49 -49q43 45 90 45q37 0 37 -10q2 -4 -6 -13q-113 -147 -123 -166q-14 -23 -4 -28q8 -6 34 6q37 20 58 39q4 4 69 59q14 14 19 10q8 -4 -8 -20q-70 -61 -86 -76q-76 -59 -138 -59q-49 0 -55 30q-6 29 14 56l-2 2 q-96 -86 -174 -88q-81 -4 -75 59zM336 631q0 -16 16 -17q41 0 121 68q31 27 63.5 64.5t32.5 54.5q2 27 -24 26h-2q-35 0 -129 -90q-78 -75 -78 -106z" />
<glyph unicode="&#xab;" horiz-adv-x="616" d="M88 203q2 10 25 16q143 59 225 113q14 10 16 8q10 -6 -2 -25q-70 -86 -143 -133q25 -70 35 -153q4 -18 -4 -21h-2q-4 -2 -11 8q-2 4 -4 7q-90 117 -123 155q-14 19 -12 25zM293 203q2 8 24 16q133 55 226 113q14 10 16 8q8 -6 -4 -25q-59 -82 -141 -133q29 -80 32 -153 q4 -18 -4 -21q-4 -2 -16 15q-39 53 -121 155q-14 19 -12 25z" />
<glyph unicode="&#xac;" horiz-adv-x="935" d="M164 328v2q0 14 39 14q59 0 618 18q14 0 23.5 -6t8.5 -12t-5 -12q-152 -168 -217 -254q-29 -35 -41 -27q-8 4 10 39q84 129 141 207q-268 8 -538 14q-39 1 -39 17z" />
<glyph unicode="&#xad;" horiz-adv-x="524" d="M66 182q2 2 12 -2q16 -6 37 -2q41 4 108 45q51 33 99 33q53 0 78.5 -34t21.5 -85q0 -12 -6 -12q-4 0 -10 6q-23 31 -91 31q-27 0 -78 -10.5t-92 -10.5q-55 0 -77 29q-6 6 -2 12z" />
<glyph unicode="&#xae;" horiz-adv-x="927" d="M199 579.5q0 110.5 83 190.5t195.5 80t195.5 -80t83 -190v-2q0 -111 -83 -189t-195.5 -78t-195.5 79t-83 189.5zM244 579.5q0 -96.5 68.5 -165t164.5 -68.5t165 68.5t69 165.5v2q0 96 -69 163.5t-165 67.5t-164.5 -68.5t-68.5 -165zM340 444v23q29 0 34 10t5 49v119 q0 31 -7 40t-32 9v23h143q111 0 111 -72q0 -41 -49 -63q27 -49 43 -70q31 -43 76 -49v-21h-60q-43 0 -86 60q-31 45 -37 59q-6 -2 -14 -2l-18 2v-37q0 -35 8 -46t37 -11v-23h-154zM449 584q39 -2 56 11t17 48q0 55 -73 49v-108z" />
<glyph unicode="&#xaf;" horiz-adv-x="628" d="M310 524q-3 2 3 13q29 37 60 41q135 16 254 10q29 -2 28 -21v-2q0 -10 -12 -22q-20 -20 -39 -21q-154 6 -274 0q-17 0 -20 2z" />
<glyph unicode="&#xb0;" horiz-adv-x="342" d="M178 459q0 41 31 70.5t72 29.5h2q39 0 68.5 -29.5t29.5 -70.5t-29.5 -71t-70.5 -30t-72 30t-31 71zM221 458.5q0 -24.5 17.5 -42t42 -17.5t41 17.5t16.5 42t-16.5 41t-40.5 16.5h-2q-23 0 -40.5 -16.5t-17.5 -41z" />
<glyph unicode="&#xb1;" horiz-adv-x="735" d="M55 131q10 33 49 33q49 -2 230.5 -10.5t259.5 -10.5q14 0 22.5 -3t6.5 -11q0 -12 -37 -12q-399 -10 -486 -11q-29 0 -38 6.5t-7 18.5zM152 356q6 29 43 29q31 0 113.5 -3t125.5 -5q6 8 96 131q43 57 82 57h2q33 0 39 -10t-28 -55q-37 -39 -115 -125q133 -4 225 -8 q33 0 33 -12.5t-31 -12.5q-180 -4 -254 -6q-66 -70 -121 -129q-29 -29 -43 -23q-14 8 5 33q16 23 44.5 61.5t39.5 55.5q-35 0 -105 -1t-102.5 -1t-42.5 6t-6 18z" />
<glyph unicode="&#xb2;" horiz-adv-x="405" d="M109 328q2 8 16 18q12 8 131 68q66 31 118 76t62 81q10 45 -35 45q-41 0 -79 -28q-31 -27 -39 -51q-4 -18 6 -28.5t28 -6.5q10 6 11 0q2 -4 -9 -10q-16 -6 -32 -7q-43 2 -35 43q6 41 63 78q66 45 131 45q51 0 78 -20.5t19 -61.5q-12 -68 -137 -125q-31 -14 -95.5 -36.5 t-74.5 -26.5q27 6 49 4q20 0 58 -8t48 -8q39 0 74 41q8 8 14 6q8 -4 0 -13q-74 -92 -133 -92q-39 0 -80 21q-41 18 -71 18q-27 0 -60 -16l-9 -9q-5 -5 -7 -10l-4 -4q-16 1 -6 17z" />
<glyph unicode="&#xb3;" horiz-adv-x="405" d="M150 381q2 20 21 38.5t46 18.5q18 0 28.5 -9t8.5 -21q-2 -14 -23 -27q-27 -16 -26 -27q-2 -10 7 -15t26 -5q78 0 133 102q27 51 -6 58q-16 0 -31 -7q-16 -6 -19 -4q-4 10 19 21q125 41 125 96q0 27 -37 27q-33 0 -62 -19q-25 -16 -34 -39q-6 -12 0 -28q4 -8 2 -11 q-10 -6 -25 7q-16 12 -10 32q8 27 59 56q53 29 111 28q78 0 78 -45q4 -47 -70 -76q-20 -8 -88 -22q35 0 63 -18q33 -27 17 -68q-16 -49 -88 -80q-68 -29 -135 -29q-45 0 -69.5 16.5t-20.5 49.5z" />
<glyph unicode="&#xb4;" horiz-adv-x="628" d="M485 485q-4 4 13 25q16 18 120 154q23 37 48 38q31 0 39 -18q16 -35 -19 -70q-53 -53 -174 -125q-21 -10 -27 -4z" />
<glyph unicode="&#xb5;" horiz-adv-x="768" d="M-117 -141q10 53 45 116q37 72 105 158q96 127 166 174q-41 -14 -117 -74q-41 -33 -82 -69q-20 -18 -29 -12q-6 6 17 28q82 74 147 115q80 55 160 55q63 0 63 -14q0 -6 -10 -19q-45 -51 -112 -135q-59 -74 -78 -110q-14 -25 -2 -35q12 -12 47 6q53 27 153 104 q51 41 120 101.5t95 83.5q29 23 84 22q66 0 66 -12q0 -8 -10 -20q-63 -78 -109 -140q-55 -80 -63 -96q-18 -33 -7 -45q14 -12 52 6q39 20 84 57q41 31 102 89q18 18 27 10q6 -6 -23 -33q-53 -49 -119 -102q-106 -86 -194 -86q-96 0 -88 73q0 31 33 78q2 4 57 70l-4 4 q-35 -31 -133 -109q-51 -37 -78 -55t-76 -39.5t-90 -21.5q-45 0 -49 34q-29 -31 -47 -69q-37 -72 -45 -115q-4 -31 8 -43q-8 -16 -39 -6q-39 17 -27 76z" />
<glyph unicode="&#xb6;" horiz-adv-x="905" d="M-215 16q4 39 32.5 59.5t63.5 16.5q23 -2 37 -19.5t8 -41.5q-4 -20 -28.5 -45t-22.5 -39q0 -39 76 -39q104 0 227 102q88 76 201 217q-123 25 -162 120t45 194q127 141 475 129q84 -4 140 -19q168 168 333 168h2q39 0 69 -10t30 -25q0 -25 -31 -20q-18 4 -47 29 q-16 12 -41 10q-92 -6 -238 -176q39 -14 50 -25q16 -12 10 -18q-4 -4 -17 6q-25 14 -55 22q-53 -59 -94 -116q-166 -227 -287 -349q-180 -182 -350 -186q-18 0 -31 4q-115 -76 -231 -76q-76 0 -125 33t-39 94zM197 -20h8q6 -2 8 -3q80 0 219 140q31 31 63.5 69.5t55 66.5 t67 85t68.5 90q115 145 178 207q-16 4 -28 6q-16 0 -21 -2q-10 -4 -22.5 -11t-27.5 -20.5t-28.5 -26t-32 -34t-32 -36.5t-36 -43t-35.5 -44t-38.5 -48t-38.5 -48q-195 -246 -299 -326q-16 -16 -28 -22zM326.5 372.5q-9.5 -55.5 10 -86t54.5 -42.5q6 6 19 22q57 74 83.5 108 t87 102.5t111.5 109.5t94 57q-10 2 -34 2q-250 0 -367 -153q-49 -64 -58.5 -119.5z" />
<glyph unicode="&#xb7;" horiz-adv-x="296" d="M119 299q18 51 102 51h2q33 0 40 -20.5t-13 -48.5q-25 -29 -64 -49.5t-65 -24.5q-25 31 -2 92z" />
<glyph unicode="&#xb8;" horiz-adv-x="628" d="M-68 -143q2 2 19 -15q37 -33 100 -32h2q29 0 51.5 14t24.5 35q4 20 -10.5 33.5t-42.5 11.5q-8 0 -15.5 -3t-10.5 -4t-7 -2t-6 1q-4 8 6 18q49 53 94 88l25 -10q-43 -27 -68 -62q12 4 29 4q45 0 67.5 -20t18.5 -59t-47 -62.5t-107 -21.5q-82 2 -116 51q-19 27 -7 35z" />
<glyph unicode="&#xb9;" horiz-adv-x="405" d="M183 312.5q3 9.5 26 37.5q154 195 215 238q-14 -8 -52 -32t-53 -30q-57 -27 -65 -8q0 2 72 37q51 25 110 61q59 35 82 35q25 0 -6 -37q-96 -113 -186 -243q-23 -35 -42.5 -45.5t-84.5 -18.5q-19 -4 -16 5.5z" />
<glyph unicode="&#xba;" horiz-adv-x="563" d="M287 655q0 39 32.5 79t71.5 63q74 45 156 49q39 4 39 -6q0 -2 -21 -13q-43 -18 -102 -77q-76 -68 -80 -121q-2 -25 20 -25q55 0 136 86q4 33 22 64q16 27 47 43q2 12 0 24q-6 18 -4 21q8 8 31 -11q27 -20 24 -51q0 -47 -75 -116q6 -6 18 -5q20 -2 49 19q31 23 62 53 q14 14 20 10q4 -4 -10 -20q-27 -31 -61 -53q-39 -27 -64 -25q-16 -4 -31 6q-84 -63 -178 -63h-2q-100 -1 -100 69z" />
<glyph unicode="&#xbb;" horiz-adv-x="616" d="M33 10q-8 6 4 23q18 27 60 67.5t81 67.5q-27 80 -33 151q-4 20 5 23q6 0 16 -14q51 -74 121 -156q14 -18 12 -25q-4 -8 -25 -16q-168 -76 -225 -113q-14 -14 -16 -8zM236 10q-8 6 4 23q18 27 60 67.5t81 67.5q-23 66 -35 151q0 20 6 23q2 0 17 -14q27 -39 120 -156 q14 -18 13 -25q-2 -8 -25 -16q-168 -76 -225 -113q-14 -10 -16 -8z" />
<glyph unicode="&#xbc;" horiz-adv-x="866" d="M95 206q3 9 26 38q154 195 215 237q-14 -8 -52 -31.5t-53 -29.5q-57 -27 -65 -8q0 2 1 3t7 4t13 6l22 9q14 6 29 15q51 25 110 61q59 35 82 35q25 0 -6 -37q-96 -113 -186 -244q-23 -35 -42.5 -45t-84.5 -18q-19 -4 -16 5zM117 -90q-8 8 12 35q256 332 545 614 q55 55 96 55q49 0 -10 -57q-350 -324 -613 -627q-24 -24 -30 -20zM408 90q0 6 14 16q106 78 149 105q84 51 142 80q53 29 98 28q23 0 10 -12q-20 -27 -143 -192q12 0 45 -4q10 -2 17.5 -6.5t4.5 -10.5q-4 -4 -22 -4q-10 0 -31.5 1t-27.5 1q-12 -16 -60 -82q-16 -23 -88 -41 q-8 -2 -14 -2t-7 4t2 12.5t13 22.5q37 55 63 86q-66 0 -86 -2q-33 0 -65 -4q-14 -2 -14 4zM465 113q61 4 125 4q66 84 141 166q-59 -33 -141 -84q-27 -16 -68 -45t-57 -39v-2z" />
<glyph unicode="&#xbd;" horiz-adv-x="905" d="M95 206q3 9 26 38q154 195 215 237q-14 -8 -52 -31.5t-53 -29.5q-57 -27 -65 -8q0 2 1 3t7 4t13 6l22 9q14 6 29 15q51 25 110 61q59 35 82 35q25 0 -6 -37q-96 -113 -186 -244q-23 -35 -42.5 -45t-84.5 -18q-19 -4 -16 5zM117 -90q-6 8 12 35q268 344 545 614 q55 55 96 55q51 0 -10 -57q-350 -324 -613 -627q-22 -26 -30 -20zM418 -2q4 8 18 18l131 66q68 33 119 77t59 81q6 20 -4 32.5t-30 12.5q-39 0 -78 -29q-35 -27 -39 -51q-4 -18 6 -28.5t29 -6.5q10 4 10 0q2 -4 -8 -8q-16 -8 -35 -6q-39 2 -35 41q8 43 64 77q70 45 131 45 q49 2 76.5 -19t19.5 -62q-14 -63 -135 -125q-23 -10 -55.5 -22.5t-67.5 -24t-47 -15.5q33 4 47 4q20 -2 59 -10t49 -8q41 0 72 41q10 10 17 6q4 -2 -3 -12q-72 -90 -133 -90q-33 0 -77 18q-41 18 -70 18q-39 0 -62 -16q-8 -4 -14 -12l-6 -8q-4 -2 -7 3t-1 13z" />
<glyph unicode="&#xbe;" horiz-adv-x="944" d="M90 274q2 20 20.5 39t45.5 19q18 0 29.5 -9.5t9.5 -21.5q-2 -14 -23 -27q-27 -12 -27 -24q-2 -10 7.5 -16.5t25.5 -6.5q80 4 133 103q27 51 -6 57q-10 2 -31 -6q-16 -6 -18 -4q-4 14 18 20q53 18 89 45t36 52q0 27 -37 26q-35 0 -61 -18q-25 -16 -35 -39q-6 -12 0 -27 q6 -8 2 -12q-10 -6 -24 6q-16 14 -11 33q8 27 60 55q53 29 110 29q78 0 78 -45q0 -49 -69 -76q-41 -14 -88 -23q35 4 63 -18q33 -25 16 -68q-14 -49 -88 -79q-68 -29 -135 -29q-45 2 -69.5 17t-20.5 48zM199 -90q-8 8 10 35q258 332 545 614q55 55 96 55q49 0 -4 -51 q-2 -4 -6 -6q-369 -346 -613 -627q-22 -26 -28 -20zM489 90q0 8 15 16q74 57 149 105q94 57 142 80q53 29 98 28q23 0 10 -12q-20 -27 -143 -192q14 0 43 -4q12 -2 18 -6.5t4 -10.5q0 -4 -20 -4q-10 0 -31.5 1t-28.5 1q-12 -16 -59 -82q-16 -25 -90 -41q-20 -4 -20.5 4.5 t16.5 32.5q23 37 61 86q-57 0 -84 -2q-29 0 -65 -4q-15 -2 -15 4zM545 113q61 4 125 4q127 150 143 166q-59 -33 -141 -84q-27 -16 -69 -45t-58 -39v-2z" />
<glyph unicode="&#xbf;" horiz-adv-x="540" d="M-174 -221q27 135 250 215q109 39 145 61q49 29 66 60q16 59 37 59q6 0 9 -9t2 -24.5t-9 -29.5q-25 -51 -117 -107q-197 -125 -227 -231q-10 -35 4 -58.5t47 -23.5q61 0 131 49q45 31 64.5 82t0.5 82q-2 4 -6 8t-7 6t-3 4q2 6 23 2q33 -6 46 -27.5t5 -50.5 q-16 -61 -109 -122q-111 -74 -219 -74h-2q-70 0 -105.5 35t-25.5 94zM283.5 242.5q-7.5 19.5 13.5 46.5q23 29 61.5 48t61.5 21q23 -35 2 -88q-16 -47 -98 -47h-2q-31 0 -38.5 19.5z" />
<glyph unicode="&#xc0;" horiz-adv-x="1460" d="M35 115v2q0 57 35.5 94t79.5 39q41 2 64.5 -18.5t21.5 -53.5q0 -31 -50 -67q-35 -27 -34 -52q0 -35 49 -55t141 -12q188 16 414 172q-49 39 -88 102.5t-37 134.5q2 94 70.5 161t177.5 67q154 0 235 -158q41 41 88 82q182 174 314 246q147 78 264 78q80 0 104 -25 q6 -6 10 -12t4 -10.5t-2 -6.5q-2 0 -4 1t-6 5.5t-10 8.5q-16 12 -45 12q-37 0 -66 -23q-74 -57 -168 -192q-188 -262 -380 -576q55 4 118 39q53 27 115 82q25 25 33 19q8 -8 -19 -31q-61 -57 -123 -88q-72 -37 -135 -41q-37 -43 -131 -53q-27 -4 -40 0t-11 12l4 16 q2 6 9 17.5t7 13.5q-61 6 -143 35q-76 31 -125 67q-227 -166 -440 -182q-127 -10 -214 29t-87 121zM733 397q-6 -119 64 -200q43 33 149 122q45 41 148 134q-72 133 -193 133h-2q-76 0 -119 -55.5t-47 -133.5zM811 178q31 -37 109 -74q66 -29 135 -38q10 16 28.5 47.5 t22.5 38.5q25 49 20 163q-4 72 -22 117q-27 -25 -77 -70t-69 -61q-57 -51 -147 -123zM1124 451q20 -55 25 -123q4 -72 -10 -129q158 242 252 356q184 233 391 301v2q-117 0 -256 -76q-109 -59 -275 -209q-90 -85 -127 -122zM1622 1116q14 27 34.5 27t39.5 -21 q94 -86 162 -137q16 -16 14 -20q-8 -10 -25 -2q-137 43 -200 84q-45 30 -25 69z" />
<glyph unicode="&#xc1;" horiz-adv-x="1460" d="M35 115v2q0 57 35.5 94t79.5 39q41 2 64.5 -18.5t21.5 -53.5q0 -31 -50 -67q-35 -27 -34 -52q0 -35 49 -55t141 -12q188 16 414 172q-49 39 -88 102.5t-37 134.5q2 94 70.5 161t177.5 67q154 0 235 -158q41 41 88 82q182 174 314 246q147 78 264 78q80 0 104 -25 q6 -6 10 -12t4 -10.5t-2 -6.5q-2 0 -4 1t-6 5.5t-10 8.5q-16 12 -45 12q-37 0 -66 -23q-74 -57 -168 -192q-188 -262 -380 -576q55 4 118 39q53 27 115 82q25 25 33 19q8 -8 -19 -31q-61 -57 -123 -88q-72 -37 -135 -41q-37 -43 -131 -53q-27 -4 -40 0t-11 12l4 16 q2 6 9 17.5t7 13.5q-61 6 -143 35q-76 31 -125 67q-227 -166 -440 -182q-127 -10 -214 29t-87 121zM733 397q-6 -119 64 -200q43 33 149 122q45 41 148 134q-72 133 -193 133h-2q-76 0 -119 -55.5t-47 -133.5zM811 178q31 -37 109 -74q66 -29 135 -38q10 16 28.5 47.5 t22.5 38.5q25 49 20 163q-4 72 -22 117q-27 -25 -77 -70t-69 -61q-57 -51 -147 -123zM1124 451q20 -55 25 -123q4 -72 -10 -129q158 242 252 356q184 233 391 301v2q-117 0 -256 -76q-109 -59 -275 -209q-90 -85 -127 -122zM1653 975q16 8 50 29.5t46 29.5q31 18 143 96 q23 12 39 5q10 -4 15.5 -20.5t-2.5 -33.5q-25 -33 -111 -63q-104 -43 -170 -53q-12 4 -10 10z" />
<glyph unicode="&#xc2;" horiz-adv-x="1460" d="M35 115v2q0 57 35.5 94t79.5 39q41 2 64.5 -18.5t21.5 -53.5q0 -31 -50 -67q-35 -27 -34 -52q0 -35 49 -55t141 -12q188 16 414 172q-49 39 -88 102.5t-37 134.5q2 94 70.5 161t177.5 67q154 0 235 -158q41 41 88 82q182 174 314 246q147 78 264 78q80 0 104 -25 q6 -6 10 -12t4 -10.5t-2 -6.5q-2 0 -4 1t-6 5.5t-10 8.5q-16 12 -45 12q-37 0 -66 -23q-74 -57 -168 -192q-188 -262 -380 -576q55 4 118 39q53 27 115 82q25 25 33 19q8 -8 -19 -31q-61 -57 -123 -88q-72 -37 -135 -41q-37 -43 -131 -53q-27 -4 -40 0t-11 12l4 16 q2 6 9 17.5t7 13.5q-61 6 -143 35q-76 31 -125 67q-227 -166 -440 -182q-127 -10 -214 29t-87 121zM733 397q-6 -119 64 -200q43 33 149 122q45 41 148 134q-72 133 -193 133h-2q-76 0 -119 -55.5t-47 -133.5zM811 178q31 -37 109 -74q66 -29 135 -38q10 16 28.5 47.5 t22.5 38.5q25 49 20 163q-4 72 -22 117q-27 -25 -77 -70t-69 -61q-57 -51 -147 -123zM1124 451q20 -55 25 -123q4 -72 -10 -129q158 242 252 356q184 233 391 301v2q-117 0 -256 -76q-109 -59 -275 -209q-90 -85 -127 -122zM1544 958q-2 4 17 19q127 70 233 151q12 12 23 13 q6 0 12 -17q49 -111 74 -143q10 -14 6 -18t-27 4q-66 39 -100 71q-111 -53 -211 -80q-25 -6 -27 0z" />
<glyph unicode="&#xc3;" horiz-adv-x="1460" d="M35 115v2q0 57 35.5 94t79.5 39q41 2 64.5 -18.5t21.5 -53.5q0 -31 -50 -67q-35 -27 -34 -52q0 -35 49 -55t141 -12q188 16 414 172q-49 39 -88 102.5t-37 134.5q2 94 70.5 161t177.5 67q154 0 235 -158q41 41 88 82q182 174 314 246q147 78 264 78q80 0 104 -25 q6 -6 10 -12t4 -10.5t-2 -6.5q-2 0 -4 1t-6 5.5t-10 8.5q-16 12 -45 12q-37 0 -66 -23q-74 -57 -168 -192q-188 -262 -380 -576q55 4 118 39q53 27 115 82q25 25 33 19q8 -8 -19 -31q-61 -57 -123 -88q-72 -37 -135 -41q-37 -43 -131 -53q-27 -4 -40 0t-11 12l4 16 q2 6 9 17.5t7 13.5q-61 6 -143 35q-76 31 -125 67q-227 -166 -440 -182q-127 -10 -214 29t-87 121zM733 397q-6 -119 64 -200q43 33 149 122q45 41 148 134q-72 133 -193 133h-2q-76 0 -119 -55.5t-47 -133.5zM811 178q31 -37 109 -74q66 -29 135 -38q10 16 28.5 47.5 t22.5 38.5q25 49 20 163q-4 72 -22 117q-27 -25 -77 -70t-69 -61q-57 -51 -147 -123zM1124 451q20 -55 25 -123q4 -72 -10 -129q158 242 252 356q184 233 391 301v2q-117 0 -256 -76q-109 -59 -275 -209q-90 -85 -127 -122zM1589 977q-10 4 2 24q47 90 125 89q29 -2 69 -24 t60 -24q43 -2 84 35q14 14 19 10q6 -2 -2 -20q-45 -94 -121 -94q-25 0 -68 22.5t-67 24.5q-51 6 -82 -33q-13 -12 -19 -10z" />
<glyph unicode="&#xc4;" horiz-adv-x="1460" d="M35 115v2q0 57 35.5 94t79.5 39q41 2 64.5 -18.5t21.5 -53.5q0 -31 -50 -67q-35 -27 -34 -52q0 -35 49 -55t141 -12q188 16 414 172q-49 39 -88 102.5t-37 134.5q2 94 70.5 161t177.5 67q154 0 235 -158q41 41 88 82q182 174 314 246q147 78 264 78q80 0 104 -25 q6 -6 10 -12t4 -10.5t-2 -6.5q-2 0 -4 1t-6 5.5t-10 8.5q-16 12 -45 12q-37 0 -66 -23q-74 -57 -168 -192q-188 -262 -380 -576q55 4 118 39q53 27 115 82q25 25 33 19q8 -8 -19 -31q-61 -57 -123 -88q-72 -37 -135 -41q-37 -43 -131 -53q-27 -4 -40 0t-11 12l4 16 q2 6 9 17.5t7 13.5q-61 6 -143 35q-76 31 -125 67q-227 -166 -440 -182q-127 -10 -214 29t-87 121zM733 397q-6 -119 64 -200q43 33 149 122q45 41 148 134q-72 133 -193 133h-2q-76 0 -119 -55.5t-47 -133.5zM811 178q31 -37 109 -74q66 -29 135 -38q10 16 28.5 47.5 t22.5 38.5q25 49 20 163q-4 72 -22 117q-27 -25 -77 -70t-69 -61q-57 -51 -147 -123zM1124 451q20 -55 25 -123q4 -72 -10 -129q158 242 252 356q184 233 391 301v2q-117 0 -256 -76q-109 -59 -275 -209q-90 -85 -127 -122zM1597 1053q18 43 89 43q27 0 33.5 -17.5 t-11.5 -42.5q-23 -27 -56.5 -44t-52.5 -17q-22 27 -2 78zM1835 975q-20 29 0 78q18 43 90 43q27 0 33 -17.5t-12 -42.5q-20 -27 -54 -44t-57 -17z" />
<glyph unicode="&#xc5;" horiz-adv-x="1460" d="M35 115v2q0 57 35.5 94t79.5 39q41 2 64.5 -18.5t21.5 -53.5q0 -31 -50 -67q-35 -27 -34 -52q0 -35 49 -55t141 -12q188 16 414 172q-49 39 -88 102.5t-37 134.5q2 94 70.5 161t177.5 67q154 0 235 -158q41 41 88 82q182 174 314 246q147 78 264 78q80 0 104 -25 q6 -6 10 -12t4 -10.5t-2 -6.5q-2 0 -4 1t-6 5.5t-10 8.5q-16 12 -45 12q-37 0 -66 -23q-74 -57 -168 -192q-188 -262 -380 -576q55 4 118 39q53 27 115 82q25 25 33 19q8 -8 -19 -31q-61 -57 -123 -88q-72 -37 -135 -41q-37 -43 -131 -53q-27 -4 -40 0t-11 12l4 16 q2 6 9 17.5t7 13.5q-61 6 -143 35q-76 31 -125 67q-227 -166 -440 -182q-127 -10 -214 29t-87 121zM733 397q-6 -119 64 -200q43 33 149 122q45 41 148 134q-72 133 -193 133h-2q-76 0 -119 -55.5t-47 -133.5zM811 178q31 -37 109 -74q66 -29 135 -38q10 16 28.5 47.5 t22.5 38.5q25 49 20 163q-4 72 -22 117q-27 -25 -77 -70t-69 -61q-57 -51 -147 -123zM1124 451q20 -55 25 -123q4 -72 -10 -129q158 242 252 356q184 233 391 301v2q-117 0 -256 -76q-109 -59 -275 -209q-90 -85 -127 -122zM1673 1065q0 39 29 69.5t69.5 30.5t70.5 -30.5 t30 -69.5q0 -43 -30 -71.5t-70 -28.5q-43 0 -71 28.5t-28 71.5zM1722 1065q0 -51 50 -51q23 0 37 14t14 37q0 20 -14.5 36.5t-37 16.5t-36 -16.5t-13.5 -36.5z" />
<glyph unicode="&#xc6;" horiz-adv-x="1927" d="M37 115q0 59 34.5 96t80.5 39q41 2 64.5 -17.5t23.5 -54.5q-2 -33 -52 -67q-35 -27 -32 -52q0 -35 48 -55t140 -12q193 16 412 172q-47 33 -85 99.5t-38 137.5q2 100 71.5 164t180.5 64q143 -2 231 -150q55 53 121 109q158 131 309 203q145 63 281 63q49 0 96 -14 q82 12 168 10q102 -4 171 -42t69 -87q0 -74 -98.5 -115t-217.5 -28q-84 6 -117 49q-8 12 -2 14q2 2 5 -2q4 -6 8 -8q39 -33 108 -39q100 -4 176 28.5t76 96.5q0 43 -43 76.5t-129 35.5q-80 0 -162 -41q-80 -37 -153 -110q-88 -94 -88 -191q43 8 100 5q115 -4 115 -52 q0 -41 -113 -41q-141 0 -194 56q-100 -41 -174 -115t-97 -174q-18 -90 31 -140.5t147 -50.5q125 0 273 97q41 27 143 116q20 16 26.5 10.5t-20.5 -30.5q-96 -84 -149 -121q-143 -96 -291 -104q-127 -6 -216 30.5t-106 116.5q-55 -27 -143 -22q-160 8 -248 79 q-221 -166 -440 -182q-127 -10 -214 29t-87 121zM737 395q-6 -125 62 -200q162 133 299 266q-76 125 -195 125h-2q-76 0 -118 -56.5t-46 -134.5zM813 176q70 -74 213 -86q78 -6 141 21q-4 29 4 63q-6 141 -59 262q-109 -102 -299 -260zM1130 455q55 -111 56 -240 q35 92 157 164q98 61 246 94q-29 31 -22.5 95.5t55.5 121.5q43 51 120 89t144 50v2q-29 4 -55 5q-137 0 -272 -68q-147 -70 -304 -201q-49 -40 -125 -112zM1698 469q8 -20 34.5 -34.5t55.5 -16.5q82 -4 82 24v2q0 25 -78 29q-67 0 -94 -4z" />
<glyph unicode="&#xc7;" horiz-adv-x="835" d="M41 143q-4 129 83 259t241 239q-51 61 -52 129q0 84 70 138.5t172 54.5h2q178 0 266 -129q53 12 111 12q102 4 178 -34t66 -120q-6 -66 -77 -113t-157 -67t-170 -20q-217 0 -325 77q-106 -94 -175 -212.5t-69 -213.5q0 -186 201 -178q139 4 290 111q35 23 129 106 q31 27 37 21q6 -8 -24 -35q-96 -88 -140 -119q-162 -111 -321 -121q-66 0 -96 4q-33 -27 -56 -53q12 4 27 4q45 0 68.5 -23.5t19.5 -58.5q-4 -37 -49 -60.5t-105 -21.5q-84 6 -116 52q-20 27 -7 34q2 2 19 -14q41 -31 100 -31q63 4 72 43q6 20 -8.5 35t-40.5 12q-8 0 -18 -3 l-12 -4q-3 -1 -7 1q-8 4 6 19q27 29 74 71q-199 29 -207 209zM340 770q0 -70 41 -117q195 121 405 172q-33 45 -97 77t-134 32h-2q-90 0 -151.5 -44t-61.5 -120zM463 584q106 -72 313 -72h2q113 0 204 49t105 139q8 66 -33.5 97.5t-119.5 31.5q-59 0 -103 -14 q25 -45 29 -113v-23q0 -11 -1 -19.5t-2 -14.5t-2 -8t-3 -2t-3 6t-2 21.5t-3 29.5q-8 61 -45 113q-78 -25 -176.5 -90t-159.5 -131z" />
<glyph unicode="&#xc8;" horiz-adv-x="845" d="M70 158q14 82 88.5 149.5t159.5 104.5t176 57q-25 31 -25 80v2q0 63 45 121q-86 66 -84 147q4 59 53 96t127 37q154 0 256 -108q90 10 156 8q100 -4 161.5 -42t59.5 -89q-2 -68 -98 -117t-219 -49q-166 0 -291 55q-20 -29 -29 -59q-10 -35 -6 -64q53 6 102 5 q115 -4 109 -52q-6 -41 -113 -41q-133 0 -194 56q-78 -31 -154 -101q-102 -94 -119 -196q-20 -94 31 -144.5t154 -46.5q139 8 284 105q23 16 50.5 38.5t55.5 46t38 31.5q18 18 26 11q6 -6 -22 -31q-74 -70 -148 -121q-162 -109 -323 -121q-164 -10 -245.5 51.5t-61.5 180.5z M453 819q-4 -74 73 -133q41 51 127 88q76 41 170 62q-102 98 -215 98q-70 0 -110.5 -31t-44.5 -84zM604 471q12 -47 96 -51q72 -4 74 26q2 12 -18.5 19.5t-53.5 9.5q-49 4 -98 -4zM645 629q109 -53 277 -54h2q98 0 179 41t83 105q4 43 -35 76.5t-123 36.5q-68 2 -139 -25 q27 -45 31 -86q2 -12 3 -22.5t1 -18.5t-1 -14t-3 -8.5t-4.5 -2.5t-2.5 4.5t-3 18.5t-9 33q-10 47 -45 84q-68 -35 -121 -76q-41 -31 -90 -92zM887 1116q14 27 34.5 27t39.5 -21q94 -86 161 -137q16 -16 15 -20q-8 -10 -25 -2q-137 43 -201 84q-44 30 -24 69z" />
<glyph unicode="&#xc9;" horiz-adv-x="845" d="M70 158q14 82 88.5 149.5t159.5 104.5t176 57q-25 31 -25 80v2q0 63 45 121q-86 66 -84 147q4 59 53 96t127 37q154 0 256 -108q90 10 156 8q100 -4 161.5 -42t59.5 -89q-2 -68 -98 -117t-219 -49q-166 0 -291 55q-20 -29 -29 -59q-10 -35 -6 -64q53 6 102 5 q115 -4 109 -52q-6 -41 -113 -41q-133 0 -194 56q-78 -31 -154 -101q-102 -94 -119 -196q-20 -94 31 -144.5t154 -46.5q139 8 284 105q23 16 50.5 38.5t55.5 46t38 31.5q18 18 26 11q6 -6 -22 -31q-74 -70 -148 -121q-162 -109 -323 -121q-164 -10 -245.5 51.5t-61.5 180.5z M453 819q-4 -74 73 -133q41 51 127 88q76 41 170 62q-102 98 -215 98q-70 0 -110.5 -31t-44.5 -84zM604 471q12 -47 96 -51q72 -4 74 26q2 12 -18.5 19.5t-53.5 9.5q-49 4 -98 -4zM645 629q109 -53 277 -54h2q98 0 179 41t83 105q4 43 -35 76.5t-123 36.5q-68 2 -139 -25 q27 -45 31 -86q2 -12 3 -22.5t1 -18.5t-1 -14t-3 -8.5t-4.5 -2.5t-2.5 4.5t-3 18.5t-9 33q-10 47 -45 84q-68 -35 -121 -76q-41 -31 -90 -92zM934 975q16 8 50 29.5t46 29.5q31 18 144 96q23 12 38 5q10 -4 15.5 -20.5t-2.5 -33.5q-25 -33 -111 -63q-104 -43 -170 -53 q-12 4 -10 10z" />
<glyph unicode="&#xca;" horiz-adv-x="845" d="M70 158q14 82 88.5 149.5t159.5 104.5t176 57q-25 31 -25 80v2q0 63 45 121q-86 66 -84 147q4 59 53 96t127 37q154 0 256 -108q90 10 156 8q100 -4 161.5 -42t59.5 -89q-2 -68 -98 -117t-219 -49q-166 0 -291 55q-20 -29 -29 -59q-10 -35 -6 -64q53 6 102 5 q115 -4 109 -52q-6 -41 -113 -41q-133 0 -194 56q-78 -31 -154 -101q-102 -94 -119 -196q-20 -94 31 -144.5t154 -46.5q139 8 284 105q23 16 50.5 38.5t55.5 46t38 31.5q18 18 26 11q6 -6 -22 -31q-74 -70 -148 -121q-162 -109 -323 -121q-164 -10 -245.5 51.5t-61.5 180.5z M453 819q-4 -74 73 -133q41 51 127 88q76 41 170 62q-102 98 -215 98q-70 0 -110.5 -31t-44.5 -84zM604 471q12 -47 96 -51q72 -4 74 26q2 12 -18.5 19.5t-53.5 9.5q-49 4 -98 -4zM645 629q109 -53 277 -54h2q98 0 179 41t83 105q4 43 -35 76.5t-123 36.5q-68 2 -139 -25 q27 -45 31 -86q2 -12 3 -22.5t1 -18.5t-1 -14t-3 -8.5t-4.5 -2.5t-2.5 4.5t-3 18.5t-9 33q-10 47 -45 84q-68 -35 -121 -76q-41 -31 -90 -92zM872 958q-2 4 17 19q127 70 233 151q12 12 23 13q6 0 12 -17q49 -111 74 -143q10 -14 6 -18t-27 4q-66 39 -100 71 q-111 -53 -211 -80q-25 -6 -27 0z" />
<glyph unicode="&#xcb;" horiz-adv-x="845" d="M70 158q14 82 88.5 149.5t159.5 104.5t176 57q-25 31 -25 80v2q0 63 45 121q-86 66 -84 147q4 59 53 96t127 37q154 0 256 -108q90 10 156 8q100 -4 161.5 -42t59.5 -89q-2 -68 -98 -117t-219 -49q-166 0 -291 55q-20 -29 -29 -59q-10 -35 -6 -64q53 6 102 5 q115 -4 109 -52q-6 -41 -113 -41q-133 0 -194 56q-78 -31 -154 -101q-102 -94 -119 -196q-20 -94 31 -144.5t154 -46.5q139 8 284 105q23 16 50.5 38.5t55.5 46t38 31.5q18 18 26 11q6 -6 -22 -31q-74 -70 -148 -121q-162 -109 -323 -121q-164 -10 -245.5 51.5t-61.5 180.5z M453 819q-4 -74 73 -133q41 51 127 88q76 41 170 62q-102 98 -215 98q-70 0 -110.5 -31t-44.5 -84zM604 471q12 -47 96 -51q72 -4 74 26q2 12 -18.5 19.5t-53.5 9.5q-49 4 -98 -4zM645 629q109 -53 277 -54h2q98 0 179 41t83 105q4 43 -35 76.5t-123 36.5q-68 2 -139 -25 q27 -45 31 -86q2 -12 3 -22.5t1 -18.5t-1 -14t-3 -8.5t-4.5 -2.5t-2.5 4.5t-3 18.5t-9 33q-10 47 -45 84q-68 -35 -121 -76q-41 -31 -90 -92zM899 1053q18 43 88 43q27 0 34 -17.5t-11 -42.5q-23 -27 -56.5 -44t-52.5 -17q-22 27 -2 78zM1137 975q-20 29 0 78q18 43 90 43 q27 0 33 -17.5t-13 -42.5q-20 -27 -53.5 -44t-56.5 -17z" />
<glyph unicode="&#xcc;" horiz-adv-x="989" d="M-37 121q0 55 38 96t91 41q47 0 67.5 -27.5t14.5 -62.5q-8 -37 -45 -66q-41 -37 -41 -63q0 -25 32 -40t87 -15q297 0 606 411q143 190 213 262q150 150 293 193q-20 -4 -110.5 -22.5t-123.5 -26.5q-166 -39 -297 -113q-55 -31 -93 -75t-38 -87q0 -51 52 -51q29 0 53 17 q18 12 20 10q4 -8 -10 -23q-31 -25 -74 -28q-49 -4 -83.5 20.5t-34.5 67.5q0 113 180 192q102 49 321 94q29 6 84.5 16.5t96.5 17.5t57 13q43 14 55 13q20 -2 8 -23q-4 -6 -12 -10q-88 -35 -194 -186q-29 -41 -89.5 -135.5t-93.5 -137.5q-332 -430 -774 -430 q-117 0 -186.5 40t-69.5 118zM1120 1116q14 27 35 27t39 -21q94 -86 162 -137q16 -16 14 -20q-8 -10 -24 -2q-137 43 -201 84q-45 30 -25 69z" />
<glyph unicode="&#xcd;" horiz-adv-x="989" d="M-37 121q0 55 38 96t91 41q47 0 67.5 -27.5t14.5 -62.5q-8 -37 -45 -66q-41 -37 -41 -63q0 -25 32 -40t87 -15q297 0 606 411q143 190 213 262q150 150 293 193q-20 -4 -110.5 -22.5t-123.5 -26.5q-166 -39 -297 -113q-55 -31 -93 -75t-38 -87q0 -51 52 -51q29 0 53 17 q18 12 20 10q4 -8 -10 -23q-31 -25 -74 -28q-49 -4 -83.5 20.5t-34.5 67.5q0 113 180 192q102 49 321 94q29 6 84.5 16.5t96.5 17.5t57 13q43 14 55 13q20 -2 8 -23q-4 -6 -12 -10q-88 -35 -194 -186q-29 -41 -89.5 -135.5t-93.5 -137.5q-332 -430 -774 -430 q-117 0 -186.5 40t-69.5 118zM1161 975q16 8 50 29.5t46 29.5q31 18 144 96q23 12 39 5q10 -4 15 -20.5t-3 -33.5q-25 -33 -111 -63q-104 -43 -170 -53q-12 4 -10 10z" />
<glyph unicode="&#xce;" horiz-adv-x="989" d="M-37 121q0 55 38 96t91 41q47 0 67.5 -27.5t14.5 -62.5q-8 -37 -45 -66q-41 -37 -41 -63q0 -25 32 -40t87 -15q297 0 606 411q143 190 213 262q150 150 293 193q-20 -4 -110.5 -22.5t-123.5 -26.5q-166 -39 -297 -113q-55 -31 -93 -75t-38 -87q0 -51 52 -51q29 0 53 17 q18 12 20 10q4 -8 -10 -23q-31 -25 -74 -28q-49 -4 -83.5 20.5t-34.5 67.5q0 113 180 192q102 49 321 94q29 6 84.5 16.5t96.5 17.5t57 13q43 14 55 13q20 -2 8 -23q-4 -6 -12 -10q-88 -35 -194 -186q-29 -41 -89.5 -135.5t-93.5 -137.5q-332 -430 -774 -430 q-117 0 -186.5 40t-69.5 118zM1085 958q-2 4 17 19q127 70 233 151q12 12 23 13q6 0 12 -17q49 -111 74 -143q10 -14 6 -18t-27 4q-66 39 -100 71q-111 -53 -211 -80q-25 -6 -27 0z" />
<glyph unicode="&#xcf;" horiz-adv-x="989" d="M-37 121q0 55 38 96t91 41q47 0 67.5 -27.5t14.5 -62.5q-8 -37 -45 -66q-41 -37 -41 -63q0 -25 32 -40t87 -15q297 0 606 411q143 190 213 262q150 150 293 193q-20 -4 -110.5 -22.5t-123.5 -26.5q-166 -39 -297 -113q-55 -31 -93 -75t-38 -87q0 -51 52 -51q29 0 53 17 q18 12 20 10q4 -8 -10 -23q-31 -25 -74 -28q-49 -4 -83.5 20.5t-34.5 67.5q0 113 180 192q102 49 321 94q29 6 84.5 16.5t96.5 17.5t57 13q43 14 55 13q20 -2 8 -23q-4 -6 -12 -10q-88 -35 -194 -186q-29 -41 -89.5 -135.5t-93.5 -137.5q-332 -430 -774 -430 q-117 0 -186.5 40t-69.5 118zM1184 1053q18 43 88 43q27 0 34 -17.5t-12 -42.5q-23 -27 -56.5 -44t-51.5 -17q-22 27 -2 78zM1421 975q-20 29 0 78q18 43 90 43q27 0 33 -17.5t-12 -42.5q-20 -27 -54 -44t-57 -17z" />
<glyph unicode="&#xd0;" horiz-adv-x="1490" d="M-90 16q6 51 299 41q88 0 274 -28q53 14 98.5 39.5t95.5 77t70.5 76t79.5 97.5h-39q-16 0 -25 5.5t-7 15.5q0 25 35 25q8 0 30.5 -1.5t34.5 -1.5l25 25q168 205 372 332q-162 129 -448 129q-242 0 -424 -131t-184 -303q-4 -154 153 -164q160 -8 289 108q113 106 113 199 q0 41 -26 66.5t-64 27.5q-72 2 -132 -53q-10 -10 -19 -21.5t-13 -14.5t-6 -3q-2 2 0 8t10 18.5t20 24.5q68 68 150 64q47 -2 83 -33t38 -84q10 -129 -117 -233q-57 -45 -147.5 -71t-180.5 -22q-113 4 -190.5 55.5t-77.5 141.5q0 178 225 308t500 130q301 0 473 -131 q55 35 139 66q115 41 209 41q76 0 119 -33q6 -6 11 -13.5t6 -11.5t-1 -6q-2 0 -3 2t-7 8.5t-16 12.5q-37 20 -103 20q-88 0 -192 -43q-70 -29 -123 -73q113 -96 143.5 -229.5t-33.5 -244.5q-145 -250 -661 -249q-156 0 -303 16q-78 -14 -230 -14h-67h-107q-35 0 -76.5 3 t-58 10t-14.5 19zM522 23q123 -20 213 -21q164 0 307.5 68.5t233.5 205.5q70 100 74 217t-58 193q-47 -45 -133 -166t-123 -164q37 -2 87.5 -5t64.5 -3q25 -4 24 -10q0 -8 -24 -8q-23 -2 -86.5 -3t-91.5 -1q-185 -215 -488 -303z" />
<glyph unicode="&#xd1;" horiz-adv-x="1372" d="M-190 98v2q0 59 40.5 96t90.5 37q86 0 86 -69q0 -33 -39 -68q-43 -35 -47 -59q-4 -33 30.5 -51.5t104.5 -18.5q125 0 280.5 63.5t294.5 172.5q293 223 445 510q20 41 59 80q53 49 100 49q23 0 31 -9.5t0 -19.5q-31 -45 -47 -113q-12 -49 -29 -249q-18 -227 -53 -314h2 q205 299 389 506q135 154 249 241t220 85q61 -2 96 -39t31 -90q-4 -23 -10 -23q-2 0 -2 3t-1 9.5t-3 10.5q-20 61 -111 63q-168 8 -446 -285q-193 -201 -479 -614q-29 -45 -64 -33q-47 14 -35 54q47 143 56 329q12 229 34 291h-2q-59 -113 -174.5 -238.5t-242.5 -222.5 q-147 -111 -304 -176t-286 -67q-111 -2 -187.5 36.5t-76.5 120.5zM1411 977q-10 4 2 24q47 90 125 89q29 -2 69 -24t60 -24q43 -2 84 35q14 14 18 10q6 -2 -2 -20q-45 -94 -120 -94q-25 0 -68 22.5t-68 24.5q-51 6 -81 -33q-13 -12 -19 -10z" />
<glyph unicode="&#xd2;" horiz-adv-x="933" d="M37 137q-25 115 37.5 239t158.5 214q143 137 335 209.5t358 56.5q137 -14 151 -113q6 -59 -35 -100q-20 -25 -28 -16l16 24q31 39 25 90q-6 41 -43 64.5t-86 23.5q-137 4 -292 -90t-263 -207q-94 -102 -152.5 -226t-38.5 -216q18 -98 135 -102q207 -6 467 311 q160 201 172 340q4 35 -14 54.5t-47 21.5q-78 4 -185.5 -71t-209.5 -206q-168 -213 -168 -332v-2q0 -47 26 -77q10 -10 9 -13q-4 -8 -17 4q-39 27 -51 91q-8 70 26.5 164t110.5 186q102 129 234.5 203.5t226.5 70.5q106 -6 106 -141q0 -66 -33.5 -155t-95.5 -165 q-106 -129 -273 -218t-308 -85q-88 2 -162 40t-92 128zM776 1116q14 27 34.5 27t39.5 -21q94 -86 162 -137q16 -16 14 -20q-8 -10 -25 -2q-137 43 -200 84q-45 30 -25 69z" />
<glyph unicode="&#xd3;" horiz-adv-x="933" d="M37 137q-25 115 37.5 239t158.5 214q143 137 335 209.5t358 56.5q137 -14 151 -113q6 -59 -35 -100q-20 -25 -28 -16l16 24q31 39 25 90q-6 41 -43 64.5t-86 23.5q-137 4 -292 -90t-263 -207q-94 -102 -152.5 -226t-38.5 -216q18 -98 135 -102q207 -6 467 311 q160 201 172 340q4 35 -14 54.5t-47 21.5q-78 4 -185.5 -71t-209.5 -206q-168 -213 -168 -332v-2q0 -47 26 -77q10 -10 9 -13q-4 -8 -17 4q-39 27 -51 91q-8 70 26.5 164t110.5 186q102 129 234.5 203.5t226.5 70.5q106 -6 106 -141q0 -66 -33.5 -155t-95.5 -165 q-106 -129 -273 -218t-308 -85q-88 2 -162 40t-92 128zM801 975q16 8 50 29.5t46 29.5q31 18 143 96q23 12 39 5q10 -4 15.5 -20.5t-2.5 -33.5q-25 -33 -111 -63q-104 -43 -170 -53q-12 4 -10 10z" />
<glyph unicode="&#xd4;" horiz-adv-x="933" d="M37 137q-25 115 37.5 239t158.5 214q143 137 335 209.5t358 56.5q137 -14 151 -113q6 -59 -35 -100q-20 -25 -28 -16l16 24q31 39 25 90q-6 41 -43 64.5t-86 23.5q-137 4 -292 -90t-263 -207q-94 -102 -152.5 -226t-38.5 -216q18 -98 135 -102q207 -6 467 311 q160 201 172 340q4 35 -14 54.5t-47 21.5q-78 4 -185.5 -71t-209.5 -206q-168 -213 -168 -332v-2q0 -47 26 -77q10 -10 9 -13q-4 -8 -17 4q-39 27 -51 91q-8 70 26.5 164t110.5 186q102 129 234.5 203.5t226.5 70.5q106 -6 106 -141q0 -66 -33.5 -155t-95.5 -165 q-106 -129 -273 -218t-308 -85q-88 2 -162 40t-92 128zM709 958q-2 4 16 19q127 70 233 151q12 12 23 13q6 0 12 -17q49 -111 74 -143q10 -14 6 -18t-26 4q-66 39 -101 71q-111 -53 -211 -80q-24 -6 -26 0z" />
<glyph unicode="&#xd5;" horiz-adv-x="933" d="M37 137q-25 115 37.5 239t158.5 214q143 137 335 209.5t358 56.5q137 -14 151 -113q6 -59 -35 -100q-20 -25 -28 -16l16 24q31 39 25 90q-6 41 -43 64.5t-86 23.5q-137 4 -292 -90t-263 -207q-94 -102 -152.5 -226t-38.5 -216q18 -98 135 -102q207 -6 467 311 q160 201 172 340q4 35 -14 54.5t-47 21.5q-78 4 -185.5 -71t-209.5 -206q-168 -213 -168 -332v-2q0 -47 26 -77q10 -10 9 -13q-4 -8 -17 4q-39 27 -51 91q-8 70 26.5 164t110.5 186q102 129 234.5 203.5t226.5 70.5q106 -6 106 -141q0 -66 -33.5 -155t-95.5 -165 q-106 -129 -273 -218t-308 -85q-88 2 -162 40t-92 128zM768 977q-10 4 2 24q47 90 125 89q29 -2 69 -24t60 -24q43 -2 84 35q14 14 18 10q6 -2 -2 -20q-45 -94 -120 -94q-25 0 -68 22.5t-68 24.5q-51 6 -82 -33q-12 -12 -18 -10z" />
<glyph unicode="&#xd6;" horiz-adv-x="933" d="M37 137q-25 115 37.5 239t158.5 214q143 137 335 209.5t358 56.5q137 -14 151 -113q6 -59 -35 -100q-20 -25 -28 -16l16 24q31 39 25 90q-6 41 -43 64.5t-86 23.5q-137 4 -292 -90t-263 -207q-94 -102 -152.5 -226t-38.5 -216q18 -98 135 -102q207 -6 467 311 q160 201 172 340q4 35 -14 54.5t-47 21.5q-78 4 -185.5 -71t-209.5 -206q-168 -213 -168 -332v-2q0 -47 26 -77q10 -10 9 -13q-4 -8 -17 4q-39 27 -51 91q-8 70 26.5 164t110.5 186q102 129 234.5 203.5t226.5 70.5q106 -6 106 -141q0 -66 -33.5 -155t-95.5 -165 q-106 -129 -273 -218t-308 -85q-88 2 -162 40t-92 128zM760 1053q18 43 88 43q27 0 34 -17.5t-12 -42.5q-23 -27 -56.5 -44t-51.5 -17q-22 27 -2 78zM997 975q-20 29 0 78q18 43 90 43q27 0 33 -17.5t-12 -42.5q-20 -27 -54 -44t-57 -17z" />
<glyph unicode="&#xd7;" horiz-adv-x="643" d="M18 25q-6 10 25 32q20 16 114.5 86t153.5 115q-16 45 -57 160q-16 43 22 67q35 20 43 -22q2 -10 15.5 -69.5t23.5 -98.5q156 115 199 149q61 47 109 48q45 0 4 -35q-12 -12 -37 -29q-18 -12 -57 -39t-99.5 -67.5t-107.5 -73.5q25 -98 41 -180q8 -33 -2 -39q-4 -2 -9.5 1 t-7.5 8t-6 13q-8 20 -28.5 77.5t-30.5 88.5q-51 -37 -142.5 -96.5t-122.5 -79.5q-35 -24 -43 -16z" />
<glyph unicode="&#xd8;" horiz-adv-x="933" d="M37 137q-23 115 40.5 239t158.5 214q150 137 334 207.5t352 58.5q25 0 32 -4q12 14 36 41t42.5 48.5t32.5 39.5q27 27 45 18q16 -8 -6 -38q-39 -45 -107 -121q78 -33 80 -97q6 -53 -33 -100q-23 -27 -28 -16l16 24q31 43 23 90q-2 51 -76 76l-721 -819q25 -10 57 -10 q211 -6 467 311q158 199 185 348q6 41 0 64q-2 16 -9 32q-4 8 -2 9q4 2 8.5 -2.5t10.5 -14.5t12 -24q18 -51 17 -119q-8 -168 -132 -320q-106 -131 -273 -220t-308 -85q-23 0 -55 4q-88 -96 -138 -153q-14 -14 -22 -8t4 22q8 10 55 65.5t70 82.5q-143 36 -168 157zM182 90 q10 -49 49 -80l707 817q-4 2 -14 2q-133 2 -291 -92t-260 -205q-96 -100 -153.5 -225t-37.5 -217z" />
<glyph unicode="&#xd9;" horiz-adv-x="1200" d="M113 395q-12 70 31.5 159t123.5 157q90 76 204 113.5t212 37.5q88 0 141.5 -30.5t53.5 -88.5q0 -43 -33 -101t-67 -100t-99 -120q-242 -276 -254 -354q-6 -41 33 -41q76 0 215 104q152 111 299 287q176 205 352 344q145 115 225 104q27 -6 24 -32.5t-34 -59.5 q-49 -53 -154 -129q-121 -88 -186 -143q-8 -10 -17 -21.5t-19.5 -24t-16.5 -20.5q-213 -281 -219 -356q-6 -37 20 -43q47 -6 127 53q45 33 117 94q25 20 31 14.5t-17 -26.5q-47 -45 -123 -102q-113 -88 -204 -88q-49 -2 -76 21.5t-27 64.5q0 78 98 206q-106 -104 -243 -198 t-242 -94q-59 0 -84.5 21.5t-23.5 64.5q2 100 251 378q193 219 218 314q10 43 -13.5 62.5t-60.5 19.5q-178 0 -361 -178q-164 -160 -163 -267q0 -82 73 -84q37 -2 74 21q8 6 15.5 12t10.5 8t5 0q4 -2 -4.5 -13t-20.5 -19q-37 -29 -86 -27q-90 6 -106 100zM1010 1092 q14 27 34.5 26.5t38.5 -20.5q94 -86 162 -137q16 -16 15 -21q-8 -10 -25 -2q-137 43 -201 84q-44 31 -24 70zM1251 567q23 16 65 46t58 42q72 49 133 111q20 23 31.5 40t12.5 26.5t-5 13.5q-29 12 -110 -78q-79 -82 -185 -201z" />
<glyph unicode="&#xda;" horiz-adv-x="1200" d="M113 395q-12 70 31.5 159t123.5 157q90 76 204 113.5t212 37.5q88 0 141.5 -30.5t53.5 -88.5q0 -43 -33 -101t-67 -100t-99 -120q-242 -276 -254 -354q-6 -41 33 -41q76 0 215 104q152 111 299 287q176 205 352 344q145 115 225 104q27 -6 24 -32.5t-34 -59.5 q-49 -53 -154 -129q-121 -88 -186 -143q-8 -10 -17 -21.5t-19.5 -24t-16.5 -20.5q-213 -281 -219 -356q-6 -37 20 -43q47 -6 127 53q45 33 117 94q25 20 31 14.5t-17 -26.5q-47 -45 -123 -102q-113 -88 -204 -88q-49 -2 -76 21.5t-27 64.5q0 78 98 206q-106 -104 -243 -198 t-242 -94q-59 0 -84.5 21.5t-23.5 64.5q2 100 251 378q193 219 218 314q10 43 -13.5 62.5t-60.5 19.5q-178 0 -361 -178q-164 -160 -163 -267q0 -82 73 -84q37 -2 74 21q8 6 15.5 12t10.5 8t5 0q4 -2 -4.5 -13t-20.5 -19q-37 -29 -86 -27q-90 6 -106 100zM1096 950 q16 8 50 29.5t46 30.5q31 18 143 96q23 12 39 4q10 -4 15.5 -20.5t-3.5 -32.5q-25 -33 -110 -64q-104 -43 -170 -53q-12 4 -10 10zM1251 567q23 16 65 46t58 42q72 49 133 111q20 23 31.5 40t12.5 26.5t-5 13.5q-29 12 -110 -78q-79 -82 -185 -201z" />
<glyph unicode="&#xdb;" horiz-adv-x="1200" d="M113 395q-12 70 31.5 159t123.5 157q90 76 204 113.5t212 37.5q88 0 141.5 -30.5t53.5 -88.5q0 -43 -33 -101t-67 -100t-99 -120q-242 -276 -254 -354q-6 -41 33 -41q76 0 215 104q152 111 299 287q176 205 352 344q145 115 225 104q27 -6 24 -32.5t-34 -59.5 q-49 -53 -154 -129q-121 -88 -186 -143q-8 -10 -17 -21.5t-19.5 -24t-16.5 -20.5q-213 -281 -219 -356q-6 -37 20 -43q47 -6 127 53q45 33 117 94q25 20 31 14.5t-17 -26.5q-47 -45 -123 -102q-113 -88 -204 -88q-49 -2 -76 21.5t-27 64.5q0 78 98 206q-106 -104 -243 -198 t-242 -94q-59 0 -84.5 21.5t-23.5 64.5q2 100 251 378q193 219 218 314q10 43 -13.5 62.5t-60.5 19.5q-178 0 -361 -178q-164 -160 -163 -267q0 -82 73 -84q37 -2 74 21q8 6 15.5 12t10.5 8t5 0q4 -2 -4.5 -13t-20.5 -19q-37 -29 -86 -27q-90 6 -106 100zM1008 958 q-2 4 16 19q127 70 233 151q12 12 23 13q6 0 12 -17q49 -111 74 -143q10 -14 6 -18t-26 4q-66 39 -101 71q-111 -53 -211 -80q-24 -6 -26 0zM1251 567q23 16 65 46t58 42q72 49 133 111q20 23 31.5 40t12.5 26.5t-5 13.5q-29 12 -110 -78q-79 -82 -185 -201z" />
<glyph unicode="&#xdc;" horiz-adv-x="1200" d="M113 395q-12 70 31.5 159t123.5 157q90 76 204 113.5t212 37.5q88 0 141.5 -30.5t53.5 -88.5q0 -43 -33 -101t-67 -100t-99 -120q-242 -276 -254 -354q-6 -41 33 -41q76 0 215 104q152 111 299 287q176 205 352 344q145 115 225 104q27 -6 24 -32.5t-34 -59.5 q-49 -53 -154 -129q-121 -88 -186 -143q-8 -10 -17 -21.5t-19.5 -24t-16.5 -20.5q-213 -281 -219 -356q-6 -37 20 -43q47 -6 127 53q45 33 117 94q25 20 31 14.5t-17 -26.5q-47 -45 -123 -102q-113 -88 -204 -88q-49 -2 -76 21.5t-27 64.5q0 78 98 206q-106 -104 -243 -198 t-242 -94q-59 0 -84.5 21.5t-23.5 64.5q2 100 251 378q193 219 218 314q10 43 -13.5 62.5t-60.5 19.5q-178 0 -361 -178q-164 -160 -163 -267q0 -82 73 -84q37 -2 74 21q8 6 15.5 12t10.5 8t5 0q4 -2 -4.5 -13t-20.5 -19q-37 -29 -86 -27q-90 6 -106 100zM1018 1053 q18 43 88 43q27 0 34 -17.5t-12 -42.5q-23 -27 -56.5 -44t-51.5 -17q-22 27 -2 78zM1251 567q23 16 65 46t58 42q72 49 133 111q20 23 31.5 40t12.5 26.5t-5 13.5q-29 12 -110 -78q-79 -82 -185 -201zM1255 975q-20 29 0 78q18 43 91 43q27 0 32.5 -17.5t-12.5 -42.5 q-20 -27 -54 -44t-57 -17z" />
<glyph unicode="&#xdd;" horiz-adv-x="1110" d="M-106 -659q6 82 99 183t204 177q186 127 399 170q207 297 299 424q-119 -119 -259 -216t-247 -97q-59 0 -84.5 21.5t-23.5 64.5q2 100 251 378q193 219 218 314q10 43 -13.5 63.5t-60.5 20.5q-176 0 -361 -180q-164 -160 -163 -267q0 -84 71 -86q39 0 76 23q6 4 13 11 t11.5 9t6.5 0q8 -8 -25 -32q-39 -27 -84 -27q-43 0 -72.5 27.5t-35.5 72.5q-10 72 31.5 162t117.5 156q88 76 204 113.5t218 37.5q88 0 142.5 -31.5t52.5 -89.5q-2 -61 -52.5 -134.5t-146.5 -186.5q-242 -276 -254 -354q-6 -41 33 -41q76 0 215 104q152 111 299 287 q213 246 321 348q125 113 209 100q20 -2 27.5 -16t3.5 -32.5t-21 -39.5q-41 -53 -139 -133q-123 -102 -166 -143q-14 -18 -119.5 -162.5t-146.5 -202.5q-31 -43 -68.5 -97t-63.5 -90l-46 -65q156 4 238.5 -64.5t64.5 -182.5q-2 -14 -6 -23.5t-8 -15t-9 -2.5l5 38 q12 111 -68 174.5t-231 55.5q-100 -143 -218 -277q-135 -154 -290.5 -243.5t-253.5 -89.5q-43 0 -70.5 19.5t-23.5 66.5zM-41 -664q-2 -49 39 -57q53 -8 131 39q117 74 262 270q10 12 189 258q-190 -45 -363 -163q-88 -61 -171 -165t-87 -182zM1049 975q16 8 50 29.5 t46 29.5q31 18 143 96q23 12 39 5q10 -4 15.5 -20.5t-3.5 -33.5q-25 -33 -110 -63q-104 -43 -170 -53q-12 4 -10 10zM1255 569l105 86q82 68 117 111q55 66 28 80q-25 14 -98 -78q-56 -70 -152 -199z" />
<glyph unicode="&#xde;" horiz-adv-x="1275" d="M-121 -231q-2 66 178 213q139 117 369 256q119 162 121 165q160 197 252 281v2q-100 -16 -172 -18q-117 -2 -187.5 24.5t-68.5 89.5q2 49 48 82t99 41q55 10 55 -4q0 -2 -6 -2t-18 -2t-25 -6q-88 -33 -88 -109q2 -100 191 -96q100 4 192 23q82 78 170 139 q156 113 273 113q35 0 54 -17.5t17 -46.5q-10 -74 -186 -135q-37 -14 -168 -49q-33 -39 -110.5 -130t-92.5 -110q203 178 324 178q53 0 93 -34.5t38 -108.5q-2 -96 -101 -211q-111 -131 -275.5 -206t-270.5 -60q-29 2 -49.5 11t-26.5 18.5t-2 15.5q2 2 8 -3t23.5 -12.5 t42.5 -9.5q80 -8 202.5 82t229.5 221q162 197 108 256q-12 14 -35 17q-106 4 -368 -228q-229 -305 -436 -487q-90 -80 -182.5 -133t-153.5 -60q-66 -3 -66 50zM-94 -227q0 -29 33 -25q156 10 464 453q-186 -115 -329 -234q-168 -141 -168 -194zM999 739q90 20 148 43 q57 20 110.5 52t55.5 65q2 23 -11.5 33t-39.5 10q-61 -2 -168 -102q-12 -10 -27.5 -26.5t-35.5 -39.5t-32 -35z" />
<glyph unicode="&#xdf;" horiz-adv-x="794" d="M-586 -240q-4 29 13.5 49.5t46.5 20.5q47 0 65 -68q18 -66 55 -65q72 0 144 62.5t186 222.5q14 20 195 286v2q-53 -43 -103 -92q-20 -18 -28 -10q-4 6 14 25q141 127 168 149q166 231 199 268q119 135 236.5 191.5t211.5 48.5q59 -4 89 -46t14 -91q-23 -74 -134 -135 q-39 -23 -105.5 -42.5t-114.5 -36t-58 -32.5q-12 -18 3 -47t50 -66t43 -51q66 -88 29 -180q-18 -45 -64 -76q45 14 115 59q61 39 111 84q23 23 30 15q4 -8 -12 -25q-51 -47 -115 -90q-66 -43 -135 -67q-104 -41 -213 -41q-76 0 -110.5 36.5t-26.5 83.5q8 49 44 82t77 29 q25 -2 37 -17.5t8 -31.5q-4 -23 -45 -51q-43 -31 -47 -60q-2 -25 11 -38t38 -13q78 0 131 100q55 102 29 201q-2 10 -13.5 43t-15.5 49.5t-1 40t17 41.5q23 25 108 58.5t128 60.5q113 72 137 170q6 27 -6 45t-39 20q-104 8 -246 -153q-29 -35 -225 -318q-207 -293 -281 -385 q-238 -295 -475 -299q-76 0 -121 25.5t-49 58.5z" />
<glyph unicode="&#xe0;" d="M-43 61q4 53 63 117l-2 2q-10 -10 -22 -18q-20 -18 -27 -12q-4 8 19 30q39 35 73 58q53 39 129 71q117 51 201 47q39 -2 55.5 -22.5t10.5 -46.5q39 43 60.5 53t70.5 10q55 0 55 -14q0 -6 -10 -19q-63 -76 -111 -135q-59 -78 -69 -100q-16 -31 -2 -41q12 -10 49 6 q29 12 88 59q53 43 100 87q23 16 27 12q6 -6 -21 -33q-68 -63 -121 -104q-111 -86 -194 -86q-72 0 -82 49q-6 35 22 71l-2 2q-139 -123 -249 -122q-53 -2 -83 17t-28 62zM96 39q2 -20 27 -21q29 0 79 29t93 68q51 45 96 102t47 80q2 37 -37 37h-2q-53 0 -190 -133 q-119 -119 -113 -162zM362 684q0 20 17.5 33.5t36.5 13.5h2q31 0 37 -41q25 -92 51 -162q6 -23 2 -24q-8 -8 -23 10q-86 92 -112 139q-11 15 -11 31z" />
<glyph unicode="&#xe1;" d="M-43 61q4 53 63 117l-2 2q-10 -10 -22 -18q-20 -18 -27 -12q-4 8 19 30q39 35 73 58q53 39 129 71q117 51 201 47q39 -2 55.5 -22.5t10.5 -46.5q39 43 60.5 53t70.5 10q55 0 55 -14q0 -6 -10 -19q-63 -76 -111 -135q-59 -78 -69 -100q-16 -31 -2 -41q12 -10 49 6 q29 12 88 59q53 43 100 87q23 16 27 12q6 -6 -21 -33q-68 -63 -121 -104q-111 -86 -194 -86q-72 0 -82 49q-6 35 22 71l-2 2q-139 -123 -249 -122q-53 -2 -83 17t-28 62zM96 39q2 -20 27 -21q29 0 79 29t93 68q51 45 96 102t47 80q2 37 -37 37h-2q-53 0 -190 -133 q-119 -119 -113 -162zM436 506q-4 4 13 24q16 18 120 154q23 37 47 39q31 0 39 -18q16 -35 -18 -70q-53 -53 -174 -125q-21 -10 -27 -4z" />
<glyph unicode="&#xe2;" d="M-43 61q4 53 63 117l-2 2q-10 -10 -22 -18q-20 -18 -27 -12q-4 8 19 30q39 35 73 58q53 39 129 71q117 51 201 47q39 -2 55.5 -22.5t10.5 -46.5q39 43 60.5 53t70.5 10q55 0 55 -14q0 -6 -10 -19q-63 -76 -111 -135q-59 -78 -69 -100q-16 -31 -2 -41q12 -10 49 6 q29 12 88 59q53 43 100 87q23 16 27 12q6 -6 -21 -33q-68 -63 -121 -104q-111 -86 -194 -86q-72 0 -82 49q-6 35 22 71l-2 2q-139 -123 -249 -122q-53 -2 -83 17t-28 62zM96 39q2 -20 27 -21q29 0 79 29t93 68q51 45 96 102t47 80q2 37 -37 37h-2q-53 0 -190 -133 q-119 -119 -113 -162zM279 483q-2 4 14 17q158 92 242 159q12 12 24 11q8 -2 12 -17q35 -90 74 -149q8 -12 6 -17q-4 -4 -26 5q-59 29 -103 75q-88 -47 -217 -84q-24 -10 -26 0z" />
<glyph unicode="&#xe3;" d="M-43 61q4 53 63 117l-2 2q-10 -10 -22 -18q-20 -18 -27 -12q-4 8 19 30q39 35 73 58q53 39 129 71q117 51 201 47q39 -2 55.5 -22.5t10.5 -46.5q39 43 60.5 53t70.5 10q55 0 55 -14q0 -6 -10 -19q-63 -76 -111 -135q-59 -78 -69 -100q-16 -31 -2 -41q12 -10 49 6 q29 12 88 59q53 43 100 87q23 16 27 12q6 -6 -21 -33q-68 -63 -121 -104q-111 -86 -194 -86q-72 0 -82 49q-6 35 22 71l-2 2q-139 -123 -249 -122q-53 -2 -83 17t-28 62zM96 39q2 -20 27 -21q29 0 79 29t93 68q51 45 96 102t47 80q2 37 -37 37h-2q-53 0 -190 -133 q-119 -119 -113 -162zM307 508q-10 4 0 24q23 41 57.5 71t73.5 28q31 -2 70 -27.5t61 -28.5q43 -2 82 41q12 14 21 13q10 -4 -2 -25q-18 -35 -52 -67.5t-69 -32.5h-2q-27 0 -71 26.5t-68 28.5q-45 2 -82 -39q-13 -14 -19 -12z" />
<glyph unicode="&#xe4;" d="M-43 61q4 53 63 117l-2 2q-10 -10 -22 -18q-20 -18 -27 -12q-4 8 19 30q39 35 73 58q53 39 129 71q117 51 201 47q39 -2 55.5 -22.5t10.5 -46.5q39 43 60.5 53t70.5 10q55 0 55 -14q0 -6 -10 -19q-63 -76 -111 -135q-59 -78 -69 -100q-16 -31 -2 -41q12 -10 49 6 q29 12 88 59q53 43 100 87q23 16 27 12q6 -6 -21 -33q-68 -63 -121 -104q-111 -86 -194 -86q-72 0 -82 49q-6 35 22 71l-2 2q-139 -123 -249 -122q-53 -2 -83 17t-28 62zM96 39q2 -20 27 -21q29 0 79 29t93 68q51 45 96 102t47 80q2 37 -37 37h-2q-53 0 -190 -133 q-119 -119 -113 -162zM358 510q-18 31 0 82q14 45 91 45h2q29 0 37 -17.5t-13 -41.5q-45 -54 -117 -68zM575 592q14 45 93 45h2q29 0 36 -17.5t-14 -41.5q-45 -53 -114 -68q-19 33 -3 82z" />
<glyph unicode="&#xe5;" d="M-43 61q4 53 63 117l-2 2q-10 -10 -22 -18q-20 -18 -27 -12q-4 8 19 30q39 35 73 58q53 39 129 71q117 51 201 47q39 -2 55.5 -22.5t10.5 -46.5q39 43 60.5 53t70.5 10q55 0 55 -14q0 -6 -10 -19q-63 -76 -111 -135q-59 -78 -69 -100q-16 -31 -2 -41q12 -10 49 6 q29 12 88 59q53 43 100 87q23 16 27 12q6 -6 -21 -33q-68 -63 -121 -104q-111 -86 -194 -86q-72 0 -82 49q-6 35 22 71l-2 2q-139 -123 -249 -122q-53 -2 -83 17t-28 62zM96 39q2 -20 27 -21q29 0 79 29t93 68q51 45 96 102t47 80q2 37 -37 37h-2q-53 0 -190 -133 q-119 -119 -113 -162zM403 600q0 43 31 75t74 32h2q41 0 72.5 -32t31.5 -75t-31.5 -72.5t-74.5 -29.5t-74 29.5t-31 72.5zM451 600q0 -25 16 -41t41 -16q27 0 43 16t16 41t-16 42t-43 17h-2q-23 0 -39 -17t-16 -42z" />
<glyph unicode="&#xe6;" horiz-adv-x="825" d="M-43 61q4 53 63 117l-2 2q-8 -8 -20 -16q-23 -20 -29 -14q-4 8 15 26q37 37 75 60q61 45 131 73q72 33 179 47q82 10 86 -10q0 -4 -7.5 -6t-23.5 -6t-29 -8q-86 -27 -186 -125q-119 -119 -113 -162q2 -20 27 -21q29 0 79 29t93 68q37 35 77 75.5t84 91t60 66.5 q18 20 43 21q37 0 43 -3.5t-2 -19.5q-25 -31 -29 -35q84 47 150 47q45 0 67.5 -17t20.5 -44q-4 -63 -135 -127q-82 -39 -201 -64q-12 -18 -12 -45q0 -43 47 -43q82 0 197 76q66 45 118 94q20 16 26.5 10.5t-20.5 -30.5q-90 -76 -118 -96q-127 -86 -250 -90q-80 -2 -117 21.5 t-35 62.5q0 27 10 38l-2 2q-133 -123 -249 -124q-53 -2 -83 17t-28 62zM483 127q70 12 142 63q82 59 90 115q6 31 -23 31q-37 0 -108 -78q-64 -63 -101 -131z" />
<glyph unicode="&#xe7;" horiz-adv-x="485" d="M-104 -143q4 2 10 -4q4 -6 8 -11q33 -33 100 -32h2q29 0 50.5 12t23.5 33q4 23 -9 37t-44 12q-10 0 -18.5 -4t-11.5 -5t-7 1q-8 4 6 18q31 35 72 70q-41 4 -71 25.5t-32 64.5q0 55 54 112l-2 2q-6 -4 -27 -24q-25 -20 -31 -14q-4 8 13 24q37 35 71 57q59 43 103 64 q133 68 217 61q45 -2 65.5 -24.5t14.5 -52.5q-4 -27 -27 -48.5t-43 -21.5q-51 0 -16 59q39 61 6 68q-35 10 -127 -86q-104 -104 -115 -182q-6 -47 47 -48q76 0 189 74q27 18 118 94q18 16 24.5 10.5t-20.5 -30.5q-63 -57 -114 -92q-137 -94 -258 -94h-6q-33 -20 -54 -52 q12 4 27 4q45 0 68.5 -20t19.5 -59t-47 -62.5t-107 -21.5q-82 2 -116 51q-20 27 -6 35z" />
<glyph unicode="&#xe8;" horiz-adv-x="485" d="M-31 150q-4 8 13 24q31 29 69 57q41 31 105 64q127 63 223 63h2q92 0 88 -61q-4 -63 -135 -127q-82 -39 -201 -64q-12 -18 -12 -45q0 -45 49 -45q76 0 195 78q68 47 122 99q16 12 23 6q6 -8 -23 -33q-57 -53 -120 -94q-127 -86 -248 -90q-147 -6 -144 92q0 53 54 112 l-2 2q-2 -4 -14.5 -14t-14.5 -12q-23 -18 -29 -12zM143 127q70 12 142 63q82 59 90 115q6 31 -23 31q-39 0 -110 -78q-66 -74 -99 -131zM313 678q0 20 17.5 33.5t36.5 13.5h2q31 0 37 -41q25 -92 51 -162q6 -23 2 -24q-8 -8 -23 10q-86 92 -112 139q-11 17 -11 31z" />
<glyph unicode="&#xe9;" horiz-adv-x="485" d="M-31 150q-4 8 13 24q31 29 69 57q41 31 105 64q127 63 223 63h2q92 0 88 -61q-4 -63 -135 -127q-82 -39 -201 -64q-12 -18 -12 -45q0 -45 49 -45q76 0 195 78q68 47 122 99q16 12 23 6q6 -8 -23 -33q-57 -53 -120 -94q-127 -86 -248 -90q-147 -6 -144 92q0 53 54 112 l-2 2q-2 -4 -14.5 -14t-14.5 -12q-23 -18 -29 -12zM143 127q70 12 142 63q82 59 90 115q6 31 -23 31q-39 0 -110 -78q-66 -74 -99 -131zM369 506q-4 4 12 24q16 18 121 154q23 37 47 39q31 0 39 -18q16 -35 -19 -70q-53 -53 -174 -125q-20 -10 -26 -4z" />
<glyph unicode="&#xea;" horiz-adv-x="485" d="M-31 150q-4 8 13 24q31 29 69 57q41 31 105 64q127 63 223 63h2q92 0 88 -61q-4 -63 -135 -127q-82 -39 -201 -64q-12 -18 -12 -45q0 -45 49 -45q76 0 195 78q68 47 122 99q16 12 23 6q6 -8 -23 -33q-57 -53 -120 -94q-127 -86 -248 -90q-147 -6 -144 92q0 53 54 112 l-2 2q-2 -4 -14.5 -14t-14.5 -12q-23 -18 -29 -12zM143 127q70 12 142 63q82 59 90 115q6 31 -23 31q-39 0 -110 -78q-66 -74 -99 -131zM229 483q-2 4 15 17q158 92 241 159q12 12 25 11q8 -2 12 -17q35 -90 74 -149q8 -12 6 -17q-4 -4 -27 5q-59 29 -102 75 q-88 -47 -217 -84q-25 -10 -27 0z" />
<glyph unicode="&#xeb;" horiz-adv-x="485" d="M-31 150q-4 8 13 24q31 29 69 57q41 31 105 64q127 63 223 63h2q92 0 88 -61q-4 -63 -135 -127q-82 -39 -201 -64q-12 -18 -12 -45q0 -45 49 -45q76 0 195 78q68 47 122 99q16 12 23 6q6 -8 -23 -33q-57 -53 -120 -94q-127 -86 -248 -90q-147 -6 -144 92q0 53 54 112 l-2 2q-2 -4 -14.5 -14t-14.5 -12q-23 -18 -29 -12zM143 127q70 12 142 63q82 59 90 115q6 31 -23 31q-39 0 -110 -78q-66 -74 -99 -131zM266 510q-18 31 0 82q14 45 90 45h2q29 0 37 -17.5t-12 -41.5q-45 -54 -117 -68zM483 592q14 45 92 45h3q29 0 36 -17.5t-14 -41.5 q-45 -53 -115 -68q-18 33 -2 82z" />
<glyph unicode="&#xec;" horiz-adv-x="395" d="M-29 152q-6 6 17 28q82 74 147 115q80 55 164 55q66 0 68 -14q0 -6 -13 -19q-76 -86 -114 -135q-45 -57 -70 -100q-18 -37 -6 -45t45 8q35 16 90 61q35 29 96 82q23 20 29 14.5t-18 -28.5q-53 -55 -119 -104q-117 -88 -205 -88q-80 0 -80 57q0 33 29 78q29 47 86 110.5 t82 79.5q-41 -14 -117 -74q-41 -33 -82 -69q-21 -18 -29 -12zM252 670q0 20 17.5 33.5t35.5 13.5h2q31 0 37 -41q25 -92 51 -162q6 -23 2 -25q-8 -8 -22 11q-86 92 -113 139q-10 17 -10 31z" />
<glyph unicode="&#xed;" horiz-adv-x="395" d="M-29 152q-6 6 17 28q82 74 147 115q80 55 164 55q66 0 68 -14q0 -6 -13 -19q-76 -86 -114 -135q-45 -57 -70 -100q-18 -37 -6 -45t45 8q35 16 90 61q35 29 96 82q23 20 29 14.5t-18 -28.5q-53 -55 -119 -104q-117 -88 -205 -88q-80 0 -80 57q0 33 29 78q29 47 86 110.5 t82 79.5q-41 -14 -117 -74q-41 -33 -82 -69q-21 -18 -29 -12zM311 506q-4 4 13 24q16 18 120 154q23 37 48 39q31 0 38 -18q16 -35 -18 -70q-53 -53 -174 -125q-21 -10 -27 -4z" />
<glyph unicode="&#xee;" horiz-adv-x="395" d="M-29 152q-6 6 17 28q82 74 147 115q80 55 164 55q66 0 68 -14q0 -6 -13 -19q-76 -86 -114 -135q-45 -57 -70 -100q-18 -37 -6 -45t45 8q35 16 90 61q35 29 96 82q23 20 29 14.5t-18 -28.5q-53 -55 -119 -104q-117 -88 -205 -88q-80 0 -80 57q0 33 29 78q29 47 86 110.5 t82 79.5q-41 -14 -117 -74q-41 -33 -82 -69q-21 -18 -29 -12zM145 483q-2 4 15 17q160 92 241 159q12 12 25 11q8 -2 12 -17q35 -90 74 -149q8 -12 6 -17q-4 -4 -26 5q-59 29 -103 75q-88 -47 -217 -84q-25 -10 -27 0z" />
<glyph unicode="&#xef;" horiz-adv-x="395" d="M-29 152q-6 6 17 28q82 74 147 115q80 55 164 55q66 0 68 -14q0 -6 -13 -19q-76 -86 -114 -135q-45 -57 -70 -100q-18 -37 -6 -45t45 8q35 16 90 61q35 29 96 82q23 20 29 14.5t-18 -28.5q-53 -55 -119 -104q-117 -88 -205 -88q-80 0 -80 57q0 33 29 78q29 47 86 110.5 t82 79.5q-41 -14 -117 -74q-41 -33 -82 -69q-21 -18 -29 -12zM215 510q-18 31 0 82q14 45 90 45h2q29 0 37 -17.5t-12 -41.5q-45 -54 -117 -68zM432 592q14 45 92 45h2q29 0 36 -17.5t-13 -41.5q-45 -53 -115 -68q-18 33 -2 82z" />
<glyph unicode="&#xf0;" horiz-adv-x="618" d="M-29 152q-4 4 13 24q18 18 67 55q45 31 86 54q129 72 236 71h10q39 -2 53.5 -26.5t7.5 -53.5q25 33 47.5 100.5t24.5 123.5q0 25 -2 35q-45 -16 -104.5 -35t-79.5 -27q-25 -10 -27 0q-2 8 21 23q29 12 182 77q-31 141 -156 148h-23h-15q-5 0 -5 2q-2 6 9.5 11t33.5 7 q78 4 148.5 -26.5t109.5 -98.5q78 31 105 41q37 12 47 -12q6 -20 -35 -37q-66 -25 -98 -35q10 -37 14 -84q4 -231 -207 -401q-131 -106 -303 -106q-141 0 -141 98q-4 61 51 117l-2 2q-20 -16 -35 -31q-27 -22 -33 -16zM119 37q-4 -33 28 -33q31 0 83.5 38t95.5 85 q88 96 96 164q4 29 -21 31q-49 6 -165 -105q-43 -41 -78 -95t-39 -85z" />
<glyph unicode="&#xf1;" horiz-adv-x="833" d="M-33 150q-4 8 21 28q51 51 106 94q109 84 182 84q72 0 72 -51q0 -33 -45 -90q-18 -25 -55 -71t-39 -50l4 -2q86 72 193 150q156 115 256 114q86 0 79 -61q-2 -33 -75 -125q-49 -61 -64 -84q-20 -35 -6 -47q16 -10 51 10q51 25 88 57q16 14 55 47t48 40q18 16 24 10 t-10 -21q-66 -68 -131 -112q-115 -84 -195 -84q-53 -2 -73.5 19.5t-14.5 53.5q4 39 74 125q47 53 84 101q16 20 -2 26q-16 8 -59 -14q-61 -31 -152 -98q-96 -72 -233 -183q-27 -23 -87 -24q-41 -2 -50 5t-1 28q33 63 94 137q16 23 45 59.5t42 50.5q16 23 6 31q-8 8 -31 -6 q-39 -23 -76 -53q-57 -45 -90 -78q-27 -24 -35 -16zM391 508q-10 4 0 24q23 41 57.5 71t73.5 28q31 -2 70 -27.5t61 -28.5q43 -2 82 41q12 14 21 13q10 -4 -2 -25q-18 -35 -52 -67.5t-69 -32.5h-2q-27 0 -71 26.5t-68 28.5q-45 2 -82 -39q-13 -14 -19 -12z" />
<glyph unicode="&#xf2;" horiz-adv-x="600" d="M-29 152q-4 4 13 24q18 18 67 55q45 31 86 54q129 72 228 71q47 0 47 -12l-29 -14q-61 -29 -147 -113q-45 -45 -81 -99.5t-36 -86.5q-4 -29 26 -29q35 0 92.5 38t108.5 91q0 45 33 92q20 31 67 62v34q-2 6 -5 14.5t-3 9.5t2 5q14 8 45 -14q37 -27 37 -72 q-4 -78 -116 -174q6 -4 28 -4q35 2 78 33q31 23 88 73q18 18 27 13q10 -6 -11 -23q-55 -51 -96 -80q-47 -35 -88 -37q-31 0 -45 11q-43 -33 -120 -62.5t-136 -29.5q-141 0 -145 98q0 61 55 117l-2 2q-20 -16 -35 -31q-27 -22 -33 -16zM362 678q0 20 17.5 33.5t36.5 13.5h2 q31 0 37 -41q25 -92 51 -162q6 -23 2 -24q-8 -8 -23 10q-86 92 -112 139q-11 17 -11 31z" />
<glyph unicode="&#xf3;" horiz-adv-x="600" d="M-29 152q-4 4 13 24q18 18 67 55q45 31 86 54q129 72 228 71q47 0 47 -12l-29 -14q-61 -29 -147 -113q-45 -45 -81 -99.5t-36 -86.5q-4 -29 26 -29q35 0 92.5 38t108.5 91q0 45 33 92q20 31 67 62v34q-2 6 -5 14.5t-3 9.5t2 5q14 8 45 -14q37 -27 37 -72 q-4 -78 -116 -174q6 -4 28 -4q35 2 78 33q31 23 88 73q18 18 27 13q10 -6 -11 -23q-55 -51 -96 -80q-47 -35 -88 -37q-31 0 -45 11q-43 -33 -120 -62.5t-136 -29.5q-141 0 -145 98q0 61 55 117l-2 2q-20 -16 -35 -31q-27 -22 -33 -16zM418 506q-4 4 12 24q16 18 121 154 q23 37 47 39q31 0 39 -18q16 -35 -19 -70q-53 -53 -174 -125q-20 -10 -26 -4z" />
<glyph unicode="&#xf4;" horiz-adv-x="600" d="M-29 152q-4 4 13 24q18 18 67 55q45 31 86 54q129 72 228 71q47 0 47 -12l-29 -14q-61 -29 -147 -113q-45 -45 -81 -99.5t-36 -86.5q-4 -29 26 -29q35 0 92.5 38t108.5 91q0 45 33 92q20 31 67 62v34q-2 6 -5 14.5t-3 9.5t2 5q14 8 45 -14q37 -27 37 -72 q-4 -78 -116 -174q6 -4 28 -4q35 2 78 33q31 23 88 73q18 18 27 13q10 -6 -11 -23q-55 -51 -96 -80q-47 -35 -88 -37q-31 0 -45 11q-43 -33 -120 -62.5t-136 -29.5q-141 0 -145 98q0 61 55 117l-2 2q-20 -16 -35 -31q-27 -22 -33 -16zM244 483q-2 4 14 17q160 92 242 159 q12 12 24 11q8 -2 13 -17q35 -90 73 -149q8 -12 6 -17q-4 -4 -26 5q-59 29 -103 75q-88 -47 -217 -84q-24 -10 -26 0z" />
<glyph unicode="&#xf5;" horiz-adv-x="600" d="M-29 152q-4 4 13 24q18 18 67 55q45 31 86 54q129 72 228 71q47 0 47 -12l-29 -14q-61 -29 -147 -113q-45 -45 -81 -99.5t-36 -86.5q-4 -29 26 -29q35 0 92.5 38t108.5 91q0 45 33 92q20 31 67 62v34q-2 6 -5 14.5t-3 9.5t2 5q14 8 45 -14q37 -27 37 -72 q-4 -78 -116 -174q6 -4 28 -4q35 2 78 33q31 23 88 73q18 18 27 13q10 -6 -11 -23q-55 -51 -96 -80q-47 -35 -88 -37q-31 0 -45 11q-43 -33 -120 -62.5t-136 -29.5q-141 0 -145 98q0 61 55 117l-2 2q-20 -16 -35 -31q-27 -22 -33 -16zM262 508q-10 4 0 24q23 41 57.5 71 t73.5 28q31 -2 70 -27.5t61 -28.5q43 -2 82 41q12 14 21 13q10 -4 -2 -25q-18 -35 -52 -67.5t-69 -32.5h-2q-27 0 -71 26.5t-69 28.5q-45 2 -81 -39q-13 -14 -19 -12z" />
<glyph unicode="&#xf6;" horiz-adv-x="600" d="M-29 152q-4 4 13 24q18 18 67 55q45 31 86 54q129 72 228 71q47 0 47 -12l-29 -14q-61 -29 -147 -113q-45 -45 -81 -99.5t-36 -86.5q-4 -29 26 -29q35 0 92.5 38t108.5 91q0 45 33 92q20 31 67 62v34q-2 6 -5 14.5t-3 9.5t2 5q14 8 45 -14q37 -27 37 -72 q-4 -78 -116 -174q6 -4 28 -4q35 2 78 33q31 23 88 73q18 18 27 13q10 -6 -11 -23q-55 -51 -96 -80q-47 -35 -88 -37q-31 0 -45 11q-43 -33 -120 -62.5t-136 -29.5q-141 0 -145 98q0 61 55 117l-2 2q-20 -16 -35 -31q-27 -22 -33 -16zM307 510q-18 31 0 82q14 45 90 45h2 q29 0 37 -17.5t-12 -41.5q-45 -54 -117 -68zM524 592q14 45 92 45h2q29 0 36.5 -17.5t-13.5 -41.5q-45 -53 -115 -68q-18 33 -2 82z" />
<glyph unicode="&#xf7;" horiz-adv-x="653" d="M98 266q6 35 49 31q420 -16 461 -18q29 0 29 -15v-2q0 -10 -37 -10q-260 -10 -459 -12q-29 0 -37 6t-6 20zM264 70q-20 25 0 67q18 39 74 39h2q25 0 31 -16.5t-10.5 -37t-48.5 -36.5t-48 -16zM375 350q-16 27 0 68q16 39 76 39h2q25 0 30.5 -15.5t-10.5 -35.5 q-16 -23 -48 -39.5t-50 -16.5z" />
<glyph unicode="&#xf8;" horiz-adv-x="600" d="M-29 152q-4 4 13 24q18 18 67 55q45 31 86 54q106 59 211 73q63 6 103 -6q20 18 65 64q39 39 51 30q10 -10 -32 -49q-35 -35 -60 -55q47 -31 47 -80q-4 -78 -116 -174q6 -4 28 -4q35 2 78 33q31 23 88 73q18 18 27 13q10 -6 -11 -23q-55 -51 -96 -80q-47 -35 -88 -37 q-31 0 -45 11q-45 -35 -118.5 -63.5t-137.5 -30.5q-20 0 -33 4q-59 -59 -73 -72q-16 -16 -23 -8q-4 4 10 22q14 12 64 62q-86 16 -90 92q0 61 55 117l-2 2q-20 -16 -35 -31q-27 -22 -33 -16zM117 29q143 137 317 307q-4 4 -16 4h-2q-57 0 -183 -121q-70 -66 -106 -151 q-10 -27 -10 -39zM125 8q6 -6 20 -6h2q33 0 91.5 39t107.5 90q0 45 33 92q25 37 70 62q4 18 0 32q-144 -137 -324 -309z" />
<glyph unicode="&#xf9;" horiz-adv-x="768" d="M-29 152q-6 6 17 28q82 74 147 115q80 55 160 55q63 0 63 -14q0 -6 -10 -19q-45 -51 -112 -135q-59 -74 -78 -110q-14 -25 -2 -35q12 -12 47 6q53 27 153 104q51 41 120 101.5t95 83.5q29 23 84 22q66 0 66 -12q0 -8 -10 -20q-63 -78 -109 -140q-55 -80 -63 -96 q-18 -33 -7 -45q14 -12 52 6q39 20 84 57q41 31 102 89q18 18 27 10q6 -6 -23 -33q-53 -49 -119 -102q-106 -86 -194 -86q-96 0 -88 73q0 35 33 78q2 4 57 70l-4 4q-35 -31 -133 -109q-156 -117 -246 -116q-84 0 -84 63q2 37 37 84q86 123 166 178q-41 -14 -117 -74 q-43 -35 -80 -67q-25 -18 -31 -14zM406 664q0 20 17 33.5t36 13.5h2q31 0 37 -41q25 -92 51 -162q6 -23 2 -25q-8 -8 -23 11q-86 92 -112 139q-10 15 -10 31z" />
<glyph unicode="&#xfa;" horiz-adv-x="768" d="M-29 152q-6 6 17 28q82 74 147 115q80 55 160 55q63 0 63 -14q0 -6 -10 -19q-45 -51 -112 -135q-59 -74 -78 -110q-14 -25 -2 -35q12 -12 47 6q53 27 153 104q51 41 120 101.5t95 83.5q29 23 84 22q66 0 66 -12q0 -8 -10 -20q-63 -78 -109 -140q-55 -80 -63 -96 q-18 -33 -7 -45q14 -12 52 6q39 20 84 57q41 31 102 89q18 18 27 10q6 -6 -23 -33q-53 -49 -119 -102q-106 -86 -194 -86q-96 0 -88 73q0 35 33 78q2 4 57 70l-4 4q-35 -31 -133 -109q-156 -117 -246 -116q-84 0 -84 63q2 37 37 84q86 123 166 178q-41 -14 -117 -74 q-43 -35 -80 -67q-25 -18 -31 -14zM471 506q-4 4 12 24q16 18 121 154q23 37 47 39q31 0 39 -18q16 -35 -18 -70q-53 -53 -174 -125q-21 -10 -27 -4z" />
<glyph unicode="&#xfb;" horiz-adv-x="768" d="M-29 152q-6 6 17 28q82 74 147 115q80 55 160 55q63 0 63 -14q0 -6 -10 -19q-45 -51 -112 -135q-59 -74 -78 -110q-14 -25 -2 -35q12 -12 47 6q53 27 153 104q51 41 120 101.5t95 83.5q29 23 84 22q66 0 66 -12q0 -8 -10 -20q-63 -78 -109 -140q-55 -80 -63 -96 q-18 -33 -7 -45q14 -12 52 6q39 20 84 57q41 31 102 89q18 18 27 10q6 -6 -23 -33q-53 -49 -119 -102q-106 -86 -194 -86q-96 0 -88 73q0 35 33 78q2 4 57 70l-4 4q-35 -31 -133 -109q-156 -117 -246 -116q-84 0 -84 63q2 37 37 84q86 123 166 178q-41 -14 -117 -74 q-43 -35 -80 -67q-25 -18 -31 -14zM336 494q-2 4 14 16q158 92 242 160q12 12 24 10q8 -2 13 -16q35 -90 73 -150q8 -12 7 -16q-4 -4 -27 4q-59 29 -102 76q-88 -47 -218 -84q-24 -10 -26 0z" />
<glyph unicode="&#xfc;" horiz-adv-x="768" d="M-29 152q-6 6 17 28q82 74 147 115q80 55 160 55q63 0 63 -14q0 -6 -10 -19q-45 -51 -112 -135q-59 -74 -78 -110q-14 -25 -2 -35q12 -12 47 6q53 27 153 104q51 41 120 101.5t95 83.5q29 23 84 22q66 0 66 -12q0 -8 -10 -20q-63 -78 -109 -140q-55 -80 -63 -96 q-18 -33 -7 -45q14 -12 52 6q39 20 84 57q41 31 102 89q18 18 27 10q6 -6 -23 -33q-53 -49 -119 -102q-106 -86 -194 -86q-96 0 -88 73q0 35 33 78q2 4 57 70l-4 4q-35 -31 -133 -109q-156 -117 -246 -116q-84 0 -84 63q2 37 37 84q86 123 166 178q-41 -14 -117 -74 q-43 -35 -80 -67q-25 -18 -31 -14zM395 510q-18 31 0 82q14 45 90 45h2q29 0 37 -17.5t-12 -41.5q-45 -54 -117 -68zM612 592q14 45 93 45h2q29 0 36 -17.5t-14 -41.5q-45 -53 -115 -68q-18 33 -2 82z" />
<glyph unicode="&#xfd;" horiz-adv-x="755" d="M-180 -784q0 59 78 172q109 164 280 401q39 53 150.5 208t179.5 249l-2 2q-6 -6 -23.5 -21.5t-21.5 -19.5q-31 -27 -135 -109q-156 -117 -246 -116q-43 0 -63.5 17t-18.5 46q0 33 35 84q96 135 166 178q-41 -14 -117 -74q-41 -33 -82 -69q-20 -18 -29 -12q-6 6 17 28 q82 74 147 115q80 55 160 55q63 0 63 -14q0 -6 -10 -19q-45 -51 -112 -135q-51 -63 -78 -112q-14 -25 -4 -35q12 -8 49 8q63 35 153 104q51 41 120 101.5t95 83.5q29 23 101 22q63 0 63 -12q0 -6 -10 -20q-37 -45 -127 -162q-111 -143 -270 -363q-268 -365 -363 -524 q-23 -37 -12 -43q8 -6 27 16q18 20 159 219q168 229 228 306q119 152 260 299q100 94 129 120q18 18 26 13q6 -6 -20 -33q-63 -55 -121 -115q-129 -133 -258 -297q-74 -96 -246 -333q-143 -203 -176 -232q-37 -33 -86 -31q-55 3 -55 54zM483 496q-4 4 13 24q16 18 120 154 q23 37 48 39q31 0 38 -19q16 -35 -18 -69q-53 -53 -174 -125q-21 -10 -27 -4z" />
<glyph unicode="&#xfe;" horiz-adv-x="770" d="M-588 -784q0 51 78 172q125 184 285 403q211 289 432 563q-147 -133 -205 -188q-25 -20 -31 -14q-4 8 13 24q70 66 153 141q18 16 154 148q2 2 70.5 81t107.5 122q88 102 176 182q55 55 113 55q53 0 57 -20q-164 -164 -364 -408q-238 -287 -525 -678q-209 -281 -366 -526 q-20 -33 -13 -41q10 -6 25 12q29 33 162 221q29 43 235 318q123 166 246 311q92 111 180 176q121 86 203 86q47 0 67.5 -17t16.5 -46q-4 -31 -82 -123q-49 -57 -65 -86q-20 -33 -7 -43q14 -12 52 6q33 16 92 59q20 16 56 47t42 37q20 20 27 15q6 -8 -9 -23 q-80 -74 -133 -112q-117 -84 -202 -84q-82 0 -82 59q0 45 75 139q16 18 48 55t41 48q16 23 0 26q-14 4 -46 -8q-100 -49 -210 -170q-131 -145 -299 -373q-143 -188 -248 -337q-129 -190 -178 -232q-35 -31 -86 -29q-56 5 -56 52z" />
<glyph unicode="&#xff;" horiz-adv-x="755" d="M-180 -784q0 59 78 172q109 164 280 401q39 53 150.5 208t179.5 249l-2 2q-6 -6 -23.5 -21.5t-21.5 -19.5q-31 -27 -135 -109q-156 -117 -246 -116q-43 0 -63.5 17t-18.5 46q0 33 35 84q96 135 166 178q-41 -14 -117 -74q-41 -33 -82 -69q-20 -18 -29 -12q-6 6 17 28 q82 74 147 115q80 55 160 55q63 0 63 -14q0 -6 -10 -19q-45 -51 -112 -135q-51 -63 -78 -112q-14 -25 -4 -35q12 -8 49 8q63 35 153 104q51 41 120 101.5t95 83.5q29 23 101 22q63 0 63 -12q0 -6 -10 -20q-37 -45 -127 -162q-111 -143 -270 -363q-268 -365 -363 -524 q-23 -37 -12 -43q8 -6 27 16q18 20 159 219q168 229 228 306q119 152 260 299q100 94 129 120q18 18 26 13q6 -6 -20 -33q-63 -55 -121 -115q-129 -133 -258 -297q-74 -96 -246 -333q-143 -203 -176 -232q-37 -33 -86 -31q-55 3 -55 54zM393 510q-18 31 0 82q14 45 90 45h2 q29 0 37 -17.5t-12 -41.5q-45 -54 -117 -68zM610 592q14 45 92 45h3q29 0 36 -17.5t-14 -41.5q-45 -53 -115 -68q-18 33 -2 82z" />
<glyph unicode="&#x152;" horiz-adv-x="1495" d="M37 137q-23 115 38.5 238t160.5 215q156 143 340 212.5t350 53.5q152 -14 166 -113q6 -57 -33 -102q-23 -23 -29 -14l19 24q29 35 18 90q-6 39 -48 62.5t-93 25.5q-137 4 -290 -88t-263 -209q-92 -98 -150.5 -224t-40.5 -218q23 -100 133 -102q211 -6 467 311 q158 199 172 336q4 35 -11 57.5t-50 22.5q-10 0 -18.5 -1t-12.5 -3t-8 -3t-5 -2t-3 1q-2 4 4 9t18.5 10t26.5 5q53 4 82 -31.5t27 -99.5q-4 -96 -50 -192q72 37 187 61q-25 31 -25 80q4 94 84 162q-23 23 -22 67q0 16 4 30.5t8 22t8 5.5q2 -4 1 -5.5t-3 -16.5t-2 -36 q0 -37 20 -57q59 51 166 86q133 43 269 43q98 0 157.5 -38t57.5 -91q-4 -68 -99.5 -111t-218.5 -43q-74 0 -145.5 19.5t-104.5 44.5q-29 -33 -43 -80q-10 -39 -6 -64q66 6 103 5q115 -4 108 -52q-2 -41 -112 -41q-131 0 -193 56q-74 -29 -154 -101q-100 -90 -120 -196 q-18 -96 27.5 -146.5t158.5 -44.5q139 8 285 105q57 39 143 118q18 16 27 9q6 -6 -23 -31q-74 -70 -147 -121q-158 -109 -324 -121h-2q-324 -20 -324 189q-217 -152 -409 -146q-88 2 -162 40t-92 128zM1251 471q12 -47 97 -51q74 -4 73 26q2 12 -17.5 19.5t-53.5 9.5 q-72 0 -99 -4zM1307 645q29 -23 98.5 -41t138.5 -18q102 0 180 33.5t84 97.5q6 45 -33.5 79.5t-121.5 34.5h-2q-96 0 -207 -67q-90 -58 -137 -119z" />
<glyph unicode="&#x153;" horiz-adv-x="845" d="M-29 152q-4 4 13 24q18 18 67 55q35 25 86 54q125 72 228 71q47 0 47 -12l-29 -14q-68 -33 -147 -113q-45 -45 -80 -99.5t-37 -86.5q-4 -29 26 -29q72 0 201 129q47 45 76 96q29 49 22 90q-6 29 -4 31q14 8 45 -14q25 -18 33 -45q18 16 76 35q80 35 145 34q47 0 69.5 -17 t20.5 -44q-4 -63 -135 -127q-90 -41 -202 -64q-12 -25 -13 -45q0 -43 51 -43q80 0 195 76q66 45 119 94q16 16 24 11q6 -6 -20 -31q-59 -55 -117 -96q-131 -86 -254 -90q-123 -2 -143 61q-109 -61 -203 -61q-141 0 -145 98q0 61 55 117l-2 2q-20 -16 -35 -31 q-27 -22 -33 -16zM504 127q70 12 141 63q76 55 90 115q4 31 -22 31q-39 0 -111 -78q-69 -72 -98 -131z" />
<glyph unicode="&#x178;" horiz-adv-x="1110" d="M-106 -659q6 82 99 183t204 177q186 127 399 170q207 297 299 424q-119 -119 -259 -216t-247 -97q-59 0 -84.5 21.5t-23.5 64.5q2 100 251 378q193 219 218 314q10 43 -13.5 63.5t-60.5 20.5q-176 0 -361 -180q-164 -160 -163 -267q0 -84 71 -86q39 0 76 23q6 4 13 11 t11.5 9t6.5 0q8 -8 -25 -32q-39 -27 -84 -27q-43 0 -72.5 27.5t-35.5 72.5q-10 72 31.5 162t117.5 156q88 76 204 113.5t218 37.5q88 0 142.5 -31.5t52.5 -89.5q-2 -61 -52.5 -134.5t-146.5 -186.5q-242 -276 -254 -354q-6 -41 33 -41q76 0 215 104q152 111 299 287 q213 246 321 348q125 113 209 100q20 -2 27.5 -16t3.5 -32.5t-21 -39.5q-41 -53 -139 -133q-123 -102 -166 -143q-14 -18 -119.5 -162.5t-146.5 -202.5q-31 -43 -68.5 -97t-63.5 -90l-46 -65q156 4 238.5 -64.5t64.5 -182.5q-2 -14 -6 -23.5t-8 -15t-9 -2.5l5 38 q12 111 -68 174.5t-231 55.5q-100 -143 -218 -277q-135 -154 -290.5 -243.5t-253.5 -89.5q-43 0 -70.5 19.5t-23.5 66.5zM-41 -664q-2 -49 39 -57q53 -8 131 39q117 74 262 270q10 12 189 258q-190 -45 -363 -163q-88 -61 -171 -165t-87 -182zM1008 1053q18 43 88 43 q27 0 34 -17.5t-12 -42.5q-23 -27 -56.5 -44t-51.5 -17q-22 27 -2 78zM1245 975q-20 29 0 78q18 43 90 43q27 0 33 -17.5t-12 -42.5q-20 -27 -54 -44t-57 -17zM1255 569l105 86q82 68 117 111q55 66 28 80q-25 14 -98 -78q-56 -70 -152 -199z" />
<glyph unicode="&#x2c6;" horiz-adv-x="628" d="M268 483q-2 4 15 17q160 92 241 159q12 12 25 11q8 -2 12 -17q35 -90 74 -149q8 -12 6 -17q-4 -4 -27 5q-59 29 -102 75q-88 -47 -217 -84q-25 -10 -27 0z" />
<glyph unicode="&#x2dc;" horiz-adv-x="628" d="M315 508q-10 4 0 24q23 41 58 71t73 28q31 -2 70 -27.5t62 -28.5q43 -2 81 41q12 14 21 13q10 -4 -2 -25q-18 -35 -52 -67.5t-69 -32.5h-2q-27 0 -71 26.5t-68 28.5q-45 2 -82 -39q-13 -14 -19 -12z" />
<glyph unicode="&#x2000;" horiz-adv-x="768" />
<glyph unicode="&#x2001;" horiz-adv-x="1536" />
<glyph unicode="&#x2002;" horiz-adv-x="768" />
<glyph unicode="&#x2003;" horiz-adv-x="1536" />
<glyph unicode="&#x2004;" horiz-adv-x="512" />
<glyph unicode="&#x2005;" horiz-adv-x="382" />
<glyph unicode="&#x2006;" horiz-adv-x="256" />
<glyph unicode="&#x2007;" horiz-adv-x="256" />
<glyph unicode="&#x2008;" horiz-adv-x="190" />
<glyph unicode="&#x2009;" horiz-adv-x="307" />
<glyph unicode="&#x200a;" horiz-adv-x="83" />
<glyph unicode="&#x2010;" horiz-adv-x="524" d="M66 182q2 2 12 -2q16 -6 37 -2q41 4 108 45q51 33 99 33q53 0 78.5 -34t21.5 -85q0 -12 -6 -12q-4 0 -10 6q-23 31 -91 31q-27 0 -78 -10.5t-92 -10.5q-55 0 -77 29q-6 6 -2 12z" />
<glyph unicode="&#x2011;" horiz-adv-x="524" d="M66 182q2 2 12 -2q16 -6 37 -2q41 4 108 45q51 33 99 33q53 0 78.5 -34t21.5 -85q0 -12 -6 -12q-4 0 -10 6q-23 31 -91 31q-27 0 -78 -10.5t-92 -10.5q-55 0 -77 29q-6 6 -2 12z" />
<glyph unicode="&#x2012;" horiz-adv-x="524" d="M66 182q2 2 12 -2q16 -6 37 -2q41 4 108 45q51 33 99 33q53 0 78.5 -34t21.5 -85q0 -12 -6 -12q-4 0 -10 6q-23 31 -91 31q-27 0 -78 -10.5t-92 -10.5q-55 0 -77 29q-6 6 -2 12z" />
<glyph unicode="&#x2013;" horiz-adv-x="729" d="M94 203q4 35 53 33q211 -6 474 -19q41 -2 41 -16v-2q0 -12 -39 -13q-406 -14 -476 -16q-57 -2 -53 33z" />
<glyph unicode="&#x2014;" horiz-adv-x="1130" d="M94 203q4 35 49 33q543 -12 873 -17q45 0 45 -16v-2q0 -14 -43 -15q-397 -10 -871 -16q-29 0 -42 7.5t-11 25.5z" />
<glyph unicode="&#x2018;" horiz-adv-x="249" d="M184 545v2q0 8 13 26q61 94 155 162q20 12 23 10q8 -4 -10 -22q-49 -61 -54 -100q-2 -10 2 -24.5t4 -25.5q-2 -16 -29.5 -30.5t-64.5 -18.5q-39 -2 -39 21z" />
<glyph unicode="&#x2019;" horiz-adv-x="249" d="M147 508q-4 4 17 24q53 53 76 99q6 10 -0.5 29.5t-1.5 27.5q4 12 37.5 25.5t72.5 15.5q31 4 31 -18v-2q0 -10 -17 -31q-53 -66 -188 -160q-23 -16 -27 -10z" />
<glyph unicode="&#x201a;" horiz-adv-x="311" d="M-43 -94q-6 4 14 24q55 51 76 97q6 10 1 30.5t-3 28.5q16 35 113 39q31 2 30 -16v-3q0 -8 -18 -30q-68 -82 -186 -162q-25 -14 -27 -8z" />
<glyph unicode="&#x201c;" horiz-adv-x="446" d="M184 545v2q0 8 13 26q61 94 155 162q20 12 23 10q8 -4 -10 -22q-49 -61 -54 -100q-2 -10 2 -24.5t4 -25.5q-2 -16 -29.5 -30.5t-64.5 -18.5q-39 -2 -39 21zM375 545v2q0 8 12 26q61 94 156 162q20 12 22 10q8 -4 -10 -22q-49 -61 -53 -100q-2 -10 2 -24.5t4 -25.5 q-2 -16 -29.5 -30.5t-64.5 -18.5q-39 -2 -39 21z" />
<glyph unicode="&#x201d;" horiz-adv-x="446" d="M147 508q-4 4 17 24q53 53 76 99q6 10 -0.5 29.5t-1.5 27.5q4 12 37.5 25.5t72.5 15.5q31 4 31 -18v-2q0 -10 -17 -31q-53 -66 -188 -160q-23 -16 -27 -10zM344 508q-4 4 16 24q53 53 76 99q6 10 0 29.5t-2 27.5q4 12 38 25.5t73 15.5q31 4 30 -18v-2q0 -10 -16 -31 q-53 -66 -188 -160q-23 -16 -27 -10z" />
<glyph unicode="&#x201e;" horiz-adv-x="512" d="M-43 -94q-6 4 14 24q55 51 76 97q6 10 1 30.5t-3 28.5q16 35 113 39q31 2 30 -16v-3q0 -8 -18 -30q-68 -82 -186 -162q-25 -14 -27 -8zM137 -94q-6 4 15 24q55 51 75 97q6 10 1 30.5t-3 28.5q16 35 113 39q31 2 31 -16v-3q0 -8 -19 -30q-68 -82 -186 -162q-25 -14 -27 -8 z" />
<glyph unicode="&#x2022;" horiz-adv-x="579" d="M205 301q0 51 37 87t88 36h2q49 0 85 -36t36 -87t-36 -87t-87 -36t-88 36t-37 87z" />
<glyph unicode="&#x2026;" horiz-adv-x="890" d="M45 74q18 51 107 51h2q31 0 38 -20.5t-15.5 -49t-63.5 -49t-66 -24.5q-25 33 -2 92zM344 74q20 51 107 51h2q31 0 38 -20.5t-15.5 -49t-63.5 -49t-66 -24.5q-25 33 -2 92zM643 74q20 51 107 51h2q31 0 38 -20.5t-15.5 -49t-63.5 -49t-66 -24.5q-25 33 -2 92z" />
<glyph unicode="&#x202f;" horiz-adv-x="307" />
<glyph unicode="&#x2039;" horiz-adv-x="419" d="M78 203q4 10 24 16q143 59 226 113q14 12 18 8q8 -8 -4 -25q-70 -86 -143 -133q23 -68 34 -153q0 -18 -4 -21h-2q-4 -2 -12 10q0 2 -2 5q-90 117 -123 155q-14 19 -12 25z" />
<glyph unicode="&#x203a;" horiz-adv-x="419" d="M31 10q-8 8 4 23q59 80 143 135q-23 66 -35 151q0 20 7 23q6 0 16 -14q51 -74 121 -156q14 -18 12 -25q-2 -8 -25 -16q-172 -78 -225 -113q-12 -12 -18 -8z" />
<glyph unicode="&#x205f;" horiz-adv-x="382" />
<glyph unicode="&#x20ac;" horiz-adv-x="950" d="M-4 215q4 29 51 29q10 0 33.5 -1t54.5 -1q10 29 31 55h-105q-10 0 -17 1l-14 2q-7 1 -10.5 4t-3.5 7q2 27 50 27q18 0 124 -4q68 96 187 178q219 154 424 154q88 0 137 -43t53 -109q2 -45 -21.5 -75.5t-54.5 -30.5q-47 0 -36 55q4 20 20 43.5t19 34.5q6 37 -24 71.5 t-91 34.5q-178 0 -348 -184q-55 -55 -105 -131q256 -4 279 -6q35 0 35 -10.5t-35 -10.5q-51 -2 -149.5 -4t-147.5 -2q-8 -10 -21.5 -35.5t-13.5 -27.5q47 0 128 -2.5t124 -2.5q37 0 37 -8q0 -12 -35 -12q-127 -4 -266 -4q-25 -70 -25 -117q0 -139 150 -139q131 0 278 98 q74 53 127 103q23 18 29 16q8 -8 -17 -31q-57 -57 -129 -108q-162 -106 -307 -113q-139 -2 -215 46t-76 134q0 53 19 105h-80q-10 0 -17.5 1t-13.5 2t-9 4t-3 7z" />
<glyph unicode="&#x2122;" horiz-adv-x="1030" d="M197 567l8 76h254l8 -76l-27 -4q-6 29 -14 39t-18.5 12t-38.5 2v-59v-82q0 -29 8 -40t35 -13v-27h-158v27q27 2 35 13t8 40v82v59q-31 0 -41 -2t-18.5 -12t-14.5 -39zM473 395v27q16 2 23.5 11t13.5 44q10 82 12 101q4 23 -2 29.5t-31 10.5v25h113q8 -18 39 -90 q16 -37 29 -66l71 156h113v-25q-35 -2 -31 -45q2 -23 5 -63.5t3 -48.5q2 -20 10.5 -27.5t28.5 -11.5v-27h-149v27q23 4 29 11t6 30q0 45 -6 139q-27 -53 -43 -90q-41 -90 -50 -111l-22 -6q-10 25 -47 113q-8 23 -23.5 56.5t-17.5 37.5q-6 -53 -12 -133q0 -29 5 -37t23 -10 v-27h-90z" />
<glyph unicode="&#xe000;" horiz-adv-x="355" d="M0 355h355v-355h-355v355z" />
<glyph unicode="&#xfb01;" horiz-adv-x="763" d="M-553 -797q14 37 127 212t262 382q41 57 172 230q12 43 16.5 110.5t18.5 98.5q39 90 190 102q178 236 211 274q272 324 480 463q133 92 221 90q35 -2 52 -22.5t13 -50.5q-10 -68 -114.5 -169.5t-296.5 -256.5q-41 -35 -192.5 -151t-221.5 -177q25 2 78 3t80 1 q113 0 153 6q29 2 35 -7t-10 -26q-74 -82 -115 -133q-45 -55 -67 -100q-18 -35 -7 -45q10 -10 46 8q35 16 90 61q8 6 94 82q25 20 31 14.5t-19 -28.5q-53 -55 -119 -104q-121 -88 -204.5 -88t-79.5 57q0 35 28 78q47 74 121 147q27 29 60 55q-115 0 -209 -4 q-55 -78 -118 -163.5t-136.5 -187t-114.5 -157.5q-68 -94 -225 -317q-125 -180 -228 -270q-55 -49 -92 -49q-24 -1 -10 32zM33 63q29 39 91 125t91 123q-117 -8 -152 -86q-10 -23 -15 -76t-15 -86zM422 393l2 -2q90 80 194.5 167t147.5 124q254 231 313 299q72 80 76 127 q4 37 -33 37q-45 0 -129 -84q-106 -100 -266 -291q-176 -207 -305 -377zM778 582q23 49 103 49q31 0 39 -19.5t-13 -48.5q-23 -29 -63.5 -50t-63.5 -21q-25 33 -2 90z" />
<glyph unicode="&#xfb02;" horiz-adv-x="806" d="M-547 -735q14 74 99.5 227.5t195.5 304.5q98 133 342 447l-2 2q-8 -6 -32.5 -29.5t-37.5 -34.5q-25 -20 -30 -16q-6 8 12 24q80 72 137 119q139 178 244 303q92 106 215 232.5t197 185.5q166 135 270 135q43 0 57.5 -23.5t3.5 -58.5q-14 -53 -125.5 -172.5t-277.5 -251.5 q-82 -63 -223.5 -170.5t-153.5 -115.5q-141 -172 -283 -367q37 8 91 33q76 35 129 72q45 29 116 88q117 96 219 192q53 66 199 219q113 119 236 221q51 39 98 39q53 0 57 -20q-170 -156 -297 -305q-309 -356 -348 -467q-10 -29 6.5 -39t42.5 6q43 18 99 61q39 29 98 84 q20 18 26.5 12.5t-18.5 -30.5q-70 -66 -121 -102q-117 -88 -213 -88q-84 0 -84 63q2 74 148 256l-2 2q-47 -49 -142 -127q-72 -61 -135 -98q-68 -43 -162 -82q-41 -18 -51 -33q-14 -20 -28 -65q-57 -205 -160 -390q-109 -193 -250 -303q-59 -47 -111 -36q-65 10 -51 96z M-438 -741q-14 -37 4 -45q14 -8 49 18q100 76 225 295q113 197 180 422q-109 -137 -258 -361q-169 -257 -200 -329zM369 414q252 197 327 266q301 281 371 418q10 23 5 37t-25 12q-45 -2 -132 -86q-78 -72 -260 -291q-40 -49 -286 -356z" />
<glyph unicode="&#xfb03;" horiz-adv-x="1128" d="M-1808 -653q0 66 34.5 134t85.5 111q14 10 25.5 16.5t13.5 4.5t-1 -6t-13 -12.5t-18 -16.5q-80 -94 -80 -231q0 -150 118.5 -249t354.5 -91q158 6 301 62.5t280.5 173t252 243.5t266.5 324q61 76 204 266q12 45 16.5 100t12.5 78q16 41 50 59.5t116 24.5q207 268 387 444 q109 104 234.5 167t222.5 63q104 0 135 -39q215 143 444 149q147 4 226 -54t79 -144q0 -92 -81 -148q-25 -16 -29 -12q0 2 18 20q45 49 45 129q0 84 -63.5 139.5t-194.5 51.5q-186 -6 -389 -197q14 -45 6 -88q-6 -35 -14 -35v2v4q0 3 1 6t1 9v12q0 39 -14 72 q-14 -12 -47 -45q-102 -98 -392 -457q-6 -6 -19 -24.5t-19 -24.5q23 2 73.5 3t77.5 1q104 0 162 4q29 2 34 -7t-12 -26q-55 -59 -110 -131q-51 -63 -70 -100q-18 -35 -6 -45q10 -10 45 8q35 16 90 61q35 29 96 82q23 20 29 14.5t-18 -28.5q-53 -55 -119 -104 q-117 -88 -205 -88q-80 0 -80 57q0 29 29 78q49 72 121 147q14 14 33.5 32.5t23.5 22.5q-123 0 -213 -4l-147 -184q-147 -387 -291 -623q-123 -203 -254 -303q-59 -47 -115 -32q-61 12 -51 88q10 74 96 227.5t201 308.5q125 170 217 289q27 35 182 229q-35 0 -108.5 -1 t-100.5 -3q-27 -33 -71.5 -92t-59.5 -80q-141 -190 -254 -338q-606 -797 -1261 -813q-264 -8 -392 94.5t-128 264.5zM-12 -737q-18 -43 0 -49q16 -8 51 18q78 59 223.5 294.5t288.5 565.5q-205 -262 -367 -504q-161 -245 -196 -325zM43 115l147 196q-98 -6 -122 -65 q-8 -20 -12.5 -61t-12.5 -70zM375 334q27 2 101.5 3t109.5 1l55 68q291 362 469 505q8 8 57 45q-35 35 -98 35q-70 0 -129 -36.5t-152 -125.5q-120 -116 -413 -495zM1122 584q23 49 103 49q31 0 39 -18.5t-13 -47.5q-23 -31 -62.5 -52t-64.5 -21q-25 35 -2 90z" />
<glyph unicode="&#xfb04;" horiz-adv-x="1214" d="M-1772 -657q0 145 123 249q8 8 17.5 13.5t13.5 7.5t6 0q2 -4 -8 -12q-14 -12 -25 -23q-80 -94 -79 -231q0 -150 119.5 -249t355.5 -91q287 8 544 209q-35 49 -26 125q8 -63 49 -111q203 156 530 580q8 10 189 245q-37 98 -27 150q23 129 232 123q248 322 428 481 q113 100 237.5 151.5t225.5 51.5q76 0 108 -23q141 102 304 157.5t310 59.5q211 6 315.5 -73.5t104.5 -214.5q0 -51 -29.5 -105.5t-78.5 -93.5q-27 -23 -33 -17l25 29q66 72 65 184q0 121 -90 200t-279 73q-145 -6 -310 -93t-314 -235q-201 -195 -395 -463q-20 -31 -50 -67 q141 8 201 18q12 14 32.5 40t22.5 30q16 20 59.5 72.5t65.5 78.5q201 240 441 392q145 92 264 88q45 0 71.5 -21.5t30.5 -56.5q6 -70 -73.5 -172.5t-239.5 -216.5q-104 -74 -258 -142.5t-264 -95.5q-104 -125 -162 -248q-20 -45 -2 -55q14 -10 43 4q37 14 100 61 q55 45 99 84q20 18 26 13q4 -6 -20 -31q-47 -47 -121 -102q-119 -88 -211 -88q-45 0 -65.5 17t-18.5 46q2 70 104 205q51 68 58 76q-76 -12 -197 -19q-244 -342 -366 -508q-182 -248 -355 -411q-141 -135 -289.5 -201t-273.5 -66q-104 0 -152 45q-274 -168 -585 -178 q-264 -8 -393.5 92.5t-129.5 262.5zM-637 -819q37 -41 131 -41h2q193 0 426 256q53 57 123 146t104.5 136.5t125 173t92.5 130.5q41 57 235 323q-158 -4 -217 -2q-25 -33 -65.5 -88t-55.5 -74q-41 -51 -125 -167.5t-129 -172.5q-174 -221 -321.5 -362t-325.5 -258zM29 201 q-10 -47 18 -131q18 25 78.5 104.5t97.5 128.5q-174 0 -194 -102zM403 326q63 0 215 4q45 55 60 76q254 334 496 530q29 20 40 31q-29 25 -88 24q-133 0 -301 -162q-115 -112 -422 -503zM1155 369q246 57 483 229q289 207 289 377q0 49 -53 55q-78 4 -160 -55 q-119 -86 -244 -225q-178 -201 -315 -381z" />
</font>
</defs>
</svg>
