<?xml version="1.0" standalone="no"?>
<!DOCTYPE svg PUBLIC "-//W3C//DTD SVG 1.1//EN" "http://www.w3.org/Graphics/SVG/1.1/DTD/svg11.dtd" >
<svg xmlns="http://www.w3.org/2000/svg">
<metadata>
This is a custom SVG webfont generated by Font Squirrel.
Copyright   :  1997 1998 1999 2004 Adobe Systems Incorporated All rights reserved Protected by US Patents D407108 D426570
Designer    : Richard Lipton
Foundry URL : httpwwwadobecomtype
</metadata>
<defs>
<font id="BickhamScriptProBold" horiz-adv-x="735" >
<font-face units-per-em="2048" ascent="1393" descent="-655" />
<missing-glyph horiz-adv-x="313" />
<glyph unicode=" "  horiz-adv-x="313" />
<glyph unicode="&#x09;" horiz-adv-x="313" />
<glyph unicode="&#xa0;" horiz-adv-x="313" />
<glyph unicode="!" horiz-adv-x="567" d="M39 80q16 51 108 51q35 0 43.5 -21.5t-14.5 -50.5q-25 -31 -67.5 -53t-67.5 -24q-25 39 -2 98zM199 205q-2 2 18 31q143 178 264 360q66 98 217 98q25 0 25 -10q-2 -14 -39 -61q-23 -29 -48.5 -56.5t-61 -60.5t-58 -53.5t-71 -60.5t-66 -55t-76.5 -62.5t-72 -57.5 q-24 -20 -32 -12z" />
<glyph unicode="&#x22;" horiz-adv-x="497" d="M186 514q-8 4 9 29q6 10 102 162q29 45 102 45q72 0 9 -58q-84 -74 -197 -166q-19 -14 -25 -12zM418 514q-8 4 8 29q6 10 102 162q29 45 103 45q72 0 8 -58q-84 -74 -197 -166q-18 -14 -24 -12z" />
<glyph unicode="#" horiz-adv-x="802" d="M53 -47q-4 4 13 31q55 78 157 211h-106q-41 0 -41 20q0 25 53 25h127q66 86 84 110h-123q-47 0 -43 19q4 27 53 26q23 0 74 -1t72 -1q6 8 92 125q27 37 46 47t58 10q20 0 11 -18q-6 -14 -33 -47q-51 -63 -96 -117q98 -4 163 -8q72 98 117 150q31 37 47.5 47t50.5 10 q25 0 25 -10q-2 -14 -39 -58q-18 -20 -60 -69t-61 -70q18 -2 64.5 -4t54.5 -2q37 0 37 -8.5t-33 -8.5q-16 0 -47 -2t-55.5 -3t-40.5 -1q-94 -115 -105 -127q20 -2 71.5 -3t74.5 -1q33 0 33 -8q0 -10 -29 -10q-20 0 -57 -2t-66 -3t-49 -1q-37 -43 -103.5 -117t-89.5 -98 q-25 -25 -32 -19q-10 6 10 31l67 90q49 66 80 111q-31 -2 -93 -3t-95 -1q-160 -178 -203 -224q-23 -28 -35 -18zM328 238q84 -4 174 -7q31 43 92 123q-94 -4 -172 -4z" />
<glyph unicode="$" horiz-adv-x="530" d="M8 156q6 29 27.5 45t46.5 12q41 -8 33 -47q-4 -16 -21.5 -35.5t-17.5 -30.5q-4 -39 49 -45l151 201q-41 129 -20 188q20 61 91 97.5t177 31.5q16 20 29 37q37 49 53 39q12 -8 -18 -49l-27 -33q74 -31 57 -90q-4 -20 -22 -33.5t-35 -11.5q-43 8 -22 51q6 12 16 26.5 t10 22.5q0 12 -16 19l-154 -201q51 -127 13 -200q-59 -102 -246 -115h-12q-29 -37 -43.5 -51.5t-24.5 -10.5t4 27l27 37q-49 4 -81 39t-24 80zM166 53l16 2q61 14 90 62q23 39 15 94zM383 389l129 168q-37 0 -74 -25.5t-49 -60.5q-16 -43 -6 -82z" />
<glyph unicode="%" horiz-adv-x="917" d="M113 289q-8 70 59 139q76 80 203 92q25 2 24 -6q0 -2 -5 -4t-13 -6t-14 -8q-39 -25 -95 -97q-59 -76 -69 -129q-6 -39 20 -41q49 -6 119 88q57 76 76 142q10 29 0 43q-2 4 -5 6t-5 3t-2 3q4 8 24 2q6 -2 27 -12q37 -18 96 -15q92 10 164 70q8 6 25.5 21.5t30.5 23.5 t32 10q37 6 44 -3t-30 -50q-377 -340 -629 -631q-23 -29 -30 -22q-8 8 12 37q256 340 492 561q-63 -27 -109 -33q-53 -6 -88 12q12 -25 6 -49q-14 -72 -90 -149.5t-168 -77.5t-102 80zM506 68q-6 74 57 137q37 37 99.5 65.5t107.5 26.5q18 0 18 -6q0 -2 -3 -4t-11 -6.5 t-14 -8.5q-49 -35 -94 -94q-59 -82 -70 -131q-6 -35 20 -41q51 -6 117 88q63 86 78 142q8 31 0 43q-2 4 -5 6t-5 3t-2 3q4 10 28 2q39 -12 39 -57q0 -82 -90 -173q-76 -76 -170 -75.5t-100 80.5z" />
<glyph unicode="&#x26;" horiz-adv-x="999" d="M70 84q8 45 55 92t113 82q72 39 137 70q-18 66 -6 123q14 57 80.5 106t146.5 43q37 -4 57.5 -29.5t8.5 -66.5q-6 -23 -30 -46.5t-43.5 -37.5t-53 -34.5t-39.5 -25.5q23 -53 84 -141q45 41 130 124t119 114q172 156 285 155q51 0 78 -28.5t18 -73.5q-6 -35 -33.5 -61.5 t-58.5 -20.5q-43 8 -26 82q6 47 -35 51q-63 6 -213 -131q-121 -106 -252 -229q113 -160 86 -299q-23 -115 -132.5 -188.5t-275.5 -73.5q-98 0 -129 61q-14 31 -4 35q2 0 4 -2t5.5 -10.5t7.5 -14.5q37 -45 110 -45q92 0 164 76t84 174q10 104 -39 201q-154 -125 -315 -125 q-41 0 -68.5 23.5t-19.5 70.5zM221 121q0 -59 68 -60q86 0 174 74q-59 104 -80 170q-72 -47 -109 -86q-53 -57 -53 -98zM487 381q106 63 136 121q12 25 1.5 45t-32.5 20q-35 0 -64.5 -33.5t-40.5 -80.5q-8 -41 0 -72z" />
<glyph unicode="'" horiz-adv-x="264" d="M180 514q-8 4 8 29q6 10 103 162q29 45 102 45q72 0 8 -58q-84 -74 -196 -166q-19 -14 -25 -12z" />
<glyph unicode="(" horiz-adv-x="585" d="M190.5 85q-8.5 105 22.5 223t102 218q51 72 115 132.5t118 99.5t130 72.5t118 50t115.5 34t91 19.5t74.5 12q23 4 25 -2q2 -2 -2 -4t-17 -6q-154 -45 -326.5 -156.5t-312.5 -310.5q-203 -287 -196 -637q0 -16 -4 -18t-6 1t-7 13q-14 45 -23 99.5t-17.5 159.5z" />
<glyph unicode=")" horiz-adv-x="585" d="M-219 -176q0 2 18 8q141 49 301 167t291 316q78 121 116 253t35 214t-3 156q0 16 2 16q6 0 12 -14q18 -51 31.5 -105.5t28 -155.5t-9 -213t-85.5 -208q-78 -121 -190.5 -211t-225 -135t-179 -64.5t-118.5 -27.5q-24 -4 -24 4z" />
<glyph unicode="*" horiz-adv-x="473" d="M242 735q-2 10 11 15.5t36 5.5q43 0 86 -6q-33 68 -39 81q-16 43 0 52q16 10 45 -31q20 -27 53 -88q41 41 98 94q31 29 50 16q16 -12 -13 -49q-12 -16 -80 -90q45 -2 97 -14q39 -10 39 -26.5t-43 -16.5q-51 0 -105 4q39 -84 39 -86q14 -45 -4 -53q-14 -6 -35 26 q-29 43 -55 97q-78 -78 -109 -107q-27 -27 -45 -16q-16 12 15 51q66 78 86 100q-61 6 -86 13q-41 10 -41 28z" />
<glyph unicode="+" horiz-adv-x="765" d="M101 247q-1 5 1 11q10 33 54 31q23 0 99.5 -2t123.5 -4q113 154 127 172q39 57 104 57q33 0 37 -10t-29 -56q-2 -2 -24.5 -27.5t-55 -65.5t-59.5 -72q197 -10 217 -13q23 -6 23 -10q-2 -8 -39 -12q-86 -6 -238 -10q-102 -109 -217 -236q-25 -27 -39 -23q-14 2 4 31 q37 57 154 225q-31 0 -95.5 1.5t-105.5 1.5q-20 0 -30.5 3t-11.5 8z" />
<glyph unicode="," horiz-adv-x="317" d="M-59 -123q-2 4 20 27q61 61 88 116q6 12 0 37t-4 33q16 39 137 53q33 4 33 -20q0 -20 -27 -51q-90 -102 -217 -183q-28 -18 -30 -12z" />
<glyph unicode="-" horiz-adv-x="536" d="M58 176q-1 4 1 6t15 -2q14 -4 39 0q47 10 110 49q55 35 105 35q57 0 83.5 -34.5t22.5 -90.5q0 -14 -8 -14q-2 0 -10 8q-25 29 -94 29q-27 0 -81.5 -10.5t-97.5 -10.5q-59 0 -82 29q-2 2 -3 6z" />
<glyph unicode="." horiz-adv-x="317" d="M38 25.5q-1 31.5 9 60.5q20 57 117 57q37 0 47 -22.5t-16 -54.5q-53 -63 -146 -84q-10 12 -11 43.5z" />
<glyph unicode="/" horiz-adv-x="489" d="M-98 -174q-6 6 16 33q442 508 709 825q88 104 213 104q53 0 -29 -81q-229 -236 -879 -873q-18 -18 -30 -8z" />
<glyph unicode="0" horiz-adv-x="636" d="M35 145q8 55 43 118t82 110q178 172 340 172q14 0 24.5 -1t14.5 -4t4 -5l-6 -5q-8 -4 -20.5 -11t-27.5 -15q-88 -59 -174 -170q-121 -147 -139 -242q-12 -74 35 -82q39 -8 100.5 38t120.5 124q123 158 154 274q12 47 -6 70q-10 14 -29 19q0 8 14 10q55 8 85 -39t14 -117 q-27 -125 -148 -254q-143 -154 -321 -153h-2q-92 0 -130 45.5t-28 117.5z" />
<glyph unicode="1" horiz-adv-x="454" d="M-10 -25q0 10 45 70q86 109 202.5 241t174.5 175q-119 -76 -191 -113q-27 -14 -59.5 -22.5t-50 -9.5t-23.5 3q-2 4 2 6.5t23 10.5q53 23 108 49q72 35 185 100q125 70 165 70q29 0 0 -39q-6 -8 -26 -35q-172 -207 -305 -397q-45 -66 -74 -81t-148 -34q-26 -4 -28 6z" />
<glyph unicode="2" horiz-adv-x="608" d="M-114 -18.5q-3 4.5 1 12.5q6 14 33 31q49 33 234 120q111 53 197.5 130t107.5 143q10 35 -7.5 56.5t-52.5 23.5q-74 4 -143 -47q-59 -43 -70 -99q-6 -31 14.5 -48t49.5 -11q8 0 10 -2q4 -6 -12 -12q-23 -12 -51 -9q-72 6 -64 70q8 61 113 129q109 76 227 76q78 0 123 -34 t29 -105q-27 -119 -226 -203q-72 -31 -188 -70l-123 -41q53 8 90 8q47 2 112.5 -15t82.5 -17q68 0 141 77q14 14 18.5 10.5t-4.5 -16.5q-43 -53 -66.5 -78.5t-65.5 -54.5t-81 -29q-53 0 -122 31q-84 37 -121 37q-88 0 -135 -33q-12 -8 -19.5 -16t-10.5 -13.5t-5 -5.5 q-4 -2 -8.5 -1t-7.5 5.5z" />
<glyph unicode="3" horiz-adv-x="552" d="M-51 92q4 37 36.5 64.5t75.5 27.5q31 0 45.5 -15t12.5 -36q-2 -29 -39 -51q-43 -25 -45 -35q-4 -23 13.5 -36t49.5 -11q49 2 111.5 47t109.5 133q18 33 17.5 68t-25.5 37q-20 2 -49 -11q-6 -2 -11 -5t-8 -5l-6 -4q-3 -2 -4.5 -2t-3.5 2q-12 20 33 37q88 29 146.5 79 t56.5 93q0 35 -49 39q-66 4 -113 -27q-47 -29 -63 -75q-10 -29 0 -48q10 -16 8 -16q-18 -10 -43 6q-33 20 -23 55q12 41 103 91q96 51 192 51q137 0 141 -78q2 -43 -35.5 -79t-105.5 -56q-61 -16 -147 -27q78 -4 121 -33q66 -47 38 -116q-33 -90 -157 -133 q-119 -41 -240 -41q-68 2 -109.5 31.5t-33.5 78.5z" />
<glyph unicode="4" horiz-adv-x="636" d="M-68 66q-2 8 35 36q152 115 279 201q158 109 239 158q84 51 130.5 68.5t101.5 17.5h2q25 0 8 -23q-109 -129 -324 -418q68 -6 78 -8q16 -4 24.5 -9t6.5 -13q-2 -2 -39 -2h-92q-102 -133 -131 -174t-41 -53.5t-47 -24.5t-105 -21q-29 -4 -28 6q0 14 37 66q16 25 147 199 q-123 0 -166 -4q-29 -2 -88 -11q-23 -3 -27 9zM4 94q80 12 234 12q49 68 163.5 193t173.5 184l-4 4q-98 -57 -311 -204q-127 -88 -256 -187v-2z" />
<glyph unicode="5" horiz-adv-x="565" d="M-61 88q2 41 34.5 66.5t75.5 25.5q63 0 64 -53q0 -31 -39 -53q-29 -18 -29 -39q0 -35 66 -35q82 0 153.5 64.5t85.5 152.5q6 39 -17.5 62.5t-54 25.5t-61.5 -12q-20 -10 -41 -31q-23 -27 -37 -16q-12 12 21 47q86 86 106 110q55 66 101 152q6 14 14 14h2q2 0 6 -3t9 -6 t10 -5q43 -23 88 -33t86 -10q29 0 59 12q4 2 10 4q8 6 11 4q6 -4 -7 -26q-20 -37 -69 -66q-57 -35 -127 -30q-96 4 -135 30q-47 -63 -125 -139l2 -2q45 39 123 39q86 0 144 -40t46 -108q-16 -88 -148.5 -148t-256.5 -60q-72 0 -123 27.5t-47 78.5z" />
<glyph unicode="6" horiz-adv-x="624" d="M49 119v2q0 129 158 282q115 117 264.5 190t286.5 62q94 -8 123 -65q10 -20 0 -27q-2 0 -4.5 1t-5.5 6t-5 8q-35 53 -106 53q-164 0 -428 -275q-141 -156 -164 -282q-10 -63 41 -70q82 -12 190 154q43 63 50.5 110t-23.5 60q-35 10 -94 -27q-16 -10 -20.5 -4t16.5 20 q63 45 131 43q86 -4 111.5 -72.5t-31.5 -152.5q-47 -70 -144.5 -114t-181.5 -39q-164 8 -164 137z" />
<glyph unicode="7" horiz-adv-x="471" d="M-113 -63q-2 12 27 38q252 225 657 498q-168 -74 -276 -74q-66 0 -94.5 26t-18 66.5t53.5 65.5q29 16 57 16q10 0 10 -4q0 -2 -5 -7t-7 -11q-4 -14 4 -25.5t35.5 -18.5t72.5 -7q131 0 218 24q39 23 45 6q2 -6 -5.5 -12t-27.5 -14q-47 -47 -130 -129t-120 -119l-94 -94 q-57 -57 -101.5 -104.5t-91.5 -98.5q-12 -12 -127 -29q-78 -9 -82 7z" />
<glyph unicode="8" horiz-adv-x="575" d="M8 119q6 53 65.5 108.5t162.5 94.5q49 16 51 8q0 -2 -6.5 -6.5t-16.5 -10.5t-14 -8q-100 -66 -123 -174q-25 -109 63 -119q63 -8 112.5 48.5t49.5 129.5q0 35 -39 125q-37 82 -32 131q8 82 98 144.5t186 62.5q72 2 110 -33.5t30 -91.5q-16 -104 -181 -159 q-47 -18 -49 -11q0 4 4 8.5t14.5 9.5t12.5 7q84 55 100 145q8 39 -10 67t-55 28h-2q-43 0 -78 -29t-43 -70q-12 -68 35 -166q57 -117 34 -188q-25 -76 -119 -130t-194 -58q-88 0 -132 34.5t-34 102.5z" />
<glyph unicode="9" horiz-adv-x="608" d="M-287 -123q4 2 7.5 -2t7.5 -12q27 -51 98 -51h2q113 0 276 116q68 49 137.5 123t112.5 139q127 182 140 275q8 59 -31 61q-43 4 -99.5 -38t-109.5 -119q-41 -61 -48 -111.5t23 -58.5q39 -12 99 32q27 20 30 17q8 -8 -24 -33q-61 -49 -129 -43q-86 8 -107.5 80t35.5 147 q53 74 144.5 112t171.5 38q55 0 97 -30t50 -83q8 -55 -22.5 -141t-96.5 -170q-117 -147 -314.5 -250.5t-332.5 -87.5q-90 10 -117 63q-12 23 0 27z" />
<glyph unicode=":" horiz-adv-x="368" d="M40 25.5q-1 31.5 9 60.5q20 57 117 57h2q35 0 44 -22.5t-15 -54.5q-53 -63 -146 -84q-10 12 -11 43.5zM163 236.5q-1 31.5 9 60.5q20 57 117 57h2q35 0 44 -22.5t-16 -55.5q-53 -63 -145 -83q-10 12 -11 43.5z" />
<glyph unicode=";" horiz-adv-x="368" d="M-59 -123q-2 4 20 27q61 61 88 116q6 12 0 37t-4 33q16 39 137 53q33 4 33 -20v-2q0 -18 -27 -49q-94 -106 -217 -183q-28 -16 -30 -12zM163 236.5q-1 31.5 9 60.5q20 57 117 57h2q35 0 44 -22.5t-16 -55.5q-53 -63 -145 -83q-10 12 -11 43.5z" />
<glyph unicode="&#x3c;" horiz-adv-x="577" d="M80 264v2q0 10 47 27q203 76 479 176q20 8 27 0q8 -12 -21 -27q-209 -100 -385 -182q66 -45 232 -166q25 -16 14 -31q-8 -8 -24 0q-217 111 -343 177q-26 12 -26 24z" />
<glyph unicode="=" horiz-adv-x="868" d="M88 210q-2 5 0 13q8 45 55 41q20 0 284.5 -10t356.5 -14q27 0 27 -13v-2q0 -16 -43 -16q-365 -12 -621 -14q-29 0 -43 5t-16 10zM174 369q8 39 57 39q20 0 283.5 -10.5t351.5 -14.5q31 0 31 -16v-2q0 -10 -43 -13q-223 -10 -623 -14q-27 0 -40 4t-16 10.5t-1 16.5z" />
<glyph unicode="&#x3e;" horiz-adv-x="577" d="M0 63q-4 10 25 25q301 145 381 182q-66 45 -228 168q-25 18 -16 29q6 10 26 0q47 -25 157 -81t183 -95q25 -10 25 -25v-2q0 -10 -43 -26q-117 -43 -282 -104.5t-199 -74.5q-25 -10 -29 4z" />
<glyph unicode="?" horiz-adv-x="567" d="M39 80q20 51 108 51h3q33 0 41 -21.5t-15 -50.5q-25 -31 -67.5 -53t-67.5 -24q-25 39 -2 98zM128 211q1 16 9 33q23 45 119 104q184 123 209 221q10 35 -6.5 57.5t-48.5 22.5q-59 -2 -125 -49q-45 -31 -62.5 -82t2.5 -82q2 -4 6.5 -8t7.5 -6t3 -4q0 -6 -23 -2 q-76 12 -59 78q18 66 110 122q115 74 230 74h2q78 0 117.5 -33.5t31.5 -91.5q-18 -143 -256 -217q-113 -35 -153 -57q-47 -27 -64 -58q-10 -57 -35 -57q-6 0 -11 9.5t-4 25.5z" />
<glyph unicode="@" horiz-adv-x="1032" d="M80 223q8 78 63 148q74 96 207 150t289 54h2q123 0 203 -56t80 -132q0 -63 -50 -121q10 -20 11 -47q0 -78 -49 -137q-55 -70 -169 -111t-249 -39q-115 2 -198 45t-115.5 105.5t-24.5 140.5zM178 179q-12 -93 51.5 -158.5t194.5 -69.5q119 -2 223.5 42t163.5 111 q45 53 45 113l-2 21q-31 -33 -84 -70q-88 -57 -178 -57q-57 0 -64 39q-4 25 13 51l-2 2q-86 -82 -179 -84q-94 0 -88 63q6 78 136 152q90 53 180 53q57 0 53 -53h4q18 23 36.5 33t24.5 10h35q47 0 47 -6q0 -4 -10 -17q-98 -117 -131 -176q-8 -18 2 -24q12 -8 50 2t67 30 q47 33 78 88q-6 16 -23 33q-10 12 -8 15q4 4 23 -11q6 -4 18 -16q16 43 16 94q0 68 -62.5 117t-168.5 49h-2q-219 0 -375 -193q-72 -90 -84 -183zM383 160q0 -16 16 -17q49 0 123 66q98 86 105 135q2 27 -23 27h-2q-37 0 -139 -99q-80 -77 -80 -112z" />
<glyph unicode="A" horiz-adv-x="1484" d="M31 115v2q0 61 36.5 98t82.5 39h7q40 0 63 -20q26 -22 22 -56q-2 -31 -52 -67q-33 -25 -32 -52q0 -35 47 -55q34 -15 89 -15q22 0 48 3q186 16 408 170q-131 97 -132 235q0 98 72 169q70 69 178 69h4q157 0 242 -164q18 18 84 80q186 178 318 250q147 78 274 78 q88 0 121 -27q6 -6 10 -12t4 -10.5t-4 -6.5q-2 -2 -6 4q-6 6 -12 11q-18 12 -45 12q-35 0 -66 -23q-76 -55 -170 -192q-182 -254 -379 -574q47 0 121 39q47 27 106 78q33 29 39 23q8 -8 -20 -33q-59 -55 -119 -86q-72 -37 -137 -41q-37 -45 -158 -55q-27 -2 -40 2t-11 11 t4 15q2 6 9 17.5t7 13.5q-68 6 -147 35q-63 23 -127 65q-219 -164 -434 -180q-26 -2 -50 -2q-95 0 -166 32q-89 40 -89 120zM735 397q-1 -10 0 -20q0 -107 60 -180q61 45 151 122q45 41 148 134q-72 133 -193 133h-2q-76 0 -118 -55.5t-46 -133.5zM811 178q29 -37 109 -74 q68 -31 135 -38q10 16 26.5 44.5t20.5 34.5q25 50 25 143q0 13 -1 27q-4 72 -22 117q-27 -25 -77 -70t-69 -61q-67 -60 -147 -123zM1124 451q20 -51 25 -119v-18q0 -63 -12 -117q180 270 254 358q190 240 421 303v2h-6q-134 0 -280 -78q-121 -66 -275 -209 q-111 -104 -127 -122z" />
<glyph unicode="B" horiz-adv-x="1480" d="M-16 90q-5 21 -5 43q0 81 65 183q83 130 282 262q186 125 417 195q213 65 392 65h30l29 -2q117 70 236 108q106 37 207 37h20q106 -4 143 -55q5 -8 5 -13t-5 -6l-10 11q-39 45 -131 45q-111 0 -203 -39q-82 -33 -158 -103q94 -18 145 -65q40 -38 40 -89q0 -13 -2 -26 q-16 -84 -115.5 -133t-218.5 -55v-2q113 -4 185 -54q69 -47 69 -115q0 -130 -150 -217q-141 -83 -333 -83h-3q-84 0 -135 34q-38 26 -38 72q0 14 3 31q14 51 57.5 81.5t94.5 30.5q31 0 51.5 -17t18.5 -44q-2 -51 -66 -82l-12 -6l-12 -6q-4 -2 -10.5 -6t-10.5 -7.5t-7 -9.5 t-3 -12q-2 -20 19.5 -31.5t52.5 -11.5q104 0 205 96q108 102 108 227q0 59 -47 90q-46 30 -82 30q-4 0 -8 -1q-20 -8 -47 -8t-36.5 5t-6.5 18q2 16 45 16q39 0 59 -10q66 10 132.5 64.5t88.5 121.5q5 18 5 35q0 23 -9 47q-16 41 -59 64q-14 -10 -35 -31q-33 -35 -70 -82 t-93 -126t-91 -124q-145 -199 -356 -335t-392 -136q-43 0 -74.5 4t-70.5 15.5t-64.5 40t-35.5 71.5zM113 102q0 -59 33.5 -92t89.5 -33q82 0 166.5 58.5t133 114t146.5 186.5q18 25 29 37q152 199 385 393q27 25 65 47q-16 2 -24 2h-20q-160 0 -356 -62q-208 -67 -362 -190 q-152 -121 -219 -240.5t-67 -218.5v-2z" />
<glyph unicode="C" horiz-adv-x="854" d="M37 145v17q0 265 317 483q-51 55 -51 129q0 84 74 138.5t184 54.5h2q188 0 275 -129q61 10 110 10h10q92 0 165 -37q71 -36 71 -105v-12q-6 -100 -136 -153.5t-272 -53.5q-227 0 -333 76q-98 -88 -165 -202.5t-67 -206.5q0 -187 193 -187h20q141 10 287 113 q18 12 131 108q27 23 33 17q6 -8 -29 -39q-84 -76 -137 -115q-170 -113 -322 -123q-30 -2 -57 -2q-124 0 -203 45q-96 55 -100 174zM328 774q0 -74 43 -117q209 127 428 172q-27 43 -93.5 76t-138.5 33h-2q-100 0 -168.5 -44t-68.5 -120zM467 578q106 -72 321 -72h3 q111 0 202.5 50t104.5 146v12q0 55 -38 84q-42 32 -116 31q-57 0 -98 -10q20 -45 24 -112v-27q0 -12 -1 -21.5t-3 -15.5l-3 -9q-1 -3 -3 -3t-2 7t-1 23.5t-3 32.5q-10 68 -43 115q-78 -25 -181.5 -95t-162.5 -136z" />
<glyph unicode="D" horiz-adv-x="1562" d="M-24 53q47 5 128 6q40 0 89 -2q100 0 286 -28q49 14 92 37.5t88.5 68.5t69 70.5t75.5 93.5t68 88q166 203 394 338q-186 123 -461 123q-242 0 -421 -131t-181 -303v-4q0 -150 153 -160q11 -1 21 -1q151 0 270 111q111 104 111 197v2q0 39 -26.5 64.5t-63.5 27.5h-5 q-65 0 -126 -53q-8 -6 -14.5 -13t-10.5 -11.5t-6 -8.5t-4 -5t-4 -1q-2 2 1 9t11 19.5t20 24.5q62 62 138 62h10q47 -2 83 -33t42 -84q1 -11 1 -21q0 -51 -25 -104q-30 -63 -91 -113q-55 -45 -148 -68q-79 -20 -158 -20h-28q-113 4 -196.5 56.5t-85.5 140.5 q0 119 108.5 222.5t277.5 160.5t347 57q279 0 485 -127q61 37 140 64q111 37 212 37q78 0 121 -33q8 -6 12.5 -13.5t5.5 -11.5v-2q0 -2 -1 -4q-2 0 -3 2t-7.5 8.5t-16.5 12.5q-37 20 -102 20q-88 0 -193 -43q-74 -31 -125 -69q123 -94 168 -230q20 -59 20 -114 q0 -70 -32 -134q-29 -53 -75 -95t-88 -68.5t-111.5 -45t-109.5 -26.5t-119 -12t-103 -4h-99q-131 0 -315 20q-74 -16 -242 -16q-262 0 -299 10q-25 8 -24 20q-1 31 72 39zM522 23q139 -23 232 -23q166 0 315.5 68.5t237.5 207.5q67 104 66 223q0 114 -60 189 q-49 -49 -134 -168t-126 -166q-189 -235 -531 -331z" />
<glyph unicode="E" horiz-adv-x="868" d="M78 180q20 86 109 152.5t163 93.5t152 43q-29 33 -29 86v2q0 68 45 121q-82 61 -82 135v10q4 59 58 97q50 35 128 34h9q154 -4 260 -106q68 5 122 4h36q100 -2 164 -40q61 -36 61 -85q0 -72 -102 -123q-97 -49 -220 -49q-162 0 -293 55q-20 -29 -28 -59q-8 -25 -8 -45 q0 -10 2 -19q34 5 74 5h28q109 -4 109 -47q0 -46 -113 -46q-139 0 -209 54q-68 -25 -137 -88q-39 -35 -74 -88.5t-45 -94.5q-9 -35 -9 -64q0 -59 36 -98q47 -50 138 -50q13 0 28 1q137 10 276 105q23 14 49.5 35.5t54 46t37.5 32.5q18 18 27 11q6 -6 -23 -33 q-90 -82 -149 -121q-166 -109 -332 -123q-30 -2 -57 -2q-134 0 -204 59q-61 51 -61 132q0 31 9 67zM461 823q0 -6 -1 -11q0 -69 70 -120q55 61 168 109q72 29 148 39q-111 94 -215 96h-10q-71 0 -112 -29q-44 -31 -48 -84zM629 471q6 -20 34.5 -34.5t61.5 -16.5q8 0 16 -1 q56 0 58 27q2 14 -16.5 20.5t-55.5 8.5l-34 2q-33 -1 -64 -6zM670 629q109 -53 278 -54h2q94 0 176 41q86 43 87 113q0 40 -35 70q-39 33 -123 35h-11q-68 0 -129 -25q25 -33 33 -84q4 -26 4 -43q0 -24 -8 -29q-2 0 -2 4.5t-4 20.5t-10 39q-12 43 -45 80q-57 -27 -107 -62 q-55 -38 -106 -106z" />
<glyph unicode="F" horiz-adv-x="1214" d="M41 119q0 53 35 93t94 40q47 0 72 -27q23 -25 22 -56q0 -42 -33 -77q-27 -31 -26 -51q0 -55 90 -59l32 -2q95 0 174 43q91 49 191 157q72 76 125 152q-88 0 -112 -2q-27 0 -54 -6q-12 0 -12 2q6 23 82 26h110q57 78 105 127q123 133 297 240q-61 6 -219 37 q-219 41 -320 41h-2q-348 0 -397 -197q-5 -22 -5 -44q0 -46 21 -90q31 -65 119 -104l27 -12q-4 -10 -39 2q-90 31 -137 104q-39 60 -39 125q0 14 2 29q16 119 144 202q122 79 297 79h17q145 0 347 -55q160 -43 270 -70q141 57 240 57q57 0 96 -18q35 -17 35 -45 q0 -70 -195 -70q-80 0 -166 12q-47 -45 -127 -141q-35 -41 -86 -107.5t-80 -101.5q15 -1 29 0q71 0 119 17q52 72 103 71q9 0 18 -2q16 -4 20 -15t-6 -27.5t-33 -33.5q-86 -66 -115 -94q-6 -6 -15 -16t-14 -15.5t-7 -5.5q-16 -2 -5 45q2 6 5 11q14 35 30 57 q-49 -14 -143 -14l-18 -21q-16 -20 -29 -35q-129 -143 -321.5 -228t-348.5 -85q-117 0 -190.5 43t-73.5 115zM1389 748q100 -27 176 -27q41 0 71 11q33 12 33 30q0 17 -31 29q-33 12 -82 12h-2q-83 0 -165 -55z" />
<glyph unicode="G" horiz-adv-x="1069" d="M88 -336q86 53 214 111.5t210 111.5q43 49 180 242q-160 -154 -336 -154q-197 2 -213 152q-3 20 -2 40q0 136 121 286q-47 33 -83 84t-36 110q0 121 100.5 188.5t243.5 67.5q164 0 301 -94q219 66 368 66q5 0 9 -1q166 -4 168 -122v-3q0 -172 -258 -305 q-102 -51 -251 -74q-103 -16 -197 -17q-41 0 -80 3q-55 4 -121 25q-92 -129 -104 -250q-1 -7 -1 -14q0 -44 22 -73q26 -34 77 -36h2q129 0 334 207q63 63 172 64q31 0 36 -6.5t-10 -26.5q-16 -23 -50 -66t-52 -69q-14 -20 -51 -68.5t-70 -91.5v-2q106 57 209 135 q51 39 129 106q25 18 29 15q8 -8 -27 -39q-57 -51 -121 -98q-88 -68 -241 -152q-121 -174 -252 -330q-123 -139 -291 -235t-289 -96q-107 0 -107 77q0 138 318 332zM-135 -662q-1 -6 -1 -11q0 -44 46 -48h9q52 0 120 41q111 74 262 268q131 184 188 260q-49 -33 -154.5 -88 t-211.5 -122q-96 -61 -174 -143.5t-84 -156.5zM170 647q0 -102 104 -180q80 98 183 168q129 94 280 149q-117 82 -270 82h-2q-125 0 -210 -55t-85 -164zM436 397q49 -14 96 -16q14 -1 30 -1q89 0 216 31q150 36 260 95q117 63 195 128q76 63 76 117q0 101 -138 101 q-63 0 -160.5 -24.5t-181.5 -67.5q29 -47 41 -103q6 -31 8.5 -57.5t-4.5 -30.5q-2 0 -3 4.5t-9 27t-22 54.5q-25 55 -54 78q-121 -80 -213 -168q-63 -64 -137 -168z" />
<glyph unicode="H" horiz-adv-x="1445" d="M-55 123q0 49 33.5 84t84.5 35q39 0 64 -26q21 -22 21 -52q0 -5 -1 -10q-2 -35 -32 -62q-27 -25 -27 -51q2 -59 84 -59q35 0 71 8t72.5 29.5t65.5 40t65.5 54.5t59 56t58.5 64.5t50.5 61.5t49 63.5t41.5 52.5h-150q-39 0 -39 12q0 6 59 12q80 8 152 13q227 256 442 339 q-72 -27 -281 -26q-81 0 -183 4q-19 1 -38 0q-190 0 -312 -57q-134 -63 -154 -187q-5 -27 -5 -51q0 -138 150 -186q25 -10 25 -13q-4 -10 -39 0q-98 29 -159 103q-50 61 -50 131q0 14 2 29q23 156 174 233q115 59 287 59q54 0 114 -6q20 -2 83 -7t90.5 -7t80 -6t80 -5t61 -1 t54 3t31.5 9q44 26 59 26q3 0 4 -2q12 -6 -8 -22l-7 -7l-7 -7q-59 -53 -152 -162q-33 -43 -79 -103.5t-60 -78.5l256 2q59 68 135 139q150 150 297 227q141 74 270 74q51 0 87 -21.5t48 -54.5q5 -12 5 -19q0 -9 -7 -12q-2 0 -3 1t-3 7.5t-4 10.5q-29 57 -121 57 q-86 0 -180 -69q-59 -41 -186 -175q-74 -78 -148 -172q14 1 31 1q52 0 137 -5q4 0 11.5 -1t12.5 -1t10 -1t7 -3t2 -4q-4 -10 -41 -10q-143 0 -190 -2q-222 -282 -222 -357q0 -40 42 -40q55 0 145 63q33 23 106 88q29 25 35 18.5t-14 -26.5q-78 -68 -115 -96 q-106 -82 -209 -82q-154 0 -155 96q0 16 3 35.5t12 42t18.5 41t25.5 43.5l27 40q10 15 29.5 39.5t27.5 35t27.5 34t21.5 25.5l-254 -4q-369 -453 -745 -453q-86 0 -151.5 40t-65.5 120z" />
<glyph unicode="I" horiz-adv-x="1034" d="M-37 121q0 59 41 101t96 42q53 0 75 -32q16 -23 16 -47q0 -9 -3 -19q-10 -39 -49 -70q-41 -35 -41 -63q0 -49 109 -49q307 0 606 411q139 193 215 262q162 154 324 195q-207 -39 -267 -53q-156 -35 -294 -113q-129 -74 -129 -160q0 -49 49 -49q31 0 51 15q18 12 20 10 q6 -10 -10 -23q-29 -25 -74 -28q-8 -1 -16 -1q-43 0 -75 19q-38 23 -38 70q0 55 50.5 107t130.5 87q115 51 331 92q37 8 140.5 24.5t121.5 22.5q45 13 60 13h4q8 0 11 -7q1 -3 2 -7q0 -4 -3 -8q-4 -7 -14 -11q-96 -37 -197 -184q-35 -49 -92 -141.5t-90 -133.5 q-330 -430 -801 -430q-123 0 -191.5 41t-68.5 117z" />
<glyph unicode="J" horiz-adv-x="804" d="M-582 -575q-1 7 -1 14q0 65 85 133q94 76 285 152q66 25 200 72.5t210 76.5q258 346 415 516q174 186 306 279q147 102 227 133q47 20 47 22q0 8 -21 8q-6 0 -12 1q-95 0 -232 -29q-146 -31 -263 -92q-143 -76 -236.5 -178.5t-93.5 -190.5q0 -82 55 -90q6 -2 12.5 -2 t10.5 1t7 1t5 -1t2 -3t-4 -5t-13.5 -5t-19.5 -2q-51 2 -92 35.5t-49 95.5q-2 14 -2 28q0 77 56 157q67 95 206 161q133 61 325 101q174 36 317 36h30q20 0 34 -7q11 -6 12 -17q0 -17 -32 -42q-82 -61 -129 -110q-137 -137 -248 -277q-76 -90 -213 -257t-155 -187 q72 35 112 57q61 35 135 90q55 41 111 93q23 16 27 12q6 -6 -23 -35q-49 -47 -117 -96q-72 -55 -143 -92q-70 -37 -123 -60q-96 -119 -147 -174q-213 -229 -420 -330q-145 -78 -289 -78q-10 0 -21 1q-123 6 -133 84zM-438 -639q9 -1 19 -1q128 0 306 151q90 76 213 231 q18 23 44 56.5t34 43.5q-211 -76 -385 -145q-154 -61 -228 -137q-69 -70 -69 -128q0 -62 66 -71z" />
<glyph unicode="K" horiz-adv-x="1437" d="M-43 121v2q0 66 40 104.5t93 38.5q39 0 65.5 -22.5t26.5 -61.5t-41 -86q-27 -31 -26 -57q0 -59 86 -59q59 0 120.5 28.5t123 85t103.5 101.5t103 118l82 99q63 72 128 125t106 77.5t114 65.5l-2 2q-166 -90 -366 -90q-275 0 -275 129q0 74 70 115q45 27 110 26 q16 0 17.5 -5t-10.5 -19l-11 -15q-10 -12 -17 -21t-14 -30q-10 -28 -10 -50q0 -41 32 -73q36 -35 110 -35q123 0 260 43t233 129q43 43 68 44q2 0 4 -1q35 -4 2 -36q-12 -12 -29 -21q-43 -20 -137 -141q-20 -27 -55 -74t-61.5 -83t-45.5 -58q-158 -201 -358.5 -328 t-405.5 -127q-90 0 -161.5 40t-71.5 120zM969 66q-1 7 -1 14q0 62 62 139q74 94 74 123q0 23 -14 41q-33 -12 -64 -12q-25 0 -41 7t-14 21q2 27 65 27q31 0 74 -14q35 18 68.5 47.5t54 52.5t58.5 69t59 70q88 100 204 155q109 50 219 50h17q51 -2 89 -30q36 -26 36 -70 q0 -75 -86 -123q-72 -40 -149 -40q-13 0 -27 1q-49 4 -74 20q-10 6 -6 13q2 2 12 -2q20 -10 62 -15q14 -1 27 -1q72 0 135 37q75 44 75 110q0 37 -29.5 59.5t-70.5 22.5q-18 0 -36.5 -4.5t-33 -8.5t-31 -15t-27.5 -18.5t-28.5 -24.5t-25 -25.5t-25.5 -31t-24.5 -29.5 t-27 -35t-24.5 -34q-121 -162 -362 -215q74 -23 98 -75q7 -15 7 -35q0 -41 -34 -97q-10 -16 -27.5 -41.5t-25.5 -38t-15 -30t-7 -31.5q0 -35 41 -35q53 0 155 84q18 14 42 35t41.5 36t21.5 19q18 14 24 9q4 -6 -18 -29q-41 -37 -103 -88q-123 -102 -235 -103q-127 1 -135 89 zM993 399q0 -14 37 -14h2q23 0 43 10q-16 12 -39 15q-10 1 -17 1q-26 -1 -26 -12z" />
<glyph unicode="L" horiz-adv-x="1226" d="M187 105q99 36 204 40q21 1 42 1q41 0 77 -3q53 57 125 194.5t102 178.5q-94 20 -157.5 73.5t-63.5 127.5v2q0 84 83 150.5t218 66.5q186 0 324 -113q84 27 192 27q102 0 173 -39q65 -36 65 -94v-10q-10 -92 -148.5 -146.5t-310.5 -71.5q-50 -5 -97.5 -5t-92.5 5 q-133 -205 -367 -354q33 -4 190 -47q86 -23 150 -22q102 0 179 26.5t157 102.5q14 14 20 6q6 -6 -16 -29q-109 -109 -186.5 -155t-171.5 -46q-82 0 -197 41q-180 66 -195 68q-139 -102 -276 -105h-18q-105 0 -105 44q-1 49 101 86zM230 0h12q117 6 211 90q-75 21 -147 21 h-13q-45 -2 -82 -24q-35 -20 -35 -49q0 -38 54 -38zM537 715q0 -66 63.5 -116t147.5 -67q135 203 350 279q-115 78 -291 78q-125 0 -197.5 -50.5t-72.5 -121.5v-2zM932 508q23 -2 50 -2q56 0 132 8q68 8 145.5 31.5t150.5 71.5q79 52 79 116q0 48 -37 73q-41 28 -104 28 q-96 0 -168 -56q18 -23 30 -63q6 -20 7.5 -39t-1 -28t-4.5 -9t-3 6t-8 24.5t-19 41.5q-14 27 -33 45q-94 -72 -217 -248z" />
<glyph unicode="M" horiz-adv-x="1857" d="M-70 80q-1 8 0 15q0 50 34 87q40 43 95 43q94 0 95 -75q0 -43 -37 -72q-18 -15 -24.5 -21t-12 -15t-5.5 -19q0 -28 31 -42q37 -17 107 -18q129 0 311.5 84t347.5 201q123 90 304.5 257t277.5 265q-147 23 -391 23q-217 0 -352.5 -76t-149.5 -211q-1 -12 -1 -23 q0 -140 142 -188q6 -2 13.5 -4t9.5 -3t2 -3q-4 -12 -39 -2q-92 25 -150 93q-53 62 -53 137v15q10 162 169 247q142 76 342 76q24 0 48 -1q129 -4 429 -62q12 12 20 19q39 33 98 33q44 0 44 -25q0 -11 -9 -27l-12 -20q90 -8 170 -8q158 0 262 41q55 20 99 51t55 53 q2 6 4 11.5t3 9.5t2 7t3 4t4 1q8 0 8 -13q0 -11 -6 -32q-8 -35 -72 -102q-295 -319 -366 -408q-203 -252 -203 -324q0 -29 31 -28q51 0 151 75q35 27 82 70q25 20 31 14t-10 -22q-66 -61 -113 -94q-117 -88 -215 -88q-123 0 -123 92q0 68 143 252q164 211 322 342v2 q-84 -57 -399 -316q-70 -57 -125.5 -107t-138.5 -128t-111 -105q-25 -23 -63 -23q-13 0 -27 3q-30 5 -31 23q0 12 14 30q27 39 189 300t221 335l-2 2q-317 -313 -512 -455q-416 -295 -705 -294h-2q-238 0 -254 141zM1251 190q129 119 365 312q88 72 208 159t152 101v2 q-59 -23 -163 -23h-33q-109 0 -176 11q-51 -70 -178.5 -284.5t-174.5 -277.5z" />
<glyph unicode="N" horiz-adv-x="1398" d="M-197 98v2q0 63 44 100.5t96 37.5q90 0 90 -70q0 -33 -41 -68q-50 -41 -50 -71q0 -28 29 -43q35 -18 105 -19q125 0 280.5 63.5t294.5 172.5q293 223 445 510q25 49 69 88q51 41 111 41q16 0 26.5 -5.5t11.5 -11.5t-3 -12q-33 -47 -45 -113q-14 -66 -31 -249 q-18 -236 -51 -316h2q215 307 358 471q145 172 266 268q118 94 233 95h5q61 -2 96 -40q30 -32 30 -79q0 -8 -1 -16q-4 -25 -10 -25q-2 0 -2 3t-1 9t-3 13q-20 61 -107 67h-10q-163 0 -471 -321q-90 -94 -175 -200t-131 -171.5t-143 -204.5q-23 -35 -54 -35q-7 0 -15 2 q-53 12 -53 43q0 5 1 11q43 133 50 329q8 219 34 291h-2q-59 -113 -174.5 -238.5t-242.5 -222.5q-147 -111 -304 -176t-286 -67h-11q-106 0 -181 37q-79 40 -79 120z" />
<glyph unicode="O" horiz-adv-x="985" d="M41 139q-10 38 -10 77q0 85 47 171q68 125 155 203q156 145 358 216q156 55 292 55q39 0 78 -5q139 -18 151 -113q1 -8 1 -15q0 -50 -36 -85q-23 -23 -28 -16l16 24q26 36 26 75q0 8 -1 15q-6 41 -43 64.5t-86 23.5h-7q-140 0 -290 -90q-154 -92 -265 -207 q-92 -94 -153 -220q-44 -90 -44 -164q0 -30 7 -58q20 -100 137 -102h8q204 0 459 311q170 214 170 344q0 62 -72 66h-7q-161 0 -372 -271q-176 -223 -176 -332v-2q0 -51 27 -77q10 -10 10 -13q-4 -6 -16 2q-47 29 -60 93q-3 17 -3 35q0 56 28 127q37 95 115 188 q100 125 231 197q124 69 215 69h10q55 -2 86 -40t33 -97q1 -10 1 -20q0 -151 -118 -296q-106 -129 -279 -218q-165 -85 -304 -85h-13q-94 2 -173.5 41t-104.5 129z" />
<glyph unicode="P" horiz-adv-x="1425" d="M25 43q0 41 67 73q63 30 151 30q6 0 11 -1q162 -6 385 -63q49 39 88 89t89 125t95 130q188 231 383 360q-115 57 -342 58q-250 0 -424 -117t-204 -293q-2 -16 -3 -31q0 -46 24 -82q32 -48 108 -51h15q136 0 247 101q117 106 116 204v3q0 39 -24.5 64.5t-61.5 27.5h-5 q-72 0 -130 -52q-8 -6 -14 -13t-9 -12t-5 -9t-4.5 -5t-4.5 -1q-2 2 0 9t9.5 19t19.5 25q60 60 139 59h11q47 -2 82.5 -32.5t39.5 -84.5q1 -13 2 -25q0 -115 -117 -204q-127 -96 -299 -96h-7q-115 2 -187 49q-66 43 -66 121q0 7 1 14q14 186 237.5 308t513.5 122 q233 0 363 -61q88 53 162 76q121 37 221 36q113 0 147 -57q6 -10 7 -15q0 -3 -3 -3q-2 -2 -4 4l-8 8q-39 43 -135 43q-94 0 -195 -43q-57 -25 -127 -82q106 -72 153 -162q24 -47 24 -92q0 -42 -21 -84q-86 -162 -402 -162h-16q-57 0 -110 13q-117 -109 -340 -203v-2 q94 -23 225 -33q32 -2 58 -2q73 0 106 16q10 4 19 11.5t13.5 11.5t6.5 2q2 0 2 -2t-2 -5t-4 -7.5t-6.5 -8.5t-8.5 -10q-72 -72 -198 -72q-168 0 -314 39q-131 -41 -358 -41q-68 0 -125 16.5t-57 51.5zM47 43q0 -47 164 -47q207 0 307 29q-172 45 -291 51q-42 3 -74 3 q-106 0 -106 -36zM1028 303q27 -8 74 -8q63 2 141 45t125 133q43 81 43 147q0 73 -53 125q-55 -55 -135 -182t-123 -180q-41 -49 -72 -80z" />
<glyph unicode="Q" horiz-adv-x="1093" d="M-141 41q0 43 62.5 74.5t164.5 31.5q90 0 348 -47q195 82 365 230q197 174 221 348q2 15 2 30q0 55 -31 96q-39 52 -117 52q-172 0 -385 -174q-66 -55 -111 -127q-48 -75 -48 -135q0 -125 125 -129h11q120 0 249 119q90 80 90 159v2q0 33 -25 56q-23 21 -67 20h-8 q-63 -2 -103 -39q-14 -12 -27 -28q-8 -10 -12 -9q-2 2 0 8.5t9.5 16.5t17.5 20q51 51 123 52q57 0 93 -29q38 -30 38 -91q0 -91 -82 -165q-55 -49 -142 -80q-77 -27 -147 -27h-18q-70 2 -123 40t-62 112q-2 15 -1 30q0 141 157 263q80 61 212 107t241 46q150 0 241 -58 q90 -57 90 -156q0 -84 -46 -157t-94 -113t-134 -99q-147 -104 -455 -203v-2q158 -37 252 -37q102 0 181 28.5t178 110.5q27 18 30 15q6 -6 -6 -19q-231 -213 -401 -213q-70 0 -108 2t-109.5 14.5t-167.5 39.5q-184 -51 -303 -52q-168 0 -168 66zM-117 43q0 -47 146 -47 q125 0 264 45q-164 35 -227 41q-29 2 -55 2q-39 0 -72 -5q-56 -9 -56 -36z" />
<glyph unicode="R" horiz-adv-x="1470" d="M-53 43q0 43 60 78q54 31 134 31h19q156 -8 368 -74q41 27 88.5 73t83 89t107.5 130t121 144q150 164 360 281q-133 49 -330 49q-205 0 -385 -108.5t-208 -274.5q-4 -28 -4 -53q0 -53 18 -92q27 -56 98 -60q18 -2 32.5 0t16.5 3t6 -1q2 -4 -3 -9t-19 -9t-33 -4 q-4 0 -7 -1q-116 0 -187 65q-62 56 -62 137q0 16 2 32q18 127 138 219t276 133t321 41q225 0 363 -49q57 33 139 55q104 31 191 31q117 0 147 -53q4 -8 6 -15.5t2 -11.5t-2 -4t-2 2q-4 10 -14 21q-39 43 -137 43h-2q-70 0 -174 -39q-53 -20 -101 -49q72 -31 119 -105 q24 -38 24 -77q0 -38 -22 -76q-61 -109 -315 -121v-2q49 -12 84 -39q37 -29 37 -65q0 -48 -58 -124q-8 -12 -29.5 -38.5t-29.5 -38t-16.5 -30t-10.5 -32.5q-2 -12 7.5 -23.5t29.5 -11.5q59 0 166 84q43 35 92 80q23 23 31 14q6 -6 -10 -22q-74 -68 -119 -105 q-113 -86 -209 -92q-12 -1 -23 0q-129 0 -133 90q0 66 80 154q92 100 96 127q1 5 2 11q0 29 -39 52q-14 -6 -34 -6q-12 0 -29 4q-49 -59 -98 -104q-154 -143 -406 -227q131 -39 202 -39h7q55 0 102 28q8 6 15.5 12.5t10.5 9.5t5 3q16 0 -8 -29l-6 -6q-70 -68 -193 -67 q-111 0 -229 34q-137 -41 -305 -41h-31q-184 5 -184 68zM-29 41q0 -41 160 -47q18 0 35 -1q154 0 264 34q-129 35 -283 47q-41 3 -72 3q-104 0 -104 -36zM1087 438q16 0 27 -2q20 -4 31 -10q133 29 201 129q42 68 42 121q0 56 -40 90q-61 -53 -144 -166q-20 -27 -59.5 -82 t-57.5 -80z" />
<glyph unicode="S" horiz-adv-x="1249" d="M-53 -168q31 80 135 191q-105 74 -105 188v16q12 139 163 224.5t331 95.5q19 1 39 1q76 0 157 -19q101 -24 148 -78q299 109 311 112q133 180 277 266q94 57 180 58q33 0 52 -14q18 -12 18 -36q0 -51 -76 -111q-72 -56 -174 -99q-12 -6 -57 -21q-51 -94 -109 -213 q-109 -217 -315.5 -323.5t-442.5 -122.5q-42 -2 -80 -3q-186 0 -284 58q-100 -80 -154 -176q-12 -18 -14 -19q-4 1 -4 7.5t4 17.5zM127 244q-1 -13 -1 -26q0 -80 34 -132q16 16 65 53q59 43 111 76q-33 33 -39 72q-4 20 6 20q2 0 8 -16q12 -39 43 -66q123 74 273 146 q72 35 141 61q-33 59 -120 82q-64 17 -129 17q-24 0 -48 -3q-121 -8 -227.5 -84.5t-116.5 -199.5zM184 57q51 -53 139 -75q68 -18 137 -18q19 0 38 1q158 14 283.5 118.5t242.5 311.5q57 96 88 137v3q-139 -47 -283 -105q19 -32 19 -70q0 -97 -108 -159q-99 -57 -210 -58h-2 q-94 0 -163 47q-41 -25 -109 -75zM383 203q59 -39 145 -39h2q88 0 168 54t84 136q2 31 -6 56q-66 -27 -139 -62q-115 -55 -254 -145zM1356 631q6 2 47 18q230 99 229 187q0 17 -13 26q-11 7 -27 8q-6 0 -13 -2q-39 -6 -90 -57q-59 -57 -133 -180z" />
<glyph unicode="T" horiz-adv-x="1253" d="M-115 14q6 29 64.5 44.5t126.5 15.5q145 0 299 -27q92 18 217 127q53 47 98 93t99.5 107.5t95.5 104.5q88 86 193.5 142.5t193.5 72.5v2q-137 20 -258 43q-241 47 -426 48q-15 0 -29 -1q-131 -6 -218 -52t-95 -132q-1 -9 -1 -18q0 -56 46 -95q53 -45 137 -49h10 q85 0 144 33q61 35 71 96q4 37 -12 60q-10 16 -8 16q6 6 35 -10q45 -29 45 -70q-2 -66 -92 -106q-82 -37 -176 -37h-19q-94 4 -153 55q-53 46 -52 116v15q10 115 121 188q108 71 287 70h10q143 0 410 -41q258 -39 350 -43q26 -2 51 -1q102 0 178 27q94 34 105 103q1 9 1 19 q0 58 -58 101q-67 50 -179 50h-2q-84 0 -155.5 -29.5t-110.5 -76.5q-20 -25 -33 -60q-8 -25 -10 -24q-8 0 -2 27q10 39 33 69q39 53 113.5 87t168.5 34q117 0 193 -53q68 -48 68 -123q0 -8 -1 -17q-8 -109 -115 -169q-101 -57 -253 -56h-21q-45 0 -51 -2q-80 -29 -166 -127 q-23 -25 -97.5 -127t-142.5 -160q-207 -182 -481 -235v-2q197 -19 300 -19h20q139 4 228 23.5t175 73.5q49 33 86 65q20 14 25 13q10 -6 -9 -25q-47 -43 -96 -76q-188 -123 -444 -123q-238 0 -426 25q-92 -8 -193 -12q-72 -2 -108.5 -2t-64 3t-36.5 10q-5 5 -5 13q0 3 1 8z " />
<glyph unicode="U" horiz-adv-x="1232" d="M111 395q-4 19 -5 40q0 55 32 123q44 93 126 159q182 145 426 145q96 0 152.5 -30.5t56.5 -88.5q0 -43 -32.5 -101t-66.5 -100t-100 -120q-238 -274 -249 -354q-2 -20 7 -29.5t27 -7.5q84 4 209 100q150 109 299 287q145 170 340 334q144 116 236 116q10 0 20 -2 q24 -4 24 -26q0 -30 -34 -66q-49 -53 -154 -129q-121 -88 -186 -143q-16 -18 -47 -58q-193 -258 -219 -354q-10 -37 12 -45q7 -3 16 -3q39 0 109 50q53 37 125 101q18 16 24.5 10t-14.5 -27q-45 -45 -129 -106q-35 -27 -99.5 -58.5t-117.5 -34.5h-5q-102 0 -101 86 q0 82 102 211q-61 -61 -130 -117.5t-176.5 -115.5t-185.5 -59q-115 0 -118 81q-2 102 247 383q190 217 213 314q2 12 3 22q0 26 -15 40q-20 19 -55 20q-180 0 -363 -178q-164 -160 -163 -267q0 -82 73 -84h6l68 21q8 6 15.5 12t10.5 8t5 0q4 -2 -4.5 -13t-20.5 -19 q-34 -27 -79 -27h-7q-88 6 -108 100zM1290 567q23 16 65 46t58 42q72 49 133 111q20 23 32 40q12 19 12 29q0 7 -5 11q-3 1 -7 1q-31 0 -103 -79q-79 -82 -185 -201z" />
<glyph unicode="V" horiz-adv-x="1128" d="M-125 -20q0 49 96 51h12q28 0 69 -7q50 -9 57 -10q174 61 397 280.5t246 393.5q2 18 2 33q0 50 -25 82q-33 41 -100 41q-150 0 -305 -121q-66 -51 -112 -125t-54 -135q-2 -17 -3 -32q0 -94 91 -99h6q94 0 211 125q82 90 90 166q4 29 -6 47l-4 14q6 6 14 -8q23 -31 23 -72 q0 -88 -70 -170q-41 -49 -117 -86q-72 -35 -143 -35h-8q-68 4 -110 46q-40 40 -40 104q0 66 46 143q44 74 124 129q76 53 175.5 88t176.5 39q24 2 47 2q57 0 108 -11q71 -15 121 -70q43 -47 43 -119q0 -12 -1 -25q-18 -193 -258 -375q-84 -63 -248 -147t-274 -107 q21 -1 43 -1q133 0 303 42q283 78 483 232q248 188 326 327q12 18 14 39q0 12 -34 63.5t-42 69.5q-14 20 -5 51t42 31q92 0 96 -96q0 -7 1 -15q0 -71 -36 -151q-102 -227 -317 -385q-176 -131 -520 -197q-194 -39 -382 -39q-18 0 -36 1q-74 -20 -108 -25q-25 -2 -44 -2 q-61 0 -61 25z" />
<glyph unicode="W" horiz-adv-x="1382" d="M258 729q162 119 358 133q17 1 33 1q113 0 200 -50q78 -45 78 -130q0 -23 -5 -48q-43 -201 -355 -522l2 -2q31 23 105 77t127 93q131 94 250 186q25 82 65 149q55 84 125 130q64 42 109 43q4 0 8 -1q55 -7 55 -60q0 -10 -2 -21q-4 -27 -27.5 -56.5t-45 -49t-59.5 -49.5 t-48 -38q-78 -322 -139 -403l2 -2q31 29 92 84t144 127.5t128 113.5q236 213 262 383q3 16 3 29q0 28 -13 41q-8 6 -20 10q-6 2 -7 4q4 6 21 6q66 0 100 -33q31 -29 31 -75v-11q-8 -61 -90 -149t-260 -233q-39 -31 -120 -97.5t-126 -103.5t-100.5 -85t-89.5 -83 q-70 -70 -125 -70q-39 0 -42 25.5t11 38.5q29 49 55.5 119.5t52 157.5t39.5 124v2q-104 -88 -264 -201q-68 -51 -289 -206q-94 -63 -149 -64q-31 0 -38 15.5t15 39.5q180 207 248 301q172 242 191 369q2 17 2 33q0 119 -125 123h-5q-145 0 -300 -121q-66 -51 -112 -124 t-54 -136q-2 -16 -2 -30q0 -98 90 -103h6q94 0 211 127q82 90 90 166q4 25 -6 47l-4 14q8 4 16 -10q20 -31 21 -70q0 -90 -70 -170q-43 -51 -119 -89q-65 -33 -129 -33q-10 0 -20 1q-70 4 -113 45q-41 39 -41 103q0 143 168 268zM1237 547q139 104 152 162q2 10 2 18 q0 14 -7 25q-10 16 -30 16q-37 0 -68 -74q-20 -43 -49 -147z" />
<glyph unicode="X" horiz-adv-x="1075" d="M-76 98v11q0 49 33 92q37 47 96 47q33 0 57 -19q26 -20 25 -56q0 -36 -29 -71q-39 -45 -38 -71q0 -41 61 -41q270 0 586 401q76 96 140.5 202.5t76.5 156.5q4 16 4 29q0 27 -16 43q-25 24 -68 24q-78 0 -174 -49t-182 -133q-164 -160 -164 -275q0 -74 74 -78q43 0 73 23 l29 20q4 -2 -2 -12t-21 -20q-34 -27 -79 -27h-7q-92 4 -102 104q-1 13 -1 26q0 62 32 129q39 81 110 146q84 78 205 121t209 43q231 0 231 -121q0 -47 -36 -100q240 209 413 209q53 0 83 -23q28 -21 28 -54q0 -67 -86 -117q-84 -48 -166 -64q-29 -6 -31 2q-2 4 12 8 q8 2 15 4q61 16 112.5 58.5t59.5 95.5q4 27 -7.5 46t-39.5 21h-4q-99 0 -230 -111q-133 -114 -268 -284q-176 -227 -201 -336q-3 -17 -3 -30q0 -54 52 -54q57 0 164 74q39 29 109 88q27 20 31 17q8 -8 -9 -23q-53 -51 -116 -98q-117 -86 -222 -90q-6 0 -10 -1q-86 0 -130 31 q-46 33 -42 92q6 47 37 91l-2 2q-246 -225 -473 -226q-189 0 -199 127z" />
<glyph unicode="Y" horiz-adv-x="1155" d="M-94 -659q6 82 97 182t208 178q180 125 401 170q193 276 299 420q-322 -309 -508 -309q-115 0 -118 81q-2 102 247 383q190 217 213 314q2 12 3 22q0 27 -16 42q-22 22 -54 22q-176 0 -363 -182q-164 -160 -163 -267q0 -84 71 -86h6q34 0 70 23q8 6 18 14q8 8 13 6 q8 -8 -25 -32q-39 -27 -84 -27q-43 0 -72.5 27.5t-37.5 72.5q-3 17 -3 36q0 60 30 131q40 93 118 157q176 147 434 147q96 0 154 -31q55 -31 55 -88q0 -62 -52 -139q-50 -74 -147 -186q-238 -274 -249 -354q-2 -20 7 -29.5t27 -7.5q84 4 209 100q88 63 149.5 122.5 t149.5 164.5q238 266 322 340q45 41 116 80q56 31 99 30q12 0 22 -2q20 -2 28 -16q5 -9 5 -20q0 -6 -2 -13q-4 -18 -18 -37q-41 -55 -142 -135q-123 -102 -166 -143q-94 -125 -266 -365q-31 -43 -68.5 -97t-63.5 -90l-46 -65q9 0 17 1q141 0 220 -65q69 -57 69 -147 q0 -18 -3 -36q-2 -14 -7 -24.5t-9 -15t-6 -1.5q-4 2 -2 10l4 28q2 15 1 29q0 90 -69 146q-71 56 -198 56q-16 0 -33 -1q-104 -152 -215 -275q-141 -162 -305 -248.5t-271 -86.5q-47 0 -76 20q-25 18 -25 55q0 5 1 11zM-25 -664q-1 -6 0 -12q0 -40 37 -47q9 -1 18 -1 q51 0 115 38q117 74 263 274q23 29 51 70t68 95t67 91q-195 -47 -361 -161q-90 -61 -171 -163t-87 -184zM1305 569l104 86q70 57 115 111q38 44 38 65q0 10 -8 15q-4 2 -8 2q-27 0 -90 -80q-55 -70 -151 -199z" />
<glyph unicode="Z" horiz-adv-x="1011" d="M-350 -641q0 168 432 389q125 66 316.5 143.5t277.5 122.5q15 66 15 117q0 77 -36 117q-29 33 -82 43q-30 6 -54 6q-20 0 -38 -4q-43 -37 -125 -88q-87 -55 -125 -55q-18 0 -24 12q-2 4 -2 9q0 17 28 45q37 36 91 60q100 49 172 64q23 14 54.5 35.5t77.5 54.5t74 53 q59 41 149.5 107.5t115.5 83.5q-61 -37 -151.5 -62.5t-156.5 -29.5q-14 -1 -26 -1q-84 0 -130 23q-48 25 -49 83q0 78 88 130q83 49 183 53q31 0 31 -10q0 -2 -31 -6q-57 -4 -102 -27q-47 -24 -47.5 -59.5t33.5 -51.5q36 -17 91 -22q45 -3 88 -3q120 0 220 26q43 51 100 96 q51 42 85 42q6 0 11 -1q14 -4 20 -18q2 -5 1 -10q0 -10 -6 -21q-12 -16 -39 -31.5t-70 -37.5l-59 -29q-72 -57 -297 -215q-49 -35 -120 -83.5t-91 -62.5v-2q31 7 65 7q23 0 47 -3q100 -12 156.5 -78.5t60.5 -179.5q63 37 129 92q31 25 35 21q8 -6 -22 -37q-53 -53 -140 -98 q-8 -215 -286 -451q-168 -143 -418 -249q-245 -103 -386 -103h-5q-129 4 -129 94zM-328 -641q0 -37 30 -55.5t75 -18.5q125 0 308 97.5t327 244.5q221 227 258 361q-82 -43 -275.5 -125t-300.5 -139q-78 -41 -120 -65t-108.5 -67t-102 -75.5t-63.5 -75.5t-28 -82zM251 176 q22 0 91 45q61 39 98 66q-39 -2 -106 -35q-43 -20 -70 -41q-23 -18 -23 -28q0 -7 10 -7z" />
<glyph unicode="[" horiz-adv-x="548" d="M-90 -178q6 6 76.5 105.5t164 225.5t175.5 230q217 272 467 565h260l-13 -14q-57 -4 -127 -12q-27 -4 -37 -6.5t-23 -11.5t-26 -27q-20 -27 -156 -214.5t-216 -287.5q-47 -59 -396 -467q-47 -55 23 -62l121 -12l-6 -12h-287z" />
<glyph unicode="\" horiz-adv-x="489" d="M72 698q-8 39 39 80q25 18 41 2t20 -63q27 -250 129 -854q6 -39 -10 -39h-2q-14 0 -21 26q-32 143 -196 848z" />
<glyph unicode="]" horiz-adv-x="548" d="M-268 -178l10 14q63 4 127 12q27 4 37 6.5t23.5 11.5t25.5 28q33 43 165 223t210 278q47 59 395 467q25 35 18.5 46.5t-43.5 15.5l-120 12l8 12h286q-12 -14 -78.5 -107t-161.5 -221t-177 -231q-238 -301 -467 -567h-258z" />
<glyph unicode="^" horiz-adv-x="628" d="M96 268q-4 6 17 21q201 131 299 221q20 16 30 16h2q4 0 15 -20q10 -23 56 -92.5t85 -118.5q10 -14 6 -19q-8 -8 -35 7q-27 12 -77 44.5t-80 65.5q-41 -27 -142.5 -69.5t-146.5 -57.5q-27 -6 -29 2z" />
<glyph unicode="_" horiz-adv-x="1024" d="M-131 -215h1042v-82h-1042v82z" />
<glyph unicode="`" horiz-adv-x="628" d="M403 664q0 25 19.5 38t42.5 13h2q39 0 45 -51q18 -123 25 -154q4 -27 2 -29q-8 -8 -25 13q-68 82 -102 141q-9 13 -9 29z" />
<glyph unicode="a" d="M-43 57q0 55 66 123l-3 2q-16 -14 -18 -16q-27 -23 -33 -16q-4 8 15 26q39 37 79 64q61 41 146 77q102 43 199 43q45 0 62 -19t15 -46q39 41 57.5 48t80.5 7q66 0 65 -14q0 -6 -10 -19q-59 -72 -109 -135q-55 -74 -69.5 -100.5t0.5 -36.5q14 -12 51 4q31 12 86 57 q47 39 100 87q20 20 27 12q1 -1 1 -3q0 -8 -20 -28q-45 -45 -122 -106q-117 -90 -205 -91q-80 0 -92 54q-2 8 -2 16q0 27 20 55l-2 2q-143 -127 -262 -127q-123 0 -123 80zM147 18q29 0 79 29t93 68q51 47 97.5 104t48.5 80v4q0 33 -37 33h-2q-53 0 -193 -135 q-113 -113 -112 -159q-1 -24 26 -24z" />
<glyph unicode="b" horiz-adv-x="763" d="M-63 8q0 6 6 17q25 43 90 137q16 23 65 88l-2 2q-18 -16 -42.5 -40t-28.5 -26q-35 -31 -41.5 -22.5t18.5 29.5q70 63 137 116q98 133 238 301q242 289 506 471q121 84 205 85q6 0 12 -1q64 -4 64 -63q0 -5 -1 -10q-10 -168 -383 -435q-45 -33 -147.5 -101.5t-174 -118.5 t-93.5 -70q-53 -70 -150 -205l4 -2q133 109 172 131q106 70 209 69q59 0 86 -23q23 -20 23 -51q0 -101 -127 -202q-59 -45 -143.5 -72.5t-155.5 -27.5h-2q-100 0 -101 47q0 27 29 43t98 35q162 47 164 47q49 61 64 102q8 22 8 36q0 26 -27 25q-59 0 -178 -92 q-131 -100 -229 -207q-23 -23 -91 -26q-15 -1 -26 -1q-53 0 -55 15zM252 12h10q47 4 98 35q55 35 95 86q-10 -6 -34 -13t-53.5 -14.5t-39.5 -11.5q-59 -18 -83 -32q-22 -12 -22 -28q0 -22 29 -22zM389 410q10 8 149.5 115.5t194.5 154.5q156 131 260 248q113 127 114 186 q0 29 -34 29q-53 0 -139 -82q-63 -61 -256 -293q-160 -188 -289 -358z" />
<glyph unicode="c" horiz-adv-x="509" d="M-31 150q-4 8 15 26q37 33 67 55q51 39 107 64q135 66 231 65q51 0 79 -22q23 -18 23 -45q0 -6 -2 -12q-6 -33 -30.5 -56.5t-50.5 -23.5q-31 0 -40.5 22.5t9.5 50.5q33 54 33 61q0 2 -9 5q-3 1 -6 1q-36 0 -121 -87q-115 -115 -115 -192q0 -38 48 -37q74 0 186 73 q55 37 117 92q18 18 27 11q1 -1 1 -3q0 -8 -24 -30q-53 -49 -111 -88q-143 -98 -274 -98h-2q-72 0 -110 26q-40 28 -40 74q0 49 50 102l-2 2q-2 -2 -11.5 -10t-11.5 -10q-27 -22 -33 -16z" />
<glyph unicode="d" d="M-43 57q0 53 66 123l-3 2q-14 -12 -18 -16q-27 -23 -33 -16q-4 8 15 26q31 31 79 64q61 41 146 77q102 43 199 43q47 0 64 -22.5t9 -50.5l2 -2q96 133 262 325q133 156 232 244q55 49 133 49q55 0 59 -18q-63 -61 -233 -254q-70 -80 -258 -314q-154 -190 -178 -235 q-14 -27 0 -37q14 -12 51 4q31 12 86 57.5t100 86.5q20 20 27 12q6 -6 -14 -27q-49 -49 -127 -110q-117 -90 -205 -91q-80 0 -92 54q-2 8 -2 16q0 27 20 55l-2 2q-143 -127 -262 -127q-123 0 -123 80zM147 18q29 0 79 29t93 68q51 47 97.5 104t48.5 80v4q0 33 -37 33h-2 q-53 0 -193 -135q-113 -113 -112 -159q-1 -24 26 -24z" />
<glyph unicode="e" horiz-adv-x="509" d="M-31 150q-4 8 15 26q35 33 65 53q53 39 107 66q135 66 247 65h3q103 0 102 -58q0 -66 -137 -132q-98 -47 -215 -64q-12 -20 -13 -43q0 -45 52 -45q78 0 198 80q68 45 121 97q16 12 23 6q1 -1 1 -4q0 -9 -26 -31q-53 -49 -117 -92q-125 -86 -256 -92q-12 -1 -22 -1 q-139 0 -140 97q0 53 50 106l-2 2q-4 -4 -12.5 -11t-10.5 -9q-27 -22 -33 -16zM166 127q68 8 143 63q78 61 92 119q1 6 2 11q0 20 -22 20q-43 0 -121 -86q-63 -70 -94 -127z" />
<glyph unicode="f" horiz-adv-x="403" d="M-549 -729q12 72 96 224.5t195 301.5q49 68 332 432l-2 2l-27 -26q-16 -16 -22 -21q-29 -25 -35 -18q-6 8 12 24q96 86 123 109q160 207 252 313q207 242 381 392q197 162 321 161h2q68 0 68 -50q0 -15 -6 -36q-16 -55 -123 -176t-266 -244q-199 -154 -371 -262 q-172 -213 -301 -391q33 8 92 33q57 25 129 72q49 33 105 82q23 18 28.5 12t-28.5 -39q-63 -55 -121 -90q-66 -39 -160 -80q-41 -18 -51 -33q-14 -20 -29 -65q-61 -217 -156 -390q-49 -88 -119.5 -170.5t-136.5 -132.5q-53 -41 -100 -40q-10 0 -20 1q-64 12 -65 76 q0 13 3 29zM-420 -743q-5 -15 -5 -25q0 -13 9 -18q3 -2 8 -2q15 0 41 20q100 76 226 295q104 184 182 422q-119 -150 -260 -361q-174 -261 -201 -331zM401 430q41 27 149.5 110t172.5 140q254 236 356 414q11 18 11 32q0 24 -23 23h-4q-47 -2 -131 -88q-68 -63 -258 -291 q-35 -43 -144 -179t-129 -161z" />
<glyph unicode="g" horiz-adv-x="737" d="M-651 -745q0 158 401 389q98 57 232.5 122.5t199.5 106.5q33 43 152 221l-2 2q-135 -119 -252 -119q-123 0 -123 80q0 53 66 123l-3 2q-14 -12 -18 -16q-27 -23 -33 -16q-4 8 15 26q39 37 79 64q61 41 146 77q102 43 199 43q45 0 64.5 -22.5t10.5 -46.5l2 -2 q43 45 63.5 53t80.5 8q59 0 59 -16q-2 -6 -8 -15q-29 -35 -109 -137q-51 -66 -172 -231q117 61 238 155q45 35 102 87q18 18 25 8q1 -1 1 -3q0 -8 -22 -28q-43 -39 -122 -100q-104 -78 -246 -158q-104 -164 -170 -250q-125 -166 -278.5 -281.5t-301.5 -175.5 q-86 -37 -162 -36q-114 0 -114 86zM-543 -745v-11q0 -42 31 -47q10 -3 21 -2q43 0 108 37q152 84 375 369q35 43 172 235q-20 -12 -141 -78.5t-234 -140.5q-139 -92 -231.5 -189t-100.5 -173zM147 18q29 0 79 29t93 68q51 47 97.5 104t48.5 80v4q0 33 -37 33h-2 q-53 0 -193 -135q-113 -113 -112 -159q-1 -24 26 -24z" />
<glyph unicode="h" horiz-adv-x="804" d="M-53 25q27 57 84 137q29 39 71 92l-2 2q-20 -18 -57 -52t-43 -40q-14 -14 -20 -4q-6 8 22 33q16 14 62.5 53t72.5 63q115 152 240 301q242 289 506 471q125 84 217 84q31 0 48 -20q16 -18 15 -47q0 -88 -113 -209q-108 -115 -270 -232q-45 -33 -150.5 -104.5t-177 -121.5 t-87.5 -64q-31 -37 -195 -269l4 -4q61 55 178 146q160 121 271 120q45 0 67.5 -17t20.5 -48q-4 -39 -74 -125q-51 -66 -62 -82q-23 -35 -4 -47q16 -10 52 10q41 23 84 55q35 29 102 89q18 14 24.5 8t-6.5 -19q-80 -74 -135 -114q-115 -84 -200 -86q-5 0 -10 -1q-58 0 -78 25 q-17 21 -16 47q0 7 1 15q6 37 70 114q68 82 82 101q16 20 -4 26q-4 1 -10 2q-19 0 -54 -18q-53 -29 -141 -98q-49 -39 -121 -98.5t-107 -88.5q-12 -10 -96 -18q-47 -2 -59 4q-7 3 -7 11t5 18zM383 401q338 268 350 279q156 131 260 248q113 127 114 186q0 29 -34 29 q-53 0 -139 -82q-63 -61 -256 -293q-158 -187 -295 -367z" />
<glyph unicode="i" horiz-adv-x="428" d="M-31 150q-1 1 -1 3q0 7 16 23q84 76 147 117q94 59 188 59q82 0 82 -16q0 -6 -10 -17q-70 -76 -119 -137q-45 -55 -67 -100q-18 -37 -6 -45q10 -8 43 8q39 20 90 61q4 4 96 84q23 18 29 12.5t-17 -26.5q-59 -59 -121 -106q-119 -90 -217 -90q-90 0 -90 59q0 33 29 78 q29 51 89 118.5t85 79.5q-51 -18 -131 -79q-39 -31 -84 -72q-25 -20 -31 -14zM389 580q25 55 115 55h2q33 0 42 -21q3 -6 2 -12q0 -17 -18 -41q-27 -33 -71.5 -57.5t-69.5 -24.5q-14 23 -14 50q0 24 12 51z" />
<glyph unicode="j" horiz-adv-x="456" d="M-530 -340q219 121 430 231q18 25 73.5 105t87.5 125q129 176 195 207q-14 0 -41 -13q-66 -29 -131 -79q-37 -29 -86 -74q-20 -18 -27 -12q-8 6 13 26q84 76 147 117q94 59 186 59q106 0 107 -20q0 -6 -6 -13q-61 -66 -119 -137q-74 -90 -164 -211q94 41 195 115 q43 31 129 107q18 18 26 10q6 -6 -24 -35q-63 -59 -121 -100q-92 -70 -225 -134q-117 -176 -301 -378q-141 -156 -338 -271.5t-303 -115.5q-61 0 -97 18q-33 17 -33 62q1 172 427 411zM-848 -755q0 -41 33 -48q9 -2 20 -2q43 0 109 39q160 92 375 367q131 168 190 256 q-160 -82 -397 -240q-139 -92 -231 -189q-99 -107 -99 -183zM399 580q25 55 115 55h2q33 0 42 -21q3 -6 3 -12q0 -17 -18 -41q-27 -33 -72 -57.5t-70 -24.5q-14 23 -13 50q-1 24 11 51z" />
<glyph unicode="k" horiz-adv-x="790" d="M-59 7q0 8 6 18q23 49 84 137q18 27 71 92l-2 2q-20 -18 -57 -52t-43 -40q-14 -14 -20 -4q-6 8 22 33q16 14 62.5 53t72.5 63q125 164 240 301q242 289 506 471q125 84 217 84q33 0 50 -20q14 -17 14 -41q0 -6 -1 -12q-16 -172 -383 -435q-45 -33 -147.5 -101.5 t-174 -118.5t-93.5 -70q-53 -63 -199 -271l2 -2q152 135 176 154q78 59 137 86q63 27 135 26q49 0 77 -18t28 -47q0 -47 -90 -64q-78 -12 -92 -28q-13 -15 -13 -64v-26q6 -70 35 -76q18 -2 53 16q39 23 78 53q53 43 103 89q18 14 24 8t-24 -35q-59 -55 -117 -100 q-109 -84 -215 -84q-61 0 -86 23q-21 20 -21 62v15q6 76 45 111q20 18 97 28q33 6 53 29q10 12 14 33.5t-10 33.5q-8 4 -20 5q-22 0 -56 -15q-55 -25 -151 -102q-29 -23 -109 -96.5t-115 -96.5q-27 -18 -96 -22q-35 -2 -50 1q-17 4 -17 14zM383 401q338 268 350 279 q156 131 260 248q113 127 114 186q0 29 -34 29q-53 0 -139 -82q-63 -61 -256 -293q-158 -187 -295 -367z" />
<glyph unicode="l" horiz-adv-x="417" d="M-20 160q-1 1 -2 3q0 9 24 30q16 14 62.5 53t72.5 63q90 119 250 301q106 127 223 236q63 59 144 59q53 0 65 -22q-35 -29 -134 -136.5t-177 -201.5q-115 -137 -218.5 -278.5t-115.5 -182.5q-12 -33 4 -43q14 -8 35 0q43 16 106 65q47 37 103 89q18 14 24 8q4 -6 -22 -33 q-53 -53 -119 -100q-125 -92 -225 -93q-94 0 -94 70q0 76 116 207l-2 2q-20 -18 -57 -52t-43 -40q-14 -14 -20 -4z" />
<glyph unicode="m" horiz-adv-x="1296" d="M-34 152q0 7 16 22q53 49 106 90q123 96 203 96q84 0 84 -55q0 -31 -45 -90q-27 -37 -94 -117l4 -4q86 72 194 150q53 37 80 54t80 39.5t98 22.5q53 0 69.5 -21.5t12.5 -49.5q-6 -41 -65 -117q-10 -14 -24.5 -31.5t-22 -28t-11.5 -14.5l4 -4q53 47 187 146 q166 121 272 120q45 0 67.5 -17t20.5 -48q-4 -39 -74 -125q-51 -66 -61 -82q-23 -35 -4 -47q16 -10 51 10q45 25 88 60q39 31 98 84q18 14 25 8q2 -2 2 -5q0 -5 -8 -14q-80 -74 -135 -114q-115 -84 -201 -86q-5 0 -9 -1q-56 0 -77 23q-18 19 -18 45q0 7 2 15q8 45 69 118 q68 82 82 101q16 20 -4 26l-8 2q-19 0 -55 -20q-41 -23 -144 -96q-125 -92 -233 -183q-25 -18 -103 -22q-47 -2 -56 5t-1 28q14 35 109 159q68 90 73 101q12 18 -2 26q-3 1 -7 2q-18 0 -54 -20q-47 -27 -135 -92q-119 -88 -236 -183q-25 -20 -102 -26q-47 -2 -59.5 4 t-2.5 29q20 43 94 137q10 14 42 53t46.5 59.5t4.5 28.5q-8 4 -31 -8q-33 -20 -74 -51q-51 -41 -92 -78q-36 -33 -36 -14z" />
<glyph unicode="n" horiz-adv-x="890" d="M-34 152q0 7 16 22q66 61 106 92q121 94 205 94q82 0 82 -55q0 -31 -45 -90q-27 -37 -94 -117l4 -4q66 57 194 150q166 117 275 116q45 0 67.5 -17t20.5 -48q-2 -35 -74 -125q-51 -66 -61 -82q-23 -35 -5 -47q16 -10 52 10q47 25 84 55q35 29 102 89q18 14 25 8 q2 -2 2 -5q0 -5 -9 -14q-80 -74 -135 -114q-113 -84 -200 -86q-5 0 -10 -1q-58 0 -78 24q-17 20 -16 46q0 7 1 15q6 39 70 116q78 94 82 101q16 20 -4 26q-4 1 -10 2q-19 0 -54 -18q-66 -35 -147 -94q-98 -70 -236 -183q-25 -20 -102 -26q-47 -2 -59.5 4t-2.5 29 q20 43 94 137q10 14 42 53t46.5 59.5t4.5 28.5q-10 6 -33 -8q-41 -27 -72 -51q-51 -41 -92 -78q-36 -33 -36 -14z" />
<glyph unicode="o" horiz-adv-x="645" d="M-33 147q-4 8 13 25q27 27 69 57q27 20 78 50q145 82 258 81q55 0 55 -14l-32 -16q-63 -31 -148 -113q-43 -43 -80 -99.5t-37 -88.5q0 -27 27 -27q72 0 207 131q-4 43 31 96q18 25 67 66q0 14 -4 27q-2 6 -5 13t-3 9t2 6q10 10 53 -16q41 -25 41 -72q0 -84 -115 -178 q6 -6 23 -6q39 0 82 32.5t100 84.5q14 14 23 8q4 -3 3 -7q0 -4 -5 -10q-68 -61 -113 -94q-51 -35 -94 -35q-27 0 -39 13q-41 -33 -124 -60.5t-142 -27.5q-168 0 -169 110q0 53 50 103l-2 2q-4 -2 -8 -7.5t-12.5 -11.5t-14.5 -12q-29 -25 -35 -19z" />
<glyph unicode="p" horiz-adv-x="819" d="M-586 -784q0 57 78 172q150 223 283 403q211 289 432 563q-55 -51 -128 -118.5t-79 -71.5q-23 -18 -29 -12q-4 8 11 22q88 82 155 143l180 164q57 47 123 47q6 0 12 1q31 0 38 -10q9 -11 -15 -42q-244 -295 -524 -678q-209 -281 -367 -526q-20 -33 -12 -41q10 -6 25 12 q29 33 161 221q29 43 236 318q123 166 246 311q92 111 180 176q127 90 217 90q51 0 74.5 -19t19.5 -50q-2 -10 -6 -21.5t-15.5 -27t-17.5 -23.5t-21.5 -27.5t-19.5 -23.5q-45 -53 -63.5 -84t-5.5 -41q14 -12 49 6q43 23 90 57q31 25 98 84q20 23 29 15q3 -3 3 -7 q0 -6 -9 -14q-84 -78 -135 -114q-121 -86 -213 -86q-90 0 -91 64q0 47 70 136q27 33 88 103q16 23 -2 26q-16 6 -43 -8q-104 -53 -211 -170q-127 -141 -301 -373q-162 -215 -248 -337q-129 -190 -178 -232q-37 -33 -98 -33q-66 1 -66 56z" />
<glyph unicode="q" horiz-adv-x="710" d="M-250 -784q0 49 72 166q86 135 287 407q47 61 127 168l110 147l-2 2q-143 -127 -264 -129q-123 0 -123 80q0 51 66 123l-3 2q-14 -12 -18 -16q-27 -23 -33 -16q-4 8 15 26q39 37 79 64q61 41 146 77q102 43 199 43q47 -2 63 -22.5t14 -42.5l19 18q8 8 17 13.5t15.5 9.5 t15.5 7l12 4q3 1 14.5 2t14.5 1h17h19q62 0 61 -18q0 -5 -6 -15q-51 -59 -127 -157q-72 -92 -272 -363q-240 -328 -365 -524q-25 -37 -8 -43q8 -2 29 20q23 25 149 205q127 182 232 316q119 152 260 299q55 55 129 120q23 18 28 13q1 -1 1 -3q0 -8 -23 -30 q-104 -96 -121 -115q-141 -145 -258 -297q-100 -129 -244 -336q-123 -174 -139 -194q-57 -68 -137 -68q-68 1 -68 56zM147 18q29 0 79 29t93 68q51 47 97.5 104t48.5 80v4q0 33 -37 33h-2q-53 0 -193 -135q-113 -113 -112 -159q-1 -24 26 -24z" />
<glyph unicode="r" horiz-adv-x="495" d="M-31 150q-3 3 -2 5q0 7 13 17q10 10 41.5 38t48.5 44q45 43 77 78q-14 10 -15 30.5t18 40.5q35 39 92 39q49 0 65 -20q-25 -16 -41 -37q-16 -20 -16 -31q0 -14 22 -16q6 0 23.5 -1t27 -2t23.5 -3t24 -5l18 -6q9 -3 14.5 -9.5t5.5 -14.5v-2q0 -25 -72 -113 q-47 -59 -70 -96q-18 -31 -6 -43t45 4q41 20 92 59q41 33 101 87q18 20 26 12q1 -1 2 -4q0 -8 -18 -25q-47 -47 -123 -106q-106 -82 -192 -86q-12 -1 -23 -1q-100 0 -100 68q0 59 90 135q129 104 133 117q2 8 -2 12t-17.5 5.5t-27 1.5t-35.5 -3q-33 -2 -47 5 q-45 -49 -80 -82q-61 -57 -84 -78q-25 -20 -31 -14z" />
<glyph unicode="s" horiz-adv-x="540" d="M-56 180q32 29 68 29q66 0 66 -47q0 -27 -31 -51q-33 -27 -33 -60q2 -45 54 -45q70 0 131 100q25 39 56.5 124t39.5 98l-2 2q-25 -25 -90 -74q-68 -49 -99 -68q-20 -12 -24 -6q-4 8 14 21q33 23 92 65q66 49 123 99q14 29 33 49q25 27 64 26q25 0 35 -7t2.5 -21.5 t-33.5 -32.5q-6 -4 -23.5 -14.5t-26.5 -16.5q-10 -10 -10 -24q0 -16 15 -37q32 -50 32 -101q0 -33 -14 -67q-18 -45 -55 -76q37 12 84 43q55 35 133 107q20 16 26 10q2 -2 2 -5q0 -6 -10 -16q-76 -70 -127 -104q-59 -41 -151 -70q-96 -29 -201 -28q-80 0 -128 34 q-46 33 -46 82q0 51 34 82z" />
<glyph unicode="t" horiz-adv-x="419" d="M-31 150q-1 1 -1 3q0 8 18 25q129 115 161 148q-25 0 -69 -4q-8 0 -12.5 -1.5t-8.5 0t-5 3.5t-1 6q2 10 53 14q25 2 62 2q94 109 190 211q86 90 170 90q53 0 68 -18q-35 -27 -125 -133q-66 -76 -123 -152q32 1 60.5 1t54.5 -1q4 0 9 -1l10 -2q5 -1 8.5 -3t0.5 -6 q-4 -8 -36 -8q-76 0 -123 -2q-96 -117 -150 -226q-23 -43 -6.5 -55t57.5 8.5t93 59.5q20 16 100 86q20 16 26.5 10t-4.5 -17q-86 -82 -137 -118q-127 -90 -225 -90q-47 0 -71.5 16.5t-24.5 48.5q0 62 102 201q-18 -16 -53 -48t-37 -34q-25 -20 -31 -14z" />
<glyph unicode="u" horiz-adv-x="823" d="M-29 150q-2 2 -2 4q0 7 15 22q84 76 147 117q94 59 182 59q78 0 78 -14q0 -8 -10 -19q-90 -106 -117 -139q-55 -68 -78 -110q-14 -25 -1.5 -35t46.5 8q53 27 154 104q49 39 118.5 103.5t92.5 83.5q29 23 96 22q78 0 78 -12q0 -6 -10 -20q-61 -76 -106.5 -143.5 t-59.5 -92.5q-18 -33 -4 -45t51 6q35 16 82 55q59 49 104 91q16 16 25 8q1 -1 1 -3q0 -9 -26 -32q-53 -49 -116 -100q-111 -90 -203 -91q-103 0 -103 74q0 7 1 15q2 33 32 73q6 8 39 51l-4 5q-51 -45 -119 -97q-158 -119 -258 -118q-92 0 -92 65q0 33 35 84t91 111.5 t85 74.5q-51 -18 -131 -79q-39 -31 -84 -72q-23 -20 -29 -14z" />
<glyph unicode="v" horiz-adv-x="690" d="M-16 160q-2 2 -2 5q0 9 18 25q37 37 86 80q2 2 14.5 12.5t16.5 13.5t17 12t20.5 13.5t20.5 12.5t23.5 11t22.5 7t25.5 6t27.5 2q105 0 105 -79q0 -55 -64 -131q-61 -76 -125 -123q78 18 191 75q53 27 86 56v11q0 48 31 103q46 84 113 85q5 0 10 -1q25 -2 30.5 -24.5 t-12.5 -55.5q-39 -63 -143 -133q10 -25 45 -28h4q41 0 96 35q12 8 31 24l18 16q14 12 21 7q1 -1 1 -4q0 -7 -16 -23q-20 -20 -51 -41q-52 -35 -99 -35h-9q-43 4 -60 37q-29 -20 -86 -49q-100 -49 -164 -68q-109 -33 -168 -32q-47 0 -49 28q-2 18 19 39q51 55 100 113 q70 82 80 123q6 23 -4 28q-10 8 -39 -8q-33 -20 -68 -51q-43 -37 -75 -70q-33 -28 -39 -24z" />
<glyph unicode="w" horiz-adv-x="1067" d="M-27 152q-2 2 -1 5q0 7 10 17q104 92 151 123q88 59 184 59q70 0 70 -16q0 -6 -8 -16q-20 -25 -56 -71t-53 -67q-47 -59 -80 -108q-18 -29 -8 -39q8 -12 45 6q78 41 144 90q76 57 213 184q25 23 127 23q51 0 53 -12q0 -4 -4 -11q-100 -129 -103 -131q-45 -61 -67 -104 q-20 -39 -2 -53q14 -12 57 4q57 20 119 65q49 35 67 64q0 66 29 112q53 86 106 87l17 -3q20 -10 16 -33.5t-22 -52.5q-43 -66 -117 -124q12 -37 66 -37q41 0 90 34q12 8 53 46q27 23 33 16q2 -2 2 -5q0 -5 -8 -14q-31 -31 -64 -55q-51 -41 -108.5 -41t-79.5 41 q-37 -33 -64 -49q-145 -102 -278 -102q-100 0 -101 65q0 33 25 74q29 43 68 82l-5 4q-78 -68 -145 -117q-147 -109 -244 -108h-2q-90 0 -90 65q0 33 35 84q37 53 90 112.5t80 73.5q-49 -18 -127 -79q-27 -20 -86 -76q-21 -18 -27 -12z" />
<glyph unicode="x" horiz-adv-x="718" d="M-37 63q4 35 26.5 59.5t53.5 24.5q27 0 41 -17t8 -40q-4 -14 -22.5 -29.5t-20.5 -21.5q-6 -16 17 -21h6q33 0 78 36q49 40 92 104q53 72 59 116q6 37 -33 45q-8 2 -16 2q-58 0 -154 -73q-61 -49 -98 -84q-25 -20 -31 -14q-8 8 15 26q72 68 125 105q119 80 217 79 q57 0 94 -30q32 -26 31 -74v-16l2 -2q106 123 192 122q37 0 55.5 -20.5t14.5 -56.5q-2 -27 -22.5 -46.5t-45.5 -19.5q-14 0 -26.5 9.5t-10.5 27.5q2 12 9.5 23.5t7.5 15.5q0 16 -25 16q-47 0 -100 -49q-29 -27 -76 -90q-37 -53 -43 -90q-1 -6 -1 -12q0 -36 34 -41 q7 -1 15 -2q62 0 169 71q51 35 100 78q27 23 33 16q4 -8 -10 -22q-51 -49 -111 -90q-133 -92 -235 -94q-5 0 -10 -1q-76 0 -110 30q-32 28 -32 76v11q-96 -117 -172 -116q-43 0 -67.5 21t-22.5 58z" />
<glyph unicode="y" horiz-adv-x="811" d="M-150 -784q0 63 76 172q141 207 283 401q39 53 152.5 212t183.5 253l-4 2q-18 -18 -68 -61q-49 -45 -119 -97q-158 -119 -258 -118q-92 0 -92 65q0 33 35 84q39 55 92 113.5t84 72.5q-51 -18 -131 -79q-37 -29 -86 -74q-20 -18 -27 -12q-8 6 13 26q84 76 147 117 q94 59 182 59q78 0 78 -14q0 -8 -10 -19q-90 -106 -117 -139q-47 -59 -78 -112q-14 -27 -4 -35q12 -8 49 10q53 27 154 104q49 39 118.5 103.5t92.5 83.5q29 23 121 22q78 0 78 -12q0 -6 -11 -20q-41 -47 -131 -164q-111 -143 -270 -363q-260 -354 -363 -524 q-25 -39 -14 -43q10 -6 27 14q12 14 164 226q117 162 225 301q119 152 260 299q55 55 129 120q20 18 27 13q2 -2 1 -5q0 -9 -22 -28q-104 -96 -121 -115q-129 -133 -258 -297q-74 -96 -245 -333q-152 -213 -179 -234q-41 -33 -94 -33h-6q-64 3 -64 58z" />
<glyph unicode="z" horiz-adv-x="573" d="M-700 -754q0 129 317 363q51 37 117.5 79t110.5 67.5t108.5 61.5t81.5 46q137 78 149 86q5 24 6 42q0 24 -9 40q-15 29 -46 28q-72 0 -147 -75q-16 -16 -25 -11q-16 12 0 35q23 35 80 62q14 6 90 40.5t123 59.5q102 51 166 109q14 14 8 22q-2 2 -16 -6q-90 -66 -178 -66 q-92 0 -119 54q-51 -59 -117 -119q-25 -20 -31 -14q-8 8 13 24q51 47 127 129q-4 35 20.5 65.5t73.5 30.5q35 0 41 -20q-35 0 -35 -26q0 -38 106.5 -38t180.5 25q35 10 45 2q12 -12 -13 -47q-57 -82 -180 -139q-35 -16 -128 -43t-118 -39q25 8 64 8q125 0 160 -68 q49 25 120 74q53 37 129 105q20 16 27 10q2 -2 2 -5q0 -5 -8 -14q-68 -63 -141 -114q-61 -41 -121 -72q6 -18 6 -39q-2 -195 -336 -483q-127 -113 -317.5 -209t-282.5 -96q-104 -1 -104 75zM-633 -760q0 -47 45 -47h2q80 0 208 94.5t253 227.5q90 92 183.5 216t119.5 193 q-41 -25 -135 -78q-215 -121 -395 -258q-281 -212 -281 -348z" />
<glyph unicode="{" horiz-adv-x="659" d="M106.5 -82.5q-16.5 64.5 67.5 184.5q141 186 148 199q29 55 15.5 90t-52.5 43l2 4q49 0 108.5 16.5t91.5 49.5q39 39 70 82t64.5 102.5t46.5 77.5q59 94 138 140t216 46l174 -4l-16 -16q-10 0 -37 1t-41 1q-168 0 -236 -78q-33 -37 -107.5 -170t-150.5 -201 q-68 -59 -188 -63q31 -27 33 -75t-37 -105q-23 -31 -87.5 -114t-88.5 -120q-80 -121 61 -160q29 -10 90 -14l-8 -12q-113 0 -160 10q-100 21 -116.5 85.5z" />
<glyph unicode="|" horiz-adv-x="329" d="M127 -512v2048h76v-2048h-76z" />
<glyph unicode="}" horiz-adv-x="659" d="M-285 -176l13 14h82q168 0 235 78q33 37 107.5 170t150.5 201q92 78 203 82q-33 23 -41 64.5t27 96.5q18 25 86.5 111t93.5 123q78 117 -64 160q-39 10 -90 14l10 10q121 0 160 -8q98 -20 115.5 -84.5t-66.5 -187.5q-10 -12 -66.5 -81t-80.5 -106q-27 -45 -12.5 -80.5 t55.5 -42.5l-2 -4q-45 6 -107.5 -19.5t-101.5 -66.5q-37 -39 -68.5 -84t-64.5 -100t-47 -78q-57 -94 -137 -140t-218 -46z" />
<glyph unicode="~" horiz-adv-x="628" d="M139 432q-6 18 0 21q4 2 13 -9q27 -35 98 -30q35 2 112.5 36.5t122.5 34.5h2q63 0 99.5 -53t44.5 -113q2 -14 -4 -18q-4 -2 -9 6q-2 4 -4 6q-45 63 -133 58q-29 -2 -99.5 -24.5t-109.5 -22.5q-100 -1 -133 108z" />
<glyph unicode="&#xa1;" horiz-adv-x="567" d="M-211 -340q2 14 39 61q23 29 48.5 56.5t61 60.5t58 53.5t71 60.5t66 55.5t76.5 62.5t72 57q25 20 32 12q2 -2 -18 -30q-143 -178 -264 -361q-66 -98 -217 -98h-2q-25 0 -23 10zM321.5 234.5q-8.5 21.5 14.5 50.5q25 31 67.5 53t67.5 24q23 -37 2 -98q-16 -51 -108 -51h-3 q-32 0 -40.5 21.5z" />
<glyph unicode="&#xa2;" horiz-adv-x="497" d="M47 147q-8 43 16.5 91.5t65.5 83.5q145 125 313 112q16 23 27 37q35 43 51 41q14 -6 -18 -51l-25 -33q76 -16 62 -82q-6 -27 -31 -47t-45 -20q-27 0 -34 21.5t11 45.5q41 57 25 68l-250 -320q16 -6 33 -2q70 8 145 74q20 14 25 10q6 -6 -12 -24q-94 -90 -216 -91 q-70 -86 -92 -114q-14 -16 -20 -13q-6 6 6 21l76 108q-101 16 -113 84zM184 145q-4 -27 9 -39l237 312q-49 -12 -125 -82q-43 -37 -80 -97.5t-41 -93.5z" />
<glyph unicode="&#xa3;" horiz-adv-x="1044" d="M-86 41q0 41 72.5 67.5t197.5 24.5q123 0 295 -27q31 23 61.5 53.5t55.5 60.5t31 36q-39 0 -105.5 -1t-128.5 -1q-49 0 -49 20q0 23 47 23q137 0 260 -6q6 6 30 32.5t40 45.5q10 12 31.5 33.5t29.5 31.5q-98 12 -146 54t-44 104q4 37 27.5 65.5t56.5 36.5q20 4 22 -2 q2 -2 -8 -6q-6 0 -10 -2q-63 -20 -68 -92q-2 -53 47.5 -82t128.5 -41l23 -2q84 88 207 141.5t207 53.5q66 0 67 -46q2 -33 -41 -73.5t-123 -71.5q-119 -43 -227 -39q-45 -53 -51 -59q-49 -55 -78 -84q78 -4 139 -6q29 0 29 -8.5t-29 -10.5q-68 -4 -163 -8 q-113 -100 -238 -156q135 -29 197 -26q121 4 198 51q23 12 25 12q8 -4 -6 -18q-139 -139 -283 -139q-84 0 -235 53q-109 -51 -297 -51q-68 0 -131.5 14t-63.5 45zM-66 43q-4 -25 62.5 -35t116.5 -10h2q170 0 268 43q-131 37 -244 39q-197 4 -205 -37zM926 465q80 8 170 35 q84 25 130 56.5t46 57.5v2q0 29 -45 29q-131 0 -301 -180z" />
<glyph unicode="&#xa4;" horiz-adv-x="716" d="M51 37q-6 8 19 33q16 14 84 71q-12 27 -13 56q0 123 123 223q-6 10 -53 92q-12 25 0 31t33 -21q10 -12 57 -78q76 57 178 60q90 2 137 -45q33 25 76 55q33 23 43 16q14 -8 -18 -34q-51 -45 -80 -70q10 -20 10 -45v-2q0 -57 -34.5 -124t-82.5 -105q8 -16 24.5 -47 t23.5 -46q12 -25 2 -30q-12 -6 -31 18l-31 41q-18 25 -26 35q-76 -55 -179 -58q-94 -2 -137 48q-23 -16 -84 -58q-31 -20 -41 -16zM238 190q0 -49 20.5 -77.5t65.5 -26.5q86 6 155.5 105.5t69.5 185.5v2q0 45 -23.5 71.5t-66.5 24.5q-86 -4 -153.5 -96.5t-67.5 -188.5z" />
<glyph unicode="&#xa5;" horiz-adv-x="829" d="M-8 135q0 33 53 33q10 0 73.5 -1t108.5 -1q14 16 27 33l18 22q-66 -2 -196 -2q-51 0 -51 12q0 14 15 22.5t32 8.5q74 0 225 -4q70 100 106 186q33 80 29 117q-4 45 -59 45q-72 0 -140 -49q-18 -14 -20 -12q-8 8 6 20q84 92 225 92q111 0 136 -67q23 -55 -11 -137 q-39 -100 -143 -209q236 207 408 301q223 123 378 102q12 -2 21.5 -7t13.5 -10t2 -7q-4 -2 -5 0t-11 4t-23 2q-113 0 -338 -125q-152 -82 -374 -248q43 -2 127 -3t129 -1q37 0 37 -12q0 -10 -37 -11q-260 -4 -297 -6q-14 -6 -35 -22q-18 -16 -47 -41q164 0 252 -2 q37 0 37 -8q0 -12 -37 -13q-20 0 -126 -3t-167 -5q-37 -33 -96.5 -88t-71.5 -66q-10 -8 -41 -14t-39 -2q-6 4 14 35q72 96 105 133h-103l-57 -2q-53 0 -53 10z" />
<glyph unicode="&#xa6;" horiz-adv-x="329" d="M127 358h76v-716h-76v716zM127 666v716h76v-716h-76z" />
<glyph unicode="&#xa7;" horiz-adv-x="755" d="M-53 -80q6 37 31.5 59.5t58.5 22.5t48 -21.5t9 -48.5q-4 -16 -23.5 -36.5t-21.5 -34.5q-4 -23 14.5 -39.5t49.5 -16.5q47 0 80.5 21.5t48.5 52.5q31 68 -15 174q-45 117 -14 193q53 131 219 131q-27 74 -2 139.5t89.5 104t137.5 36.5q51 -2 85 -30.5t24 -75.5 q-6 -29 -26.5 -48.5t-49 -19.5t-44 21.5t-1.5 52.5q6 14 18.5 30.5t12.5 24.5q0 27 -39 27q-82 0 -111 -76q-23 -59 13 -145q49 -127 20 -207q-23 -66 -86 -99.5t-135 -39.5q23 -80 4 -138q-25 -70 -94.5 -108.5t-143.5 -38.5h-2q-76 0 -120.5 39t-34.5 94zM305 274 q-27 -61 10 -147l15 -35q96 4 129 82q29 61 -8 150q-10 25 -13 34q-94 6 -133 -84z" />
<glyph unicode="&#xa8;" horiz-adv-x="628" d="M344 600q18 51 102 51h3q33 0 41 -20.5t-15 -46.5q-49 -57 -129 -76q-20 39 -2 92zM569 600q18 51 103 51h2q33 0 41 -20.5t-15 -46.5q-49 -57 -129 -76q-20 39 -2 92z" />
<glyph unicode="&#xa9;" horiz-adv-x="1042" d="M223 276q0 131 95.5 224.5t226.5 93.5h2q129 0 224 -94t95 -223.5t-95 -222.5t-226 -93t-226.5 93t-95.5 222zM266 276.5q0 -112.5 82 -195.5t196.5 -83t196.5 83t82 195.5t-82 195.5t-196 83h-2q-113 0 -195 -83t-82 -195.5zM375 272.5q0 79.5 57 128t139 48.5 q61 0 91 -17q31 -16 30 -53v-45h-30q-4 84 -91 84q-102 0 -102 -139.5t98 -139.5q78 0 103 70h24q-6 -41 -8 -49q-8 -31 -29 -39q-43 -16 -94 -17q-76 0 -132 44.5t-56 124z" />
<glyph unicode="&#xaa;" horiz-adv-x="575" d="M213 647q6 47 59.5 100.5t130.5 81.5q66 23 121 21q57 -2 58 -49q39 43 100 43q45 0 43 -10q0 -6 -6 -13q-117 -152 -123 -164q-12 -20 -2 -26q10 -8 35 6q27 14 55 37q35 27 68 59q12 12 18 10q8 -4 -8 -20q-47 -47 -84 -76q-80 -61 -150 -61q-51 0 -61 30q-8 27 14 54 l-2 2q-94 -84 -182 -86q-43 -2 -65.5 12t-18.5 49zM326 629q0 -14 16 -15q41 0 123 66q27 23 61.5 63.5t36.5 57.5q2 29 -24 28h-2q-35 0 -131 -92q-80 -73 -80 -108z" />
<glyph unicode="&#xab;" horiz-adv-x="638" d="M80 203q2 8 26 16q172 68 244 113q14 10 17 8q10 -6 -2 -25q-57 -82 -140 -137q18 -55 31 -147q4 -20 -4 -23q-6 -2 -19 15q-10 12 -139 155q-16 17 -14 25zM299 203q2 8 27 16q172 68 243 113q14 10 17 8q10 -6 -2 -25q-20 -29 -60.5 -70.5t-79.5 -66.5q18 -55 31 -147 q4 -20 -4 -23q-6 -2 -18 15q-10 12 -140 155q-16 17 -14 25z" />
<glyph unicode="&#xac;" horiz-adv-x="935" d="M164 330v2q0 14 39 14q82 2 315.5 10.5t308.5 10.5q20 0 27.5 -11.5t-2.5 -19.5q-158 -176 -221 -258q-29 -35 -41 -27q-10 4 10 39q63 109 137 207q-328 10 -534 14q-39 1 -39 19z" />
<glyph unicode="&#xad;" horiz-adv-x="536" d="M58 176q-1 4 1 6t15 -2q14 -4 39 0q47 10 110 49q55 35 105 35q57 0 83.5 -34.5t22.5 -90.5q0 -14 -8 -14q-2 0 -10 8q-25 29 -94 29q-27 0 -81.5 -10.5t-97.5 -10.5q-59 0 -82 29q-2 2 -3 6z" />
<glyph unicode="&#xae;" horiz-adv-x="927" d="M197 575.5q0 112.5 82.5 193.5t197.5 81t198 -81t83 -194v-2q0 -111 -83 -190.5t-198 -79.5t-197.5 80t-82.5 192.5zM240 575.5q0 -98.5 69.5 -168t167.5 -69.5t168 69.5t70 167.5v3q0 96 -70 165.5t-168 69.5t-167.5 -69.5t-69.5 -168zM338 438v23q29 0 34 10t5 51v121 q0 31 -8.5 40t-30.5 9v23h145q113 0 113 -72q0 -43 -49 -65q27 -49 43 -70q33 -45 78 -51v-21h-64q-45 2 -88 62q-4 6 -19.5 27.5t-19.5 31.5h-10h-16v-37q0 -37 8 -48t35 -11v-23h-156zM451 580q39 -2 55 11t16 50q0 55 -71 49v-110z" />
<glyph unicode="&#xaf;" horiz-adv-x="628" d="M310 520q-3 2 3 12q37 45 60 50q143 18 254 12q31 -2 30 -27v-2q0 -12 -14 -26q-20 -20 -39 -21q-150 6 -274 0q-17 0 -20 2z" />
<glyph unicode="&#xb0;" horiz-adv-x="354" d="M186 463q0 43 32 74.5t75 31.5h2q41 0 72.5 -31.5t31.5 -74.5t-31.5 -74t-74.5 -31t-75 31t-32 74zM236 462.5q0 -24.5 16 -40.5t40.5 -16t41 16t16.5 40.5t-16.5 41t-40.5 16.5h-2q-23 0 -39 -16.5t-16 -41z" />
<glyph unicode="&#xb1;" d="M55 127q6 37 49 37q461 -20 492 -21q14 0 22.5 -4t6.5 -12q-4 -12 -41 -12q-332 -12 -473 -13q-35 0 -46.5 6.5t-9.5 18.5zM152 356q6 31 43 31q27 0 109.5 -3t127.5 -5q16 25 52 72t44 57q43 57 84 57h2q82 0 17 -65q-18 -18 -61.5 -64.5t-55.5 -58.5q117 -2 221 -8 q33 0 33 -15q0 -12 -31 -12q-92 -4 -250 -8q-14 -14 -56 -59.5t-64 -67.5q-31 -31 -47.5 -22.5t2.5 32.5q8 12 40.5 56t43.5 59q-39 2 -111 0t-94 -2q-31 0 -42 7t-7 19z" />
<glyph unicode="&#xb2;" horiz-adv-x="413" d="M96 330q4 10 17 18q18 12 139 68q68 29 120 72.5t60 80.5q4 20 -6 32.5t-31 12.5q-39 0 -78 -28q-35 -27 -38 -49q-4 -18 7 -27.5t29 -5.5h13q2 -6 -11 -10q-14 -6 -34 -7q-43 2 -39 41q4 37 65 78q72 45 137 45q55 0 86 -19.5t23 -64.5q-12 -66 -135 -121 q-27 -12 -95.5 -33.5t-88.5 -29.5q33 4 49 4q25 0 69.5 -8t53.5 -8q39 0 73 41q8 8 15 6q8 -4 0 -12q-78 -96 -140 -97q-37 0 -82 21q-51 23 -81 22q-39 0 -68 -18q-12 -8 -21 -25q-16 1 -8 21z" />
<glyph unicode="&#xb3;" horiz-adv-x="413" d="M145 383q2 20 20.5 39.5t49.5 19.5q18 0 29.5 -10t9.5 -22q-2 -14 -23 -27q-29 -16 -28 -27q0 -20 33 -20q76 0 133 102q27 49 -7 56q-14 2 -30.5 -4.5t-18.5 -4.5q-4 14 19 21q53 14 92 40.5t39 53.5q0 29 -41 29q-35 0 -64 -19q-27 -16 -34 -39q-6 -12 2 -28 q6 -10 0 -13q-6 -6 -29 7q-18 12 -12 32q10 29 63 56q57 29 115 28q90 0 90 -47q0 -51 -84 -80q-31 -10 -88 -16h2q43 0 72 -21q37 -25 20 -69q-14 -45 -92 -76q-74 -29 -143 -29q-101 5 -95 68z" />
<glyph unicode="&#xb4;" horiz-adv-x="628" d="M500 485q-4 4 14 27q43 53 104 152q25 45 56 47q39 4 51 -23q14 -33 -23 -70q-59 -59 -174 -129q-20 -12 -28 -4z" />
<glyph unicode="&#xb5;" horiz-adv-x="823" d="M-117 -133q12 51 51 119q47 82 107 153q119 147 174 176q-51 -18 -131 -79q-37 -29 -86 -74q-20 -18 -27 -12q-8 6 13 26q84 76 147 117q94 59 182 59q78 0 78 -14q0 -8 -10 -19q-90 -106 -117 -139q-55 -68 -78 -110q-14 -25 -1.5 -35t46.5 8q53 27 154 104 q49 39 118.5 103.5t92.5 83.5q29 23 96 22q78 0 78 -12q0 -6 -10 -20q-61 -76 -106.5 -143.5t-59.5 -92.5q-18 -33 -4 -45t51 6q35 16 82 55q59 49 104 91q16 16 25 8q6 -8 -25 -35q-53 -49 -116 -100q-111 -90 -203 -91q-113 0 -102 89q2 31 32 73q4 6 39 51l-4 5 q-51 -45 -119 -97q-51 -37 -75.5 -53t-80 -40.5t-102.5 -24.5q-23 0 -37 11t-14 27q-35 -45 -49 -71q-43 -78 -47 -115q-4 -35 12 -45q-18 -12 -51 -4q-43 12 -27 84z" />
<glyph unicode="&#xb6;" horiz-adv-x="931" d="M-223 23q4 41 35.5 63.5t68.5 17.5q27 -4 42.5 -22.5t8.5 -44.5q-4 -20 -31.5 -48t-25.5 -44q4 -37 76 -37q104 0 227 102q88 76 201 217q-133 31 -174 125t43 193q74 82 193.5 107.5t295.5 19.5q90 -4 148 -21q164 168 350 168h2q41 0 73.5 -11t32.5 -26q0 -10 -10 -16 t-24 -4q-20 4 -52 31q-16 14 -40 10q-92 -6 -240 -180q39 -14 49 -25q16 -12 10 -18q-4 -4 -16 6q-23 14 -55 22q-61 -70 -93 -112q-172 -236 -286 -349q-180 -186 -367 -186q-16 0 -33 4q-109 -76 -237 -76q-80 0 -130 33t-42 101zM205 -20q10 -2 14 -3q80 0 219 140 q31 31 64 68.5t56.5 67.5t65.5 85t68 90q115 145 178 207q-10 4 -28 6q-10 2 -20.5 -2t-24 -12.5t-27.5 -21.5t-27.5 -25.5t-32 -33t-32.5 -36.5t-35.5 -43t-35 -44t-39 -48t-38.5 -47q-182 -236 -297 -326q-26 -22 -28 -22zM326.5 373.5q-9.5 -54.5 10 -85t54.5 -44.5 q6 6 19 22q172 223 260 299q66 57 121 78q-10 2 -39 2q-250 0 -367 -153q-49 -64 -58.5 -118.5z" />
<glyph unicode="&#xb7;" horiz-adv-x="317" d="M112 242.5q-1 31.5 9 60.5q20 57 117 57h2q35 0 44 -22.5t-16 -54.5q-27 -33 -70.5 -55.5t-74.5 -28.5q-10 12 -11 43.5z" />
<glyph unicode="&#xb8;" horiz-adv-x="628" d="M-68 -141q2 2 5.5 0t7.5 -7.5t8 -7.5q33 -29 96 -28h2q25 0 46.5 11t23.5 30q4 20 -8.5 32.5t-40.5 10.5q-10 0 -18.5 -4.5t-11.5 -5.5t-7 1q-6 6 4 19q53 59 98 92l29 -10q-43 -27 -68 -62q12 4 27 4q45 0 67.5 -21.5t18.5 -60t-47 -61t-109 -20.5q-82 2 -116 51 q-21 29 -7 37z" />
<glyph unicode="&#xb9;" horiz-adv-x="413" d="M184 305q0 8 27 41q152 186 221 242q-18 -10 -59 -37t-56 -33q-66 -29 -71 -8q0 2 78 39q43 20 112 61q66 41 96 41q29 0 -8 -41q-109 -125 -182 -239q-25 -37 -46.5 -47.5t-96.5 -20.5q-15 -2 -15 2z" />
<glyph unicode="&#xba;" horiz-adv-x="575" d="M266 659q0 41 39 85t84 67q70 37 148 37q47 0 47 -8q0 -2 -23 -13q-41 -16 -102 -77q-31 -27 -53.5 -63t-24.5 -58q-4 -25 20 -25q57 0 138 88q4 39 20 64q18 29 47 47q0 12 -2 18t-4 11.5t-3 5.5t1 4q8 8 37 -10.5t29 -51.5q0 -51 -74 -121q6 -6 12 -6q25 -2 51 17 q45 35 70 61q14 14 18 8t-8 -18q-33 -35 -69 -62q-37 -25 -68 -22q-18 0 -25 10q-78 -61 -186 -61h-2q-117 -1 -117 73z" />
<glyph unicode="&#xbb;" horiz-adv-x="638" d="M25 10q-10 6 2 25q20 29 60 70.5t79 66.5q-18 55 -31 147q-4 20 4 23q6 2 19 -14q59 -72 139 -156q16 -16 14 -24.5t-26 -16.5q-172 -68 -244 -113q-14 -10 -16 -8zM244 10q-10 6 2 25q57 82 139 137q-18 55 -31 147q-4 20 4 23q6 2 19 -14q10 -12 139 -156 q16 -16 14 -24.5t-26 -16.5q-172 -68 -244 -113q-14 -10 -16 -8z" />
<glyph unicode="&#xbc;" horiz-adv-x="901" d="M92 199q0 8 27 41q152 186 221 241q-18 -10 -59 -36.5t-56 -32.5q-66 -29 -71 -9q-2 4 24 15q29 12 53 24q43 20 113 62q66 41 96 41q29 0 -8 -41q-109 -125 -182 -240q-25 -37 -46.5 -47t-97.5 -20q-14 -2 -14 2zM135 -92q-10 10 10 37q244 328 545 614q55 55 101 55 q61 0 2 -53q-377 -340 -629 -631q-23 -26 -29 -22zM424 82q0 6 8 14q98 78 158 115q80 49 145 80q57 29 107 28q8 0 12 -5t0 -9q-25 -27 -55.5 -69.5t-59 -83.5t-32.5 -46q27 0 41 -2q12 -2 18 -6t4 -10q0 -6 -18 -6q-10 0 -32 1t-28 1l-55 -74q-16 -23 -102 -47 q-20 -6 -21 4q0 8 16 33q31 49 62 84h-84q-33 0 -70 -4q-14 -2 -14 2zM483 106q70 4 125 3q98 121 150 176q-49 -29 -146 -88q-29 -18 -71.5 -48t-57.5 -40v-3z" />
<glyph unicode="&#xbd;" horiz-adv-x="942" d="M92 199q0 8 27 41q152 186 221 241q-18 -10 -59 -36.5t-56 -32.5q-66 -29 -71 -9q-2 4 24 15q29 12 53 24q43 20 113 62q66 41 96 41q29 0 -8 -41q-109 -125 -182 -240q-25 -37 -46.5 -47t-97.5 -20q-14 -2 -14 2zM135 -92q-10 10 10 37q244 328 545 614q55 55 101 55 q61 0 2 -53q-377 -340 -629 -631q-23 -26 -29 -22zM436 -2q4 10 17 18q18 12 139 68q68 29 120 73t60 81q4 20 -6 32.5t-31 12.5q-39 0 -78 -29q-35 -27 -39 -49q-4 -18 7.5 -27.5t29.5 -5.5q8 4 13 0q2 -6 -11 -10q-14 -6 -34 -6q-43 2 -39 41q6 39 65 77q68 43 137 45 q55 2 86 -18t23 -65q-12 -66 -135 -121q-27 -12 -95.5 -34t-89.5 -30q33 4 50 4q25 0 69.5 -8t53.5 -8q41 0 71 39q8 12 17 8q6 -2 -2 -14q-74 -94 -138 -95q-37 0 -82 21q-51 23 -77 22q-43 0 -72 -18q-12 -6 -21 -25q-16 1 -8 21z" />
<glyph unicode="&#xbe;" horiz-adv-x="987" d="M96 276q2 20 20.5 40t49.5 20q18 0 29.5 -10.5t9.5 -22.5q-2 -14 -23 -27q-29 -16 -28 -26q0 -20 32 -21q76 0 133 103q27 49 -6 55q-14 2 -30.5 -4t-18.5 -4q-4 14 19 20q53 14 92 41t39 54q0 29 -41 28q-35 0 -64 -18q-27 -16 -35 -39q-6 -12 2 -29q6 -10 0 -12 q-6 -6 -28 6q-18 12 -12 33q10 29 63 55q57 29 115 29q90 0 90 -47q0 -51 -84 -80q-31 -10 -88 -17q41 4 74 -20q37 -25 20 -70q-16 -49 -92 -77q-68 -27 -144 -27q-100 4 -94 67zM225 -92q-10 10 11 37q244 328 544 614q55 55 101 55q61 0 2 -53q-377 -340 -629 -631 q-23 -26 -29 -22zM514 82q0 6 8 14q98 78 158 115q80 49 145 80q57 29 107 28q8 0 12 -5t0 -9q-25 -27 -55.5 -69.5t-59 -83.5t-32.5 -46q27 0 41 -2q12 -2 18 -6t4 -10q0 -6 -18 -6q-10 0 -32 1t-28 1l-55 -74q-16 -23 -102 -47q-20 -6 -21 4q0 8 17 33q31 49 61 84h-84 q-25 0 -70 -4q-14 -2 -14 2zM573 106q70 4 125 3q98 121 150 176q-49 -29 -146 -88q-29 -18 -71.5 -48t-57.5 -40v-3z" />
<glyph unicode="&#xbf;" horiz-adv-x="567" d="M-176 -221q18 143 256 217q113 35 153 57q47 27 64 58q10 57 35 57q6 0 11 -9t4 -25.5t-9 -33.5q-23 -45 -119 -104q-184 -123 -209 -221q-10 -35 6.5 -57.5t49.5 -22.5q55 2 124 49q45 31 62.5 82t-2.5 82q-2 4 -6 8t-7.5 6t-3.5 4q0 6 23 2q76 -12 59 -78 q-18 -66 -110 -122q-115 -74 -230 -74h-2q-78 0 -117.5 34t-31.5 91zM284.5 234.5q-8.5 21.5 14.5 50.5q25 31 68 53t67 24q25 -39 2 -98q-20 -51 -108 -51h-2q-33 0 -41.5 21.5z" />
<glyph unicode="&#xc0;" horiz-adv-x="1484" d="M31 115v2q0 61 36.5 98t82 39t71 -19.5t21.5 -56.5q-2 -31 -52 -67q-33 -25 -32 -52q0 -35 47 -55t137 -12q186 16 408 170q-133 98 -132 239q2 96 72 165t178 69q160 2 246 -164q18 18 84 80q186 178 318 250q147 78 274 78q88 0 121 -27q6 -6 10 -12t4 -10.5t-4 -6.5 q-2 -2 -6 4q-6 6 -12 11q-18 12 -45 12q-35 0 -66 -23q-76 -55 -170 -192q-182 -254 -379 -574q47 0 121 39q47 27 106 78q33 29 39 23q8 -8 -20 -33q-59 -55 -119 -86q-72 -37 -137 -41q-37 -45 -158 -55q-27 -2 -40 2t-11 11t4 15q2 6 9 17.5t7 13.5q-68 6 -147 35 q-63 23 -127 65q-219 -164 -434 -180q-127 -10 -216 30t-89 120zM735 397q-6 -121 60 -200q61 45 151 122q45 41 148 134q-72 133 -193 133h-2q-76 0 -118 -55.5t-46 -133.5zM811 178q29 -37 109 -74q68 -31 135 -38q10 16 26.5 44.5t20.5 34.5q29 57 24 170q-4 72 -22 117 q-27 -25 -77 -70t-69 -61q-67 -60 -147 -123zM1124 451q20 -51 25 -119q2 -74 -12 -135q180 270 254 358q190 240 421 303v2q-137 2 -286 -78q-121 -66 -275 -209q-111 -104 -127 -122zM1634 1102q14 33 41 33q23 0 45 -23q82 -82 150 -137q18 -18 14 -23q-6 -10 -24 -2 q-133 41 -201 84q-45 27 -25 68z" />
<glyph unicode="&#xc1;" horiz-adv-x="1484" d="M31 115v2q0 61 36.5 98t82 39t71 -19.5t21.5 -56.5q-2 -31 -52 -67q-33 -25 -32 -52q0 -35 47 -55t137 -12q186 16 408 170q-133 98 -132 239q2 96 72 165t178 69q160 2 246 -164q18 18 84 80q186 178 318 250q147 78 274 78q88 0 121 -27q6 -6 10 -12t4 -10.5t-4 -6.5 q-2 -2 -6 4q-6 6 -12 11q-18 12 -45 12q-35 0 -66 -23q-76 -55 -170 -192q-182 -254 -379 -574q47 0 121 39q47 27 106 78q33 29 39 23q8 -8 -20 -33q-59 -55 -119 -86q-72 -37 -137 -41q-37 -45 -158 -55q-27 -2 -40 2t-11 11t4 15q2 6 9 17.5t7 13.5q-68 6 -147 35 q-63 23 -127 65q-219 -164 -434 -180q-127 -10 -216 30t-89 120zM735 397q-6 -121 60 -200q61 45 151 122q45 41 148 134q-72 133 -193 133h-2q-76 0 -118 -55.5t-46 -133.5zM811 178q29 -37 109 -74q68 -31 135 -38q10 16 26.5 44.5t20.5 34.5q29 57 24 170q-4 72 -22 117 q-27 -25 -77 -70t-69 -61q-67 -60 -147 -123zM1124 451q20 -51 25 -119q2 -74 -12 -135q180 270 254 358q190 240 421 303v2q-137 2 -286 -78q-121 -66 -275 -209q-111 -104 -127 -122zM1677 963q-2 6 23 22q39 25 203 139q27 18 47 19q14 0 26.5 -16.5t12.5 -34.5 q0 -37 -45 -56q-115 -53 -242 -80q-23 -3 -25 7z" />
<glyph unicode="&#xc2;" horiz-adv-x="1484" d="M31 115v2q0 61 36.5 98t82 39t71 -19.5t21.5 -56.5q-2 -31 -52 -67q-33 -25 -32 -52q0 -35 47 -55t137 -12q186 16 408 170q-133 98 -132 239q2 96 72 165t178 69q160 2 246 -164q18 18 84 80q186 178 318 250q147 78 274 78q88 0 121 -27q6 -6 10 -12t4 -10.5t-4 -6.5 q-2 -2 -6 4q-6 6 -12 11q-18 12 -45 12q-35 0 -66 -23q-76 -55 -170 -192q-182 -254 -379 -574q47 0 121 39q47 27 106 78q33 29 39 23q8 -8 -20 -33q-59 -55 -119 -86q-72 -37 -137 -41q-37 -45 -158 -55q-27 -2 -40 2t-11 11t4 15q2 6 9 17.5t7 13.5q-68 6 -147 35 q-63 23 -127 65q-219 -164 -434 -180q-127 -10 -216 30t-89 120zM735 397q-6 -121 60 -200q61 45 151 122q45 41 148 134q-72 133 -193 133h-2q-76 0 -118 -55.5t-46 -133.5zM811 178q29 -37 109 -74q68 -31 135 -38q10 16 26.5 44.5t20.5 34.5q29 57 24 170q-4 72 -22 117 q-27 -25 -77 -70t-69 -61q-67 -60 -147 -123zM1124 451q20 -51 25 -119q2 -74 -12 -135q180 270 254 358q190 240 421 303v2q-137 2 -286 -78q-121 -66 -275 -209q-111 -104 -127 -122zM1546 956.5q-2 6.5 17 18.5q129 72 237 158q16 12 25 12q6 0 12 -17q47 -115 76 -149 q10 -14 6 -18.5t-27 4.5q-61 29 -106 69q-115 -53 -211 -78q-27 -6 -29 0.5z" />
<glyph unicode="&#xc3;" horiz-adv-x="1484" d="M31 115v2q0 61 36.5 98t82 39t71 -19.5t21.5 -56.5q-2 -31 -52 -67q-33 -25 -32 -52q0 -35 47 -55t137 -12q186 16 408 170q-133 98 -132 239q2 96 72 165t178 69q160 2 246 -164q18 18 84 80q186 178 318 250q147 78 274 78q88 0 121 -27q6 -6 10 -12t4 -10.5t-4 -6.5 q-2 -2 -6 4q-6 6 -12 11q-18 12 -45 12q-35 0 -66 -23q-76 -55 -170 -192q-182 -254 -379 -574q47 0 121 39q47 27 106 78q33 29 39 23q8 -8 -20 -33q-59 -55 -119 -86q-72 -37 -137 -41q-37 -45 -158 -55q-27 -2 -40 2t-11 11t4 15q2 6 9 17.5t7 13.5q-68 6 -147 35 q-63 23 -127 65q-219 -164 -434 -180q-127 -10 -216 30t-89 120zM735 397q-6 -121 60 -200q61 45 151 122q45 41 148 134q-72 133 -193 133h-2q-76 0 -118 -55.5t-46 -133.5zM811 178q29 -37 109 -74q68 -31 135 -38q10 16 26.5 44.5t20.5 34.5q29 57 24 170q-4 72 -22 117 q-27 -25 -77 -70t-69 -61q-67 -60 -147 -123zM1124 451q20 -51 25 -119q2 -74 -12 -135q180 270 254 358q190 240 421 303v2q-137 2 -286 -78q-121 -66 -275 -209q-111 -104 -127 -122zM1587 973q-8 4 2 24q49 94 127 93q29 -2 70 -25t61 -23q45 -2 84 33q14 12 19 10 q8 -2 0 -22q-49 -96 -123 -96q-25 0 -69 22.5t-68 24.5q-51 2 -82 -31q-13 -12 -21 -10z" />
<glyph unicode="&#xc4;" horiz-adv-x="1484" d="M31 115v2q0 61 36.5 98t82 39t71 -19.5t21.5 -56.5q-2 -31 -52 -67q-33 -25 -32 -52q0 -35 47 -55t137 -12q186 16 408 170q-133 98 -132 239q2 96 72 165t178 69q160 2 246 -164q18 18 84 80q186 178 318 250q147 78 274 78q88 0 121 -27q6 -6 10 -12t4 -10.5t-4 -6.5 q-2 -2 -6 4q-6 6 -12 11q-18 12 -45 12q-35 0 -66 -23q-76 -55 -170 -192q-182 -254 -379 -574q47 0 121 39q47 27 106 78q33 29 39 23q8 -8 -20 -33q-59 -55 -119 -86q-72 -37 -137 -41q-37 -45 -158 -55q-27 -2 -40 2t-11 11t4 15q2 6 9 17.5t7 13.5q-68 6 -147 35 q-63 23 -127 65q-219 -164 -434 -180q-127 -10 -216 30t-89 120zM735 397q-6 -121 60 -200q61 45 151 122q45 41 148 134q-72 133 -193 133h-2q-76 0 -118 -55.5t-46 -133.5zM811 178q29 -37 109 -74q68 -31 135 -38q10 16 26.5 44.5t20.5 34.5q29 57 24 170q-4 72 -22 117 q-27 -25 -77 -70t-69 -61q-67 -60 -147 -123zM1124 451q20 -51 25 -119q2 -74 -12 -135q180 270 254 358q190 240 421 303v2q-137 2 -286 -78q-121 -66 -275 -209q-111 -104 -127 -122zM1599 1051q20 45 95 45q29 0 36 -17.5t-14 -44.5q-25 -29 -59.5 -47t-54.5 -18 q-26 29 -3 82zM1843 969q-20 29 0 82q18 45 96 45q29 0 35 -17.5t-14 -44.5q-23 -27 -58.5 -46t-58.5 -19z" />
<glyph unicode="&#xc5;" horiz-adv-x="1484" d="M31 115v2q0 61 36.5 98t82 39t71 -19.5t21.5 -56.5q-2 -31 -52 -67q-33 -25 -32 -52q0 -35 47 -55t137 -12q186 16 408 170q-133 98 -132 239q2 96 72 165t178 69q160 2 246 -164q18 18 84 80q186 178 318 250q147 78 274 78q88 0 121 -27q6 -6 10 -12t4 -10.5t-4 -6.5 q-2 -2 -6 4q-6 6 -12 11q-18 12 -45 12q-35 0 -66 -23q-76 -55 -170 -192q-182 -254 -379 -574q47 0 121 39q47 27 106 78q33 29 39 23q8 -8 -20 -33q-59 -55 -119 -86q-72 -37 -137 -41q-37 -45 -158 -55q-27 -2 -40 2t-11 11t4 15q2 6 9 17.5t7 13.5q-68 6 -147 35 q-63 23 -127 65q-219 -164 -434 -180q-127 -10 -216 30t-89 120zM735 397q-6 -121 60 -200q61 45 151 122q45 41 148 134q-72 133 -193 133h-2q-76 0 -118 -55.5t-46 -133.5zM811 178q29 -37 109 -74q68 -31 135 -38q10 16 26.5 44.5t20.5 34.5q29 57 24 170q-4 72 -22 117 q-27 -25 -77 -70t-69 -61q-67 -60 -147 -123zM1124 451q20 -51 25 -119q2 -74 -12 -135q180 270 254 358q190 240 421 303v2q-137 2 -286 -78q-121 -66 -275 -209q-111 -104 -127 -122zM1665 1063q0 41 29.5 72.5t72.5 31.5t74 -31.5t31 -72.5q0 -45 -31 -75t-74 -30 q-45 0 -73.5 30t-28.5 75zM1718 1063q0 -51 49 -51q23 0 37.5 14t14.5 37q0 20 -14.5 36.5t-37 16.5t-36 -16.5t-13.5 -36.5z" />
<glyph unicode="&#xc6;" horiz-adv-x="1955" d="M35 115q0 63 35.5 100t83.5 39q45 2 69.5 -19.5t22.5 -56.5q-2 -31 -51 -67q-33 -25 -33 -52q0 -35 47 -55t137 -12q186 16 406 168q-51 35 -90 101.5t-39 139.5q0 104 72.5 169t183.5 65q147 0 239 -156q55 53 121 109q160 133 309 203q141 63 277 63q51 0 100 -14 q84 12 193 10q104 -2 175.5 -41t71.5 -88q0 -74 -100 -115t-219 -28q-86 6 -119 49q-10 10 -2 14q2 2 4 -2q4 -6 8 -8q47 -37 113 -39q100 -4 174 28.5t74 96.5q0 41 -44 74.5t-130 35.5q-76 4 -160 -39q-80 -37 -154 -110q-88 -94 -88 -191q53 10 101 7q115 -4 114 -54 q0 -41 -112 -41q-154 0 -209 54q-98 -47 -171 -122t-91 -167q-18 -88 34 -138.5t150 -50.5q125 0 277 101q43 29 141 114q20 16 26.5 10.5t-22.5 -32.5q-90 -82 -150 -121q-143 -96 -290 -104q-139 -6 -235.5 30.5t-113.5 116.5q-55 -27 -143 -22q-166 8 -254 77 q-219 -164 -434 -180q-127 -10 -216 30t-89 120zM739 395q-6 -129 60 -198q174 143 299 264q-76 125 -193 125h-2q-76 0 -118 -56.5t-46 -134.5zM813 178q72 -76 215 -88q76 -6 139 21q-4 31 4 63q-6 141 -59 262q-90 -84 -299 -258zM1133 455q55 -111 55 -240 q33 84 160 160q104 61 254 96q-70 102 26 219q88 104 262 139v2q-29 4 -57 5q-141 0 -272 -68q-147 -70 -304 -201q-48 -40 -124 -112zM1726 469q8 -20 36 -34.5t55 -16.5q82 -4 81 24v2q0 25 -77 29q-68 0 -95 -4z" />
<glyph unicode="&#xc7;" horiz-adv-x="854" d="M37 145q-10 274 317 500q-51 55 -51 129q0 84 74 138.5t184 54.5h2q188 0 275 -129q61 10 110 10q98 2 175 -37t71 -117q-6 -100 -136 -153.5t-272 -53.5q-227 0 -333 76q-98 -88 -165 -202.5t-67 -206.5q0 -197 213 -187q141 10 287 113q18 12 131 108q27 23 33 17 q6 -8 -29 -39q-84 -76 -137 -115q-170 -113 -326 -123q-47 -4 -88 0q-39 -29 -59 -57q12 4 26 4q43 0 66.5 -23.5t19.5 -60.5t-50 -60.5t-105 -19.5q-84 6 -117 51q-20 27 -6 37q4 2 20 -14q33 -29 99 -29q57 0 67 35q6 20 -8 35.5t-39 13.5q-10 0 -18 -4t-11.5 -5t-7.5 1 q-6 8 4 18q20 23 82 80q-225 27 -231 215zM328 774q0 -74 43 -117q209 127 428 172q-27 43 -93.5 76t-138.5 33h-2q-100 0 -168.5 -44t-68.5 -120zM467 578q106 -72 321 -72h3q111 0 202.5 50t104.5 146q4 63 -38 95t-116 32q-57 0 -98 -10q20 -45 24 -112q2 -72 -10 -76 q-2 0 -2 7t-1 23.5t-3 32.5q-10 63 -45 115q-78 -25 -180.5 -95t-161.5 -136z" />
<glyph unicode="&#xc8;" horiz-adv-x="868" d="M78 180q20 86 109 152.5t163 93.5t152 43q-29 33 -29 86v2q0 68 45 121q-88 66 -82 145q4 59 57.5 96t137.5 35q154 -4 260 -106q90 6 158 4q100 -2 164.5 -40t60.5 -91q-4 -68 -101.5 -117t-220.5 -49q-162 0 -293 55q-20 -29 -28 -59q-12 -37 -6 -64q45 6 102 5 q115 -4 109 -52q-6 -41 -113 -41q-139 0 -209 54q-68 -25 -137 -88q-39 -35 -74 -88.5t-45 -94.5q-27 -104 26.5 -161.5t166.5 -49.5q137 10 276 105q23 14 49.5 35.5t54 46t37.5 32.5q18 18 27 11q6 -6 -23 -33q-90 -82 -149 -121q-166 -109 -332 -123q-176 -14 -261 56.5 t-52 199.5zM461 823q-6 -76 69 -131q55 61 168 109q72 29 148 39q-111 94 -215 96q-78 2 -122 -29t-48 -84zM629 471q6 -20 34.5 -34.5t61.5 -16.5q72 -4 74 26q2 14 -16.5 20.5t-55.5 8.5q-51 4 -98 -4zM670 629q109 -53 278 -54h2q94 0 176 41t86 105q4 45 -34.5 77.5 t-122.5 35.5q-74 2 -140 -25q25 -33 33 -84q10 -63 -4 -72q-2 0 -2 4.5t-4 20.5t-10 39q-12 43 -45 80q-57 -27 -107 -62q-55 -38 -106 -106zM899 1102q14 33 41 33q23 0 45 -23q82 -82 150 -137q18 -18 14 -23q-6 -10 -25 -2q-133 41 -200 84q-45 27 -25 68z" />
<glyph unicode="&#xc9;" horiz-adv-x="868" d="M78 180q20 86 109 152.5t163 93.5t152 43q-29 33 -29 86v2q0 68 45 121q-88 66 -82 145q4 59 57.5 96t137.5 35q154 -4 260 -106q90 6 158 4q100 -2 164.5 -40t60.5 -91q-4 -68 -101.5 -117t-220.5 -49q-162 0 -293 55q-20 -29 -28 -59q-12 -37 -6 -64q45 6 102 5 q115 -4 109 -52q-6 -41 -113 -41q-139 0 -209 54q-68 -25 -137 -88q-39 -35 -74 -88.5t-45 -94.5q-27 -104 26.5 -161.5t166.5 -49.5q137 10 276 105q23 14 49.5 35.5t54 46t37.5 32.5q18 18 27 11q6 -6 -23 -33q-90 -82 -149 -121q-166 -109 -332 -123q-176 -14 -261 56.5 t-52 199.5zM461 823q-6 -76 69 -131q55 61 168 109q72 29 148 39q-111 94 -215 96q-78 2 -122 -29t-48 -84zM629 471q6 -20 34.5 -34.5t61.5 -16.5q72 -4 74 26q2 14 -16.5 20.5t-55.5 8.5q-51 4 -98 -4zM670 629q109 -53 278 -54h2q94 0 176 41t86 105q4 45 -34.5 77.5 t-122.5 35.5q-74 2 -140 -25q25 -33 33 -84q10 -63 -4 -72q-2 0 -2 4.5t-4 20.5t-10 39q-12 43 -45 80q-57 -27 -107 -62q-55 -38 -106 -106zM938 963q-2 6 23 22q39 25 202 139q27 18 47 19q14 0 26.5 -16.5t12.5 -34.5q0 -37 -45 -56q-115 -53 -241 -80q-23 -3 -25 7z" />
<glyph unicode="&#xca;" horiz-adv-x="868" d="M78 180q20 86 109 152.5t163 93.5t152 43q-29 33 -29 86v2q0 68 45 121q-88 66 -82 145q4 59 57.5 96t137.5 35q154 -4 260 -106q90 6 158 4q100 -2 164.5 -40t60.5 -91q-4 -68 -101.5 -117t-220.5 -49q-162 0 -293 55q-20 -29 -28 -59q-12 -37 -6 -64q45 6 102 5 q115 -4 109 -52q-6 -41 -113 -41q-139 0 -209 54q-68 -25 -137 -88q-39 -35 -74 -88.5t-45 -94.5q-27 -104 26.5 -161.5t166.5 -49.5q137 10 276 105q23 14 49.5 35.5t54 46t37.5 32.5q18 18 27 11q6 -6 -23 -33q-90 -82 -149 -121q-166 -109 -332 -123q-176 -14 -261 56.5 t-52 199.5zM461 823q-6 -76 69 -131q55 61 168 109q72 29 148 39q-111 94 -215 96q-78 2 -122 -29t-48 -84zM629 471q6 -20 34.5 -34.5t61.5 -16.5q72 -4 74 26q2 14 -16.5 20.5t-55.5 8.5q-51 4 -98 -4zM670 629q109 -53 278 -54h2q94 0 176 41t86 105q4 45 -34.5 77.5 t-122.5 35.5q-74 2 -140 -25q25 -33 33 -84q10 -63 -4 -72q-2 0 -2 4.5t-4 20.5t-10 39q-12 43 -45 80q-57 -27 -107 -62q-55 -38 -106 -106zM874.5 956.5q-2.5 6.5 16.5 18.5q129 72 237 158q16 12 25 12q6 0 12 -17q47 -115 76 -149q10 -14 6 -18.5t-26 4.5 q-61 29 -107 69q-115 -53 -211 -78q-26 -6 -28.5 0.5z" />
<glyph unicode="&#xcb;" horiz-adv-x="868" d="M78 180q20 86 109 152.5t163 93.5t152 43q-29 33 -29 86v2q0 68 45 121q-88 66 -82 145q4 59 57.5 96t137.5 35q154 -4 260 -106q90 6 158 4q100 -2 164.5 -40t60.5 -91q-4 -68 -101.5 -117t-220.5 -49q-162 0 -293 55q-20 -29 -28 -59q-12 -37 -6 -64q45 6 102 5 q115 -4 109 -52q-6 -41 -113 -41q-139 0 -209 54q-68 -25 -137 -88q-39 -35 -74 -88.5t-45 -94.5q-27 -104 26.5 -161.5t166.5 -49.5q137 10 276 105q23 14 49.5 35.5t54 46t37.5 32.5q18 18 27 11q6 -6 -23 -33q-90 -82 -149 -121q-166 -109 -332 -123q-176 -14 -261 56.5 t-52 199.5zM461 823q-6 -76 69 -131q55 61 168 109q72 29 148 39q-111 94 -215 96q-78 2 -122 -29t-48 -84zM629 471q6 -20 34.5 -34.5t61.5 -16.5q72 -4 74 26q2 14 -16.5 20.5t-55.5 8.5q-51 4 -98 -4zM670 629q109 -53 278 -54h2q94 0 176 41t86 105q4 45 -34.5 77.5 t-122.5 35.5q-74 2 -140 -25q25 -33 33 -84q10 -63 -4 -72q-2 0 -2 4.5t-4 20.5t-10 39q-12 43 -45 80q-57 -27 -107 -62q-55 -38 -106 -106zM895 1051q20 45 94 45q29 0 36 -17.5t-13 -44.5q-25 -29 -59.5 -47t-55.5 -18q-25 29 -2 82zM1139 969q-20 29 0 82q18 45 96 45 q29 0 35 -17.5t-15 -44.5q-23 -27 -58 -46t-58 -19z" />
<glyph unicode="&#xcc;" horiz-adv-x="1034" d="M-37 121q0 59 41 101t96 42q53 0 75 -31.5t13 -66.5q-10 -39 -49 -70q-41 -35 -41 -63q0 -49 109 -49q307 0 606 411q139 193 215 262q162 154 324 195q-207 -39 -267 -53q-156 -35 -294 -113q-129 -74 -129 -160q0 -49 49 -49q31 0 51 15q18 12 20 10q6 -10 -10 -23 q-29 -25 -74 -28q-53 -4 -91 18.5t-38 69.5q0 55 50.5 107t130.5 87q115 51 331 92q37 8 140.5 24.5t121.5 22.5q51 14 64 13q8 0 11 -7.5t-1 -14.5t-14 -11q-96 -37 -197 -184q-35 -49 -92 -141.5t-90 -133.5q-330 -430 -801 -430q-123 0 -191.5 41t-68.5 117zM1133 1102 q14 33 41 33q23 0 45 -23q82 -82 149 -137q18 -18 14 -23q-6 -10 -24 -2q-133 41 -201 84q-44 27 -24 68z" />
<glyph unicode="&#xcd;" horiz-adv-x="1034" d="M-37 121q0 59 41 101t96 42q53 0 75 -31.5t13 -66.5q-10 -39 -49 -70q-41 -35 -41 -63q0 -49 109 -49q307 0 606 411q139 193 215 262q162 154 324 195q-207 -39 -267 -53q-156 -35 -294 -113q-129 -74 -129 -160q0 -49 49 -49q31 0 51 15q18 12 20 10q6 -10 -10 -23 q-29 -25 -74 -28q-53 -4 -91 18.5t-38 69.5q0 55 50.5 107t130.5 87q115 51 331 92q37 8 140.5 24.5t121.5 22.5q51 14 64 13q8 0 11 -7.5t-1 -14.5t-14 -11q-96 -37 -197 -184q-35 -49 -92 -141.5t-90 -133.5q-330 -430 -801 -430q-123 0 -191.5 41t-68.5 117zM1186 963 q-2 6 22 22q39 25 203 139q27 18 47 19q14 0 26.5 -16.5t12.5 -34.5q0 -37 -45 -56q-115 -53 -242 -80q-22 -3 -24 7z" />
<glyph unicode="&#xce;" horiz-adv-x="1034" d="M-37 121q0 59 41 101t96 42q53 0 75 -31.5t13 -66.5q-10 -39 -49 -70q-41 -35 -41 -63q0 -49 109 -49q307 0 606 411q139 193 215 262q162 154 324 195q-207 -39 -267 -53q-156 -35 -294 -113q-129 -74 -129 -160q0 -49 49 -49q31 0 51 15q18 12 20 10q6 -10 -10 -23 q-29 -25 -74 -28q-53 -4 -91 18.5t-38 69.5q0 55 50.5 107t130.5 87q115 51 331 92q37 8 140.5 24.5t121.5 22.5q51 14 64 13q8 0 11 -7.5t-1 -14.5t-14 -11q-96 -37 -197 -184q-35 -49 -92 -141.5t-90 -133.5q-330 -430 -801 -430q-123 0 -191.5 41t-68.5 117z M1087.5 956.5q-2.5 6.5 16.5 18.5q129 72 237 158q16 12 25 12q6 0 12 -17q47 -115 76 -149q10 -14 6 -18.5t-26 4.5q-61 29 -107 69q-115 -53 -211 -78q-26 -6 -28.5 0.5z" />
<glyph unicode="&#xcf;" horiz-adv-x="1034" d="M-37 121q0 59 41 101t96 42q53 0 75 -31.5t13 -66.5q-10 -39 -49 -70q-41 -35 -41 -63q0 -49 109 -49q307 0 606 411q139 193 215 262q162 154 324 195q-207 -39 -267 -53q-156 -35 -294 -113q-129 -74 -129 -160q0 -49 49 -49q31 0 51 15q18 12 20 10q6 -10 -10 -23 q-29 -25 -74 -28q-53 -4 -91 18.5t-38 69.5q0 55 50.5 107t130.5 87q115 51 331 92q37 8 140.5 24.5t121.5 22.5q51 14 64 13q8 0 11 -7.5t-1 -14.5t-14 -11q-96 -37 -197 -184q-35 -49 -92 -141.5t-90 -133.5q-330 -430 -801 -430q-123 0 -191.5 41t-68.5 117zM1206 1051 q20 45 94 45q29 0 36 -17.5t-13 -44.5q-25 -29 -59.5 -47t-55.5 -18q-25 29 -2 82zM1450 969q-20 29 0 82q18 45 96 45q29 0 35 -17.5t-14 -44.5q-23 -27 -58.5 -46t-58.5 -19z" />
<glyph unicode="&#xd0;" horiz-adv-x="1546" d="M-90 16q6 51 299 41q94 0 276 -28q68 18 134.5 68t100.5 90t103 128h-20q-20 0 -28.5 6.5t-6.5 18.5q4 29 39 29q14 0 51 -4l23 22q164 203 391 338q-186 123 -461 123q-242 0 -421 -131t-181 -303q-2 -154 153 -164q164 -8 291 110q111 104 111 197q0 41 -25.5 66.5 t-64.5 27.5q-72 2 -131 -53q-14 -12 -27 -31q-8 -10 -12 -8q-2 2 1 9t11 19.5t21 24.5q66 66 147 62q47 -2 84 -33t41 -84q8 -59 -22.5 -123.5t-92.5 -114.5q-55 -45 -148 -68.5t-186 -19.5q-113 4 -196.5 56.5t-85.5 140.5q0 119 108.5 221.5t277.5 159.5t347 57 q293 0 481 -127q55 33 144 64q111 39 213 39q84 0 120 -33q6 -6 11.5 -13.5t6.5 -11.5t-1 -6q-2 0 -3 2t-7.5 8.5t-16.5 12.5q-35 20 -102 20q-88 0 -193 -43q-72 -31 -123 -73q123 -94 167 -227.5t-13 -246.5q-33 -59 -81 -105t-112.5 -71.5t-119 -42t-133 -22.5t-120.5 -7 t-116 -1h-22q-150 0 -316 18q-72 -16 -242 -16q-262 0 -299 10q-26 8 -24 22zM528 23q139 -23 232 -23q166 0 315.5 68.5t237.5 207.5q66 102 66.5 219t-60.5 193q-51 -51 -136 -170t-122 -162q119 -6 162 -10q27 -2 26 -10q0 -10 -26 -10q-14 0 -77 -2t-116 -5 q-183 -208 -502 -296z" />
<glyph unicode="&#xd1;" horiz-adv-x="1398" d="M-197 98v2q0 63 44 100.5t96 37.5q90 0 90 -70q0 -33 -41 -68q-45 -37 -49 -61q-6 -35 28.5 -53.5t104.5 -18.5q125 0 280.5 63.5t294.5 172.5q293 223 445 510q25 49 69 88q51 41 111 41q16 0 26.5 -5.5t11.5 -11.5t-3 -12q-33 -47 -45 -113q-14 -66 -31 -249 q-18 -236 -51 -316h2q215 307 358 471q145 172 266 268.5t238 94.5q61 -2 96 -40t29 -95q-4 -25 -10 -25q-2 0 -2 3t-1 9t-3 13q-20 61 -107 67q-164 10 -481 -321q-90 -94 -175 -200t-131 -171.5t-143 -204.5q-29 -43 -69 -33q-61 14 -52 54q43 133 50 329q8 219 34 291h-2 q-59 -113 -174.5 -238.5t-242.5 -222.5q-147 -111 -304 -176t-286 -67q-113 -2 -192 37.5t-79 119.5zM1430 973q-8 4 2 24q49 94 127 93q29 -2 69.5 -25t61.5 -23q45 -2 84 33q14 12 18 10q8 -2 0 -22q-47 -96 -123 -96q-25 0 -69 22.5t-68 24.5q-51 2 -82 -31 q-12 -12 -20 -10z" />
<glyph unicode="&#xd2;" horiz-adv-x="985" d="M41 139q-31 123 36.5 248t155.5 203q156 145 358 216t370 50q139 -18 151 -113q6 -59 -35 -100q-23 -23 -28 -16l16 24q31 43 25 90q-6 41 -43 64.5t-86 23.5q-143 2 -297 -90t-265 -207q-92 -94 -153.5 -220t-36.5 -222q20 -100 137 -102q207 -6 467 311 q160 201 170 334q6 72 -72 76q-164 6 -379 -271q-176 -223 -176 -332v-2q0 -51 27 -77q10 -10 10 -13q-4 -6 -16 2q-47 29 -60 93q-12 68 25 163t115 187q100 125 231 197.5t225 68.5q55 -2 86 -40t33 -97q8 -162 -117 -316q-106 -129 -279 -218t-317 -85q-94 2 -173.5 41 t-104.5 129zM788 1102q14 33 41 33q23 0 45 -23q82 -82 150 -137q18 -18 14 -23q-6 -10 -24 -2q-133 41 -201 84q-45 27 -25 68z" />
<glyph unicode="&#xd3;" horiz-adv-x="985" d="M41 139q-31 123 36.5 248t155.5 203q156 145 358 216t370 50q139 -18 151 -113q6 -59 -35 -100q-23 -23 -28 -16l16 24q31 43 25 90q-6 41 -43 64.5t-86 23.5q-143 2 -297 -90t-265 -207q-92 -94 -153.5 -220t-36.5 -222q20 -100 137 -102q207 -6 467 311 q160 201 170 334q6 72 -72 76q-164 6 -379 -271q-176 -223 -176 -332v-2q0 -51 27 -77q10 -10 10 -13q-4 -6 -16 2q-47 29 -60 93q-12 68 25 163t115 187q100 125 231 197.5t225 68.5q55 -2 86 -40t33 -97q8 -162 -117 -316q-106 -129 -279 -218t-317 -85q-94 2 -173.5 41 t-104.5 129zM825 963q-2 6 23 22q39 25 203 139q27 18 47 19q14 0 26.5 -16.5t12.5 -34.5q0 -37 -45 -56q-115 -53 -242 -80q-23 -3 -25 7z" />
<glyph unicode="&#xd4;" horiz-adv-x="985" d="M41 139q-31 123 36.5 248t155.5 203q156 145 358 216t370 50q139 -18 151 -113q6 -59 -35 -100q-23 -23 -28 -16l16 24q31 43 25 90q-6 41 -43 64.5t-86 23.5q-143 2 -297 -90t-265 -207q-92 -94 -153.5 -220t-36.5 -222q20 -100 137 -102q207 -6 467 311 q160 201 170 334q6 72 -72 76q-164 6 -379 -271q-176 -223 -176 -332v-2q0 -51 27 -77q10 -10 10 -13q-4 -6 -16 2q-47 29 -60 93q-12 68 25 163t115 187q100 125 231 197.5t225 68.5q55 -2 86 -40t33 -97q8 -162 -117 -316q-106 -129 -279 -218t-317 -85q-94 2 -173.5 41 t-104.5 129zM725 956.5q-2 6.5 16 18.5q129 72 238 158q16 12 25 12q6 0 12 -17q47 -115 76 -149q10 -14 6 -18.5t-27 4.5q-61 29 -106 69q-115 -53 -211 -78q-27 -6 -29 0.5z" />
<glyph unicode="&#xd5;" horiz-adv-x="985" d="M41 139q-31 123 36.5 248t155.5 203q156 145 358 216t370 50q139 -18 151 -113q6 -59 -35 -100q-23 -23 -28 -16l16 24q31 43 25 90q-6 41 -43 64.5t-86 23.5q-143 2 -297 -90t-265 -207q-92 -94 -153.5 -220t-36.5 -222q20 -100 137 -102q207 -6 467 311 q160 201 170 334q6 72 -72 76q-164 6 -379 -271q-176 -223 -176 -332v-2q0 -51 27 -77q10 -10 10 -13q-4 -6 -16 2q-47 29 -60 93q-12 68 25 163t115 187q100 125 231 197.5t225 68.5q55 -2 86 -40t33 -97q8 -162 -117 -316q-106 -129 -279 -218t-317 -85q-94 2 -173.5 41 t-104.5 129zM786 973q-8 4 2 24q49 94 127 93q29 -2 70 -25t62 -23q45 -2 83 33q14 12 19 10q8 -2 0 -22q-47 -96 -123 -96q-25 0 -69 22.5t-68 24.5q-51 2 -82 -31q-13 -12 -21 -10z" />
<glyph unicode="&#xd6;" horiz-adv-x="985" d="M41 139q-31 123 36.5 248t155.5 203q156 145 358 216t370 50q139 -18 151 -113q6 -59 -35 -100q-23 -23 -28 -16l16 24q31 43 25 90q-6 41 -43 64.5t-86 23.5q-143 2 -297 -90t-265 -207q-92 -94 -153.5 -220t-36.5 -222q20 -100 137 -102q207 -6 467 311 q160 201 170 334q6 72 -72 76q-164 6 -379 -271q-176 -223 -176 -332v-2q0 -51 27 -77q10 -10 10 -13q-4 -6 -16 2q-47 29 -60 93q-12 68 25 163t115 187q100 125 231 197.5t225 68.5q55 -2 86 -40t33 -97q8 -162 -117 -316q-106 -129 -279 -218t-317 -85q-94 2 -173.5 41 t-104.5 129zM770 1051q20 45 94 45q29 0 36 -17.5t-13 -44.5q-25 -29 -59.5 -47t-55.5 -18q-25 29 -2 82zM1014 969q-20 29 0 82q18 45 96 45q29 0 35 -17.5t-15 -44.5q-23 -27 -58 -46t-58 -19z" />
<glyph unicode="&#xd7;" horiz-adv-x="643" d="M18 25q-6 12 25 34q152 113 266 201l-57 158q-16 43 24 67q35 20 46 -22q4 -14 16 -70.5t22 -93.5q133 98 195 145q57 45 111 48q63 4 -31 -64q-16 -10 -264 -180q25 -98 41 -180q8 -31 -4 -39q-4 -2 -9.5 1t-7.5 8t-6 13q-10 29 -59 164q-45 -31 -133.5 -89t-131.5 -87 q-35 -22 -43 -14z" />
<glyph unicode="&#xd8;" horiz-adv-x="985" d="M43 139q-29 123 37.5 249t155.5 202q162 141 353 210.5t367 55.5l23 -2q16 18 53 60t53 63q27 31 49.5 20.5t-6.5 -41.5q-4 -4 -102 -114q84 -31 88 -99q2 -57 -33 -100q-23 -29 -30 -16v5q0 1 6 7t10 12q31 43 25 90q-6 53 -82 78l-719 -823q29 -8 57 -8q209 -2 467 311 q160 203 186 350q4 29 0 62q-2 10 -5 21t-5 13.5t0 6.5q4 2 8.5 -2.5t10.5 -14.5t12 -24q18 -51 16 -123q-6 -176 -120 -316q-106 -129 -278.5 -219t-317.5 -88q-25 0 -54 4q-96 -115 -131 -155q-14 -14 -22 -9q-10 6 2 23q53 68 121 147q-168 41 -195 164zM211 90 q10 -53 51 -82l701 821h-5q-139 2 -293.5 -91t-263.5 -206q-92 -94 -153.5 -220t-36.5 -222z" />
<glyph unicode="&#xd9;" horiz-adv-x="1232" d="M111 395q-16 70 27.5 163t125.5 159q182 145 426 145q96 0 152.5 -30.5t56.5 -88.5q0 -43 -32.5 -101t-66.5 -100t-100 -120q-238 -274 -249 -354q-2 -20 7 -29.5t27 -7.5q84 4 209 100q150 109 299 287q145 170 340 334q160 129 256 114q27 -4 24 -31.5t-34 -60.5 q-49 -53 -154 -129q-121 -88 -186 -143q-16 -18 -47 -58q-193 -258 -219 -354q-10 -37 12 -45q39 -14 125 47q53 37 125 101q18 16 24.5 10t-14.5 -27q-45 -45 -129 -106q-35 -27 -99.5 -58.5t-117.5 -34.5q-106 -2 -106 86q0 82 102 211q-61 -61 -130 -117.5t-176.5 -115.5 t-185.5 -59q-115 0 -118 81q-2 102 247 383q190 217 213 314q8 43 -12 62.5t-55 19.5q-180 0 -363 -178q-164 -160 -163 -267q0 -82 73 -84q37 -2 74 21q8 6 15.5 12t10.5 8t5 0q4 -2 -4.5 -13t-20.5 -19q-37 -29 -86 -27q-88 6 -108 100zM1022 1077q14 33 41 33 q23 0 45 -23q82 -82 149 -137q18 -18 15 -22q-6 -10 -25 -2q-133 41 -200 84q-45 26 -25 67zM1290 567q23 16 65 46t58 42q72 49 133 111q20 23 31.5 40t12.5 26.5t-5 13.5q-29 12 -110 -78q-79 -82 -185 -201z" />
<glyph unicode="&#xda;" horiz-adv-x="1232" d="M111 395q-16 70 27.5 163t125.5 159q182 145 426 145q96 0 152.5 -30.5t56.5 -88.5q0 -43 -32.5 -101t-66.5 -100t-100 -120q-238 -274 -249 -354q-2 -20 7 -29.5t27 -7.5q84 4 209 100q150 109 299 287q145 170 340 334q160 129 256 114q27 -4 24 -31.5t-34 -60.5 q-49 -53 -154 -129q-121 -88 -186 -143q-16 -18 -47 -58q-193 -258 -219 -354q-10 -37 12 -45q39 -14 125 47q53 37 125 101q18 16 24.5 10t-14.5 -27q-45 -45 -129 -106q-35 -27 -99.5 -58.5t-117.5 -34.5q-106 -2 -106 86q0 82 102 211q-61 -61 -130 -117.5t-176.5 -115.5 t-185.5 -59q-115 0 -118 81q-2 102 247 383q190 217 213 314q8 43 -12 62.5t-55 19.5q-180 0 -363 -178q-164 -160 -163 -267q0 -82 73 -84q37 -2 74 21q8 6 15.5 12t10.5 8t5 0q4 -2 -4.5 -13t-20.5 -19q-37 -29 -86 -27q-88 6 -108 100zM1112 938q-2 6 23 23 q39 25 202 139q27 18 47 18q14 0 26.5 -16.5t12.5 -34.5q0 -37 -45 -55q-115 -53 -241 -80q-23 -4 -25 6zM1290 567q23 16 65 46t58 42q72 49 133 111q20 23 31.5 40t12.5 26.5t-5 13.5q-29 12 -110 -78q-79 -82 -185 -201z" />
<glyph unicode="&#xdb;" horiz-adv-x="1232" d="M111 395q-16 70 27.5 163t125.5 159q182 145 426 145q96 0 152.5 -30.5t56.5 -88.5q0 -43 -32.5 -101t-66.5 -100t-100 -120q-238 -274 -249 -354q-2 -20 7 -29.5t27 -7.5q84 4 209 100q150 109 299 287q145 170 340 334q160 129 256 114q27 -4 24 -31.5t-34 -60.5 q-49 -53 -154 -129q-121 -88 -186 -143q-16 -18 -47 -58q-193 -258 -219 -354q-10 -37 12 -45q39 -14 125 47q53 37 125 101q18 16 24.5 10t-14.5 -27q-45 -45 -129 -106q-35 -27 -99.5 -58.5t-117.5 -34.5q-106 -2 -106 86q0 82 102 211q-61 -61 -130 -117.5t-176.5 -115.5 t-185.5 -59q-115 0 -118 81q-2 102 247 383q190 217 213 314q8 43 -12 62.5t-55 19.5q-180 0 -363 -178q-164 -160 -163 -267q0 -82 73 -84q37 -2 74 21q8 6 15.5 12t10.5 8t5 0q4 -2 -4.5 -13t-20.5 -19q-37 -29 -86 -27q-88 6 -108 100zM1036 956.5q-2 6.5 17 18.5 q129 72 237 158q16 12 25 12q6 0 12 -17q47 -115 76 -149q10 -14 6 -18.5t-27 4.5q-61 29 -106 69q-115 -53 -211 -78q-27 -6 -29 0.5zM1290 567q23 16 65 46t58 42q72 49 133 111q20 23 31.5 40t12.5 26.5t-5 13.5q-29 12 -110 -78q-79 -82 -185 -201z" />
<glyph unicode="&#xdc;" horiz-adv-x="1232" d="M111 395q-16 70 27.5 163t125.5 159q182 145 426 145q96 0 152.5 -30.5t56.5 -88.5q0 -43 -32.5 -101t-66.5 -100t-100 -120q-238 -274 -249 -354q-2 -20 7 -29.5t27 -7.5q84 4 209 100q150 109 299 287q145 170 340 334q160 129 256 114q27 -4 24 -31.5t-34 -60.5 q-49 -53 -154 -129q-121 -88 -186 -143q-16 -18 -47 -58q-193 -258 -219 -354q-10 -37 12 -45q39 -14 125 47q53 37 125 101q18 16 24.5 10t-14.5 -27q-45 -45 -129 -106q-35 -27 -99.5 -58.5t-117.5 -34.5q-106 -2 -106 86q0 82 102 211q-61 -61 -130 -117.5t-176.5 -115.5 t-185.5 -59q-115 0 -118 81q-2 102 247 383q190 217 213 314q8 43 -12 62.5t-55 19.5q-180 0 -363 -178q-164 -160 -163 -267q0 -82 73 -84q37 -2 74 21q8 6 15.5 12t10.5 8t5 0q4 -2 -4.5 -13t-20.5 -19q-37 -29 -86 -27q-88 6 -108 100zM1020 1051q20 45 94 45 q29 0 36 -17.5t-13 -44.5q-25 -29 -60 -47t-55 -18q-25 29 -2 82zM1264 969q-20 29 0 82q18 45 96 45q29 0 35 -17.5t-15 -44.5q-23 -27 -58 -46t-58 -19zM1290 567q23 16 65 46t58 42q72 49 133 111q20 23 31.5 40t12.5 26.5t-5 13.5q-29 12 -110 -78q-79 -82 -185 -201z " />
<glyph unicode="&#xdd;" horiz-adv-x="1155" d="M-94 -659q6 82 97 182t208 178q180 125 401 170q193 276 299 420q-322 -309 -508 -309q-115 0 -118 81q-2 102 247 383q190 217 213 314q8 43 -13 64.5t-54 21.5q-176 0 -363 -182q-164 -160 -163 -267q0 -84 71 -86q37 -2 76 23q8 6 18 14q8 8 13 6q8 -8 -25 -32 q-39 -27 -84 -27q-43 0 -72.5 27.5t-37.5 72.5q-12 74 27.5 167t117.5 157q176 147 434 147q96 0 153.5 -31.5t55.5 -91.5q-2 -61 -52 -134.5t-147 -186.5q-238 -274 -249 -354q-2 -20 7 -29.5t27 -7.5q84 4 209 100q88 63 149.5 122.5t149.5 164.5q238 266 322 340 q45 41 115.5 80t121.5 28q20 -2 27.5 -16t3.5 -32.5t-18 -37.5q-41 -55 -142 -135q-123 -102 -166 -143q-94 -125 -266 -365q-31 -43 -68.5 -97t-63.5 -90l-46 -65q154 4 237 -64.5t66 -182.5q-2 -14 -7 -24.5t-9 -15t-6 -1.5q-4 2 -2 10l4 28q12 111 -68 174.5t-231 55.5 q-104 -152 -215 -275q-141 -162 -305 -248.5t-271 -86.5q-47 0 -75.5 20.5t-24.5 65.5zM-25 -664q-6 -51 37 -59q57 -8 133 37q117 74 263 274q23 29 51 70t68 95t67 91q-195 -47 -361 -161q-90 -61 -171 -163t-87 -184zM1065 963q-2 6 22 22q39 25 203 139q27 18 47 19 q14 0 26.5 -16.5t12.5 -34.5q0 -37 -45 -56q-115 -53 -241 -80q-23 -3 -25 7zM1305 569l104 86q70 57 115 111q55 63 30.5 79.5t-98.5 -77.5q-55 -70 -151 -199z" />
<glyph unicode="&#xde;" horiz-adv-x="1314" d="M-135 -244q-2 70 180 224q131 111 365 258q4 4 22.5 31.5t44 63.5t47.5 64q152 193 254 287v2q-90 -16 -168 -18q-76 -2 -132 7t-93 35.5t-37 71.5q4 51 51 82t103 41q49 8 49 -4q0 -2 -5 -3t-15.5 -2t-20.5 -5q-88 -33 -88 -109q0 -100 188 -96q96 2 189 23 q88 82 178 141q166 113 293 113q35 0 55.5 -17.5t15.5 -46.5q-12 -78 -184 -135q-66 -23 -168 -49q-35 -45 -113.5 -132t-89.5 -102q199 170 324 170q55 0 100 -38t41 -115q-6 -98 -102 -211q-113 -129 -280 -200t-275 -56q-29 2 -49.5 11t-26.5 18.5t-2 15.5q2 2 8 -3 t23.5 -12.5t42.5 -9.5q78 -8 194.5 82t225.5 221q176 211 118 262q-10 10 -28 13q-113 6 -379 -228q-201 -279 -436 -489q-96 -86 -194.5 -141.5t-156.5 -61.5q-67 -8 -69 47zM-106 -236q0 -31 32 -26q37 2 92.5 37t156.5 145.5t214 282.5q-203 -131 -326 -238 q-169 -148 -169 -201zM1012 741q94 23 145 43q162 61 166 117q4 43 -51 43q-59 0 -168 -102q-14 -13 -92 -101z" />
<glyph unicode="&#xdf;" horiz-adv-x="845" d="M-596 -229q-4 29 14.5 52t51.5 23q55 0 69 -73q14 -76 58 -76q72 0 142.5 62.5t184.5 222.5q41 55 197 286l-2 2q-29 -25 -101 -90q-20 -20 -28 -12t12 25q25 23 90.5 81t79.5 70q168 233 197 266q117 135 241.5 191.5t233.5 48.5q63 -4 97 -46t17 -91q-23 -72 -133 -135 q-39 -23 -107.5 -42.5t-119.5 -36t-61.5 -32.5t9 -45t58.5 -68t49 -51q70 -82 31 -180q-16 -43 -63 -74q51 16 114 57q72 47 113 87q20 20 29 12q6 -6 -7 -19q-45 -45 -120 -94q-59 -39 -136 -67q-135 -43 -231 -43q-82 0 -120 36.5t-32 83.5q8 49 46 84t81 31 q29 -2 42.5 -18.5t9.5 -34.5q-4 -23 -43 -51q-45 -33 -50 -60q-2 -25 11.5 -38t36.5 -13q78 0 129 100q53 106 28 201q-4 12 -15 44t-15.5 48.5t-1 41t19.5 40.5q25 27 108.5 59.5t126.5 59.5q111 72 136 170q6 27 -5.5 45t-39.5 20q-102 8 -246 -153q-43 -49 -223 -318 q-201 -287 -283 -385q-133 -164 -251 -229t-247 -70q-76 0 -126 29t-56 66z" />
<glyph unicode="&#xe0;" d="M-43 57q0 55 66 123l-3 2q-16 -14 -18 -16q-27 -23 -33 -16q-4 8 15 26q39 37 79 64q61 41 146 77q102 43 199 43q45 0 62 -19t15 -46q39 41 57.5 48t80.5 7q66 0 65 -14q0 -6 -10 -19q-59 -72 -109 -135q-55 -74 -69.5 -100.5t0.5 -36.5q14 -12 51 4q31 12 86 57 q47 39 100 87q20 20 27 12q6 -6 -19 -31q-45 -45 -122 -106q-117 -90 -205 -91q-80 0 -92 54q-8 35 18 71l-2 2q-143 -127 -262 -127q-123 0 -123 80zM121 39q2 -20 26 -21q29 0 79 29t93 68q51 47 97.5 104t48.5 80q2 37 -37 37h-2q-53 0 -193 -135q-116 -117 -112 -162z M393 684q0 25 19.5 38t42.5 13h2q39 0 45 -51q18 -123 24 -154q6 -27 2 -28q-8 -8 -24 12q-68 82 -103 141q-8 13 -8 29z" />
<glyph unicode="&#xe1;" d="M-43 57q0 55 66 123l-3 2q-16 -14 -18 -16q-27 -23 -33 -16q-4 8 15 26q39 37 79 64q61 41 146 77q102 43 199 43q45 0 62 -19t15 -46q39 41 57.5 48t80.5 7q66 0 65 -14q0 -6 -10 -19q-59 -72 -109 -135q-55 -74 -69.5 -100.5t0.5 -36.5q14 -12 51 4q31 12 86 57 q47 39 100 87q20 20 27 12q6 -6 -19 -31q-45 -45 -122 -106q-117 -90 -205 -91q-80 0 -92 54q-8 35 18 71l-2 2q-143 -127 -262 -127q-123 0 -123 80zM121 39q2 -20 26 -21q29 0 79 29t93 68q51 47 97.5 104t48.5 80q2 37 -37 37h-2q-53 0 -193 -135q-116 -117 -112 -162z M471 506q-4 4 14 26q43 53 105 152q25 45 55 47q39 4 51 -22q14 -33 -22 -70q-59 -59 -174 -129q-21 -12 -29 -4z" />
<glyph unicode="&#xe2;" d="M-43 57q0 55 66 123l-3 2q-16 -14 -18 -16q-27 -23 -33 -16q-4 8 15 26q39 37 79 64q61 41 146 77q102 43 199 43q45 0 62 -19t15 -46q39 41 57.5 48t80.5 7q66 0 65 -14q0 -6 -10 -19q-59 -72 -109 -135q-55 -74 -69.5 -100.5t0.5 -36.5q14 -12 51 4q31 12 86 57 q47 39 100 87q20 20 27 12q6 -6 -19 -31q-45 -45 -122 -106q-117 -90 -205 -91q-80 0 -92 54q-8 35 18 71l-2 2q-143 -127 -262 -127q-123 0 -123 80zM121 39q2 -20 26 -21q29 0 79 29t93 68q51 47 97.5 104t48.5 80q2 37 -37 37h-2q-53 0 -193 -135q-116 -117 -112 -162z M297 479q-2 8 16 19q150 84 250 168q14 14 27 10q8 -2 12 -17q33 -90 76 -157q8 -12 6 -17q-4 -6 -27 2q-61 27 -110 70q-80 -39 -217 -78q-31 -10 -33 0z" />
<glyph unicode="&#xe3;" d="M-43 57q0 55 66 123l-3 2q-16 -14 -18 -16q-27 -23 -33 -16q-4 8 15 26q39 37 79 64q61 41 146 77q102 43 199 43q45 0 62 -19t15 -46q39 41 57.5 48t80.5 7q66 0 65 -14q0 -6 -10 -19q-59 -72 -109 -135q-55 -74 -69.5 -100.5t0.5 -36.5q14 -12 51 4q31 12 86 57 q47 39 100 87q20 20 27 12q6 -6 -19 -31q-45 -45 -122 -106q-117 -90 -205 -91q-80 0 -92 54q-8 35 18 71l-2 2q-143 -127 -262 -127q-123 0 -123 80zM121 39q2 -20 26 -21q29 0 79 29t93 68q51 47 97.5 104t48.5 80q2 37 -37 37h-2q-53 0 -193 -135q-116 -117 -112 -162z M330 506q-10 4 0 24q23 43 59.5 76t77.5 31q29 -2 68.5 -26.5t64.5 -26.5q47 -2 82 37q12 14 20 12q12 -4 0 -25q-20 -39 -55 -74.5t-69 -35.5h-3q-27 0 -71.5 26.5t-71.5 28.5q-49 2 -82 -35q-12 -14 -20 -12z" />
<glyph unicode="&#xe4;" d="M-43 57q0 55 66 123l-3 2q-16 -14 -18 -16q-27 -23 -33 -16q-4 8 15 26q39 37 79 64q61 41 146 77q102 43 199 43q45 0 62 -19t15 -46q39 41 57.5 48t80.5 7q66 0 65 -14q0 -6 -10 -19q-59 -72 -109 -135q-55 -74 -69.5 -100.5t0.5 -36.5q14 -12 51 4q31 12 86 57 q47 39 100 87q20 20 27 12q6 -6 -19 -31q-45 -45 -122 -106q-117 -90 -205 -91q-80 0 -92 54q-8 35 18 71l-2 2q-143 -127 -262 -127q-123 0 -123 80zM121 39q2 -20 26 -21q29 0 79 29t93 68q51 47 97.5 104t48.5 80q2 37 -37 37h-2q-53 0 -193 -135q-116 -117 -112 -162z M379 600q18 51 102 51h2q33 0 41 -20.5t-14 -46.5q-49 -57 -129 -76q-20 39 -2 92zM604 600q18 51 103 51h2q33 0 41 -20.5t-15 -46.5q-49 -57 -129 -76q-20 39 -2 92z" />
<glyph unicode="&#xe5;" d="M-43 57q0 55 66 123l-3 2q-16 -14 -18 -16q-27 -23 -33 -16q-4 8 15 26q39 37 79 64q61 41 146 77q102 43 199 43q45 0 62 -19t15 -46q39 41 57.5 48t80.5 7q66 0 65 -14q0 -6 -10 -19q-59 -72 -109 -135q-55 -74 -69.5 -100.5t0.5 -36.5q14 -12 51 4q31 12 86 57 q47 39 100 87q20 20 27 12q6 -6 -19 -31q-45 -45 -122 -106q-117 -90 -205 -91q-80 0 -92 54q-8 35 18 71l-2 2q-143 -127 -262 -127q-123 0 -123 80zM121 39q2 -20 26 -21q29 0 79 29t93 68q51 47 97.5 104t48.5 80q2 37 -37 37h-2q-53 0 -193 -135q-116 -117 -112 -162z M426 604q0 47 33 80t80 33h2q45 0 77.5 -34t32.5 -79t-32.5 -77.5t-79.5 -32.5t-80 32.5t-33 77.5zM477 604.5q0 -26.5 17.5 -44t44 -17.5t44 17.5t17.5 44t-17.5 44t-43.5 17.5h-2q-25 0 -42.5 -17.5t-17.5 -44z" />
<glyph unicode="&#xe6;" horiz-adv-x="876" d="M-43 57q0 55 66 123l-3 2q-14 -12 -18 -16q-27 -23 -33 -16q-4 8 15 26q31 31 79 64q72 49 146 77q72 29 166 43q88 12 94 -8q0 -4 -5 -7t-20.5 -7t-25.5 -8q-90 -37 -185 -129q-117 -117 -112 -162q2 -20 26 -21q29 0 79 29t93 68q84 76 218 237q14 16 36 17q55 0 58 -9 q0 -4 -6 -14l-13 -18l-10 -15q90 47 168 47q109 0 104.5 -63.5t-137.5 -126.5q-98 -47 -215 -64q-12 -20 -12 -43q0 -43 49 -43q82 0 201 78q63 43 117 92q20 16 26 10.5t-22 -32.5q-63 -57 -117 -94q-125 -86 -258 -92q-92 -4 -133 21.5t-41 62.5q0 20 8 34l-2 2 q-137 -123 -258 -125q-123 0 -123 80zM532 127q68 8 144 63q78 61 92 119q6 31 -20 31q-43 0 -121 -86q-64 -70 -95 -127z" />
<glyph unicode="&#xe7;" horiz-adv-x="509" d="M-86 -141q2 2 5 0t7 -7.5t8 -7.5q33 -29 99 -28h2q55 0 65 34q6 20 -6 36t-41 14q-10 0 -18 -4.5t-11.5 -5.5t-7.5 1q-8 6 4 19q29 33 76 74q-43 2 -79.5 24.5t-39.5 69.5q-2 51 50 106l-2 2q-2 -2 -11.5 -10t-11.5 -10q-27 -23 -33 -16q-4 8 15 26q37 33 67 55 q51 39 107 64q135 66 231 65q49 0 73.5 -23.5t18.5 -53.5q-4 -27 -26.5 -48.5t-42.5 -21.5q-51 0 -17 59q37 59 6 68q-35 8 -127 -86q-104 -104 -114 -182q-6 -47 47 -47q74 0 186 73q55 37 117 92q18 18 27 11q6 -6 -23 -33q-53 -49 -111 -88q-143 -98 -270 -98 q-39 -31 -53 -52q12 4 26 4q45 0 68 -21.5t18.5 -60t-47.5 -61t-108 -20.5q-82 2 -117 51q-20 27 -6 37z" />
<glyph unicode="&#xe8;" horiz-adv-x="509" d="M-31 150q-4 8 15 26q35 33 65 53q53 39 107 66q135 66 247 65h3q106 0 102 -63.5t-137 -126.5q-98 -47 -215 -64q-12 -20 -13 -43q0 -45 52 -45q78 0 198 80q68 45 121 97q16 12 23 6q6 -8 -25 -35q-53 -49 -117 -92q-125 -86 -256 -92q-162 -8 -162 96q0 53 50 106l-2 2 q-4 -4 -12.5 -11t-10.5 -9q-27 -22 -33 -16zM166 127q68 8 143 63q78 61 92 119q6 31 -20 31q-43 0 -121 -86q-63 -70 -94 -127zM344 678q0 25 19.5 38t42.5 13h2q39 0 45 -51q18 -123 24 -154q6 -25 2 -28q-8 -8 -24 12q-68 82 -103 141q-8 13 -8 29z" />
<glyph unicode="&#xe9;" horiz-adv-x="509" d="M-31 150q-4 8 15 26q35 33 65 53q53 39 107 66q135 66 247 65h3q106 0 102 -63.5t-137 -126.5q-98 -47 -215 -64q-12 -20 -13 -43q0 -45 52 -45q78 0 198 80q68 45 121 97q16 12 23 6q6 -8 -25 -35q-53 -49 -117 -92q-125 -86 -256 -92q-162 -8 -162 96q0 53 50 106l-2 2 q-4 -4 -12.5 -11t-10.5 -9q-27 -22 -33 -16zM166 127q68 8 143 63q78 61 92 119q6 31 -20 31q-43 0 -121 -86q-63 -70 -94 -127zM403 506q-4 4 15 26q43 53 104 152q25 45 56 47q39 4 51 -22q14 -33 -23 -70q-59 -59 -174 -129q-21 -12 -29 -4z" />
<glyph unicode="&#xea;" horiz-adv-x="509" d="M-31 150q-4 8 15 26q35 33 65 53q53 39 107 66q135 66 247 65h3q106 0 102 -63.5t-137 -126.5q-98 -47 -215 -64q-12 -20 -13 -43q0 -45 52 -45q78 0 198 80q68 45 121 97q16 12 23 6q6 -8 -25 -35q-53 -49 -117 -92q-125 -86 -256 -92q-162 -8 -162 96q0 53 50 106l-2 2 q-4 -4 -12.5 -11t-10.5 -9q-27 -22 -33 -16zM166 127q68 8 143 63q78 61 92 119q6 31 -20 31q-43 0 -121 -86q-63 -70 -94 -127zM262 479q-2 8 17 19q150 84 249 168q14 14 27 10q8 -2 12 -17q33 -90 76 -157q8 -12 6 -17q-4 -6 -26 2q-61 27 -111 70q-80 -39 -217 -78 q-31 -10 -33 0z" />
<glyph unicode="&#xeb;" horiz-adv-x="509" d="M-31 150q-4 8 15 26q35 33 65 53q53 39 107 66q135 66 247 65h3q106 0 102 -63.5t-137 -126.5q-98 -47 -215 -64q-12 -20 -13 -43q0 -45 52 -45q78 0 198 80q68 45 121 97q16 12 23 6q6 -8 -25 -35q-53 -49 -117 -92q-125 -86 -256 -92q-162 -8 -162 96q0 53 50 106l-2 2 q-4 -4 -12.5 -11t-10.5 -9q-27 -22 -33 -16zM166 127q68 8 143 63q78 61 92 119q6 31 -20 31q-43 0 -121 -86q-63 -70 -94 -127zM287 600q18 51 102 51h2q33 0 41 -20.5t-14 -46.5q-49 -57 -129 -76q-20 39 -2 92zM512 600q18 51 102 51h2q33 0 41.5 -20.5t-14.5 -46.5 q-49 -57 -129 -76q-20 39 -2 92z" />
<glyph unicode="&#xec;" horiz-adv-x="428" d="M-29 150q-8 6 13 26q84 76 147 117q94 59 188 59q82 0 82 -16q0 -6 -10 -17q-70 -76 -119 -137q-45 -55 -67 -100q-18 -37 -6 -45q10 -8 43 8q39 20 90 61q4 4 96 84q23 18 29 12.5t-17 -26.5q-59 -59 -121 -106q-119 -90 -217 -90q-90 0 -90 59q0 33 29 78 q29 51 89 118.5t85 79.5q-51 -18 -131 -79q-37 -29 -86 -74q-21 -18 -27 -12zM262 670q0 25 19.5 38t42.5 13h2q39 0 45 -51q18 -123 24 -154q6 -25 2 -29q-8 -8 -24 13q-68 82 -103 141q-8 13 -8 29z" />
<glyph unicode="&#xed;" horiz-adv-x="428" d="M-29 150q-8 6 13 26q84 76 147 117q94 59 188 59q82 0 82 -16q0 -6 -10 -17q-70 -76 -119 -137q-45 -55 -67 -100q-18 -37 -6 -45q10 -8 43 8q39 20 90 61q4 4 96 84q23 18 29 12.5t-17 -26.5q-59 -59 -121 -106q-119 -90 -217 -90q-90 0 -90 59q0 33 29 78 q29 51 89 118.5t85 79.5q-51 -18 -131 -79q-37 -29 -86 -74q-21 -18 -27 -12zM346 506q-4 4 14 26q43 53 105 152q25 45 55 47q39 4 51 -22q14 -33 -22 -70q-59 -59 -174 -129q-21 -12 -29 -4z" />
<glyph unicode="&#xee;" horiz-adv-x="428" d="M-29 150q-8 6 13 26q84 76 147 117q94 59 188 59q82 0 82 -16q0 -6 -10 -17q-70 -76 -119 -137q-45 -55 -67 -100q-18 -37 -6 -45q10 -8 43 8q39 20 90 61q4 4 96 84q23 18 29 12.5t-17 -26.5q-59 -59 -121 -106q-119 -90 -217 -90q-90 0 -90 59q0 33 29 78 q29 51 89 118.5t85 79.5q-51 -18 -131 -79q-37 -29 -86 -74q-21 -18 -27 -12zM152 479q-2 8 16 19q150 84 250 168q14 14 26 10q8 -2 13 -17q33 -90 75 -157q8 -12 7 -17q-4 -6 -27 2q-61 27 -111 70q-80 -39 -217 -78q-30 -10 -32 0z" />
<glyph unicode="&#xef;" horiz-adv-x="428" d="M-29 150q-8 6 13 26q84 76 147 117q94 59 188 59q82 0 82 -16q0 -6 -10 -17q-70 -76 -119 -137q-45 -55 -67 -100q-18 -37 -6 -45q10 -8 43 8q39 20 90 61q4 4 96 84q23 18 29 12.5t-17 -26.5q-59 -59 -121 -106q-119 -90 -217 -90q-90 0 -90 59q0 33 29 78 q29 51 89 118.5t85 79.5q-51 -18 -131 -79q-37 -29 -86 -74q-21 -18 -27 -12zM236 600q18 51 102 51h2q33 0 41 -20.5t-14 -46.5q-49 -57 -129 -76q-20 39 -2 92zM461 600q18 51 102 51h2q33 0 41 -20.5t-14 -46.5q-49 -57 -129 -76q-20 39 -2 92z" />
<glyph unicode="&#xf0;" horiz-adv-x="659" d="M-33 147q-4 8 13 25q27 27 69 57q27 20 78 50q145 82 268 81q43 -2 60.5 -26.5t11.5 -52.5q23 31 44 97t21 122q0 23 -2 32q-57 -20 -118 -40l-68 -23q-27 -8 -29 2q-4 10 23 23q35 18 182 81q-31 137 -153 144q-45 2 -45 4q-2 4 3 8t15 7t27 3q195 12 276 -112 q84 33 111 43q43 16 53 -15q8 -25 -39 -43q-33 -12 -102 -36q12 -33 16 -89q8 -236 -203 -403q-129 -104 -325 -104q-160 0 -164 102q-4 57 49 111l-2 2q-4 -2 -8 -7.5t-12.5 -11.5t-14.5 -12q-29 -25 -35 -19zM141 37q-8 -33 27 -33q27 0 80 39t94 84q88 98 102 164 q4 23 -14 26q-43 10 -166 -100q-45 -41 -81 -94t-42 -86z" />
<glyph unicode="&#xf1;" horiz-adv-x="890" d="M-33 150q-4 6 15 24q66 61 106 92q121 94 205 94q82 0 82 -55q0 -31 -45 -90q-27 -37 -94 -117l4 -4q66 57 194 150q166 117 275 116q45 0 67.5 -17t20.5 -48q-2 -35 -74 -125q-51 -66 -61 -82q-23 -35 -5 -47q16 -10 52 10q47 25 84 55q35 29 102 89q18 14 24.5 8 t-6.5 -19q-80 -74 -135 -114q-113 -84 -200 -86q-66 -2 -87.5 23.5t-15.5 60.5q6 39 70 116q78 94 82 101q16 20 -4 26q-18 6 -64 -16q-66 -35 -147 -94q-98 -70 -236 -183q-25 -20 -102 -26q-47 -2 -59.5 4t-2.5 29q20 43 94 137q10 14 42 53t46.5 59.5t4.5 28.5 q-10 6 -33 -8q-41 -27 -72 -51q-51 -41 -92 -78q-27 -24 -35 -16zM414 506q-10 4 0 24q23 43 59.5 76t77.5 31q29 -2 68.5 -26.5t64.5 -26.5q47 -2 82 37q12 14 20 12q12 -4 0 -25q-20 -39 -55 -74.5t-69 -35.5h-3q-27 0 -71.5 26.5t-71.5 28.5q-49 2 -82 -35 q-12 -14 -20 -12z" />
<glyph unicode="&#xf2;" horiz-adv-x="645" d="M-33 147q-4 8 13 25q27 27 69 57q27 20 78 50q145 82 258 81q55 0 55 -14l-32 -16q-63 -31 -148 -113q-43 -43 -80 -99.5t-37 -88.5q0 -27 27 -27q72 0 207 131q-4 43 31 96q18 25 67 66q0 14 -4 27q-2 6 -5 13t-3 9t2 6q10 10 53 -16q41 -25 41 -72q0 -84 -115 -178 q6 -6 23 -6q39 0 82 32.5t100 84.5q14 14 22.5 8t-1.5 -17q-68 -61 -113 -94q-51 -35 -94 -35q-27 0 -39 13q-41 -33 -124 -60.5t-142 -27.5q-164 0 -168 102q-4 57 49 111l-2 2q-4 -2 -8 -7.5t-12.5 -11.5t-14.5 -12q-29 -25 -35 -19zM393 678q0 25 19.5 38t42.5 13h2 q39 0 45 -51q18 -123 24 -154q6 -25 2 -28q-8 -8 -24 12q-68 82 -103 141q-8 13 -8 29z" />
<glyph unicode="&#xf3;" horiz-adv-x="645" d="M-33 147q-4 8 13 25q27 27 69 57q27 20 78 50q145 82 258 81q55 0 55 -14l-32 -16q-63 -31 -148 -113q-43 -43 -80 -99.5t-37 -88.5q0 -27 27 -27q72 0 207 131q-4 43 31 96q18 25 67 66q0 14 -4 27q-2 6 -5 13t-3 9t2 6q10 10 53 -16q41 -25 41 -72q0 -84 -115 -178 q6 -6 23 -6q39 0 82 32.5t100 84.5q14 14 22.5 8t-1.5 -17q-68 -61 -113 -94q-51 -35 -94 -35q-27 0 -39 13q-41 -33 -124 -60.5t-142 -27.5q-164 0 -168 102q-4 57 49 111l-2 2q-4 -2 -8 -7.5t-12.5 -11.5t-14.5 -12q-29 -25 -35 -19zM453 506q-4 4 14 26q43 53 104 152 q25 45 56 47q39 4 51 -22q14 -33 -23 -70q-59 -59 -174 -129q-20 -12 -28 -4z" />
<glyph unicode="&#xf4;" horiz-adv-x="645" d="M-33 147q-4 8 13 25q27 27 69 57q27 20 78 50q145 82 258 81q55 0 55 -14l-32 -16q-63 -31 -148 -113q-43 -43 -80 -99.5t-37 -88.5q0 -27 27 -27q72 0 207 131q-4 43 31 96q18 25 67 66q0 14 -4 27q-2 6 -5 13t-3 9t2 6q10 10 53 -16q41 -25 41 -72q0 -84 -115 -178 q6 -6 23 -6q39 0 82 32.5t100 84.5q14 14 22.5 8t-1.5 -17q-68 -61 -113 -94q-51 -35 -94 -35q-27 0 -39 13q-41 -33 -124 -60.5t-142 -27.5q-164 0 -168 102q-4 57 49 111l-2 2q-4 -2 -8 -7.5t-12.5 -11.5t-14.5 -12q-29 -25 -35 -19zM262 479q-2 8 17 19q150 84 249 168 q14 14 27 10q8 -2 12 -17q33 -90 76 -157q8 -12 6 -17q-4 -6 -26 2q-61 27 -111 70q-80 -39 -217 -78q-31 -10 -33 0z" />
<glyph unicode="&#xf5;" horiz-adv-x="645" d="M-33 147q-4 8 13 25q27 27 69 57q27 20 78 50q145 82 258 81q55 0 55 -14l-32 -16q-63 -31 -148 -113q-43 -43 -80 -99.5t-37 -88.5q0 -27 27 -27q72 0 207 131q-4 43 31 96q18 25 67 66q0 14 -4 27q-2 6 -5 13t-3 9t2 6q10 10 53 -16q41 -25 41 -72q0 -84 -115 -178 q6 -6 23 -6q39 0 82 32.5t100 84.5q14 14 22.5 8t-1.5 -17q-68 -61 -113 -94q-51 -35 -94 -35q-27 0 -39 13q-41 -33 -124 -60.5t-142 -27.5q-164 0 -168 102q-4 57 49 111l-2 2q-4 -2 -8 -7.5t-12.5 -11.5t-14.5 -12q-29 -25 -35 -19zM272 506q-10 4 0 24q23 43 60 76 t78 31q29 -2 68.5 -26.5t64.5 -26.5q47 -2 82 37q12 14 20 12q12 -4 0 -25q-20 -39 -55 -74.5t-70 -35.5h-2q-27 0 -72 26.5t-71 28.5q-49 2 -82 -35q-13 -14 -21 -12z" />
<glyph unicode="&#xf6;" horiz-adv-x="645" d="M-33 147q-4 8 13 25q27 27 69 57q27 20 78 50q145 82 258 81q55 0 55 -14l-32 -16q-63 -31 -148 -113q-43 -43 -80 -99.5t-37 -88.5q0 -27 27 -27q72 0 207 131q-4 43 31 96q18 25 67 66q0 14 -4 27q-2 6 -5 13t-3 9t2 6q10 10 53 -16q41 -25 41 -72q0 -84 -115 -178 q6 -6 23 -6q39 0 82 32.5t100 84.5q14 14 22.5 8t-1.5 -17q-68 -61 -113 -94q-51 -35 -94 -35q-27 0 -39 13q-41 -33 -124 -60.5t-142 -27.5q-164 0 -168 102q-4 57 49 111l-2 2q-4 -2 -8 -7.5t-12.5 -11.5t-14.5 -12q-29 -25 -35 -19zM322 600q18 51 102 51h2 q33 0 41 -20.5t-14 -46.5q-49 -57 -129 -76q-20 39 -2 92zM547 600q18 51 102 51h2q33 0 41 -20.5t-14 -46.5q-49 -57 -129 -76q-20 39 -2 92z" />
<glyph unicode="&#xf7;" horiz-adv-x="653" d="M98 264q4 39 52 35q66 -2 228.5 -8t231.5 -10q27 0 27 -17v-2q0 -10 -39 -10q-371 -12 -446 -14q-54 -1 -54 26zM260 61q-23 27 0 70q18 41 76 41h2q29 0 35 -16.5t-13 -38.5q-16 -20 -49 -38t-51 -18zM375 354q-18 27 0 70q18 41 80 41h2q27 0 33 -15.5t-11 -35.5 q-16 -25 -50 -42.5t-54 -17.5z" />
<glyph unicode="&#xf8;" horiz-adv-x="645" d="M-33 147q-4 8 13 25q27 27 69 57q27 20 78 50q106 63 227 81q70 10 123 -4q20 18 66 64q39 39 49 26q10 -10 -31 -49q-10 -8 -29.5 -26.5t-27.5 -26.5q55 -31 55 -82q0 -84 -115 -178q6 -6 23 -6q39 0 82 32.5t100 84.5q14 14 22.5 8t-1.5 -17q-68 -61 -113 -94 q-51 -35 -94 -35q-27 0 -39 13q-41 -31 -121 -59.5t-147 -30.5q-18 0 -31 2q-37 -35 -72 -70q-16 -16 -22 -8q-4 8 10 22l59 60q-106 16 -110 98q-4 57 49 111l-2 2q-4 -2 -8 -7.5t-12.5 -11.5t-14.5 -12q-29 -25 -35 -19zM141 27q43 43 157 154.5t161 156.5q-4 2 -15 2h-2 q-59 0 -184 -121q-70 -68 -106 -151q-11 -27 -11 -41zM152 6q8 -4 18 -4h2q33 0 94.5 41t110.5 90q-4 43 31 96q27 39 71 66q0 12 -4 24q-182 -178 -323 -313z" />
<glyph unicode="&#xf9;" horiz-adv-x="823" d="M-29 150q-8 6 13 26q84 76 147 117q94 59 182 59q78 0 78 -14q0 -8 -10 -19q-90 -106 -117 -139q-55 -68 -78 -110q-14 -25 -1.5 -35t46.5 8q53 27 154 104q49 39 118.5 103.5t92.5 83.5q29 23 96 22q78 0 78 -12q0 -6 -10 -20q-61 -76 -106.5 -143.5t-59.5 -92.5 q-18 -33 -4 -45t51 6q35 16 82 55q59 49 104 91q16 16 25 8q6 -8 -25 -35q-53 -49 -116 -100q-111 -90 -203 -91q-113 0 -102 89q2 33 32 73q6 8 39 51l-4 5q-51 -45 -119 -97q-158 -119 -258 -118q-92 0 -92 65q0 33 35 84t91 111.5t85 74.5q-51 -18 -131 -79 q-39 -31 -84 -72q-23 -20 -29 -14zM457 664q0 25 19.5 38t41.5 13h2q39 0 45 -51q18 -123 25 -154q4 -27 2 -29q-8 -8 -25 13q-68 82 -102 141q-8 13 -8 29z" />
<glyph unicode="&#xfa;" horiz-adv-x="823" d="M-29 150q-8 6 13 26q84 76 147 117q94 59 182 59q78 0 78 -14q0 -8 -10 -19q-90 -106 -117 -139q-55 -68 -78 -110q-14 -25 -1.5 -35t46.5 8q53 27 154 104q49 39 118.5 103.5t92.5 83.5q29 23 96 22q78 0 78 -12q0 -6 -10 -20q-61 -76 -106.5 -143.5t-59.5 -92.5 q-18 -33 -4 -45t51 6q35 16 82 55q59 49 104 91q16 16 25 8q6 -8 -25 -35q-53 -49 -116 -100q-111 -90 -203 -91q-113 0 -102 89q2 33 32 73q6 8 39 51l-4 5q-51 -45 -119 -97q-158 -119 -258 -118q-92 0 -92 65q0 33 35 84t91 111.5t85 74.5q-51 -18 -131 -79 q-39 -31 -84 -72q-23 -20 -29 -14zM506 506q-4 4 14 26q43 53 105 152q25 45 55 47q39 4 51 -22q14 -33 -22 -70q-59 -59 -174 -129q-21 -12 -29 -4z" />
<glyph unicode="&#xfb;" horiz-adv-x="823" d="M-29 150q-8 6 13 26q84 76 147 117q94 59 182 59q78 0 78 -14q0 -8 -10 -19q-90 -106 -117 -139q-55 -68 -78 -110q-14 -25 -1.5 -35t46.5 8q53 27 154 104q49 39 118.5 103.5t92.5 83.5q29 23 96 22q78 0 78 -12q0 -6 -10 -20q-61 -76 -106.5 -143.5t-59.5 -92.5 q-18 -33 -4 -45t51 6q35 16 82 55q59 49 104 91q16 16 25 8q6 -8 -25 -35q-53 -49 -116 -100q-111 -90 -203 -91q-113 0 -102 89q2 33 32 73q6 8 39 51l-4 5q-51 -45 -119 -97q-158 -119 -258 -118q-92 0 -92 65q0 33 35 84t91 111.5t85 74.5q-51 -18 -131 -79 q-39 -31 -84 -72q-23 -20 -29 -14zM362 489q-2 6 17 19q150 84 250 168q14 14 26 10q8 -2 13 -16q33 -90 75 -158q8 -12 7 -16q-4 -6 -27 2q-61 27 -111 69q-80 -39 -217 -78q-31 -10 -33 0z" />
<glyph unicode="&#xfc;" horiz-adv-x="823" d="M-29 150q-8 6 13 26q84 76 147 117q94 59 182 59q78 0 78 -14q0 -8 -10 -19q-90 -106 -117 -139q-55 -68 -78 -110q-14 -25 -1.5 -35t46.5 8q53 27 154 104q49 39 118.5 103.5t92.5 83.5q29 23 96 22q78 0 78 -12q0 -6 -10 -20q-61 -76 -106.5 -143.5t-59.5 -92.5 q-18 -33 -4 -45t51 6q35 16 82 55q59 49 104 91q16 16 25 8q6 -8 -25 -35q-53 -49 -116 -100q-111 -90 -203 -91q-113 0 -102 89q2 33 32 73q6 8 39 51l-4 5q-51 -45 -119 -97q-158 -119 -258 -118q-92 0 -92 65q0 33 35 84t91 111.5t85 74.5q-51 -18 -131 -79 q-39 -31 -84 -72q-23 -20 -29 -14zM416 600q18 51 102 51h2q33 0 41 -20.5t-14 -46.5q-49 -57 -129 -76q-20 39 -2 92zM641 600q18 51 102 51h2q33 0 41.5 -20.5t-14.5 -46.5q-49 -57 -129 -76q-20 39 -2 92z" />
<glyph unicode="&#xfd;" horiz-adv-x="811" d="M-150 -784q0 63 76 172q141 207 283 401q39 53 152.5 212t183.5 253l-4 2q-18 -18 -68 -61q-49 -45 -119 -97q-158 -119 -258 -118q-92 0 -92 65q0 33 35 84q39 55 92 113.5t84 72.5q-51 -18 -131 -79q-37 -29 -86 -74q-20 -18 -27 -12q-8 6 13 26q84 76 147 117 q94 59 182 59q78 0 78 -14q0 -8 -10 -19q-90 -106 -117 -139q-47 -59 -78 -112q-14 -27 -4 -35q12 -8 49 10q53 27 154 104q49 39 118.5 103.5t92.5 83.5q29 23 121 22q78 0 78 -12q0 -6 -11 -20q-41 -47 -131 -164q-111 -143 -270 -363q-260 -354 -363 -524 q-25 -39 -14 -43q10 -6 27 14q12 14 164 226q117 162 225 301q119 152 260 299q55 55 129 120q20 18 27 13q8 -8 -21 -33q-104 -96 -121 -115q-129 -133 -258 -297q-74 -96 -245 -333q-152 -213 -179 -234q-43 -35 -100 -33q-64 3 -64 58zM524 496q-4 4 15 26q43 53 104 152 q25 45 55 47q39 4 52 -23q14 -33 -23 -69q-59 -59 -174 -129q-21 -12 -29 -4z" />
<glyph unicode="&#xfe;" horiz-adv-x="819" d="M-588 -784q0 53 80 172q150 223 283 403q211 289 432 563q-135 -123 -205 -188q-25 -20 -31 -14q-4 8 11 22q88 82 155 143q16 16 39 38t58.5 56.5t62.5 61.5q16 16 89 99t112 124q35 41 141 148q70 66 131 65q29 0 49.5 -8t22.5 -16q-174 -174 -367 -408 q-274 -338 -524 -678q-209 -281 -367 -526q-20 -33 -12 -41q10 -6 25 12q29 33 161 221q29 43 236 318q123 166 246 311q92 111 180 176q127 90 217 90q51 0 74.5 -19t19.5 -50q-2 -10 -6 -21.5t-15.5 -27t-17.5 -23.5t-21.5 -27.5t-19.5 -23.5q-53 -66 -63 -84 q-18 -31 -6 -41q14 -12 49 6q43 23 90 57q31 25 98 84q20 23 28.5 15t-5.5 -21q-84 -78 -135 -114q-121 -86 -213 -86q-86 0 -91 61q-2 47 70 139q27 33 88 103q16 23 -2 26q-16 6 -43 -8q-104 -53 -211 -170q-127 -141 -301 -373q-162 -215 -248 -337q-129 -190 -178 -232 q-37 -33 -100 -33q-31 0 -48.5 15.5t-17.5 40.5z" />
<glyph unicode="&#xff;" horiz-adv-x="811" d="M-150 -784q0 63 76 172q141 207 283 401q39 53 152.5 212t183.5 253l-4 2q-18 -18 -68 -61q-49 -45 -119 -97q-158 -119 -258 -118q-92 0 -92 65q0 33 35 84q39 55 92 113.5t84 72.5q-51 -18 -131 -79q-37 -29 -86 -74q-20 -18 -27 -12q-8 6 13 26q84 76 147 117 q94 59 182 59q78 0 78 -14q0 -8 -10 -19q-90 -106 -117 -139q-47 -59 -78 -112q-14 -27 -4 -35q12 -8 49 10q53 27 154 104q49 39 118.5 103.5t92.5 83.5q29 23 121 22q78 0 78 -12q0 -6 -11 -20q-41 -47 -131 -164q-111 -143 -270 -363q-260 -354 -363 -524 q-25 -39 -14 -43q10 -6 27 14q12 14 164 226q117 162 225 301q119 152 260 299q55 55 129 120q20 18 27 13q8 -8 -21 -33q-104 -96 -121 -115q-129 -133 -258 -297q-74 -96 -245 -333q-152 -213 -179 -234q-43 -35 -100 -33q-64 3 -64 58zM420 600q18 51 102 51h2 q33 0 41 -20.5t-14 -46.5q-49 -57 -129 -76q-20 39 -2 92zM645 600q18 51 103 51h2q33 0 41 -20.5t-15 -46.5q-49 -57 -129 -76q-20 39 -2 92z" />
<glyph unicode="&#x152;" horiz-adv-x="1550" d="M43 139q-29 123 35.5 247t157.5 204q174 154 364.5 219t362.5 47q152 -16 163 -113q8 -61 -32 -102q-20 -20 -27 -14q-2 2 18 24q27 33 17 90q-6 39 -51 63.5t-88 24.5q-145 2 -297 -90t-265 -207q-92 -94 -152.5 -220t-37.5 -222q25 -100 137 -102q207 -6 467 311 q152 190 168 328q4 33 -14.5 57.5t-55.5 22.5q-10 0 -18 -2.5t-12 -4.5t-8.5 -3t-5.5 -2t-3 1q-2 4 3 9.5t18.5 11.5t27.5 6q53 4 87 -27.5t34 -95.5q0 -102 -41 -192q68 35 187 61q-29 33 -29 86q0 37 23.5 83t62.5 77q-25 20 -25 67q0 18 4.5 32.5t8.5 21t8 4.5q2 -4 1 -5 t-3 -16.5t-2 -36.5q0 -39 22 -57q55 43 160 78q137 47 299 47q96 0 157.5 -37t61.5 -90q-2 -66 -98 -112t-221 -46q-74 0 -151 18.5t-111 43.5q-27 -27 -39 -76q-12 -37 -6 -64q59 6 102 5q115 -4 109 -52q-6 -41 -113 -41q-139 0 -209 54q-68 -25 -137 -88 q-39 -35 -74 -88.5t-45 -94.5q-29 -111 18.5 -165t176.5 -46q137 10 276 105q37 25 143 117q16 16 25 8q6 -6 -23 -33q-90 -82 -149 -121q-162 -109 -332 -123h-2q-334 -27 -338 182q-223 -143 -411 -137q-96 2 -177.5 41t-101.5 129zM1309 471q6 -20 34.5 -34.5t61.5 -16.5 q72 -4 74 26q2 14 -16.5 20.5t-55.5 8.5q-71 0 -98 -4zM1360 641q27 -18 102.5 -37.5t145.5 -19.5q100 0 181 34.5t83 98.5q4 45 -37 79.5t-123 34.5h-2q-96 0 -213 -71q-88 -56 -137 -119z" />
<glyph unicode="&#x153;" horiz-adv-x="894" d="M-33 147q-4 8 13 25q27 27 69 57q27 20 78 50q145 82 258 81q55 0 55 -14l-32 -16q-63 -31 -148 -113q-43 -43 -80 -99.5t-37 -88.5q0 -27 27 -27q76 0 207 131q37 37 61 76q39 63 31 108q-6 31 -4 33q4 4 21.5 -1t31.5 -15q23 -14 35 -39q37 27 109 47q61 18 126 18 q109 0 105 -63.5t-137 -126.5q-98 -47 -215 -64q-12 -20 -13 -43q0 -43 52 -43q80 0 198 78q63 43 117 92q20 16 26.5 10.5t-22.5 -32.5q-63 -57 -117 -94q-125 -86 -258 -92q-129 -6 -162 53q-111 -53 -204 -53q-164 0 -168 102q-4 57 49 111l-2 2q-4 -2 -8 -7.5 t-12.5 -11.5t-14.5 -12q-29 -25 -35 -19zM551 127q68 8 143 63q78 61 92 119q6 31 -20 31q-43 0 -121 -86q-63 -70 -94 -127z" />
<glyph unicode="&#x178;" horiz-adv-x="1155" d="M-94 -659q6 82 97 182t208 178q180 125 401 170q193 276 299 420q-322 -309 -508 -309q-115 0 -118 81q-2 102 247 383q190 217 213 314q8 43 -13 64.5t-54 21.5q-176 0 -363 -182q-164 -160 -163 -267q0 -84 71 -86q37 -2 76 23q8 6 18 14q8 8 13 6q8 -8 -25 -32 q-39 -27 -84 -27q-43 0 -72.5 27.5t-37.5 72.5q-12 74 27.5 167t117.5 157q176 147 434 147q96 0 153.5 -31.5t55.5 -91.5q-2 -61 -52 -134.5t-147 -186.5q-238 -274 -249 -354q-2 -20 7 -29.5t27 -7.5q84 4 209 100q88 63 149.5 122.5t149.5 164.5q238 266 322 340 q45 41 115.5 80t121.5 28q20 -2 27.5 -16t3.5 -32.5t-18 -37.5q-41 -55 -142 -135q-123 -102 -166 -143q-94 -125 -266 -365q-31 -43 -68.5 -97t-63.5 -90l-46 -65q154 4 237 -64.5t66 -182.5q-2 -14 -7 -24.5t-9 -15t-6 -1.5q-4 2 -2 10l4 28q12 111 -68 174.5t-231 55.5 q-104 -152 -215 -275q-141 -162 -305 -248.5t-271 -86.5q-47 0 -75.5 20.5t-24.5 65.5zM-25 -664q-6 -51 37 -59q57 -8 133 37q117 74 263 274q23 29 51 70t68 95t67 91q-195 -47 -361 -161q-90 -61 -171 -163t-87 -184zM1018 1051q20 45 94 45q29 0 36 -17.5t-13 -44.5 q-25 -29 -60 -47t-55 -18q-25 29 -2 82zM1262 969q-20 29 0 82q18 45 96 45q29 0 35 -17.5t-15 -44.5q-23 -27 -58 -46t-58 -19zM1305 569l104 86q70 57 115 111q55 63 30.5 79.5t-98.5 -77.5q-55 -70 -151 -199z" />
<glyph unicode="&#x2c6;" horiz-adv-x="628" d="M260 479q-2 8 16 19q150 84 250 168q14 14 27 10q8 -2 12 -17q33 -90 76 -157q8 -12 6 -17q-4 -6 -26 2q-61 27 -111 70q-80 -39 -217 -78q-31 -10 -33 0z" />
<glyph unicode="&#x2dc;" horiz-adv-x="628" d="M311 506q-10 4 0 24q23 43 60 76t78 31q29 -2 68.5 -26.5t64.5 -26.5q47 -2 82 37q12 14 20 12q12 -4 0 -25q-20 -39 -55 -74.5t-70 -35.5h-2q-27 0 -72 26.5t-71 28.5q-49 2 -82 -35q-13 -14 -21 -12z" />
<glyph unicode="&#x2000;" horiz-adv-x="768" />
<glyph unicode="&#x2001;" horiz-adv-x="1536" />
<glyph unicode="&#x2002;" horiz-adv-x="768" />
<glyph unicode="&#x2003;" horiz-adv-x="1536" />
<glyph unicode="&#x2004;" horiz-adv-x="512" />
<glyph unicode="&#x2005;" horiz-adv-x="382" />
<glyph unicode="&#x2006;" horiz-adv-x="256" />
<glyph unicode="&#x2007;" horiz-adv-x="256" />
<glyph unicode="&#x2008;" horiz-adv-x="190" />
<glyph unicode="&#x2009;" horiz-adv-x="307" />
<glyph unicode="&#x200a;" horiz-adv-x="83" />
<glyph unicode="&#x2010;" horiz-adv-x="536" d="M58 176q-1 4 1 6t15 -2q14 -4 39 0q47 10 110 49q55 35 105 35q57 0 83.5 -34.5t22.5 -90.5q0 -14 -8 -14q-2 0 -10 8q-25 29 -94 29q-27 0 -81.5 -10.5t-97.5 -10.5q-59 0 -82 29q-2 2 -3 6z" />
<glyph unicode="&#x2011;" horiz-adv-x="536" d="M58 176q-1 4 1 6t15 -2q14 -4 39 0q47 10 110 49q55 35 105 35q57 0 83.5 -34.5t22.5 -90.5q0 -14 -8 -14q-2 0 -10 8q-25 29 -94 29q-27 0 -81.5 -10.5t-97.5 -10.5q-59 0 -82 29q-2 2 -3 6z" />
<glyph unicode="&#x2012;" horiz-adv-x="536" d="M58 176q-1 4 1 6t15 -2q14 -4 39 0q47 10 110 49q55 35 105 35q57 0 83.5 -34.5t22.5 -90.5q0 -14 -8 -14q-2 0 -10 8q-25 29 -94 29q-27 0 -81.5 -10.5t-97.5 -10.5q-59 0 -82 29q-2 2 -3 6z" />
<glyph unicode="&#x2013;" horiz-adv-x="729" d="M94 203q4 39 60 37q51 -2 217 -9.5t247 -11.5q45 -2 46 -18v-2q0 -14 -43 -15q-82 -4 -161 -7t-167 -6t-141 -5q-62 -2 -58 37z" />
<glyph unicode="&#x2014;" horiz-adv-x="1130" d="M94 203q4 41 53 37q55 -2 261 -6.5t372 -7.5t230 -5q51 0 51 -18v-2q0 -16 -49 -17q-522 -14 -860 -18q-29 0 -44.5 9.5t-13.5 27.5z" />
<glyph unicode="&#x2018;" horiz-adv-x="282" d="M178 530v2q0 8 12 27q59 96 166 174q16 12 22.5 10t-9.5 -24q-49 -63 -54 -103q-2 -12 5.5 -27.5t7.5 -27.5q0 -14 -31 -29.5t-76 -21.5q-43 -7 -43 20z" />
<glyph unicode="&#x2019;" horiz-adv-x="282" d="M139 492q-4 6 17 26q59 59 80 103q6 12 -2.5 34.5t-4.5 30.5q4 12 43 25.5t82 15.5q33 2 33 -18v-2q0 -8 -18 -31q-61 -78 -201 -174q-25 -18 -29 -10z" />
<glyph unicode="&#x201a;" horiz-adv-x="323" d="M-41 -92q-4 6 16 26q59 59 80 103q6 12 -2 34.5t-4 30.5q4 12 43 25.5t82 15.5q33 2 33 -18v-2q0 -8 -19 -31q-61 -78 -200 -174q-25 -18 -29 -10z" />
<glyph unicode="&#x201c;" horiz-adv-x="487" d="M178 530v2q0 8 12 27q59 96 166 174q16 12 22.5 10t-9.5 -24q-49 -63 -54 -103q-2 -12 5.5 -27.5t7.5 -27.5q0 -14 -31 -29.5t-76 -21.5q-43 -7 -43 20zM383 530v2q0 8 12 27q59 96 166 174q16 12 22.5 10t-10.5 -24q-49 -63 -53 -103q-2 -12 5 -27.5t7 -27.5 q0 -14 -30.5 -29.5t-75.5 -21.5q-43 -7 -43 20z" />
<glyph unicode="&#x201d;" horiz-adv-x="487" d="M139 492q-4 6 17 26q59 59 80 103q6 12 -2.5 34.5t-4.5 30.5q4 12 43 25.5t82 15.5q33 2 33 -18v-2q0 -8 -18 -31q-61 -78 -201 -174q-25 -18 -29 -10zM344 492q-4 6 16 26q59 59 80 103q6 12 -2 34.5t-4 30.5q4 12 43 25.5t82 15.5q33 2 33 -18v-2q0 -8 -19 -31 q-61 -78 -200 -174q-25 -18 -29 -10z" />
<glyph unicode="&#x201e;" horiz-adv-x="534" d="M-41 -92q-4 6 16 26q59 59 80 103q6 12 -2 34.5t-4 30.5q4 12 43 25.5t82 15.5q33 2 33 -18v-2q0 -8 -19 -31q-61 -78 -200 -174q-25 -18 -29 -10zM139 -92q-4 6 17 26q59 59 80 103q6 12 -2.5 34.5t-4.5 30.5q4 12 43 25.5t82 15.5q33 2 33 -18v-2q0 -8 -18 -31 q-61 -78 -201 -174q-25 -18 -29 -10z" />
<glyph unicode="&#x2022;" horiz-adv-x="608" d="M205 301q0 55 39 94t94 39h2q53 0 92 -39t39 -94t-39 -94t-94 -39t-94 39t-39 94z" />
<glyph unicode="&#x2026;" horiz-adv-x="950" d="M38 25.5q-1 31.5 9 60.5q20 57 119 57h2q35 0 43 -22.5t-16 -54.5q-53 -63 -146 -84q-10 12 -11 43.5zM355 25.5q-1 31.5 10 60.5q23 57 120 57h2q33 0 41.5 -22.5t-16.5 -54.5q-51 -63 -145 -84q-11 12 -12 43.5zM675 25.5q-1 31.5 9 60.5q20 57 119 57h2q35 0 43 -22.5 t-17 -54.5q-53 -63 -145 -84q-10 12 -11 43.5z" />
<glyph unicode="&#x202f;" horiz-adv-x="307" />
<glyph unicode="&#x2039;" horiz-adv-x="428" d="M63.5 203q2.5 8 26.5 16q172 68 244 113q14 10 16 8q10 -6 -2 -25q-57 -82 -139 -137q18 -55 31 -147q4 -20 -4 -23q-6 -2 -19 15q-10 12 -139 155q-17 17 -14.5 25z" />
<glyph unicode="&#x203a;" horiz-adv-x="428" d="M25 10q-10 6 2 25q20 29 60 70.5t79 66.5q-18 55 -31 147q-4 20 4 23q6 2 19 -14q59 -72 139 -156q16 -16 14 -24.5t-26 -16.5q-172 -68 -244 -113q-14 -10 -16 -8z" />
<glyph unicode="&#x205f;" horiz-adv-x="382" />
<glyph unicode="&#x20ac;" horiz-adv-x="1015" d="M-16 221q0 33 53 33q10 0 36.5 -1t67.5 -1q12 25 29 53h-102q-51 0 -52 12q0 14 15.5 22.5t31.5 8.5q2 0 134 -4q66 90 188 176q211 145 422 146q92 0 141 -48.5t49 -115.5q0 -47 -26.5 -79t-61.5 -32q-23 0 -34 15.5t-7 39.5q4 23 24.5 49.5t22.5 34.5q8 37 -17.5 77 t-90.5 40q-176 0 -334 -178q-53 -59 -98 -127q43 -2 134 -2t134 -2q37 0 37 -12q0 -10 -37 -11q-182 -4 -287 -8q-12 -20 -32 -61q27 0 106.5 -2t126.5 0q37 0 37 -8q0 -12 -37 -13q-51 -2 -246 -6q-27 -74 -26 -125q0 -143 153 -143q135 0 299 106q76 49 142 111 q29 25 32 20q10 -6 -18 -34q-66 -66 -145 -119q-184 -121 -336 -123q-154 -2 -232 48t-78 138q0 57 23 113q-68 2 -88 2q-53 0 -53 10z" />
<glyph unicode="&#x2122;" horiz-adv-x="1046" d="M186 563l9 80h262l8 -80l-31 -4q-8 41 -19.5 48t-49.5 7v-63v-72q0 -31 9 -41t36 -12v-31h-166v31q27 2 35 13.5t8 39.5v72v63q-39 0 -50.5 -7t-21.5 -48zM471 395v31q16 2 21.5 11t13.5 46q8 47 12 92q2 23 -3 30t-28 11v27h119q20 -49 35 -82q6 -12 14.5 -31.5 t14.5 -31.5l67 145h121v-27q-33 -2 -29 -45q0 -12 2.5 -36.5t3.5 -43t1 -26.5q2 -20 10 -27.5t31 -11.5v-31h-158v31q20 4 26.5 11t6.5 30q0 72 -4 133q-27 -51 -43 -88q-41 -90 -50 -111l-24 -6q-16 43 -47 115q-4 12 -13.5 31.5t-15.5 35t-10 27.5q-12 -106 -12.5 -133 t5 -35t21.5 -10v-31h-88z" />
<glyph unicode="&#xe000;" horiz-adv-x="360" d="M0 360h360v-360h-360v360z" />
<glyph unicode="&#xfb01;" horiz-adv-x="821" d="M-551 -797q14 37 128 211t263 383q61 86 168 226q12 43 17.5 111.5t19.5 98.5q41 92 191 105q178 236 210 274q276 328 498 471q51 35 117.5 59.5t112.5 22.5q37 -2 55 -22.5t14 -50.5q-10 -68 -114.5 -170.5t-292.5 -253.5q-35 -27 -194 -147t-228 -183q27 2 80 3t81 1 q141 0 181 6q29 2 35 -7t-11 -26q-74 -82 -114 -133q-45 -55 -68 -100q-18 -37 -6 -45q10 -8 43 8q39 20 90 61q4 4 96 84q23 18 29 12.5t-16 -26.5q-59 -59 -121 -106q-119 -90 -217 -90q-90 0 -90 59q0 33 28 78q43 70 109 137q12 14 26.5 27.5t26.5 24.5t14 13 q-115 0 -209 -4q-55 -78 -117.5 -163.5t-136 -187t-114.5 -157.5q-68 -94 -226 -317q-127 -176 -241 -268q-16 -12 -54 -31.5t-53 -19.5q-24 -1 -10 32zM33 59l184 252q-119 -8 -154 -88q-10 -23 -15 -77t-15 -87zM451 393l2 -2q106 94 205.5 176t136.5 115q23 20 63.5 57 t63 58.5t58.5 54.5t56 53l47 47q27 27 42.5 46.5t29.5 41t21.5 39t9.5 31.5q2 37 -33 37q-45 0 -131 -86q-106 -100 -266 -291q-176 -207 -305 -377zM813 579.5q25 55.5 115 55.5q35 0 44 -20.5t-16 -53.5q-27 -33 -71.5 -57.5t-69.5 -24.5q-27 45 -2 100.5z" />
<glyph unicode="&#xfb02;" horiz-adv-x="851" d="M-549 -729q12 72 96 224.5t195 301.5q49 68 332 432l-2 2l-27 -26q-16 -16 -22 -21q-29 -25 -35 -18q-6 8 12 24q96 86 123 109q160 207 252 313q207 242 381 392q197 162 321 161q90 0 64 -86q-16 -55 -123 -176t-266 -244q-199 -154 -371 -262q-172 -213 -301 -391 q33 8 92 33q66 31 129 72q12 8 109 82q96 76 221 194q39 49 205 223q104 111 247 228q51 41 111 41q63 0 68 -23q-193 -178 -306 -311q-123 -137 -233.5 -283.5t-118.5 -191.5q-6 -25 10 -31q14 -6 33 2q43 16 107 65q47 37 102 89q18 14 25 8q4 -6 -23 -33 q-53 -53 -119 -100q-129 -92 -225 -93q-94 0 -94 70q0 66 133 244l-2 2q-14 -14 -129 -115q-72 -61 -137 -102q-66 -39 -160 -80q-41 -18 -51 -33q-14 -20 -29 -65q-61 -217 -156 -390q-49 -88 -119.5 -170.5t-136.5 -132.5q-63 -49 -120 -39q-78 15 -62 105zM-420 -743 q-12 -35 4 -43q16 -6 49 18q100 76 226 295q104 184 182 422q-119 -150 -260 -361q-174 -261 -201 -331zM401 430q41 27 149.5 110t172.5 140q254 236 356 414q14 23 10 40t-26 15q-47 -2 -131 -88q-68 -63 -258 -291q-35 -43 -144 -179t-129 -161z" />
<glyph unicode="&#xfb03;" horiz-adv-x="1208" d="M-1812 -653q0 68 35.5 134t88.5 111q10 8 23.5 15.5t15.5 5.5t-2 -6t-13 -12.5t-17 -16.5q-80 -94 -80 -231q0 -150 118.5 -249t354.5 -91q158 6 301 62.5t280.5 173t252 243.5t266.5 324q61 76 204 266q12 45 16.5 100t12.5 78q16 41 50 59.5t116 24.5q207 268 387 444 q113 109 243 169.5t228 60.5q117 0 150 -37q223 141 471 147q145 4 226 -54t81 -144q0 -96 -84 -148q-25 -16 -29 -12q0 2 19 20q45 49 45 129q0 84 -63.5 139.5t-194.5 51.5q-199 -6 -402 -207q16 -47 6 -90q-6 -35 -14 -35v2v3q0 3 1 6t1 10v12q0 39 -14 72q-8 -6 -47 -46 q-76 -72 -379 -444q-6 -6 -19.5 -23.5t-21.5 -25.5q27 2 80 3t82 1q88 0 180 6q31 2 36 -7t-12 -26q-74 -82 -114 -133q-45 -55 -68 -100q-18 -37 -6 -45q10 -8 43 8q39 20 90 61q4 4 96 84q23 18 29 13q4 -6 -16 -27q-59 -59 -121 -106q-119 -90 -217 -90q-90 0 -90 59 q0 33 28 78q43 70 109 137q14 16 36 38l27 27q-117 0 -211 -4q-102 -127 -145 -182q-57 -154 -82 -217t-81 -181t-122 -227q-51 -84 -123.5 -170t-136.5 -133q-61 -47 -129 -32q-70 14 -61 92q8 72 93 223.5t200 308.5q125 170 217 289q27 35 182 229q-35 0 -108.5 -1 t-100.5 -3q-27 -35 -73 -95t-58 -77q-31 -39 -120 -158.5t-134 -179.5q-289 -379 -618.5 -592t-669.5 -221q-264 -8 -394 94.5t-130 264.5zM43 115l147 196q-98 -6 -122 -65q-8 -20 -12.5 -61t-12.5 -70zM43 -737q-18 -43 0 -49q16 -8 51 18q78 59 223.5 294.5t288.5 565.5 q-205 -262 -366 -504q-162 -245 -197 -325zM403 334q27 2 101 3t108 1l56 68q291 362 469 505q16 14 57 45q-35 35 -98 35q-70 0 -129.5 -36.5t-151.5 -125.5q-113 -108 -412 -495zM1179.5 583.5q24.5 55.5 114.5 55.5q35 0 44.5 -20.5t-15.5 -53.5q-27 -33 -72 -57.5 t-69 -24.5q-27 45 -2.5 100.5z" />
<glyph unicode="&#xfb04;" horiz-adv-x="1296" d="M-1776 -659q0 145 125 251q8 8 17.5 13.5t14.5 7.5t7 0q2 -4 -8 -10q-14 -12 -25 -25q-80 -94 -79 -231q0 -150 118.5 -249t354.5 -91q293 8 551 213q-33 51 -25 127q8 -63 49 -111q195 147 524 574q29 35 90.5 116.5t98.5 128.5q-37 98 -27 150q23 129 232 123 q254 330 444 493q221 190 467 191q80 0 113 -25q143 104 317 159.5t326 59.5q213 6 318.5 -73.5t105.5 -217.5q0 -111 -113 -196q-27 -23 -33 -17l25 29q66 72 65 184q0 121 -90 200t-278 73q-143 -6 -315.5 -97.5t-323.5 -242.5q-203 -203 -381 -451q-10 -14 -49 -67 q141 8 200 18q41 49 57.5 69.5t59.5 73t66 78.5q197 238 438 385q72 43 156 70t137 25q102 -4 108 -78q6 -70 -73.5 -171.5t-239.5 -215.5q-102 -74 -260 -144.5t-268 -95.5q-37 -45 -90.5 -126t-71.5 -122q-23 -45 -2 -55q14 -8 35 0q43 16 106 65q47 37 102 89 q18 14 24.5 8t-21.5 -33q-53 -53 -119 -100q-125 -92 -226 -93q-94 0 -94 70q2 72 101 203q29 39 59 76q-80 -14 -199 -19q-256 -358 -366 -508q-188 -256 -355 -409q-293 -272 -608 -273q-100 0 -151 47q-281 -166 -596 -176q-264 -8 -394.5 91.5t-130.5 261.5zM-627 -819 q39 -45 129 -45h2q104 0 209 58t236 202q53 57 122.5 146t104.5 136.5t125 173t92 130.5q135 190 236 325q-172 -4 -217 -4q-27 -35 -68 -89t-55 -73q-41 -53 -125 -168.5t-127 -171.5q-184 -231 -327.5 -363t-336.5 -257zM29 201q-10 -47 18 -131q18 25 78.5 104.5 t97.5 128.5q-174 0 -194 -102zM430 326q51 0 215 4q10 12 30.5 38.5t29.5 37.5q254 334 495 530q14 10 39 31q-33 25 -86 24q-133 0 -301 -162q-111 -108 -422 -503zM1237 369q246 57 483 229q291 209 291 377q0 49 -55 55q-74 8 -160 -55q-119 -86 -244 -225 q-178 -201 -315 -381z" />
</font>
</defs>
</svg>
